<svg width="172" height="49" viewBox="0 0 172 49" fill="none" xmlns="http://www.w3.org/2000/svg">
<path d="M166.988 48.2865C167.146 48.5128 167.458 48.568 167.684 48.4097L171.371 45.8308C171.598 45.6725 171.653 45.3608 171.495 45.1345C171.336 44.9082 171.025 44.853 170.798 45.0113L167.52 47.3037L165.228 44.0258C165.07 43.7995 164.758 43.7443 164.532 43.9026C164.305 44.0608 164.25 44.3726 164.409 44.5989L166.988 48.2865ZM1.08315 8.05383C30.8758 3.02943 74.9201 -0.974602 110.247 3.32318C127.919 5.47303 143.343 9.69315 153.715 16.8485C158.894 20.4212 162.799 24.7157 165.107 29.8375C167.413 34.9563 168.139 40.9372 166.905 47.9129L167.89 48.0871C169.154 40.9412 168.418 34.7528 166.018 29.4267C163.62 24.1036 159.577 19.6773 154.283 16.0254C143.71 8.73151 128.091 4.48667 110.368 2.3305C74.9053 -1.98378 30.754 2.03585 0.916851 7.06775L1.08315 8.05383Z" fill="#3B3B3B"/>
</svg>
