<svg width="136" height="25" viewBox="0 0 102 16" fill="none" xmlns="http://www.w3.org/2000/svg">
<path d="M14 8C14 10.7614 11.7614 13 9 13C6.23858 13 4 10.7614 4 8C4 5.23858 6.23858 3 9 3C11.7614 3 14 5.23858 14 8Z" stroke="#F04D64" stroke-width="4" stroke-linecap="round" stroke-linejoin="round"/>
<path d="M74 8C74 10.7614 71.7614 13 69 13C66.2386 13 64 10.7614 64 8C64 5.23858 66.2386 3 69 3C71.7614 3 74 5.23858 74 8Z" stroke="#F99836" stroke-width="4" stroke-linecap="round" stroke-linejoin="round"/>
<path d="M54 8C54 10.7614 51.7614 13 49 13C46.2386 13 44 10.7614 44 8C44 5.23858 46.2386 3 49 3C51.7614 3 54 5.23858 54 8Z" stroke="#D0FF6C" stroke-width="4" stroke-linecap="round" stroke-linejoin="round"/>
<path d="M34 8C34 10.7614 31.7614 13 29 13C26.2386 13 24 10.7614 24 8C24 5.23858 26.2386 3 29 3C31.7614 3 34 5.23858 34 8Z" stroke="#F04D64" stroke-width="4" stroke-linecap="round" stroke-linejoin="round"/>
</svg>
