<svg width="173" height="111" viewBox="0 0 173 111" fill="none" xmlns="http://www.w3.org/2000/svg">
<g filter="url(#filter0_d_140_303)">
<path d="M28.8633 48.481C-1.26868 -12.3352 106.586 -25.5713 164.28 -24.5873C203.301 -25.9608 184.569 28.1064 166.203 37.239C142.748 48.902 103.237 39.6694 78.0681 32.8023C117.745 85.2004 66.5283 124.501 28.8633 48.481Z" fill="#F04D64" stroke="black" stroke-width="2"/>
<path d="M83.957 41.8566C82.196 38.4792 76.4514 29.4973 67.5613 20.5889" stroke="black" stroke-width="2" stroke-linecap="round"/>
<path d="M45.4359 27.4433C41.2732 29.3479 34.8232 33.6 43.8307 40.0957C55.09 48.2154 59.4468 25.1469 45.4359 27.4433Z" fill="#EBEBEB" stroke="black" stroke-width="2" stroke-linecap="round"/>
<path d="M45.3746 51.7449C41.2118 53.6495 38.4025 58.9096 47.41 65.4053C58.6693 73.5249 55.2441 55.9713 45.3746 51.7449Z" fill="#EBEBEB"/>
<path d="M45.3746 51.7449L44.9585 50.8355C45.215 50.7182 45.509 50.7146 45.7682 50.8256L45.3746 51.7449ZM47.41 65.4053L46.8251 66.2164L47.41 65.4053ZM45.7906 52.6542C43.9044 53.5172 42.5283 55.0436 42.4526 56.8943C42.3765 58.7559 43.591 61.4184 47.9949 64.5942L46.8251 66.2164C42.2215 62.8965 40.3369 59.681 40.4543 56.8125C40.5721 53.9331 42.682 51.8771 44.9585 50.8355L45.7906 52.6542ZM47.9949 64.5942C49.3525 65.5732 50.4284 66.1198 51.2468 66.3649C52.0676 66.6107 52.5294 66.5264 52.7725 66.4014C52.999 66.2849 53.2179 66.039 53.3458 65.5244C53.4766 64.9981 53.4867 64.2693 53.3306 63.3772C53.0194 61.5986 52.0884 59.4012 50.6303 57.3914C49.1745 55.3849 47.2424 53.6326 44.9809 52.6641L45.7682 50.8256C48.4415 51.9704 50.6387 53.9972 52.2491 56.2169C53.8571 58.4334 54.9292 60.9094 55.3007 63.0325C55.4859 64.0913 55.5071 65.1205 55.2867 66.0069C55.0635 66.905 54.5688 67.7266 53.6873 68.18C52.8224 68.6248 51.7816 68.6128 50.6732 68.2809C49.5624 67.9483 48.2823 67.2673 46.8251 66.2164L47.9949 64.5942Z" fill="black"/>
<path d="M35.0271 23.8225C30.2443 26.5027 23.3744 33.5193 34.1571 40.1431" stroke="black" stroke-width="3" stroke-linecap="round"/>
<path d="M35.8313 63.0831C32.8425 61.2877 28.7696 56.5035 36.3885 51.7298" stroke="black" stroke-width="3" stroke-linecap="round"/>
<circle cx="2.06569" cy="2.06569" r="2.06569" transform="matrix(0.303602 0.952799 0.952799 -0.303602 80.4275 68.3262)" fill="black"/>
<circle cx="2.06569" cy="2.06569" r="2.06569" transform="matrix(0.303602 0.952799 0.952799 -0.303602 45.7605 36.8794)" fill="black"/>
<circle cx="2.06569" cy="2.06569" r="2.06569" transform="matrix(0.303602 0.952799 0.952799 -0.303602 46.9883 62.5044)" fill="black"/>
<circle cx="2.06569" cy="2.06569" r="2.06569" transform="matrix(0.303602 0.952799 0.952799 -0.303602 79.5015 79.0278)" fill="black"/>
<path d="M140.222 42.3357L136.919 -23.8208C148.563 -24.9292 173.245 -26.0299 178.831 -21.5657C184.416 -17.1014 186.363 -11.5357 186.638 -9.31085C187.708 -4.59298 187.572 8.86294 178.474 24.9436C169.376 41.0243 149.182 43.2386 140.222 42.3357Z" fill="black" stroke="black"/>
<path d="M173.644 -14.7097C190.364 -14.4006 226.369 -16.0739 236.63 -25.2404L242.776 -5.95215" stroke="black" stroke-width="2" stroke-linecap="round" stroke-linejoin="round"/>
<path d="M27.995 -17.2975L40.1711 0.502975L52.8195 -7.4298L36.6084 -46.0584L74.0764 -14.9662L95.1688 -19.588L72.3467 -41.4027L74.0764 -14.9662L36.6084 -46.0584L52.8195 -7.4298L27.995 -17.2975Z" fill="black"/>
<path d="M40.1711 0.502975L40.7024 1.35015L39.8883 1.86075L39.3457 1.06756L40.1711 0.502975ZM27.995 -17.2975L27.1696 -16.7329L25.32 -19.4369L28.3644 -18.2268L27.995 -17.2975ZM52.8195 -7.4298L53.7416 -7.81678L54.0702 -7.0338L53.3509 -6.58263L52.8195 -7.4298ZM36.6084 -46.0584L35.6863 -45.6714C35.5081 -46.0961 35.643 -46.5876 36.013 -46.8618C36.3831 -47.1361 36.8926 -47.1221 37.247 -46.8279L36.6084 -46.0584ZM74.0764 -14.9662L74.2905 -13.9893L73.8136 -13.8848L73.4379 -14.1966L74.0764 -14.9662ZM72.3467 -41.4027L71.3488 -41.3374L71.1812 -43.9002L73.0377 -42.1256L72.3467 -41.4027ZM95.1688 -19.588L95.8598 -20.3109L97.2174 -19.0132L95.3829 -18.6112L95.1688 -19.588ZM39.3457 1.06756L27.1696 -16.7329L28.8204 -17.8621L40.9964 -0.0616093L39.3457 1.06756ZM28.3644 -18.2268L53.1889 -8.35908L52.4502 -6.50053L27.6256 -16.3682L28.3644 -18.2268ZM51.8974 -7.04283L35.6863 -45.6714L37.5305 -46.4454L53.7416 -7.81678L51.8974 -7.04283ZM37.247 -46.8279L74.715 -15.7357L73.4379 -14.1966L35.9698 -45.2888L37.247 -46.8279ZM73.0786 -14.9009L71.3488 -41.3374L73.3446 -41.468L75.0743 -15.0315L73.0786 -14.9009ZM73.0377 -42.1256L95.8598 -20.3109L94.4779 -18.8651L71.6557 -40.6798L73.0377 -42.1256ZM95.3829 -18.6112L74.2905 -13.9893L73.8624 -15.943L94.9548 -20.5648L95.3829 -18.6112ZM53.3509 -6.58263L40.7024 1.35015L39.6397 -0.344196L52.2882 -8.27698L53.3509 -6.58263Z" fill="black"/>
</g>
<defs>
<filter id="filter0_d_140_303" x="7.65137" y="-58.0583" width="251.125" height="168.953" filterUnits="userSpaceOnUse" color-interpolation-filters="sRGB">
<feFlood flood-opacity="0" result="BackgroundImageFix"/>
<feColorMatrix in="SourceAlpha" type="matrix" values="0 0 0 0 0 0 0 0 0 0 0 0 0 0 0 0 0 0 127 0" result="hardAlpha"/>
<feOffset dy="4"/>
<feGaussianBlur stdDeviation="7.5"/>
<feComposite in2="hardAlpha" operator="out"/>
<feColorMatrix type="matrix" values="0 0 0 0 0 0 0 0 0 0 0 0 0 0 0 0 0 0 0.25 0"/>
<feBlend mode="normal" in2="BackgroundImageFix" result="effect1_dropShadow_140_303"/>
<feBlend mode="normal" in="SourceGraphic" in2="effect1_dropShadow_140_303" result="shape"/>
</filter>
</defs>
</svg>
