<svg width="46" height="46" viewBox="0 0 46 46" fill="none" xmlns="http://www.w3.org/2000/svg">
<path d="M29.8618 23.0001C29.8618 26.7951 26.7951 29.8618 23.0001 29.8618C19.2051 29.8618 16.1384 26.7951 16.1384 23.0001C16.1384 19.2051 19.2051 16.1384 23.0001 16.1384C26.7951 16.1384 29.8618 19.2051 29.8618 23.0001Z" stroke="#6E96E0" stroke-width="3" stroke-linecap="round" stroke-linejoin="round"/>
<path d="M22.9999 38.8507C29.7658 38.8507 36.0716 34.864 40.4608 27.964C42.1858 25.2615 42.1858 20.719 40.4608 18.0165C36.0716 11.1165 29.7658 7.12988 22.9999 7.12988C16.2341 7.12988 9.92828 11.1165 5.53911 18.0165C3.81411 20.719 3.81411 25.2615 5.53911 27.964C9.92828 34.864 16.2341 38.8507 22.9999 38.8507Z" stroke="#6E96E0" stroke-width="3" stroke-linecap="round" stroke-linejoin="round"/>
</svg>
