<svg width="440" height="455" viewBox="0 0 440 455" fill="none" xmlns="http://www.w3.org/2000/svg">
<g clip-path="url(#clip0_140_287)">
<rect width="440" height="455" rx="8" fill="#E0E0E0"/>
<g filter="url(#filter0_d_140_287)">
<path d="M423.971 43.5742C434.605 37.4226 415.593 24.563 404.749 17.8966C393.906 11.2301 371.626 14.9552 392.358 37.2485C413.091 59.5418 414.144 53.0247 412.08 46.9794C417.444 51.5242 422.858 54.9599 425.465 53.4244C430.138 50.6727 426.416 45.711 423.971 43.5742Z" fill="#D0FF6C"/>
<path d="M423.971 43.5742C434.605 37.4226 415.593 24.563 404.749 17.8966C393.906 11.2301 371.626 14.9552 392.358 37.2485C413.091 59.5418 414.144 53.0247 412.08 46.9794M423.971 43.5742L407.263 28.7489M423.971 43.5742C426.416 45.711 430.138 50.6727 425.465 53.4244C422.858 54.9599 417.444 51.5242 412.08 46.9794M412.08 46.9794C407.831 43.3797 403.613 39.0841 400.846 36.012L412.08 46.9794Z" stroke="black" stroke-width="2" stroke-linecap="round" stroke-linejoin="round"/>
<path d="M416.686 136.401L342.987 81.3235C307.849 104.107 279.685 13.1617 312.195 12.5987C351.483 11.9183 398.309 15.8672 439.275 -30.4796C480.241 -76.8265 504.374 65.9805 436.737 43.4803C382.628 25.4802 379.605 53.3443 384.857 69.5264L416.686 136.401Z" fill="#D0FF6C" stroke="black" stroke-width="2"/>
<path d="M384.511 70.143C373.697 52.4113 352.734 70.4387 343.604 81.669L416.686 136.4C410.467 121.703 395.326 87.8748 384.511 70.143Z" fill="#FFDA3D" stroke="black" stroke-width="2"/>
<path d="M325.024 72.8783C325.607 76.1771 328.361 80.6652 334.71 72.2269C342.647 61.6792 322.447 63.7341 325.024 72.8783Z" fill="#F0F0F0" stroke="black" stroke-width="2"/>
<path d="M311.577 56.3333C312.16 59.6321 318.651 68.4224 323.844 57.6272C328.757 47.4116 309 47.1891 311.577 56.3333Z" fill="#F0F0F0" stroke="black" stroke-width="2"/>
<path d="M415.046 134.265C404.859 115.318 381.052 77.0398 367.322 75.506" stroke="black" stroke-width="2"/>
<circle cx="332.379" cy="71.3258" r="2" transform="rotate(-105.736 332.379 71.3258)" fill="black"/>
<circle cx="320.339" cy="58.0951" r="2" transform="rotate(-105.736 320.339 58.0951)" fill="black"/>
<path d="M450.445 39.8618C462.148 33.0923 441.225 18.941 429.293 11.6048C417.36 4.26874 392.842 8.36802 415.657 32.9007C438.472 57.4335 439.632 50.2616 437.359 43.6091C443.263 48.6104 449.221 52.3912 452.09 50.7015C457.231 47.6733 453.136 42.2133 450.445 39.8618Z" fill="#D0FF6C"/>
<path d="M450.445 39.8618C462.148 33.0923 441.225 18.941 429.293 11.6048C417.36 4.26874 392.842 8.36802 415.657 32.9007C438.472 57.4335 439.632 50.2616 437.359 43.6091M450.445 39.8618L432.059 23.5473M450.445 39.8618C453.136 42.2133 457.231 47.6733 452.09 50.7015C449.221 52.3912 443.263 48.6104 437.359 43.6091M437.359 43.6091C432.683 39.6478 428.042 34.9207 424.998 31.5401L437.359 43.6091Z" stroke="black" stroke-width="2" stroke-linecap="round" stroke-linejoin="round"/>
<path d="M308.111 69.8522C295.92 76.0095 278.495 80.5545 294.035 63.3294C285.057 61.4093 273.68 56.454 289.696 50.4476C266.445 40.7044 284.246 36.4781 296.864 35.6192L298.827 47.6869L301.068 56.1267L308.111 69.8522Z" fill="#D0FF6C"/>
<path d="M301.068 56.1267C298.208 58.8908 295.886 61.2782 294.035 63.3294M301.068 56.1267L294.035 63.3294M301.068 56.1267L308.111 69.8522C295.92 76.0095 278.495 80.5545 294.035 63.3294M301.068 56.1267L298.827 47.6869M294.035 63.3294C285.057 61.4093 273.68 56.454 289.696 50.4476M298.827 47.6869L296.864 35.6192C284.246 36.4781 266.445 40.7044 289.696 50.4476M298.827 47.6869C295.104 48.6262 292.093 49.5487 289.696 50.4476" stroke="black" stroke-width="2" stroke-linecap="round" stroke-linejoin="round"/>
<path d="M469.91 36.731C465.713 42.4848 458.067 45.0896 454.768 45.6727L451.561 39.823L454.733 36.3319L452.699 29.113L442.226 19.5967L429.482 11.2397L424.085 -15.2909L441.179 -32.055C451.666 -44.9836 463.728 -38.0622 468.448 -32.9854C483.234 -0.788689 478.036 12.1043 478.578 14.0293C479.121 15.9544 475.156 29.5387 469.91 36.731Z" fill="black" stroke="black"/>
</g>
<g filter="url(#filter1_d_140_287)">
<g clip-path="url(#clip1_140_287)">
<path d="M3 191H383C387.418 191 391 194.582 391 199V447C391 451.418 387.418 455 383 455H3V191Z" fill="#F0F0F0"/>
<g clip-path="url(#clip2_140_287)">
<rect width="392" height="30" transform="translate(2 190)" fill="white"/>
<g opacity="0.65" clip-path="url(#clip3_140_287)">
<path d="M293.581 199.194L294.681 201.394C294.831 201.7 295.231 201.994 295.569 202.05L297.563 202.381C298.838 202.594 299.138 203.519 298.219 204.431L296.669 205.981C296.406 206.244 296.263 206.75 296.344 207.112L296.788 209.031C297.138 210.55 296.331 211.137 294.988 210.344L293.119 209.237C292.781 209.037 292.225 209.037 291.881 209.237L290.013 210.344C288.675 211.137 287.863 210.544 288.213 209.031L288.656 207.112C288.738 206.75 288.594 206.244 288.331 205.981L286.781 204.431C285.869 203.519 286.163 202.594 287.438 202.381L289.431 202.05C289.763 201.994 290.163 201.7 290.313 201.394L291.413 199.194C292.013 198 292.988 198 293.581 199.194Z" stroke="black" stroke-width="1.5" stroke-linecap="round" stroke-linejoin="round"/>
</g>
<g opacity="0.65" clip-path="url(#clip4_140_287)">
<path d="M316.125 203.875L321.25 198.75M321.75 201.25V198.25H318.75M314.875 198.25H313.625C310.5 198.25 309.25 199.5 309.25 202.625V206.375C309.25 209.5 310.5 210.75 313.625 210.75H317.375C320.5 210.75 321.75 209.5 321.75 206.375V205.125" stroke="black" stroke-width="1.5" stroke-linecap="round" stroke-linejoin="round"/>
</g>
<g opacity="0.65">
<path d="M344.125 202.625V198.875M344.125 198.875H340.375M344.125 198.875L339.438 203.562M332.875 206.375V210.125M332.875 210.125H336.625M332.875 210.125L337.562 205.438" stroke="black" stroke-width="1.5" stroke-linecap="round" stroke-linejoin="round"/>
</g>
<g opacity="0.65" clip-path="url(#clip5_140_287)">
<path d="M361.5 206.375C361.997 206.375 362.474 206.177 362.826 205.826C363.177 205.474 363.375 204.997 363.375 204.5C363.375 204.003 363.177 203.526 362.826 203.174C362.474 202.823 361.997 202.625 361.5 202.625C361.003 202.625 360.526 202.823 360.174 203.174C359.823 203.526 359.625 204.003 359.625 204.5C359.625 204.997 359.823 205.474 360.174 205.826C360.526 206.177 361.003 206.375 361.5 206.375Z" stroke="black" stroke-width="1.5" stroke-miterlimit="10" stroke-linecap="round" stroke-linejoin="round"/>
<path d="M355.25 205.05V203.95C355.25 203.3 355.781 202.762 356.438 202.762C357.569 202.762 358.031 201.962 357.463 200.981C357.138 200.419 357.331 199.687 357.9 199.362L358.981 198.744C359.475 198.45 360.113 198.625 360.406 199.119L360.475 199.237C361.037 200.219 361.962 200.219 362.531 199.237L362.6 199.119C362.894 198.625 363.531 198.45 364.025 198.744L365.106 199.362C365.675 199.687 365.869 200.419 365.544 200.981C364.975 201.962 365.438 202.762 366.569 202.762C367.219 202.762 367.756 203.294 367.756 203.95V205.05C367.756 205.7 367.225 206.237 366.569 206.237C365.438 206.237 364.975 207.037 365.544 208.019C365.869 208.587 365.675 209.312 365.106 209.637L364.025 210.256C363.531 210.55 362.894 210.375 362.6 209.881L362.531 209.762C361.969 208.781 361.044 208.781 360.475 209.762L360.406 209.881C360.113 210.375 359.475 210.55 358.981 210.256L357.9 209.637C357.628 209.481 357.428 209.222 357.346 208.919C357.264 208.615 357.306 208.291 357.463 208.019C358.031 207.037 357.569 206.237 356.438 206.237C355.781 206.237 355.25 205.7 355.25 205.05Z" stroke="black" stroke-width="1.5" stroke-miterlimit="10" stroke-linecap="round" stroke-linejoin="round"/>
</g>
</g>
<g clip-path="url(#clip6_140_287)">
<rect width="697" height="434" transform="translate(-303 220)" fill="white"/>
<line x1="-265" y1="354.5" x2="271" y2="354.5" stroke="#949494"/>
<path d="M38.5177 372.16C38.1244 372.327 37.741 372.453 37.3677 372.54C37.001 372.62 36.6444 372.66 36.2977 372.66C35.4444 372.66 34.781 372.453 34.3077 372.04C33.841 371.627 33.6077 371.037 33.6077 370.27V368H34.5877V370.16C34.5877 370.68 34.7477 371.08 35.0677 371.36C35.3877 371.64 35.8344 371.78 36.4077 371.78C36.7477 371.78 37.0944 371.737 37.4477 371.65C37.8077 371.563 38.1577 371.437 38.4977 371.27L38.5177 372.16ZM38.3477 375V368H39.3377V375H38.3477ZM44.611 375V373.88L44.561 373.67V371.76C44.561 371.353 44.441 371.04 44.201 370.82C43.9677 370.593 43.6143 370.48 43.141 370.48C42.8277 370.48 42.521 370.533 42.221 370.64C41.921 370.74 41.6677 370.877 41.461 371.05L41.061 370.33C41.3343 370.11 41.661 369.943 42.041 369.83C42.4277 369.71 42.831 369.65 43.251 369.65C43.9777 369.65 44.5377 369.827 44.931 370.18C45.3243 370.533 45.521 371.073 45.521 371.8V375H44.611ZM42.871 375.06C42.4777 375.06 42.131 374.993 41.831 374.86C41.5377 374.727 41.311 374.543 41.151 374.31C40.991 374.07 40.911 373.8 40.911 373.5C40.911 373.213 40.9777 372.953 41.111 372.72C41.251 372.487 41.4743 372.3 41.781 372.16C42.0943 372.02 42.5143 371.95 43.041 371.95H44.721V372.64H43.081C42.601 372.64 42.2777 372.72 42.111 372.88C41.9443 373.04 41.861 373.233 41.861 373.46C41.861 373.72 41.9643 373.93 42.171 374.09C42.3777 374.243 42.6643 374.32 43.031 374.32C43.391 374.32 43.7043 374.24 43.971 374.08C44.2443 373.92 44.441 373.687 44.561 373.38L44.751 374.04C44.6243 374.353 44.401 374.603 44.081 374.79C43.761 374.97 43.3577 375.06 42.871 375.06ZM49.5597 375.06C49.0197 375.06 48.5363 374.943 48.1097 374.71C47.6897 374.477 47.3597 374.157 47.1197 373.75C46.8797 373.343 46.7597 372.877 46.7597 372.35C46.7597 371.823 46.8797 371.357 47.1197 370.95C47.3597 370.543 47.6897 370.227 48.1097 370C48.5363 369.767 49.0197 369.65 49.5597 369.65C50.0397 369.65 50.4663 369.747 50.8397 369.94C51.2197 370.127 51.513 370.407 51.7197 370.78L50.9897 371.25C50.8163 370.99 50.603 370.8 50.3497 370.68C50.103 370.553 49.8363 370.49 49.5497 370.49C49.203 370.49 48.893 370.567 48.6197 370.72C48.3463 370.873 48.1297 371.09 47.9697 371.37C47.8097 371.643 47.7297 371.97 47.7297 372.35C47.7297 372.73 47.8097 373.06 47.9697 373.34C48.1297 373.62 48.3463 373.837 48.6197 373.99C48.893 374.143 49.203 374.22 49.5497 374.22C49.8363 374.22 50.103 374.16 50.3497 374.04C50.603 373.913 50.8163 373.72 50.9897 373.46L51.7197 373.92C51.513 374.287 51.2197 374.57 50.8397 374.77C50.4663 374.963 50.0397 375.06 49.5597 375.06ZM58.2026 375V369.7H59.1626V375H58.2026ZM55.3526 371.5C56.0259 371.507 56.5359 371.66 56.8826 371.96C57.2359 372.26 57.4126 372.683 57.4126 373.23C57.4126 373.803 57.2192 374.247 56.8326 374.56C56.4526 374.867 55.9059 375.017 55.1926 375.01L52.9626 375V369.7H53.9226V371.49L55.3526 371.5ZM55.1226 374.28C55.5492 374.287 55.8759 374.2 56.1026 374.02C56.3292 373.84 56.4426 373.573 56.4426 373.22C56.4426 372.873 56.3292 372.62 56.1026 372.46C55.8826 372.3 55.5559 372.217 55.1226 372.21L53.9226 372.19V374.27L55.1226 374.28Z" fill="black"/>
<rect opacity="0.35" x="90.6667" y="355" width="1" height="32" fill="black"/>
<path d="M120.04 375.08C119.94 375.08 119.84 375.073 119.74 375.06C119.64 375.047 119.53 375.027 119.41 375L119.48 374.11C119.587 374.137 119.694 374.15 119.8 374.15C120.094 374.15 120.327 374.033 120.5 373.8C120.674 373.567 120.8 373.213 120.88 372.74C120.967 372.267 121.024 371.67 121.05 370.95L121.16 368H126.09V375H125.11V368.61L125.35 368.87H121.8L122.02 368.6L121.94 370.92C121.92 371.613 121.874 372.22 121.8 372.74C121.727 373.26 121.617 373.693 121.47 374.04C121.324 374.387 121.134 374.647 120.9 374.82C120.674 374.993 120.387 375.08 120.04 375.08ZM130.381 375.06C129.847 375.06 129.374 374.943 128.961 374.71C128.547 374.477 128.221 374.157 127.981 373.75C127.741 373.337 127.621 372.87 127.621 372.35C127.621 371.823 127.741 371.357 127.981 370.95C128.221 370.543 128.547 370.227 128.961 370C129.374 369.767 129.847 369.65 130.381 369.65C130.907 369.65 131.377 369.767 131.791 370C132.211 370.227 132.537 370.543 132.771 370.95C133.011 371.35 133.131 371.817 133.131 372.35C133.131 372.877 133.011 373.343 132.771 373.75C132.537 374.157 132.211 374.477 131.791 374.71C131.377 374.943 130.907 375.06 130.381 375.06ZM130.381 374.22C130.721 374.22 131.024 374.143 131.291 373.99C131.564 373.837 131.777 373.62 131.931 373.34C132.084 373.053 132.161 372.723 132.161 372.35C132.161 371.97 132.084 371.643 131.931 371.37C131.777 371.09 131.564 370.873 131.291 370.72C131.024 370.567 130.721 370.49 130.381 370.49C130.041 370.49 129.737 370.567 129.471 370.72C129.204 370.873 128.991 371.09 128.831 371.37C128.671 371.643 128.591 371.97 128.591 372.35C128.591 372.723 128.671 373.053 128.831 373.34C128.991 373.62 129.204 373.837 129.471 373.99C129.737 374.143 130.041 374.22 130.381 374.22ZM134.517 375V369.7H138.417V370.54H135.247L135.477 370.32V375H134.517ZM139.4 375V369.7H140.36V373.56L143.61 369.7H144.48V375H143.52V371.14L140.28 375H139.4ZM146.343 375V369.7H147.303V371.95H150.323V369.7H151.283V375H150.323V372.78H147.303V375H146.343Z" fill="black"/>
<rect opacity="0.35" x="179.833" y="355" width="1" height="32" fill="black"/>
<path d="M206.251 375V368H212.281V375H211.301V368.61L211.541 368.87H206.991L207.241 368.61V375H206.251ZM217.554 375V373.88L217.504 373.67V371.76C217.504 371.353 217.384 371.04 217.144 370.82C216.91 370.593 216.557 370.48 216.084 370.48C215.77 370.48 215.464 370.533 215.164 370.64C214.864 370.74 214.61 370.877 214.404 371.05L214.004 370.33C214.277 370.11 214.604 369.943 214.984 369.83C215.37 369.71 215.774 369.65 216.194 369.65C216.92 369.65 217.48 369.827 217.874 370.18C218.267 370.533 218.464 371.073 218.464 371.8V375H217.554ZM215.814 375.06C215.42 375.06 215.074 374.993 214.774 374.86C214.48 374.727 214.254 374.543 214.094 374.31C213.934 374.07 213.854 373.8 213.854 373.5C213.854 373.213 213.92 372.953 214.054 372.72C214.194 372.487 214.417 372.3 214.724 372.16C215.037 372.02 215.457 371.95 215.984 371.95H217.664V372.64H216.024C215.544 372.64 215.22 372.72 215.054 372.88C214.887 373.04 214.804 373.233 214.804 373.46C214.804 373.72 214.907 373.93 215.114 374.09C215.32 374.243 215.607 374.32 215.974 374.32C216.334 374.32 216.647 374.24 216.914 374.08C217.187 373.92 217.384 373.687 217.504 373.38L217.694 374.04C217.567 374.353 217.344 374.603 217.024 374.79C216.704 374.97 216.3 375.06 215.814 375.06ZM223.002 375.06C222.562 375.06 222.159 374.96 221.792 374.76C221.432 374.553 221.142 374.25 220.922 373.85C220.709 373.45 220.602 372.95 220.602 372.35C220.602 371.75 220.706 371.25 220.912 370.85C221.126 370.45 221.412 370.15 221.772 369.95C222.139 369.75 222.549 369.65 223.002 369.65C223.522 369.65 223.982 369.763 224.382 369.99C224.782 370.217 225.099 370.533 225.332 370.94C225.566 371.34 225.682 371.81 225.682 372.35C225.682 372.89 225.566 373.363 225.332 373.77C225.099 374.177 224.782 374.493 224.382 374.72C223.982 374.947 223.522 375.06 223.002 375.06ZM220.192 376.94V369.7H221.112V371.13L221.052 372.36L221.152 373.59V376.94H220.192ZM222.922 374.22C223.262 374.22 223.566 374.143 223.832 373.99C224.106 373.837 224.319 373.62 224.472 373.34C224.632 373.053 224.712 372.723 224.712 372.35C224.712 371.97 224.632 371.643 224.472 371.37C224.319 371.09 224.106 370.873 223.832 370.72C223.566 370.567 223.262 370.49 222.922 370.49C222.589 370.49 222.286 370.567 222.012 370.72C221.746 370.873 221.532 371.09 221.372 371.37C221.219 371.643 221.142 371.97 221.142 372.35C221.142 372.723 221.219 373.053 221.372 373.34C221.532 373.62 221.746 373.837 222.012 373.99C222.286 374.143 222.589 374.22 222.922 374.22ZM229.347 375.06C228.814 375.06 228.34 374.943 227.927 374.71C227.514 374.477 227.187 374.157 226.947 373.75C226.707 373.337 226.587 372.87 226.587 372.35C226.587 371.823 226.707 371.357 226.947 370.95C227.187 370.543 227.514 370.227 227.927 370C228.34 369.767 228.814 369.65 229.347 369.65C229.874 369.65 230.344 369.767 230.757 370C231.177 370.227 231.504 370.543 231.737 370.95C231.977 371.35 232.097 371.817 232.097 372.35C232.097 372.877 231.977 373.343 231.737 373.75C231.504 374.157 231.177 374.477 230.757 374.71C230.344 374.943 229.874 375.06 229.347 375.06ZM229.347 374.22C229.687 374.22 229.99 374.143 230.257 373.99C230.53 373.837 230.744 373.62 230.897 373.34C231.05 373.053 231.127 372.723 231.127 372.35C231.127 371.97 231.05 371.643 230.897 371.37C230.744 371.09 230.53 370.873 230.257 370.72C229.99 370.567 229.687 370.49 229.347 370.49C229.007 370.49 228.704 370.567 228.437 370.72C228.17 370.873 227.957 371.09 227.797 371.37C227.637 371.643 227.557 371.97 227.557 372.35C227.557 372.723 227.637 373.053 227.797 373.34C227.957 373.62 228.17 373.837 228.437 373.99C228.704 374.143 229.007 374.22 229.347 374.22ZM232.564 374.99L232.624 374.18C232.671 374.187 232.714 374.193 232.754 374.2C232.794 374.207 232.831 374.21 232.864 374.21C233.078 374.21 233.244 374.137 233.364 373.99C233.491 373.843 233.584 373.65 233.644 373.41C233.704 373.163 233.748 372.887 233.774 372.58C233.801 372.273 233.821 371.967 233.834 371.66L233.924 369.7H237.994V375H237.034V370.26L237.264 370.54H234.544L234.764 370.25L234.694 371.72C234.674 372.187 234.638 372.623 234.584 373.03C234.531 373.437 234.448 373.793 234.334 374.1C234.228 374.407 234.078 374.647 233.884 374.82C233.698 374.993 233.454 375.08 233.154 375.08C233.068 375.08 232.974 375.07 232.874 375.05C232.781 375.037 232.678 375.017 232.564 374.99ZM242.3 371.5C242.974 371.507 243.487 371.66 243.84 371.96C244.194 372.26 244.37 372.683 244.37 373.23C244.37 373.803 244.177 374.247 243.79 374.56C243.404 374.867 242.857 375.017 242.15 375.01L239.85 375V369.7H240.81V371.49L242.3 371.5ZM242.07 374.28C242.504 374.287 242.83 374.2 243.05 374.02C243.277 373.84 243.39 373.573 243.39 373.22C243.39 372.873 243.28 372.62 243.06 372.46C242.84 372.3 242.51 372.217 242.07 372.21L240.81 372.19V374.27L242.07 374.28Z" fill="black"/>
<rect x="-264.75" y="355.25" width="533.5" height="31.5" stroke="black" stroke-opacity="0.5" stroke-width="0.5"/>
<rect x="-265" y="387" width="534" height="20" fill="#F2F2F2"/>
<path d="M41.895 399.28V398.58L45.475 394H46.555L43.005 398.58L42.495 398.42H48.085V399.28H41.895ZM45.785 401V399.28L45.815 398.42V396.9H46.755V401H45.785ZM49.6105 401V394.4L50.0405 394.87H48.0305V394H50.6005V401H49.6105Z" fill="black"/>
<rect opacity="0.35" x="90.6667" y="387" width="1" height="20" fill="black"/>
<path d="M121.018 401.06C120.505 401.06 120.045 400.947 119.638 400.72C119.238 400.493 118.921 400.177 118.688 399.77C118.455 399.363 118.338 398.89 118.338 398.35C118.338 397.81 118.455 397.34 118.688 396.94C118.921 396.533 119.238 396.217 119.638 395.99C120.045 395.763 120.505 395.65 121.018 395.65C121.478 395.65 121.888 395.75 122.248 395.95C122.608 396.15 122.891 396.45 123.098 396.85C123.311 397.25 123.418 397.75 123.418 398.35C123.418 398.95 123.308 399.45 123.088 399.85C122.875 400.25 122.588 400.553 122.228 400.76C121.868 400.96 121.465 401.06 121.018 401.06ZM121.098 400.22C121.431 400.22 121.731 400.143 121.998 399.99C122.271 399.837 122.485 399.62 122.638 399.34C122.798 399.053 122.878 398.723 122.878 398.35C122.878 397.97 122.798 397.643 122.638 397.37C122.485 397.09 122.271 396.873 121.998 396.72C121.731 396.567 121.431 396.49 121.098 396.49C120.758 396.49 120.455 396.567 120.188 396.72C119.921 396.873 119.708 397.09 119.548 397.37C119.388 397.643 119.308 397.97 119.308 398.35C119.308 398.723 119.388 399.053 119.548 399.34C119.708 399.62 119.921 399.837 120.188 399.99C120.455 400.143 120.758 400.22 121.098 400.22ZM122.868 402.94V399.59L122.968 398.36L122.908 397.13V395.7H123.828V402.94H122.868ZM126.764 401L124.794 395.7H125.704L127.454 400.5H127.024L128.844 395.7H129.654L131.434 400.5H131.014L132.804 395.7H133.664L131.684 401H130.764L129.094 396.62H129.374L127.684 401H126.764ZM136.852 401.06C136.285 401.06 135.785 400.943 135.352 400.71C134.925 400.477 134.592 400.157 134.352 399.75C134.119 399.343 134.002 398.877 134.002 398.35C134.002 397.823 134.115 397.357 134.342 396.95C134.575 396.543 134.892 396.227 135.292 396C135.699 395.767 136.155 395.65 136.662 395.65C137.175 395.65 137.629 395.763 138.022 395.99C138.415 396.217 138.722 396.537 138.942 396.95C139.169 397.357 139.282 397.833 139.282 398.38C139.282 398.42 139.279 398.467 139.272 398.52C139.272 398.573 139.269 398.623 139.262 398.67H134.752V397.98H138.762L138.372 398.22C138.379 397.88 138.309 397.577 138.162 397.31C138.015 397.043 137.812 396.837 137.552 396.69C137.299 396.537 137.002 396.46 136.662 396.46C136.329 396.46 136.032 396.537 135.772 396.69C135.512 396.837 135.309 397.047 135.162 397.32C135.015 397.587 134.942 397.893 134.942 398.24V398.4C134.942 398.753 135.022 399.07 135.182 399.35C135.349 399.623 135.579 399.837 135.872 399.99C136.165 400.143 136.502 400.22 136.882 400.22C137.195 400.22 137.479 400.167 137.732 400.06C137.992 399.953 138.219 399.793 138.412 399.58L138.942 400.2C138.702 400.48 138.402 400.693 138.042 400.84C137.689 400.987 137.292 401.06 136.852 401.06ZM140.615 401V395.7H141.535V397.14L141.445 396.78C141.592 396.413 141.838 396.133 142.185 395.94C142.532 395.747 142.958 395.65 143.465 395.65V396.58C143.425 396.573 143.385 396.57 143.345 396.57C143.312 396.57 143.278 396.57 143.245 396.57C142.732 396.57 142.325 396.723 142.025 397.03C141.725 397.337 141.575 397.78 141.575 398.36V401H140.615ZM146.683 401.06C146.15 401.06 145.737 400.917 145.443 400.63C145.15 400.343 145.003 399.933 145.003 399.4V394.54H145.963V399.36C145.963 399.647 146.033 399.867 146.173 400.02C146.32 400.173 146.527 400.25 146.793 400.25C147.093 400.25 147.343 400.167 147.543 400L147.843 400.69C147.697 400.817 147.52 400.91 147.313 400.97C147.113 401.03 146.903 401.06 146.683 401.06ZM144.103 396.49V395.7H147.483V396.49H144.103ZM149.136 403C148.883 403 148.636 402.957 148.396 402.87C148.156 402.79 147.95 402.67 147.776 402.51L148.186 401.79C148.32 401.917 148.466 402.013 148.626 402.08C148.786 402.147 148.956 402.18 149.136 402.18C149.37 402.18 149.563 402.12 149.716 402C149.87 401.88 150.013 401.667 150.146 401.36L150.476 400.63L150.576 400.51L152.656 395.7H153.596L151.026 401.53C150.873 401.903 150.7 402.197 150.506 402.41C150.32 402.623 150.113 402.773 149.886 402.86C149.66 402.953 149.41 403 149.136 403ZM150.396 401.17L147.976 395.7H148.976L151.036 400.42L150.396 401.17Z" fill="black"/>
<rect opacity="0.35" x="179.833" y="387" width="1" height="20" fill="black"/>
<path d="M218.994 401V394.4L219.424 394.87H217.414V394H219.984V401H218.994ZM221.405 401V400.32L224.255 397.57C224.508 397.33 224.695 397.12 224.815 396.94C224.941 396.753 225.025 396.583 225.065 396.43C225.111 396.27 225.135 396.117 225.135 395.97C225.135 395.61 225.008 395.327 224.755 395.12C224.501 394.913 224.131 394.81 223.645 394.81C223.271 394.81 222.935 394.873 222.635 395C222.335 395.12 222.075 395.31 221.855 395.57L221.175 394.98C221.441 394.64 221.798 394.38 222.245 394.2C222.698 394.013 223.195 393.92 223.735 393.92C224.221 393.92 224.645 394 225.005 394.16C225.365 394.313 225.641 394.537 225.835 394.83C226.035 395.123 226.135 395.47 226.135 395.87C226.135 396.097 226.105 396.32 226.045 396.54C225.985 396.76 225.871 396.993 225.705 397.24C225.538 397.487 225.298 397.763 224.985 398.07L222.445 400.52L222.205 400.13H226.435V401H221.405ZM229.397 401.08C228.904 401.08 228.424 401.003 227.957 400.85C227.497 400.697 227.12 400.49 226.827 400.23L227.287 399.44C227.52 399.66 227.824 399.84 228.197 399.98C228.57 400.12 228.97 400.19 229.397 400.19C229.917 400.19 230.32 400.08 230.607 399.86C230.9 399.633 231.047 399.33 231.047 398.95C231.047 398.583 230.907 398.29 230.627 398.07C230.354 397.843 229.917 397.73 229.317 397.73H228.757V397.03L230.837 394.47L230.977 394.87H227.147V394H231.767V394.68L229.697 397.23L229.177 396.92H229.507C230.354 396.92 230.987 397.11 231.407 397.49C231.834 397.87 232.047 398.353 232.047 398.94C232.047 399.333 231.95 399.693 231.757 400.02C231.564 400.347 231.27 400.607 230.877 400.8C230.49 400.987 229.997 401.08 229.397 401.08Z" fill="black"/>
<rect x="-264.75" y="387.25" width="533.5" height="19.5" stroke="black" stroke-opacity="0.5" stroke-width="0.5"/>
<rect x="-265" y="407" width="534" height="20" fill="white"/>
<path d="M41.2209 421V420.32L44.0709 417.57C44.3242 417.33 44.5109 417.12 44.6309 416.94C44.7576 416.753 44.8409 416.583 44.8809 416.43C44.9276 416.27 44.9509 416.117 44.9509 415.97C44.9509 415.61 44.8242 415.327 44.5709 415.12C44.3176 414.913 43.9476 414.81 43.4609 414.81C43.0876 414.81 42.7509 414.873 42.4509 415C42.1509 415.12 41.8909 415.31 41.6709 415.57L40.9909 414.98C41.2576 414.64 41.6142 414.38 42.0609 414.2C42.5142 414.013 43.0109 413.92 43.5509 413.92C44.0376 413.92 44.4609 414 44.8209 414.16C45.1809 414.313 45.4576 414.537 45.6509 414.83C45.8509 415.123 45.9509 415.47 45.9509 415.87C45.9509 416.097 45.9209 416.32 45.8609 416.54C45.8009 416.76 45.6876 416.993 45.5209 417.24C45.3542 417.487 45.1142 417.763 44.8009 418.07L42.2609 420.52L42.0209 420.13H46.2509V421H41.2209ZM49.2131 421.08C48.7198 421.08 48.2398 421.003 47.7731 420.85C47.3131 420.697 46.9364 420.49 46.6431 420.23L47.1031 419.44C47.3364 419.66 47.6398 419.84 48.0131 419.98C48.3864 420.12 48.7864 420.19 49.2131 420.19C49.7331 420.19 50.1364 420.08 50.4231 419.86C50.7164 419.633 50.8631 419.33 50.8631 418.95C50.8631 418.583 50.7231 418.29 50.4431 418.07C50.1698 417.843 49.7331 417.73 49.1331 417.73H48.5731V417.03L50.6531 414.47L50.7931 414.87H46.9631V414H51.5831V414.68L49.5131 417.23L48.9931 416.92H49.3231C50.1698 416.92 50.8031 417.11 51.2231 417.49C51.6498 417.87 51.8631 418.353 51.8631 418.94C51.8631 419.333 51.7664 419.693 51.5731 420.02C51.3798 420.347 51.0864 420.607 50.6931 420.8C50.3064 420.987 49.8131 421.08 49.2131 421.08Z" fill="black"/>
<rect opacity="0.35" x="90.6667" y="407" width="1" height="20" fill="black"/>
<path d="M117.063 421.06C116.55 421.06 116.09 420.947 115.683 420.72C115.283 420.493 114.966 420.177 114.733 419.77C114.5 419.363 114.383 418.89 114.383 418.35C114.383 417.81 114.5 417.34 114.733 416.94C114.966 416.533 115.283 416.217 115.683 415.99C116.09 415.763 116.55 415.65 117.063 415.65C117.523 415.65 117.933 415.75 118.293 415.95C118.653 416.15 118.936 416.45 119.143 416.85C119.356 417.25 119.463 417.75 119.463 418.35C119.463 418.95 119.353 419.45 119.133 419.85C118.92 420.25 118.633 420.553 118.273 420.76C117.913 420.96 117.51 421.06 117.063 421.06ZM117.143 420.22C117.476 420.22 117.776 420.143 118.043 419.99C118.316 419.837 118.53 419.62 118.683 419.34C118.843 419.053 118.923 418.723 118.923 418.35C118.923 417.97 118.843 417.643 118.683 417.37C118.53 417.09 118.316 416.873 118.043 416.72C117.776 416.567 117.476 416.49 117.143 416.49C116.803 416.49 116.5 416.567 116.233 416.72C115.966 416.873 115.753 417.09 115.593 417.37C115.433 417.643 115.353 417.97 115.353 418.35C115.353 418.723 115.433 419.053 115.593 419.34C115.753 419.62 115.966 419.837 116.233 419.99C116.5 420.143 116.803 420.22 117.143 420.22ZM118.913 422.94V419.59L119.013 418.36L118.953 417.13V415.7H119.873V422.94H118.913ZM122.809 421L120.839 415.7H121.749L123.499 420.5H123.069L124.889 415.7H125.699L127.479 420.5H127.059L128.849 415.7H129.709L127.729 421H126.809L125.139 416.62H125.419L123.729 421H122.809ZM132.897 421.06C132.33 421.06 131.83 420.943 131.397 420.71C130.97 420.477 130.637 420.157 130.397 419.75C130.164 419.343 130.047 418.877 130.047 418.35C130.047 417.823 130.16 417.357 130.387 416.95C130.62 416.543 130.937 416.227 131.337 416C131.744 415.767 132.2 415.65 132.707 415.65C133.22 415.65 133.674 415.763 134.067 415.99C134.46 416.217 134.767 416.537 134.987 416.95C135.214 417.357 135.327 417.833 135.327 418.38C135.327 418.42 135.324 418.467 135.317 418.52C135.317 418.573 135.314 418.623 135.307 418.67H130.797V417.98H134.807L134.417 418.22C134.424 417.88 134.354 417.577 134.207 417.31C134.06 417.043 133.857 416.837 133.597 416.69C133.344 416.537 133.047 416.46 132.707 416.46C132.374 416.46 132.077 416.537 131.817 416.69C131.557 416.837 131.354 417.047 131.207 417.32C131.06 417.587 130.987 417.893 130.987 418.24V418.4C130.987 418.753 131.067 419.07 131.227 419.35C131.394 419.623 131.624 419.837 131.917 419.99C132.21 420.143 132.547 420.22 132.927 420.22C133.24 420.22 133.524 420.167 133.777 420.06C134.037 419.953 134.264 419.793 134.457 419.58L134.987 420.2C134.747 420.48 134.447 420.693 134.087 420.84C133.734 420.987 133.337 421.06 132.897 421.06ZM138.85 421.06C138.337 421.06 137.877 420.947 137.47 420.72C137.07 420.493 136.753 420.177 136.52 419.77C136.287 419.363 136.17 418.89 136.17 418.35C136.17 417.81 136.287 417.34 136.52 416.94C136.753 416.533 137.07 416.217 137.47 415.99C137.877 415.763 138.337 415.65 138.85 415.65C139.31 415.65 139.72 415.75 140.08 415.95C140.44 416.15 140.723 416.45 140.93 416.85C141.143 417.25 141.25 417.75 141.25 418.35C141.25 418.95 141.14 419.45 140.92 419.85C140.707 420.25 140.42 420.553 140.06 420.76C139.7 420.96 139.297 421.06 138.85 421.06ZM138.93 420.22C139.263 420.22 139.563 420.143 139.83 419.99C140.103 419.837 140.317 419.62 140.47 419.34C140.63 419.053 140.71 418.723 140.71 418.35C140.71 417.97 140.63 417.643 140.47 417.37C140.317 417.09 140.103 416.873 139.83 416.72C139.563 416.567 139.263 416.49 138.93 416.49C138.59 416.49 138.287 416.567 138.02 416.72C137.753 416.873 137.54 417.09 137.38 417.37C137.22 417.643 137.14 417.97 137.14 418.35C137.14 418.723 137.22 419.053 137.38 419.34C137.54 419.62 137.753 419.837 138.02 419.99C138.287 420.143 138.59 420.22 138.93 420.22ZM140.7 422.94V419.59L140.8 418.36L140.74 417.13V415.7H141.66V422.94H140.7ZM144.596 421L142.626 415.7H143.536L145.286 420.5H144.856L146.676 415.7H147.486L149.266 420.5H148.846L150.636 415.7H151.496L149.516 421H148.596L146.926 416.62H147.206L145.516 421H144.596ZM154.684 421.06C154.117 421.06 153.617 420.943 153.184 420.71C152.757 420.477 152.424 420.157 152.184 419.75C151.951 419.343 151.834 418.877 151.834 418.35C151.834 417.823 151.947 417.357 152.174 416.95C152.407 416.543 152.724 416.227 153.124 416C153.531 415.767 153.987 415.65 154.494 415.65C155.007 415.65 155.461 415.763 155.854 415.99C156.247 416.217 156.554 416.537 156.774 416.95C157.001 417.357 157.114 417.833 157.114 418.38C157.114 418.42 157.111 418.467 157.104 418.52C157.104 418.573 157.101 418.623 157.094 418.67H152.584V417.98H156.594L156.204 418.22C156.211 417.88 156.141 417.577 155.994 417.31C155.847 417.043 155.644 416.837 155.384 416.69C155.131 416.537 154.834 416.46 154.494 416.46C154.161 416.46 153.864 416.537 153.604 416.69C153.344 416.837 153.141 417.047 152.994 417.32C152.847 417.587 152.774 417.893 152.774 418.24V418.4C152.774 418.753 152.854 419.07 153.014 419.35C153.181 419.623 153.411 419.837 153.704 419.99C153.997 420.143 154.334 420.22 154.714 420.22C155.027 420.22 155.311 420.167 155.564 420.06C155.824 419.953 156.051 419.793 156.244 419.58L156.774 420.2C156.534 420.48 156.234 420.693 155.874 420.84C155.521 420.987 155.124 421.06 154.684 421.06Z" fill="black"/>
<rect opacity="0.35" x="179.833" y="407" width="1" height="20" fill="black"/>
<path d="M218.127 421.08C217.634 421.08 217.154 421.003 216.687 420.85C216.227 420.697 215.851 420.49 215.557 420.23L216.017 419.44C216.251 419.66 216.554 419.84 216.927 419.98C217.301 420.12 217.701 420.19 218.127 420.19C218.647 420.19 219.051 420.08 219.337 419.86C219.631 419.633 219.777 419.33 219.777 418.95C219.777 418.583 219.637 418.29 219.357 418.07C219.084 417.843 218.647 417.73 218.047 417.73H217.487V417.03L219.567 414.47L219.707 414.87H215.877V414H220.497V414.68L218.427 417.23L217.907 416.92H218.237C219.084 416.92 219.717 417.11 220.137 417.49C220.564 417.87 220.777 418.353 220.777 418.94C220.777 419.333 220.681 419.693 220.487 420.02C220.294 420.347 220.001 420.607 219.607 420.8C219.221 420.987 218.727 421.08 218.127 421.08ZM221.551 421V420.32L224.401 417.57C224.655 417.33 224.841 417.12 224.961 416.94C225.088 416.753 225.171 416.583 225.211 416.43C225.258 416.27 225.281 416.117 225.281 415.97C225.281 415.61 225.155 415.327 224.901 415.12C224.648 414.913 224.278 414.81 223.791 414.81C223.418 414.81 223.081 414.873 222.781 415C222.481 415.12 222.221 415.31 222.001 415.57L221.321 414.98C221.588 414.64 221.945 414.38 222.391 414.2C222.845 414.013 223.341 413.92 223.881 413.92C224.368 413.92 224.791 414 225.151 414.16C225.511 414.313 225.788 414.537 225.981 414.83C226.181 415.123 226.281 415.47 226.281 415.87C226.281 416.097 226.251 416.32 226.191 416.54C226.131 416.76 226.018 416.993 225.851 417.24C225.685 417.487 225.445 417.763 225.131 418.07L222.591 420.52L222.351 420.13H226.581V421H221.551ZM228.583 421V414.4L229.013 414.87H227.003V414H229.573V421H228.583ZM232.285 421V414.4L232.715 414.87H230.705V414H233.275V421H232.285Z" fill="black"/>
<rect x="-264.75" y="407.25" width="533.5" height="19.5" stroke="black" stroke-opacity="0.5" stroke-width="0.5"/>
<rect x="-265" y="427" width="534" height="20" fill="#F2F2F2"/>
<path d="M43.5217 441V434.4L43.9517 434.87H41.9417V434H44.5117V441H43.5217ZM45.9328 441V440.32L48.7828 437.57C49.0362 437.33 49.2228 437.12 49.3428 436.94C49.4695 436.753 49.5528 436.583 49.5928 436.43C49.6395 436.27 49.6628 436.117 49.6628 435.97C49.6628 435.61 49.5362 435.327 49.2828 435.12C49.0295 434.913 48.6595 434.81 48.1728 434.81C47.7995 434.81 47.4628 434.873 47.1628 435C46.8628 435.12 46.6028 435.31 46.3828 435.57L45.7028 434.98C45.9695 434.64 46.3262 434.38 46.7728 434.2C47.2262 434.013 47.7228 433.92 48.2628 433.92C48.7495 433.92 49.1728 434 49.5328 434.16C49.8928 434.313 50.1695 434.537 50.3628 434.83C50.5628 435.123 50.6628 435.47 50.6628 435.87C50.6628 436.097 50.6328 436.32 50.5728 436.54C50.5128 436.76 50.3995 436.993 50.2328 437.24C50.0662 437.487 49.8262 437.763 49.5128 438.07L46.9728 440.52L46.7328 440.13H50.9628V441H45.9328Z" fill="black"/>
<rect opacity="0.35" x="90.6667" y="427" width="1" height="20" fill="black"/>
<path d="M131.116 441L129.066 438.42L129.856 437.94L132.246 441H131.116ZM127.276 441V435.7H128.236V441H127.276ZM127.946 438.76V437.94H129.696V438.76H127.946ZM129.936 438.46L129.046 438.34L131.076 435.7H132.106L129.936 438.46ZM136.062 441.06C135.622 441.06 135.219 440.96 134.852 440.76C134.492 440.553 134.202 440.25 133.982 439.85C133.769 439.45 133.662 438.95 133.662 438.35C133.662 437.75 133.766 437.25 133.972 436.85C134.186 436.45 134.472 436.15 134.832 435.95C135.199 435.75 135.609 435.65 136.062 435.65C136.582 435.65 137.042 435.763 137.442 435.99C137.842 436.217 138.159 436.533 138.392 436.94C138.626 437.34 138.742 437.81 138.742 438.35C138.742 438.89 138.626 439.363 138.392 439.77C138.159 440.177 137.842 440.493 137.442 440.72C137.042 440.947 136.582 441.06 136.062 441.06ZM133.252 442.94V435.7H134.172V437.13L134.112 438.36L134.212 439.59V442.94H133.252ZM135.982 440.22C136.322 440.22 136.626 440.143 136.892 439.99C137.166 439.837 137.379 439.62 137.532 439.34C137.692 439.053 137.772 438.723 137.772 438.35C137.772 437.97 137.692 437.643 137.532 437.37C137.379 437.09 137.166 436.873 136.892 436.72C136.626 436.567 136.322 436.49 135.982 436.49C135.649 436.49 135.346 436.567 135.072 436.72C134.806 436.873 134.592 437.09 134.432 437.37C134.279 437.643 134.202 437.97 134.202 438.35C134.202 438.723 134.279 439.053 134.432 439.34C134.592 439.62 134.806 439.837 135.072 439.99C135.346 440.143 135.649 440.22 135.982 440.22ZM143.351 441V439.14L143.501 439.32H141.811C141.105 439.32 140.551 439.17 140.151 438.87C139.758 438.57 139.561 438.133 139.561 437.56C139.561 436.947 139.771 436.483 140.191 436.17C140.618 435.857 141.185 435.7 141.891 435.7H144.211V441H143.351ZM139.511 441L140.951 438.97H141.941L140.541 441H139.511ZM143.351 438.84V436.27L143.501 436.54H141.921C141.481 436.54 141.141 436.623 140.901 436.79C140.661 436.95 140.541 437.217 140.541 437.59C140.541 438.283 140.988 438.63 141.881 438.63H143.501L143.351 438.84Z" fill="black"/>
<rect opacity="0.35" x="179.833" y="427" width="1" height="20" fill="black"/>
<path d="M201.005 441V434.4L201.435 434.87H199.425V434H201.995V441H201.005ZM203.416 441V440.32L206.266 437.57C206.52 437.33 206.706 437.12 206.826 436.94C206.953 436.753 207.036 436.583 207.076 436.43C207.123 436.27 207.146 436.117 207.146 435.97C207.146 435.61 207.02 435.327 206.766 435.12C206.513 434.913 206.143 434.81 205.656 434.81C205.283 434.81 204.946 434.873 204.646 435C204.346 435.12 204.086 435.31 203.866 435.57L203.186 434.98C203.453 434.64 203.81 434.38 204.256 434.2C204.71 434.013 205.206 433.92 205.746 433.92C206.233 433.92 206.656 434 207.016 434.16C207.376 434.313 207.653 434.537 207.846 434.83C208.046 435.123 208.146 435.47 208.146 435.87C208.146 436.097 208.116 436.32 208.056 436.54C207.996 436.76 207.883 436.993 207.716 437.24C207.55 437.487 207.31 437.763 206.996 438.07L204.456 440.52L204.216 440.13H208.446V441H203.416ZM211.409 441.08C210.915 441.08 210.435 441.003 209.969 440.85C209.509 440.697 209.132 440.49 208.839 440.23L209.299 439.44C209.532 439.66 209.835 439.84 210.209 439.98C210.582 440.12 210.982 440.19 211.409 440.19C211.929 440.19 212.332 440.08 212.619 439.86C212.912 439.633 213.059 439.33 213.059 438.95C213.059 438.583 212.919 438.29 212.639 438.07C212.365 437.843 211.929 437.73 211.329 437.73H210.769V437.03L212.849 434.47L212.989 434.87H209.159V434H213.779V434.68L211.709 437.23L211.189 436.92H211.519C212.365 436.92 212.999 437.11 213.419 437.49C213.845 437.87 214.059 438.353 214.059 438.94C214.059 439.333 213.962 439.693 213.769 440.02C213.575 440.347 213.282 440.607 212.889 440.8C212.502 440.987 212.009 441.08 211.409 441.08ZM214.832 441V440.32L217.682 437.57C217.936 437.33 218.122 437.12 218.242 436.94C218.369 436.753 218.452 436.583 218.492 436.43C218.539 436.27 218.562 436.117 218.562 435.97C218.562 435.61 218.436 435.327 218.182 435.12C217.929 434.913 217.559 434.81 217.072 434.81C216.699 434.81 216.362 434.873 216.062 435C215.762 435.12 215.502 435.31 215.282 435.57L214.602 434.98C214.869 434.64 215.226 434.38 215.672 434.2C216.126 434.013 216.622 433.92 217.162 433.92C217.649 433.92 218.072 434 218.432 434.16C218.792 434.313 219.069 434.537 219.262 434.83C219.462 435.123 219.562 435.47 219.562 435.87C219.562 436.097 219.532 436.32 219.472 436.54C219.412 436.76 219.299 436.993 219.132 437.24C218.966 437.487 218.726 437.763 218.412 438.07L215.872 440.52L215.632 440.13H219.862V441H214.832ZM221.865 441V434.4L222.295 434.87H220.285V434H222.855V441H221.865ZM226.526 441.08C226.033 441.08 225.553 441.003 225.086 440.85C224.626 440.697 224.249 440.49 223.956 440.23L224.416 439.44C224.649 439.66 224.953 439.84 225.326 439.98C225.699 440.12 226.099 440.19 226.526 440.19C227.046 440.19 227.449 440.08 227.736 439.86C228.029 439.633 228.176 439.33 228.176 438.95C228.176 438.583 228.036 438.29 227.756 438.07C227.483 437.843 227.046 437.73 226.446 437.73H225.886V437.03L227.966 434.47L228.106 434.87H224.276V434H228.896V434.68L226.826 437.23L226.306 436.92H226.636C227.483 436.92 228.116 437.11 228.536 437.49C228.963 437.87 229.176 438.353 229.176 438.94C229.176 439.333 229.079 439.693 228.886 440.02C228.693 440.347 228.399 440.607 228.006 440.8C227.619 440.987 227.126 441.08 226.526 441.08ZM229.95 441V440.32L232.8 437.57C233.053 437.33 233.24 437.12 233.36 436.94C233.486 436.753 233.57 436.583 233.61 436.43C233.656 436.27 233.68 436.117 233.68 435.97C233.68 435.61 233.553 435.327 233.3 435.12C233.046 434.913 232.676 434.81 232.19 434.81C231.816 434.81 231.48 434.873 231.18 435C230.88 435.12 230.62 435.31 230.4 435.57L229.72 434.98C229.986 434.64 230.343 434.38 230.79 434.2C231.243 434.013 231.74 433.92 232.28 433.92C232.766 433.92 233.19 434 233.55 434.16C233.91 434.313 234.186 434.537 234.38 434.83C234.58 435.123 234.68 435.47 234.68 435.87C234.68 436.097 234.65 436.32 234.59 436.54C234.53 436.76 234.416 436.993 234.25 437.24C234.083 437.487 233.843 437.763 233.53 438.07L230.99 440.52L230.75 440.13H234.98V441H229.95ZM237.942 441.08C237.449 441.08 236.969 441.003 236.502 440.85C236.042 440.697 235.665 440.49 235.372 440.23L235.832 439.44C236.065 439.66 236.369 439.84 236.742 439.98C237.115 440.12 237.515 440.19 237.942 440.19C238.462 440.19 238.865 440.08 239.152 439.86C239.445 439.633 239.592 439.33 239.592 438.95C239.592 438.583 239.452 438.29 239.172 438.07C238.899 437.843 238.462 437.73 237.862 437.73H237.302V437.03L239.382 434.47L239.522 434.87H235.692V434H240.312V434.68L238.242 437.23L237.722 436.92H238.052C238.899 436.92 239.532 437.11 239.952 437.49C240.379 437.87 240.592 438.353 240.592 438.94C240.592 439.333 240.495 439.693 240.302 440.02C240.109 440.347 239.815 440.607 239.422 440.8C239.035 440.987 238.542 441.08 237.942 441.08ZM242.705 441V434.4L243.135 434.87H241.125V434H243.695V441H242.705ZM245.116 441V440.32L247.966 437.57C248.219 437.33 248.406 437.12 248.526 436.94C248.652 436.753 248.736 436.583 248.776 436.43C248.822 436.27 248.846 436.117 248.846 435.97C248.846 435.61 248.719 435.327 248.466 435.12C248.212 434.913 247.842 434.81 247.356 434.81C246.982 434.81 246.646 434.873 246.346 435C246.046 435.12 245.786 435.31 245.566 435.57L244.886 434.98C245.152 434.64 245.509 434.38 245.956 434.2C246.409 434.013 246.906 433.92 247.446 433.92C247.932 433.92 248.356 434 248.716 434.16C249.076 434.313 249.352 434.537 249.546 434.83C249.746 435.123 249.846 435.47 249.846 435.87C249.846 436.097 249.816 436.32 249.756 436.54C249.696 436.76 249.582 436.993 249.416 437.24C249.249 437.487 249.009 437.763 248.696 438.07L246.156 440.52L245.916 440.13H250.146V441H245.116Z" fill="black"/>
<rect x="-264.75" y="427.25" width="533.5" height="19.5" stroke="black" stroke-opacity="0.5" stroke-width="0.5"/>
</g>
</g>
<path d="M3.5 191.5H383C387.142 191.5 390.5 194.858 390.5 199V447C390.5 451.142 387.142 454.5 383 454.5H3.5V191.5Z" stroke="#808080"/>
</g>
<path d="M363.988 185.287C364.146 185.513 364.458 185.568 364.684 185.41L368.371 182.831C368.598 182.673 368.653 182.361 368.495 182.134C368.336 181.908 368.025 181.853 367.798 182.011L364.52 184.304L362.228 181.026C362.07 180.799 361.758 180.744 361.532 180.903C361.305 181.061 361.25 181.373 361.409 181.599L363.988 185.287ZM198.083 145.054C227.876 140.029 271.92 136.025 307.247 140.323C324.919 142.473 340.343 146.693 350.715 153.849C355.894 157.421 359.799 161.716 362.107 166.837C364.413 171.956 365.139 177.937 363.905 184.913L364.89 185.087C366.154 177.941 365.418 171.753 363.018 166.427C360.62 161.104 356.577 156.677 351.283 153.025C340.71 145.732 325.091 141.487 307.368 139.33C271.905 135.016 227.754 139.036 197.917 144.068L198.083 145.054Z" fill="#3B3B3B"/>
<path d="M31.664 106.2H34.064V123H31.664V106.2ZM22.016 123H19.616V106.2H22.016V123ZM31.88 115.512H21.776V113.424H31.88V115.512ZM46.7195 123V120.312L46.5995 119.808V115.224C46.5995 114.248 46.3115 113.496 45.7355 112.968C45.1755 112.424 44.3275 112.152 43.1915 112.152C42.4395 112.152 41.7035 112.28 40.9835 112.536C40.2635 112.776 39.6555 113.104 39.1595 113.52L38.1995 111.792C38.8555 111.264 39.6395 110.864 40.5515 110.592C41.4795 110.304 42.4475 110.16 43.4555 110.16C45.1995 110.16 46.5435 110.584 47.4875 111.432C48.4315 112.28 48.9035 113.576 48.9035 115.32V123H46.7195ZM42.5435 123.144C41.5995 123.144 40.7675 122.984 40.0475 122.664C39.3435 122.344 38.7995 121.904 38.4155 121.344C38.0315 120.768 37.8395 120.12 37.8395 119.4C37.8395 118.712 37.9995 118.088 38.3195 117.528C38.6555 116.968 39.1915 116.52 39.9275 116.184C40.6795 115.848 41.6875 115.68 42.9515 115.68H46.9835V117.336H43.0475C41.8955 117.336 41.1195 117.528 40.7195 117.912C40.3195 118.296 40.1195 118.76 40.1195 119.304C40.1195 119.928 40.3675 120.432 40.8635 120.816C41.3595 121.184 42.0475 121.368 42.9275 121.368C43.7915 121.368 44.5435 121.176 45.1835 120.792C45.8395 120.408 46.3115 119.848 46.5995 119.112L47.0555 120.696C46.7515 121.448 46.2155 122.048 45.4475 122.496C44.6795 122.928 43.7115 123.144 42.5435 123.144ZM58.5963 123.144C57.3003 123.144 56.1403 122.864 55.1163 122.304C54.1083 121.744 53.3163 120.976 52.7403 120C52.1643 119.024 51.8763 117.904 51.8763 116.64C51.8763 115.376 52.1643 114.256 52.7403 113.28C53.3163 112.304 54.1083 111.544 55.1163 111C56.1403 110.44 57.3003 110.16 58.5963 110.16C59.7483 110.16 60.7723 110.392 61.6683 110.856C62.5803 111.304 63.2843 111.976 63.7803 112.872L62.0283 114C61.6123 113.376 61.1003 112.92 60.4923 112.632C59.9003 112.328 59.2603 112.176 58.5723 112.176C57.7403 112.176 56.9963 112.36 56.3403 112.728C55.6843 113.096 55.1643 113.616 54.7803 114.288C54.3963 114.944 54.2043 115.728 54.2043 116.64C54.2043 117.552 54.3963 118.344 54.7803 119.016C55.1643 119.688 55.6843 120.208 56.3403 120.576C56.9963 120.944 57.7403 121.128 58.5723 121.128C59.2603 121.128 59.9003 120.984 60.4923 120.696C61.1003 120.392 61.6123 119.928 62.0283 119.304L63.7803 120.408C63.2843 121.288 62.5803 121.968 61.6683 122.448C60.7723 122.912 59.7483 123.144 58.5963 123.144ZM69.1192 123V111.696L69.6952 112.296H64.4632V110.28H76.0792V112.296H70.8712L71.4232 111.696V123H69.1192ZM85.1791 123.144C84.1231 123.144 83.1551 122.904 82.2751 122.424C81.4111 121.928 80.7151 121.2 80.1871 120.24C79.6751 119.28 79.4191 118.08 79.4191 116.64C79.4191 115.2 79.6671 114 80.1631 113.04C80.6751 112.08 81.3631 111.36 82.2271 110.88C83.1071 110.4 84.0911 110.16 85.1791 110.16C86.4271 110.16 87.5311 110.432 88.4911 110.976C89.4511 111.52 90.2111 112.28 90.7711 113.256C91.3311 114.216 91.6111 115.344 91.6111 116.64C91.6111 117.936 91.3311 119.072 90.7711 120.048C90.2111 121.024 89.4511 121.784 88.4911 122.328C87.5311 122.872 86.4271 123.144 85.1791 123.144ZM78.4351 127.656V110.28H80.6431V113.712L80.4991 116.664L80.7391 119.616V127.656H78.4351ZM84.9871 121.128C85.8031 121.128 86.5311 120.944 87.1711 120.576C87.8271 120.208 88.3391 119.688 88.7071 119.016C89.0911 118.328 89.2831 117.536 89.2831 116.64C89.2831 115.728 89.0911 114.944 88.7071 114.288C88.3391 113.616 87.8271 113.096 87.1711 112.728C86.5311 112.36 85.8031 112.176 84.9871 112.176C84.1871 112.176 83.4591 112.36 82.8031 112.728C82.1631 113.096 81.6511 113.616 81.2671 114.288C80.8991 114.944 80.7151 115.728 80.7151 116.64C80.7151 117.536 80.8991 118.328 81.2671 119.016C81.6511 119.688 82.1631 120.208 82.8031 120.576C83.4591 120.944 84.1871 121.128 84.9871 121.128ZM100.407 123.144C99.1266 123.144 97.9906 122.864 96.9986 122.304C96.0066 121.744 95.2226 120.976 94.6466 120C94.0706 119.008 93.7826 117.888 93.7826 116.64C93.7826 115.376 94.0706 114.256 94.6466 113.28C95.2226 112.304 96.0066 111.544 96.9986 111C97.9906 110.44 99.1266 110.16 100.407 110.16C101.671 110.16 102.799 110.44 103.791 111C104.799 111.544 105.583 112.304 106.143 113.28C106.719 114.24 107.007 115.36 107.007 116.64C107.007 117.904 106.719 119.024 106.143 120C105.583 120.976 104.799 121.744 103.791 122.304C102.799 122.864 101.671 123.144 100.407 123.144ZM100.407 121.128C101.223 121.128 101.951 120.944 102.591 120.576C103.247 120.208 103.759 119.688 104.127 119.016C104.495 118.328 104.679 117.536 104.679 116.64C104.679 115.728 104.495 114.944 104.127 114.288C103.759 113.616 103.247 113.096 102.591 112.728C101.951 112.36 101.223 112.176 100.407 112.176C99.5906 112.176 98.8626 112.36 98.2226 112.728C97.5826 113.096 97.0706 113.616 96.6866 114.288C96.3026 114.944 96.1106 115.728 96.1106 116.64C96.1106 117.536 96.3026 118.328 96.6866 119.016C97.0706 119.688 97.5826 120.208 98.2226 120.576C98.8626 120.944 99.5906 121.128 100.407 121.128ZM110.334 123V110.28H112.638V119.544L120.438 110.28H122.526V123H120.222V113.736L112.446 123H110.334ZM116.286 108.624C115.118 108.624 114.198 108.344 113.526 107.784C112.87 107.208 112.534 106.384 112.518 105.312H114.078C114.094 105.92 114.294 106.4 114.678 106.752C115.078 107.104 115.606 107.28 116.262 107.28C116.918 107.28 117.446 107.104 117.846 106.752C118.246 106.4 118.454 105.92 118.47 105.312H120.078C120.062 106.384 119.718 107.208 119.046 107.784C118.374 108.344 117.454 108.624 116.286 108.624ZM129.518 123V111.696L130.094 112.296H124.862V110.28H136.478V112.296H131.27L131.822 111.696V123H129.518ZM143.935 123.144C142.575 123.144 141.375 122.864 140.335 122.304C139.311 121.744 138.511 120.976 137.935 120C137.375 119.024 137.095 117.904 137.095 116.64C137.095 115.376 137.367 114.256 137.911 113.28C138.471 112.304 139.231 111.544 140.191 111C141.167 110.44 142.263 110.16 143.479 110.16C144.711 110.16 145.799 110.432 146.743 110.976C147.687 111.52 148.423 112.288 148.951 113.28C149.495 114.256 149.767 115.4 149.767 116.712C149.767 116.808 149.759 116.92 149.743 117.048C149.743 117.176 149.735 117.296 149.719 117.408H138.895V115.752H148.519L147.583 116.328C147.599 115.512 147.431 114.784 147.079 114.144C146.727 113.504 146.239 113.008 145.615 112.656C145.007 112.288 144.295 112.104 143.479 112.104C142.679 112.104 141.967 112.288 141.343 112.656C140.719 113.008 140.231 113.512 139.879 114.168C139.527 114.808 139.351 115.544 139.351 116.376V116.76C139.351 117.608 139.543 118.368 139.927 119.04C140.327 119.696 140.879 120.208 141.583 120.576C142.287 120.944 143.095 121.128 144.007 121.128C144.759 121.128 145.439 121 146.047 120.744C146.671 120.488 147.215 120.104 147.679 119.592L148.951 121.08C148.375 121.752 147.655 122.264 146.791 122.616C145.943 122.968 144.991 123.144 143.935 123.144ZM19.232 152V139.28H21.536V148.544L29.336 139.28H31.424V152H29.12V142.736L21.344 152H19.232ZM35.8961 152V139.28H38.2001V144.68H45.4481V139.28H47.7521V152H45.4481V146.672H38.2001V152H35.8961ZM59.816 152.192C59.8 152.192 59.744 152.192 59.648 152.192C59.568 152.192 59.488 152.192 59.408 152.192C59.328 152.192 59.28 152.192 59.264 152.192C56.656 152.16 54.632 151.584 53.192 150.464C51.752 149.328 51.032 147.712 51.032 145.616C51.032 143.536 51.752 141.944 53.192 140.84C54.648 139.72 56.696 139.152 59.336 139.136C59.368 139.136 59.416 139.136 59.48 139.136C59.56 139.136 59.632 139.136 59.696 139.136C59.776 139.136 59.824 139.136 59.84 139.136C62.512 139.136 64.584 139.696 66.056 140.816C67.544 141.936 68.288 143.536 68.288 145.616C68.288 147.728 67.544 149.352 66.056 150.488C64.568 151.624 62.488 152.192 59.816 152.192ZM59.768 150.176C61.16 150.176 62.312 150 63.224 149.648C64.152 149.296 64.848 148.784 65.312 148.112C65.776 147.44 66.008 146.608 66.008 145.616C66.008 144.64 65.776 143.824 65.312 143.168C64.848 142.512 64.152 142.016 63.224 141.68C62.312 141.344 61.16 141.176 59.768 141.176C59.736 141.176 59.672 141.176 59.576 141.176C59.48 141.176 59.424 141.176 59.408 141.176C58.048 141.176 56.912 141.352 56 141.704C55.104 142.04 54.432 142.536 53.984 143.192C53.536 143.848 53.312 144.656 53.312 145.616C53.312 146.592 53.536 147.416 53.984 148.088C54.448 148.76 55.128 149.272 56.024 149.624C56.936 149.976 58.064 150.16 59.408 150.176C59.44 150.176 59.496 150.176 59.576 150.176C59.672 150.176 59.736 150.176 59.768 150.176ZM58.52 156.656V134.192H60.776V156.656H58.52ZM76.9925 152.144C75.7125 152.144 74.5765 151.864 73.5845 151.304C72.5925 150.744 71.8085 149.976 71.2325 149C70.6565 148.008 70.3685 146.888 70.3685 145.64C70.3685 144.376 70.6565 143.256 71.2325 142.28C71.8085 141.304 72.5925 140.544 73.5845 140C74.5765 139.44 75.7125 139.16 76.9925 139.16C78.2565 139.16 79.3845 139.44 80.3765 140C81.3845 140.544 82.1685 141.304 82.7285 142.28C83.3045 143.24 83.5925 144.36 83.5925 145.64C83.5925 146.904 83.3045 148.024 82.7285 149C82.1685 149.976 81.3845 150.744 80.3765 151.304C79.3845 151.864 78.2565 152.144 76.9925 152.144ZM76.9925 150.128C77.8085 150.128 78.5365 149.944 79.1765 149.576C79.8325 149.208 80.3445 148.688 80.7125 148.016C81.0805 147.328 81.2645 146.536 81.2645 145.64C81.2645 144.728 81.0805 143.944 80.7125 143.288C80.3445 142.616 79.8325 142.096 79.1765 141.728C78.5365 141.36 77.8085 141.176 76.9925 141.176C76.1765 141.176 75.4485 141.36 74.8085 141.728C74.1685 142.096 73.6565 142.616 73.2725 143.288C72.8885 143.944 72.6965 144.728 72.6965 145.64C72.6965 146.536 72.8885 147.328 73.2725 148.016C73.6565 148.688 74.1685 149.208 74.8085 149.576C75.4485 149.944 76.1765 150.128 76.9925 150.128ZM93.6635 152.144C92.6075 152.144 91.6395 151.904 90.7595 151.424C89.8955 150.928 89.1995 150.2 88.6715 149.24C88.1595 148.28 87.9035 147.08 87.9035 145.64C87.9035 144.2 88.1515 143 88.6475 142.04C89.1595 141.08 89.8475 140.36 90.7115 139.88C91.5915 139.4 92.5755 139.16 93.6635 139.16C94.9115 139.16 96.0155 139.432 96.9755 139.976C97.9355 140.52 98.6955 141.28 99.2555 142.256C99.8155 143.216 100.096 144.344 100.096 145.64C100.096 146.936 99.8155 148.072 99.2555 149.048C98.6955 150.024 97.9355 150.784 96.9755 151.328C96.0155 151.872 94.9115 152.144 93.6635 152.144ZM86.9195 156.656V139.28H89.1275V142.712L88.9835 145.664L89.2235 148.616V156.656H86.9195ZM93.4715 150.128C94.2875 150.128 95.0155 149.944 95.6555 149.576C96.3115 149.208 96.8235 148.688 97.1915 148.016C97.5755 147.328 97.7675 146.536 97.7675 145.64C97.7675 144.728 97.5755 143.944 97.1915 143.288C96.8235 142.616 96.3115 142.096 95.6555 141.728C95.0155 141.36 94.2875 141.176 93.4715 141.176C92.6715 141.176 91.9435 141.36 91.2875 141.728C90.6475 142.096 90.1355 142.616 89.7515 143.288C89.3835 143.944 89.1995 144.728 89.1995 145.64C89.1995 146.536 89.3835 147.328 89.7515 148.016C90.1355 148.688 90.6475 149.208 91.2875 149.576C91.9435 149.944 92.6715 150.128 93.4715 150.128ZM103.443 152V139.28H105.819L111.291 148.688H110.331L115.947 139.28H118.107V152H116.019V141.872L116.403 142.088L111.267 150.56H110.259L105.099 141.92L105.555 141.824V152H103.443ZM130.391 152V149.312L130.271 148.808V144.224C130.271 143.248 129.983 142.496 129.407 141.968C128.847 141.424 127.999 141.152 126.863 141.152C126.111 141.152 125.375 141.28 124.655 141.536C123.935 141.776 123.327 142.104 122.831 142.52L121.871 140.792C122.527 140.264 123.311 139.864 124.223 139.592C125.151 139.304 126.119 139.16 127.127 139.16C128.871 139.16 130.215 139.584 131.159 140.432C132.103 141.28 132.575 142.576 132.575 144.32V152H130.391ZM126.215 152.144C125.271 152.144 124.439 151.984 123.719 151.664C123.015 151.344 122.471 150.904 122.087 150.344C121.703 149.768 121.511 149.12 121.511 148.4C121.511 147.712 121.671 147.088 121.991 146.528C122.327 145.968 122.863 145.52 123.599 145.184C124.351 144.848 125.359 144.68 126.623 144.68H130.655V146.336H126.719C125.567 146.336 124.791 146.528 124.391 146.912C123.991 147.296 123.791 147.76 123.791 148.304C123.791 148.928 124.039 149.432 124.535 149.816C125.031 150.184 125.719 150.368 126.599 150.368C127.463 150.368 128.215 150.176 128.855 149.792C129.511 149.408 129.983 148.848 130.271 148.112L130.727 149.696C130.423 150.448 129.887 151.048 129.119 151.496C128.351 151.928 127.383 152.144 126.215 152.144ZM136.724 152V139.28H139.028V149.984H145.988V139.28H148.292V152H136.724ZM148.124 154.952V151.88L148.7 152H145.988V149.984H150.308V154.952H148.124ZM153.295 152V139.28H155.599V148.544L163.398 139.28H165.487V152H163.182V142.736L155.407 152H153.295ZM169.959 152V139.28H172.263V144.488H176.103V146.624H172.263V152H169.959ZM181.215 152.144C179.967 152.144 178.855 151.864 177.879 151.304C176.919 150.744 176.159 149.976 175.599 149C175.039 148.008 174.759 146.888 174.759 145.64C174.759 144.376 175.039 143.256 175.599 142.28C176.159 141.288 176.919 140.52 177.879 139.976C178.855 139.432 179.967 139.16 181.215 139.16C182.447 139.16 183.551 139.432 184.527 139.976C185.503 140.52 186.271 141.288 186.831 142.28C187.391 143.256 187.671 144.376 187.671 145.64C187.671 146.904 187.391 148.024 186.831 149C186.271 149.976 185.503 150.744 184.527 151.304C183.551 151.864 182.447 152.144 181.215 152.144ZM181.215 150.128C182.015 150.128 182.727 149.944 183.351 149.576C183.975 149.192 184.471 148.672 184.839 148.016C185.207 147.344 185.391 146.552 185.391 145.64C185.391 144.728 185.207 143.944 184.839 143.288C184.471 142.616 183.975 142.096 183.351 141.728C182.727 141.36 182.015 141.176 181.215 141.176C180.431 141.176 179.719 141.36 179.079 141.728C178.455 142.096 177.959 142.616 177.591 143.288C177.223 143.944 177.039 144.728 177.039 145.64C177.039 146.552 177.223 147.344 177.591 148.016C177.959 148.672 178.455 149.192 179.079 149.576C179.719 149.944 180.431 150.128 181.215 150.128Z" fill="#3C3C3C"/>
<path d="M157.675 122.976L157.819 121.032C157.931 121.048 158.035 121.064 158.131 121.08C158.227 121.096 158.315 121.104 158.395 121.104C158.907 121.104 159.307 120.928 159.595 120.576C159.899 120.224 160.123 119.76 160.267 119.184C160.411 118.592 160.515 117.928 160.579 117.192C160.643 116.456 160.691 115.72 160.723 114.984L160.939 110.28H170.707V123H168.403V111.624L168.955 112.296H162.427L162.955 111.6L162.787 115.128C162.739 116.248 162.651 117.296 162.523 118.272C162.395 119.248 162.195 120.104 161.923 120.84C161.667 121.576 161.307 122.152 160.843 122.568C160.395 122.984 159.811 123.192 159.091 123.192C158.883 123.192 158.659 123.168 158.419 123.12C158.195 123.088 157.947 123.04 157.675 122.976ZM175.162 123V110.28H177.466V115.488H181.306V117.624H177.466V123H175.162ZM186.418 123.144C185.17 123.144 184.058 122.864 183.082 122.304C182.122 121.744 181.362 120.976 180.802 120C180.242 119.008 179.962 117.888 179.962 116.64C179.962 115.376 180.242 114.256 180.802 113.28C181.362 112.288 182.122 111.52 183.082 110.976C184.058 110.432 185.17 110.16 186.418 110.16C187.65 110.16 188.754 110.432 189.73 110.976C190.706 111.52 191.474 112.288 192.034 113.28C192.594 114.256 192.874 115.376 192.874 116.64C192.874 117.904 192.594 119.024 192.034 120C191.474 120.976 190.706 121.744 189.73 122.304C188.754 122.864 187.65 123.144 186.418 123.144ZM186.418 121.128C187.218 121.128 187.93 120.944 188.554 120.576C189.178 120.192 189.674 119.672 190.042 119.016C190.41 118.344 190.594 117.552 190.594 116.64C190.594 115.728 190.41 114.944 190.042 114.288C189.674 113.616 189.178 113.096 188.554 112.728C187.93 112.36 187.218 112.176 186.418 112.176C185.634 112.176 184.922 112.36 184.282 112.728C183.658 113.096 183.162 113.616 182.794 114.288C182.426 114.944 182.242 115.728 182.242 116.64C182.242 117.552 182.426 118.344 182.794 119.016C183.162 119.672 183.658 120.192 184.282 120.576C184.922 120.944 185.634 121.128 186.418 121.128ZM202.065 123.192C201.009 123.192 200.073 123.024 199.257 122.688C198.457 122.352 197.769 121.856 197.193 121.2C196.617 120.528 196.177 119.688 195.873 118.68C195.585 117.656 195.441 116.456 195.441 115.08C195.441 113.992 195.537 113.016 195.729 112.152C195.921 111.288 196.193 110.52 196.545 109.848C196.913 109.176 197.361 108.592 197.889 108.096C198.433 107.6 199.041 107.192 199.713 106.872C200.401 106.536 201.153 106.28 201.969 106.104L207.777 104.808L208.113 106.944L202.761 108.096C202.441 108.16 202.057 108.256 201.609 108.384C201.161 108.512 200.705 108.712 200.241 108.984C199.777 109.24 199.345 109.6 198.945 110.064C198.545 110.528 198.225 111.136 197.985 111.888C197.745 112.624 197.625 113.536 197.625 114.624C197.625 114.928 197.633 115.16 197.649 115.32C197.665 115.48 197.681 115.64 197.697 115.8C197.729 115.96 197.753 116.2 197.769 116.52L196.809 115.536C197.065 114.656 197.473 113.888 198.033 113.232C198.593 112.576 199.265 112.072 200.049 111.72C200.849 111.352 201.721 111.168 202.665 111.168C203.849 111.168 204.897 111.424 205.809 111.936C206.737 112.448 207.465 113.152 207.993 114.048C208.521 114.944 208.785 115.968 208.785 117.12C208.785 118.288 208.505 119.336 207.945 120.264C207.401 121.176 206.625 121.896 205.617 122.424C204.609 122.936 203.425 123.192 202.065 123.192ZM202.281 121.272C203.097 121.272 203.817 121.096 204.441 120.744C205.065 120.376 205.553 119.888 205.905 119.28C206.257 118.656 206.433 117.96 206.433 117.192C206.433 116.424 206.257 115.744 205.905 115.152C205.553 114.56 205.065 114.096 204.441 113.76C203.817 113.408 203.081 113.232 202.233 113.232C201.433 113.232 200.713 113.4 200.073 113.736C199.433 114.056 198.937 114.512 198.585 115.104C198.233 115.68 198.057 116.352 198.057 117.12C198.057 117.888 198.233 118.592 198.585 119.232C198.953 119.856 199.449 120.352 200.073 120.72C200.713 121.088 201.449 121.272 202.281 121.272ZM212.372 127.8C211.764 127.8 211.172 127.696 210.596 127.488C210.02 127.296 209.524 127.008 209.108 126.624L210.092 124.896C210.412 125.2 210.764 125.432 211.148 125.592C211.532 125.752 211.94 125.832 212.372 125.832C212.932 125.832 213.396 125.688 213.764 125.4C214.132 125.112 214.476 124.6 214.796 123.864L215.588 122.112L215.828 121.824L220.82 110.28H223.076L216.908 124.272C216.54 125.168 216.124 125.872 215.66 126.384C215.212 126.896 214.716 127.256 214.172 127.464C213.628 127.688 213.028 127.8 212.372 127.8ZM215.396 123.408L209.588 110.28H211.988L216.932 121.608L215.396 123.408ZM225.435 123V110.28H227.739V115.488H231.579V117.624H227.739V123H225.435ZM236.691 123.144C235.443 123.144 234.331 122.864 233.355 122.304C232.395 121.744 231.635 120.976 231.075 120C230.515 119.008 230.235 117.888 230.235 116.64C230.235 115.376 230.515 114.256 231.075 113.28C231.635 112.288 232.395 111.52 233.355 110.976C234.331 110.432 235.443 110.16 236.691 110.16C237.923 110.16 239.027 110.432 240.003 110.976C240.979 111.52 241.747 112.288 242.307 113.28C242.867 114.256 243.147 115.376 243.147 116.64C243.147 117.904 242.867 119.024 242.307 120C241.747 120.976 240.979 121.744 240.003 122.304C239.027 122.864 237.923 123.144 236.691 123.144ZM236.691 121.128C237.491 121.128 238.203 120.944 238.827 120.576C239.451 120.192 239.947 119.672 240.315 119.016C240.683 118.344 240.867 117.552 240.867 116.64C240.867 115.728 240.683 114.944 240.315 114.288C239.947 113.616 239.451 113.096 238.827 112.728C238.203 112.36 237.491 112.176 236.691 112.176C235.907 112.176 235.195 112.36 234.555 112.728C233.931 113.096 233.435 113.616 233.067 114.288C232.699 114.944 232.515 115.728 232.515 116.64C232.515 117.552 232.699 118.344 233.067 119.016C233.435 119.672 233.931 120.192 234.555 120.576C235.195 120.944 235.907 121.128 236.691 121.128Z" fill="#F04D64"/>
<path d="M69.8618 63.0001C69.8618 66.7951 66.7951 69.8618 63.0001 69.8618C59.2051 69.8618 56.1384 66.7951 56.1384 63.0001C56.1384 59.2051 59.2051 56.1384 63.0001 56.1384C66.7951 56.1384 69.8618 59.2051 69.8618 63.0001Z" stroke="#6E96E0" stroke-width="3" stroke-linecap="round" stroke-linejoin="round"/>
<path d="M62.9999 78.8507C69.7658 78.8507 76.0716 74.864 80.4608 67.964C82.1858 65.2615 82.1858 60.719 80.4608 58.0165C76.0716 51.1165 69.7658 47.1299 62.9999 47.1299C56.2341 47.1299 49.9283 51.1165 45.5391 58.0165C43.8141 60.719 43.8141 65.2615 45.5391 67.964C49.9283 74.864 56.2341 78.8507 62.9999 78.8507Z" stroke="#6E96E0" stroke-width="3" stroke-linecap="round" stroke-linejoin="round"/>
</g>
<defs>
<filter id="filter0_d_140_287" x="262.386" y="-56.0679" width="279.008" height="214.488" filterUnits="userSpaceOnUse" color-interpolation-filters="sRGB">
<feFlood flood-opacity="0" result="BackgroundImageFix"/>
<feColorMatrix in="SourceAlpha" type="matrix" values="0 0 0 0 0 0 0 0 0 0 0 0 0 0 0 0 0 0 127 0" result="hardAlpha"/>
<feOffset dy="4"/>
<feGaussianBlur stdDeviation="7.5"/>
<feComposite in2="hardAlpha" operator="out"/>
<feColorMatrix type="matrix" values="0 0 0 0 0 0 0 0 0 0 0 0 0 0 0 0 0 0 0.25 0"/>
<feBlend mode="normal" in2="BackgroundImageFix" result="effect1_dropShadow_140_287"/>
<feBlend mode="normal" in="SourceGraphic" in2="effect1_dropShadow_140_287" result="shape"/>
</filter>
<filter id="filter1_d_140_287" x="-13" y="175" width="420" height="296" filterUnits="userSpaceOnUse" color-interpolation-filters="sRGB">
<feFlood flood-opacity="0" result="BackgroundImageFix"/>
<feColorMatrix in="SourceAlpha" type="matrix" values="0 0 0 0 0 0 0 0 0 0 0 0 0 0 0 0 0 0 127 0" result="hardAlpha"/>
<feOffset/>
<feGaussianBlur stdDeviation="8"/>
<feComposite in2="hardAlpha" operator="out"/>
<feColorMatrix type="matrix" values="0 0 0 0 0 0 0 0 0 0 0 0 0 0 0 0 0 0 0.2 0"/>
<feBlend mode="normal" in2="BackgroundImageFix" result="effect1_dropShadow_140_287"/>
<feBlend mode="normal" in="SourceGraphic" in2="effect1_dropShadow_140_287" result="shape"/>
</filter>
<clipPath id="clip0_140_287">
<rect width="440" height="455" fill="white"/>
</clipPath>
<clipPath id="clip1_140_287">
<path d="M3 191H383C387.418 191 391 194.582 391 199V447C391 451.418 387.418 455 383 455H3V191Z" fill="white"/>
</clipPath>
<clipPath id="clip2_140_287">
<rect width="392" height="30" fill="white" transform="translate(2 190)"/>
</clipPath>
<clipPath id="clip3_140_287">
<rect width="15" height="15" fill="white" transform="translate(285 197)"/>
</clipPath>
<clipPath id="clip4_140_287">
<rect width="15" height="15" fill="white" transform="translate(308 197)"/>
</clipPath>
<clipPath id="clip5_140_287">
<rect width="15" height="15" fill="white" transform="translate(354 197)"/>
</clipPath>
<clipPath id="clip6_140_287">
<rect width="392" height="235" fill="white" transform="translate(2 220)"/>
</clipPath>
</defs>
</svg>
