<svg width="440" height="455" viewBox="0 0 440 455" fill="none" xmlns="http://www.w3.org/2000/svg">
<g clip-path="url(#clip0_140_288)">
<rect width="440" height="455" rx="8" fill="#E0E0E0"/>
<g filter="url(#filter0_d_140_288)">
<path d="M295.863 48.481C265.731 -12.3352 373.586 -25.5713 431.28 -24.5873C470.301 -25.9608 451.569 28.1064 433.203 37.239C409.748 48.902 370.237 39.6694 345.068 32.8023C384.745 85.2004 333.528 124.501 295.863 48.481Z" fill="#F04D64" stroke="black" stroke-width="2"/>
<path d="M350.957 41.8566C349.196 38.4792 343.451 29.4973 334.561 20.5889" stroke="black" stroke-width="2" stroke-linecap="round"/>
<path d="M312.436 27.4433C308.273 29.3479 301.823 33.6 310.831 40.0957C322.09 48.2154 326.447 25.1469 312.436 27.4433Z" fill="#EBEBEB" stroke="black" stroke-width="2" stroke-linecap="round"/>
<path d="M312.375 51.7449C308.212 53.6495 305.402 58.9096 314.41 65.4053C325.669 73.5249 322.244 55.9713 312.375 51.7449Z" fill="#EBEBEB"/>
<path d="M312.375 51.7449L311.959 50.8355C312.215 50.7182 312.509 50.7146 312.768 50.8256L312.375 51.7449ZM314.41 65.4053L313.825 66.2164L314.41 65.4053ZM312.791 52.6542C310.904 53.5172 309.528 55.0436 309.453 56.8943C309.376 58.7559 310.591 61.4184 314.995 64.5942L313.825 66.2164C309.221 62.8965 307.337 59.681 307.454 56.8125C307.572 53.9331 309.682 51.8771 311.959 50.8355L312.791 52.6542ZM314.995 64.5942C316.353 65.5732 317.428 66.1198 318.247 66.3649C319.068 66.6107 319.529 66.5264 319.773 66.4014C319.999 66.2849 320.218 66.039 320.346 65.5244C320.477 64.9981 320.487 64.2693 320.331 63.3772C320.019 61.5986 319.088 59.4012 317.63 57.3914C316.174 55.3849 314.242 53.6326 311.981 52.6641L312.768 50.8256C315.442 51.9704 317.639 53.9972 319.249 56.2169C320.857 58.4334 321.929 60.9094 322.301 63.0325C322.486 64.0913 322.507 65.1205 322.287 66.0069C322.063 66.905 321.569 67.7266 320.687 68.18C319.822 68.6248 318.782 68.6128 317.673 68.2809C316.562 67.9483 315.282 67.2673 313.825 66.2164L314.995 64.5942Z" fill="black"/>
<path d="M302.027 23.8225C297.244 26.5027 290.374 33.5193 301.157 40.1431" stroke="black" stroke-width="3" stroke-linecap="round"/>
<path d="M302.831 63.0831C299.843 61.2877 295.77 56.5035 303.389 51.7298" stroke="black" stroke-width="3" stroke-linecap="round"/>
<circle cx="2.06569" cy="2.06569" r="2.06569" transform="matrix(0.303602 0.952799 0.952799 -0.303602 347.427 68.3262)" fill="black"/>
<circle cx="2.06569" cy="2.06569" r="2.06569" transform="matrix(0.303602 0.952799 0.952799 -0.303602 312.76 36.8794)" fill="black"/>
<circle cx="2.06569" cy="2.06569" r="2.06569" transform="matrix(0.303602 0.952799 0.952799 -0.303602 313.988 62.5044)" fill="black"/>
<circle cx="2.06569" cy="2.06569" r="2.06569" transform="matrix(0.303602 0.952799 0.952799 -0.303602 346.501 79.0278)" fill="black"/>
<path d="M407.222 42.3357L403.919 -23.8208C415.563 -24.9292 440.245 -26.0299 445.831 -21.5657C451.416 -17.1014 453.363 -11.5357 453.638 -9.31085C454.708 -4.59298 454.572 8.86294 445.474 24.9436C436.376 41.0243 416.182 43.2386 407.222 42.3357Z" fill="black" stroke="black"/>
<path d="M440.644 -14.7097C457.364 -14.4006 493.369 -16.0739 503.63 -25.2404L509.776 -5.95215" stroke="black" stroke-width="2" stroke-linecap="round" stroke-linejoin="round"/>
<path d="M294.995 -17.2975L307.171 0.502975L319.82 -7.4298L303.608 -46.0584L341.076 -14.9662L362.169 -19.588L339.347 -41.4027L341.076 -14.9662L303.608 -46.0584L319.82 -7.4298L294.995 -17.2975Z" fill="black"/>
<path d="M307.171 0.502975L307.702 1.35015L306.888 1.86075L306.346 1.06756L307.171 0.502975ZM294.995 -17.2975L294.17 -16.7329L292.32 -19.4369L295.364 -18.2268L294.995 -17.2975ZM319.82 -7.4298L320.742 -7.81678L321.07 -7.0338L320.351 -6.58263L319.82 -7.4298ZM303.608 -46.0584L302.686 -45.6714C302.508 -46.0961 302.643 -46.5876 303.013 -46.8618C303.383 -47.1361 303.893 -47.1221 304.247 -46.8279L303.608 -46.0584ZM341.076 -14.9662L341.29 -13.9893L340.814 -13.8848L340.438 -14.1966L341.076 -14.9662ZM339.347 -41.4027L338.349 -41.3374L338.181 -43.9002L340.038 -42.1256L339.347 -41.4027ZM362.169 -19.588L362.86 -20.3109L364.217 -19.0132L362.383 -18.6112L362.169 -19.588ZM306.346 1.06756L294.17 -16.7329L295.82 -17.8621L307.996 -0.0616093L306.346 1.06756ZM295.364 -18.2268L320.189 -8.35908L319.45 -6.50053L294.626 -16.3682L295.364 -18.2268ZM318.897 -7.04283L302.686 -45.6714L304.53 -46.4454L320.742 -7.81678L318.897 -7.04283ZM304.247 -46.8279L341.715 -15.7357L340.438 -14.1966L302.97 -45.2888L304.247 -46.8279ZM340.079 -14.9009L338.349 -41.3374L340.345 -41.468L342.074 -15.0315L340.079 -14.9009ZM340.038 -42.1256L362.86 -20.3109L361.478 -18.8651L338.656 -40.6798L340.038 -42.1256ZM362.383 -18.6112L341.29 -13.9893L340.862 -15.943L361.955 -20.5648L362.383 -18.6112ZM320.351 -6.58263L307.702 1.35015L306.64 -0.344196L319.288 -8.27698L320.351 -6.58263Z" fill="black"/>
</g>
<g filter="url(#filter1_d_140_288)">
<g clip-path="url(#clip1_140_288)">
<path d="M0 191H380C384.418 191 388 194.582 388 199V447C388 451.418 384.418 455 380 455H0V191Z" fill="#F0F0F0"/>
<g clip-path="url(#clip2_140_288)">
<rect width="392" height="30" transform="translate(-1 190)" fill="white"/>
<g opacity="0.65" clip-path="url(#clip3_140_288)">
<path d="M290.581 199.194L291.681 201.394C291.831 201.7 292.231 201.994 292.569 202.05L294.563 202.381C295.838 202.594 296.138 203.519 295.219 204.431L293.669 205.981C293.406 206.244 293.263 206.75 293.344 207.112L293.788 209.031C294.138 210.55 293.331 211.137 291.988 210.344L290.119 209.237C289.781 209.037 289.225 209.037 288.881 209.237L287.013 210.344C285.675 211.137 284.863 210.544 285.213 209.031L285.656 207.112C285.738 206.75 285.594 206.244 285.331 205.981L283.781 204.431C282.869 203.519 283.163 202.594 284.438 202.381L286.431 202.05C286.763 201.994 287.163 201.7 287.313 201.394L288.413 199.194C289.013 198 289.988 198 290.581 199.194Z" stroke="black" stroke-width="1.5" stroke-linecap="round" stroke-linejoin="round"/>
</g>
<g opacity="0.65" clip-path="url(#clip4_140_288)">
<path d="M313.125 203.875L318.25 198.75M318.75 201.25V198.25H315.75M311.875 198.25H310.625C307.5 198.25 306.25 199.5 306.25 202.625V206.375C306.25 209.5 307.5 210.75 310.625 210.75H314.375C317.5 210.75 318.75 209.5 318.75 206.375V205.125" stroke="black" stroke-width="1.5" stroke-linecap="round" stroke-linejoin="round"/>
</g>
<g opacity="0.65">
<path d="M341.125 202.625V198.875M341.125 198.875H337.375M341.125 198.875L336.438 203.562M329.875 206.375V210.125M329.875 210.125H333.625M329.875 210.125L334.562 205.438" stroke="black" stroke-width="1.5" stroke-linecap="round" stroke-linejoin="round"/>
</g>
<g opacity="0.65" clip-path="url(#clip5_140_288)">
<path d="M358.5 206.375C358.997 206.375 359.474 206.177 359.826 205.826C360.177 205.474 360.375 204.997 360.375 204.5C360.375 204.003 360.177 203.526 359.826 203.174C359.474 202.823 358.997 202.625 358.5 202.625C358.003 202.625 357.526 202.823 357.174 203.174C356.823 203.526 356.625 204.003 356.625 204.5C356.625 204.997 356.823 205.474 357.174 205.826C357.526 206.177 358.003 206.375 358.5 206.375Z" stroke="black" stroke-width="1.5" stroke-miterlimit="10" stroke-linecap="round" stroke-linejoin="round"/>
<path d="M352.25 205.05V203.95C352.25 203.3 352.781 202.762 353.438 202.762C354.569 202.762 355.031 201.962 354.463 200.981C354.138 200.419 354.331 199.687 354.9 199.362L355.981 198.744C356.475 198.45 357.113 198.625 357.406 199.119L357.475 199.237C358.037 200.219 358.962 200.219 359.531 199.237L359.6 199.119C359.894 198.625 360.531 198.45 361.025 198.744L362.106 199.362C362.675 199.687 362.869 200.419 362.544 200.981C361.975 201.962 362.438 202.762 363.569 202.762C364.219 202.762 364.756 203.294 364.756 203.95V205.05C364.756 205.7 364.225 206.237 363.569 206.237C362.438 206.237 361.975 207.037 362.544 208.019C362.869 208.587 362.675 209.312 362.106 209.637L361.025 210.256C360.531 210.55 359.894 210.375 359.6 209.881L359.531 209.762C358.969 208.781 358.044 208.781 357.475 209.762L357.406 209.881C357.113 210.375 356.475 210.55 355.981 210.256L354.9 209.637C354.628 209.481 354.428 209.222 354.346 208.919C354.264 208.615 354.306 208.291 354.463 208.019C355.031 207.037 354.569 206.237 353.438 206.237C352.781 206.237 352.25 205.7 352.25 205.05Z" stroke="black" stroke-width="1.5" stroke-miterlimit="10" stroke-linecap="round" stroke-linejoin="round"/>
</g>
</g>
<g clip-path="url(#clip6_140_288)">
<rect width="697" height="434" transform="translate(-306 220)" fill="white"/>
<line x1="-268" y1="354.5" x2="268" y2="354.5" stroke="#949494"/>
<path d="M35.5177 372.16C35.1244 372.327 34.741 372.453 34.3677 372.54C34.001 372.62 33.6444 372.66 33.2977 372.66C32.4444 372.66 31.781 372.453 31.3077 372.04C30.841 371.627 30.6077 371.037 30.6077 370.27V368H31.5877V370.16C31.5877 370.68 31.7477 371.08 32.0677 371.36C32.3877 371.64 32.8344 371.78 33.4077 371.78C33.7477 371.78 34.0944 371.737 34.4477 371.65C34.8077 371.563 35.1577 371.437 35.4977 371.27L35.5177 372.16ZM35.3477 375V368H36.3377V375H35.3477ZM41.611 375V373.88L41.561 373.67V371.76C41.561 371.353 41.441 371.04 41.201 370.82C40.9677 370.593 40.6143 370.48 40.141 370.48C39.8277 370.48 39.521 370.533 39.221 370.64C38.921 370.74 38.6677 370.877 38.461 371.05L38.061 370.33C38.3343 370.11 38.661 369.943 39.041 369.83C39.4277 369.71 39.831 369.65 40.251 369.65C40.9777 369.65 41.5377 369.827 41.931 370.18C42.3243 370.533 42.521 371.073 42.521 371.8V375H41.611ZM39.871 375.06C39.4777 375.06 39.131 374.993 38.831 374.86C38.5377 374.727 38.311 374.543 38.151 374.31C37.991 374.07 37.911 373.8 37.911 373.5C37.911 373.213 37.9777 372.953 38.111 372.72C38.251 372.487 38.4743 372.3 38.781 372.16C39.0943 372.02 39.5143 371.95 40.041 371.95H41.721V372.64H40.081C39.601 372.64 39.2777 372.72 39.111 372.88C38.9443 373.04 38.861 373.233 38.861 373.46C38.861 373.72 38.9643 373.93 39.171 374.09C39.3777 374.243 39.6643 374.32 40.031 374.32C40.391 374.32 40.7043 374.24 40.971 374.08C41.2443 373.92 41.441 373.687 41.561 373.38L41.751 374.04C41.6243 374.353 41.401 374.603 41.081 374.79C40.761 374.97 40.3577 375.06 39.871 375.06ZM46.5597 375.06C46.0197 375.06 45.5363 374.943 45.1097 374.71C44.6897 374.477 44.3597 374.157 44.1197 373.75C43.8797 373.343 43.7597 372.877 43.7597 372.35C43.7597 371.823 43.8797 371.357 44.1197 370.95C44.3597 370.543 44.6897 370.227 45.1097 370C45.5363 369.767 46.0197 369.65 46.5597 369.65C47.0397 369.65 47.4663 369.747 47.8397 369.94C48.2197 370.127 48.513 370.407 48.7197 370.78L47.9897 371.25C47.8163 370.99 47.603 370.8 47.3497 370.68C47.103 370.553 46.8363 370.49 46.5497 370.49C46.203 370.49 45.893 370.567 45.6197 370.72C45.3463 370.873 45.1297 371.09 44.9697 371.37C44.8097 371.643 44.7297 371.97 44.7297 372.35C44.7297 372.73 44.8097 373.06 44.9697 373.34C45.1297 373.62 45.3463 373.837 45.6197 373.99C45.893 374.143 46.203 374.22 46.5497 374.22C46.8363 374.22 47.103 374.16 47.3497 374.04C47.603 373.913 47.8163 373.72 47.9897 373.46L48.7197 373.92C48.513 374.287 48.2197 374.57 47.8397 374.77C47.4663 374.963 47.0397 375.06 46.5597 375.06ZM55.2026 375V369.7H56.1626V375H55.2026ZM52.3526 371.5C53.0259 371.507 53.5359 371.66 53.8826 371.96C54.2359 372.26 54.4126 372.683 54.4126 373.23C54.4126 373.803 54.2192 374.247 53.8326 374.56C53.4526 374.867 52.9059 375.017 52.1926 375.01L49.9626 375V369.7H50.9226V371.49L52.3526 371.5ZM52.1226 374.28C52.5492 374.287 52.8759 374.2 53.1026 374.02C53.3292 373.84 53.4426 373.573 53.4426 373.22C53.4426 372.873 53.3292 372.62 53.1026 372.46C52.8826 372.3 52.5559 372.217 52.1226 372.21L50.9226 372.19V374.27L52.1226 374.28Z" fill="black"/>
<rect opacity="0.35" x="87.6667" y="355" width="1" height="32" fill="black"/>
<path d="M117.04 375.08C116.94 375.08 116.84 375.073 116.74 375.06C116.64 375.047 116.53 375.027 116.41 375L116.48 374.11C116.587 374.137 116.694 374.15 116.8 374.15C117.094 374.15 117.327 374.033 117.5 373.8C117.674 373.567 117.8 373.213 117.88 372.74C117.967 372.267 118.024 371.67 118.05 370.95L118.16 368H123.09V375H122.11V368.61L122.35 368.87H118.8L119.02 368.6L118.94 370.92C118.92 371.613 118.874 372.22 118.8 372.74C118.727 373.26 118.617 373.693 118.47 374.04C118.324 374.387 118.134 374.647 117.9 374.82C117.674 374.993 117.387 375.08 117.04 375.08ZM127.381 375.06C126.847 375.06 126.374 374.943 125.961 374.71C125.547 374.477 125.221 374.157 124.981 373.75C124.741 373.337 124.621 372.87 124.621 372.35C124.621 371.823 124.741 371.357 124.981 370.95C125.221 370.543 125.547 370.227 125.961 370C126.374 369.767 126.847 369.65 127.381 369.65C127.907 369.65 128.377 369.767 128.791 370C129.211 370.227 129.537 370.543 129.771 370.95C130.011 371.35 130.131 371.817 130.131 372.35C130.131 372.877 130.011 373.343 129.771 373.75C129.537 374.157 129.211 374.477 128.791 374.71C128.377 374.943 127.907 375.06 127.381 375.06ZM127.381 374.22C127.721 374.22 128.024 374.143 128.291 373.99C128.564 373.837 128.777 373.62 128.931 373.34C129.084 373.053 129.161 372.723 129.161 372.35C129.161 371.97 129.084 371.643 128.931 371.37C128.777 371.09 128.564 370.873 128.291 370.72C128.024 370.567 127.721 370.49 127.381 370.49C127.041 370.49 126.737 370.567 126.471 370.72C126.204 370.873 125.991 371.09 125.831 371.37C125.671 371.643 125.591 371.97 125.591 372.35C125.591 372.723 125.671 373.053 125.831 373.34C125.991 373.62 126.204 373.837 126.471 373.99C126.737 374.143 127.041 374.22 127.381 374.22ZM131.517 375V369.7H135.417V370.54H132.247L132.477 370.32V375H131.517ZM136.4 375V369.7H137.36V373.56L140.61 369.7H141.48V375H140.52V371.14L137.28 375H136.4ZM143.343 375V369.7H144.303V371.95H147.323V369.7H148.283V375H147.323V372.78H144.303V375H143.343Z" fill="black"/>
<rect opacity="0.35" x="176.833" y="355" width="1" height="32" fill="black"/>
<path d="M203.251 375V368H209.281V375H208.301V368.61L208.541 368.87H203.991L204.241 368.61V375H203.251ZM214.554 375V373.88L214.504 373.67V371.76C214.504 371.353 214.384 371.04 214.144 370.82C213.91 370.593 213.557 370.48 213.084 370.48C212.77 370.48 212.464 370.533 212.164 370.64C211.864 370.74 211.61 370.877 211.404 371.05L211.004 370.33C211.277 370.11 211.604 369.943 211.984 369.83C212.37 369.71 212.774 369.65 213.194 369.65C213.92 369.65 214.48 369.827 214.874 370.18C215.267 370.533 215.464 371.073 215.464 371.8V375H214.554ZM212.814 375.06C212.42 375.06 212.074 374.993 211.774 374.86C211.48 374.727 211.254 374.543 211.094 374.31C210.934 374.07 210.854 373.8 210.854 373.5C210.854 373.213 210.92 372.953 211.054 372.72C211.194 372.487 211.417 372.3 211.724 372.16C212.037 372.02 212.457 371.95 212.984 371.95H214.664V372.64H213.024C212.544 372.64 212.22 372.72 212.054 372.88C211.887 373.04 211.804 373.233 211.804 373.46C211.804 373.72 211.907 373.93 212.114 374.09C212.32 374.243 212.607 374.32 212.974 374.32C213.334 374.32 213.647 374.24 213.914 374.08C214.187 373.92 214.384 373.687 214.504 373.38L214.694 374.04C214.567 374.353 214.344 374.603 214.024 374.79C213.704 374.97 213.3 375.06 212.814 375.06ZM220.002 375.06C219.562 375.06 219.159 374.96 218.792 374.76C218.432 374.553 218.142 374.25 217.922 373.85C217.709 373.45 217.602 372.95 217.602 372.35C217.602 371.75 217.706 371.25 217.912 370.85C218.126 370.45 218.412 370.15 218.772 369.95C219.139 369.75 219.549 369.65 220.002 369.65C220.522 369.65 220.982 369.763 221.382 369.99C221.782 370.217 222.099 370.533 222.332 370.94C222.566 371.34 222.682 371.81 222.682 372.35C222.682 372.89 222.566 373.363 222.332 373.77C222.099 374.177 221.782 374.493 221.382 374.72C220.982 374.947 220.522 375.06 220.002 375.06ZM217.192 376.94V369.7H218.112V371.13L218.052 372.36L218.152 373.59V376.94H217.192ZM219.922 374.22C220.262 374.22 220.566 374.143 220.832 373.99C221.106 373.837 221.319 373.62 221.472 373.34C221.632 373.053 221.712 372.723 221.712 372.35C221.712 371.97 221.632 371.643 221.472 371.37C221.319 371.09 221.106 370.873 220.832 370.72C220.566 370.567 220.262 370.49 219.922 370.49C219.589 370.49 219.286 370.567 219.012 370.72C218.746 370.873 218.532 371.09 218.372 371.37C218.219 371.643 218.142 371.97 218.142 372.35C218.142 372.723 218.219 373.053 218.372 373.34C218.532 373.62 218.746 373.837 219.012 373.99C219.286 374.143 219.589 374.22 219.922 374.22ZM226.347 375.06C225.814 375.06 225.34 374.943 224.927 374.71C224.514 374.477 224.187 374.157 223.947 373.75C223.707 373.337 223.587 372.87 223.587 372.35C223.587 371.823 223.707 371.357 223.947 370.95C224.187 370.543 224.514 370.227 224.927 370C225.34 369.767 225.814 369.65 226.347 369.65C226.874 369.65 227.344 369.767 227.757 370C228.177 370.227 228.504 370.543 228.737 370.95C228.977 371.35 229.097 371.817 229.097 372.35C229.097 372.877 228.977 373.343 228.737 373.75C228.504 374.157 228.177 374.477 227.757 374.71C227.344 374.943 226.874 375.06 226.347 375.06ZM226.347 374.22C226.687 374.22 226.99 374.143 227.257 373.99C227.53 373.837 227.744 373.62 227.897 373.34C228.05 373.053 228.127 372.723 228.127 372.35C228.127 371.97 228.05 371.643 227.897 371.37C227.744 371.09 227.53 370.873 227.257 370.72C226.99 370.567 226.687 370.49 226.347 370.49C226.007 370.49 225.704 370.567 225.437 370.72C225.17 370.873 224.957 371.09 224.797 371.37C224.637 371.643 224.557 371.97 224.557 372.35C224.557 372.723 224.637 373.053 224.797 373.34C224.957 373.62 225.17 373.837 225.437 373.99C225.704 374.143 226.007 374.22 226.347 374.22ZM229.564 374.99L229.624 374.18C229.671 374.187 229.714 374.193 229.754 374.2C229.794 374.207 229.831 374.21 229.864 374.21C230.078 374.21 230.244 374.137 230.364 373.99C230.491 373.843 230.584 373.65 230.644 373.41C230.704 373.163 230.748 372.887 230.774 372.58C230.801 372.273 230.821 371.967 230.834 371.66L230.924 369.7H234.994V375H234.034V370.26L234.264 370.54H231.544L231.764 370.25L231.694 371.72C231.674 372.187 231.638 372.623 231.584 373.03C231.531 373.437 231.448 373.793 231.334 374.1C231.228 374.407 231.078 374.647 230.884 374.82C230.698 374.993 230.454 375.08 230.154 375.08C230.068 375.08 229.974 375.07 229.874 375.05C229.781 375.037 229.678 375.017 229.564 374.99ZM239.3 371.5C239.974 371.507 240.487 371.66 240.84 371.96C241.194 372.26 241.37 372.683 241.37 373.23C241.37 373.803 241.177 374.247 240.79 374.56C240.404 374.867 239.857 375.017 239.15 375.01L236.85 375V369.7H237.81V371.49L239.3 371.5ZM239.07 374.28C239.504 374.287 239.83 374.2 240.05 374.02C240.277 373.84 240.39 373.573 240.39 373.22C240.39 372.873 240.28 372.62 240.06 372.46C239.84 372.3 239.51 372.217 239.07 372.21L237.81 372.19V374.27L239.07 374.28Z" fill="black"/>
<rect x="-267.75" y="355.25" width="533.5" height="31.5" stroke="black" stroke-opacity="0.5" stroke-width="0.5"/>
<rect x="-268" y="387" width="534" height="20" fill="#F2F2F2"/>
<path d="M38.895 399.28V398.58L42.475 394H43.555L40.005 398.58L39.495 398.42H45.085V399.28H38.895ZM42.785 401V399.28L42.815 398.42V396.9H43.755V401H42.785ZM46.6105 401V394.4L47.0405 394.87H45.0305V394H47.6005V401H46.6105Z" fill="black"/>
<rect opacity="0.35" x="87.6667" y="387" width="1" height="20" fill="black"/>
<path d="M118.018 401.06C117.505 401.06 117.045 400.947 116.638 400.72C116.238 400.493 115.921 400.177 115.688 399.77C115.455 399.363 115.338 398.89 115.338 398.35C115.338 397.81 115.455 397.34 115.688 396.94C115.921 396.533 116.238 396.217 116.638 395.99C117.045 395.763 117.505 395.65 118.018 395.65C118.478 395.65 118.888 395.75 119.248 395.95C119.608 396.15 119.891 396.45 120.098 396.85C120.311 397.25 120.418 397.75 120.418 398.35C120.418 398.95 120.308 399.45 120.088 399.85C119.875 400.25 119.588 400.553 119.228 400.76C118.868 400.96 118.465 401.06 118.018 401.06ZM118.098 400.22C118.431 400.22 118.731 400.143 118.998 399.99C119.271 399.837 119.485 399.62 119.638 399.34C119.798 399.053 119.878 398.723 119.878 398.35C119.878 397.97 119.798 397.643 119.638 397.37C119.485 397.09 119.271 396.873 118.998 396.72C118.731 396.567 118.431 396.49 118.098 396.49C117.758 396.49 117.455 396.567 117.188 396.72C116.921 396.873 116.708 397.09 116.548 397.37C116.388 397.643 116.308 397.97 116.308 398.35C116.308 398.723 116.388 399.053 116.548 399.34C116.708 399.62 116.921 399.837 117.188 399.99C117.455 400.143 117.758 400.22 118.098 400.22ZM119.868 402.94V399.59L119.968 398.36L119.908 397.13V395.7H120.828V402.94H119.868ZM123.764 401L121.794 395.7H122.704L124.454 400.5H124.024L125.844 395.7H126.654L128.434 400.5H128.014L129.804 395.7H130.664L128.684 401H127.764L126.094 396.62H126.374L124.684 401H123.764ZM133.852 401.06C133.285 401.06 132.785 400.943 132.352 400.71C131.925 400.477 131.592 400.157 131.352 399.75C131.119 399.343 131.002 398.877 131.002 398.35C131.002 397.823 131.115 397.357 131.342 396.95C131.575 396.543 131.892 396.227 132.292 396C132.699 395.767 133.155 395.65 133.662 395.65C134.175 395.65 134.629 395.763 135.022 395.99C135.415 396.217 135.722 396.537 135.942 396.95C136.169 397.357 136.282 397.833 136.282 398.38C136.282 398.42 136.279 398.467 136.272 398.52C136.272 398.573 136.269 398.623 136.262 398.67H131.752V397.98H135.762L135.372 398.22C135.379 397.88 135.309 397.577 135.162 397.31C135.015 397.043 134.812 396.837 134.552 396.69C134.299 396.537 134.002 396.46 133.662 396.46C133.329 396.46 133.032 396.537 132.772 396.69C132.512 396.837 132.309 397.047 132.162 397.32C132.015 397.587 131.942 397.893 131.942 398.24V398.4C131.942 398.753 132.022 399.07 132.182 399.35C132.349 399.623 132.579 399.837 132.872 399.99C133.165 400.143 133.502 400.22 133.882 400.22C134.195 400.22 134.479 400.167 134.732 400.06C134.992 399.953 135.219 399.793 135.412 399.58L135.942 400.2C135.702 400.48 135.402 400.693 135.042 400.84C134.689 400.987 134.292 401.06 133.852 401.06ZM137.615 401V395.7H138.535V397.14L138.445 396.78C138.592 396.413 138.838 396.133 139.185 395.94C139.532 395.747 139.958 395.65 140.465 395.65V396.58C140.425 396.573 140.385 396.57 140.345 396.57C140.312 396.57 140.278 396.57 140.245 396.57C139.732 396.57 139.325 396.723 139.025 397.03C138.725 397.337 138.575 397.78 138.575 398.36V401H137.615ZM143.683 401.06C143.15 401.06 142.737 400.917 142.443 400.63C142.15 400.343 142.003 399.933 142.003 399.4V394.54H142.963V399.36C142.963 399.647 143.033 399.867 143.173 400.02C143.32 400.173 143.527 400.25 143.793 400.25C144.093 400.25 144.343 400.167 144.543 400L144.843 400.69C144.697 400.817 144.52 400.91 144.313 400.97C144.113 401.03 143.903 401.06 143.683 401.06ZM141.103 396.49V395.7H144.483V396.49H141.103ZM146.136 403C145.883 403 145.636 402.957 145.396 402.87C145.156 402.79 144.95 402.67 144.776 402.51L145.186 401.79C145.32 401.917 145.466 402.013 145.626 402.08C145.786 402.147 145.956 402.18 146.136 402.18C146.37 402.18 146.563 402.12 146.716 402C146.87 401.88 147.013 401.667 147.146 401.36L147.476 400.63L147.576 400.51L149.656 395.7H150.596L148.026 401.53C147.873 401.903 147.7 402.197 147.506 402.41C147.32 402.623 147.113 402.773 146.886 402.86C146.66 402.953 146.41 403 146.136 403ZM147.396 401.17L144.976 395.7H145.976L148.036 400.42L147.396 401.17Z" fill="black"/>
<rect opacity="0.35" x="176.833" y="387" width="1" height="20" fill="black"/>
<path d="M215.994 401V394.4L216.424 394.87H214.414V394H216.984V401H215.994ZM218.405 401V400.32L221.255 397.57C221.508 397.33 221.695 397.12 221.815 396.94C221.941 396.753 222.025 396.583 222.065 396.43C222.111 396.27 222.135 396.117 222.135 395.97C222.135 395.61 222.008 395.327 221.755 395.12C221.501 394.913 221.131 394.81 220.645 394.81C220.271 394.81 219.935 394.873 219.635 395C219.335 395.12 219.075 395.31 218.855 395.57L218.175 394.98C218.441 394.64 218.798 394.38 219.245 394.2C219.698 394.013 220.195 393.92 220.735 393.92C221.221 393.92 221.645 394 222.005 394.16C222.365 394.313 222.641 394.537 222.835 394.83C223.035 395.123 223.135 395.47 223.135 395.87C223.135 396.097 223.105 396.32 223.045 396.54C222.985 396.76 222.871 396.993 222.705 397.24C222.538 397.487 222.298 397.763 221.985 398.07L219.445 400.52L219.205 400.13H223.435V401H218.405ZM226.397 401.08C225.904 401.08 225.424 401.003 224.957 400.85C224.497 400.697 224.12 400.49 223.827 400.23L224.287 399.44C224.52 399.66 224.824 399.84 225.197 399.98C225.57 400.12 225.97 400.19 226.397 400.19C226.917 400.19 227.32 400.08 227.607 399.86C227.9 399.633 228.047 399.33 228.047 398.95C228.047 398.583 227.907 398.29 227.627 398.07C227.354 397.843 226.917 397.73 226.317 397.73H225.757V397.03L227.837 394.47L227.977 394.87H224.147V394H228.767V394.68L226.697 397.23L226.177 396.92H226.507C227.354 396.92 227.987 397.11 228.407 397.49C228.834 397.87 229.047 398.353 229.047 398.94C229.047 399.333 228.95 399.693 228.757 400.02C228.564 400.347 228.27 400.607 227.877 400.8C227.49 400.987 226.997 401.08 226.397 401.08Z" fill="black"/>
<rect x="-267.75" y="387.25" width="533.5" height="19.5" stroke="black" stroke-opacity="0.5" stroke-width="0.5"/>
<rect x="-268" y="407" width="534" height="20" fill="white"/>
<path d="M38.2209 421V420.32L41.0709 417.57C41.3242 417.33 41.5109 417.12 41.6309 416.94C41.7576 416.753 41.8409 416.583 41.8809 416.43C41.9276 416.27 41.9509 416.117 41.9509 415.97C41.9509 415.61 41.8242 415.327 41.5709 415.12C41.3176 414.913 40.9476 414.81 40.4609 414.81C40.0876 414.81 39.7509 414.873 39.4509 415C39.1509 415.12 38.8909 415.31 38.6709 415.57L37.9909 414.98C38.2576 414.64 38.6142 414.38 39.0609 414.2C39.5142 414.013 40.0109 413.92 40.5509 413.92C41.0376 413.92 41.4609 414 41.8209 414.16C42.1809 414.313 42.4576 414.537 42.6509 414.83C42.8509 415.123 42.9509 415.47 42.9509 415.87C42.9509 416.097 42.9209 416.32 42.8609 416.54C42.8009 416.76 42.6876 416.993 42.5209 417.24C42.3542 417.487 42.1142 417.763 41.8009 418.07L39.2609 420.52L39.0209 420.13H43.2509V421H38.2209ZM46.2131 421.08C45.7198 421.08 45.2398 421.003 44.7731 420.85C44.3131 420.697 43.9364 420.49 43.6431 420.23L44.1031 419.44C44.3364 419.66 44.6398 419.84 45.0131 419.98C45.3864 420.12 45.7864 420.19 46.2131 420.19C46.7331 420.19 47.1364 420.08 47.4231 419.86C47.7164 419.633 47.8631 419.33 47.8631 418.95C47.8631 418.583 47.7231 418.29 47.4431 418.07C47.1698 417.843 46.7331 417.73 46.1331 417.73H45.5731V417.03L47.6531 414.47L47.7931 414.87H43.9631V414H48.5831V414.68L46.5131 417.23L45.9931 416.92H46.3231C47.1698 416.92 47.8031 417.11 48.2231 417.49C48.6498 417.87 48.8631 418.353 48.8631 418.94C48.8631 419.333 48.7664 419.693 48.5731 420.02C48.3798 420.347 48.0864 420.607 47.6931 420.8C47.3064 420.987 46.8131 421.08 46.2131 421.08Z" fill="black"/>
<rect opacity="0.35" x="87.6667" y="407" width="1" height="20" fill="black"/>
<path d="M114.063 421.06C113.55 421.06 113.09 420.947 112.683 420.72C112.283 420.493 111.966 420.177 111.733 419.77C111.5 419.363 111.383 418.89 111.383 418.35C111.383 417.81 111.5 417.34 111.733 416.94C111.966 416.533 112.283 416.217 112.683 415.99C113.09 415.763 113.55 415.65 114.063 415.65C114.523 415.65 114.933 415.75 115.293 415.95C115.653 416.15 115.936 416.45 116.143 416.85C116.356 417.25 116.463 417.75 116.463 418.35C116.463 418.95 116.353 419.45 116.133 419.85C115.92 420.25 115.633 420.553 115.273 420.76C114.913 420.96 114.51 421.06 114.063 421.06ZM114.143 420.22C114.476 420.22 114.776 420.143 115.043 419.99C115.316 419.837 115.53 419.62 115.683 419.34C115.843 419.053 115.923 418.723 115.923 418.35C115.923 417.97 115.843 417.643 115.683 417.37C115.53 417.09 115.316 416.873 115.043 416.72C114.776 416.567 114.476 416.49 114.143 416.49C113.803 416.49 113.5 416.567 113.233 416.72C112.966 416.873 112.753 417.09 112.593 417.37C112.433 417.643 112.353 417.97 112.353 418.35C112.353 418.723 112.433 419.053 112.593 419.34C112.753 419.62 112.966 419.837 113.233 419.99C113.5 420.143 113.803 420.22 114.143 420.22ZM115.913 422.94V419.59L116.013 418.36L115.953 417.13V415.7H116.873V422.94H115.913ZM119.809 421L117.839 415.7H118.749L120.499 420.5H120.069L121.889 415.7H122.699L124.479 420.5H124.059L125.849 415.7H126.709L124.729 421H123.809L122.139 416.62H122.419L120.729 421H119.809ZM129.897 421.06C129.33 421.06 128.83 420.943 128.397 420.71C127.97 420.477 127.637 420.157 127.397 419.75C127.164 419.343 127.047 418.877 127.047 418.35C127.047 417.823 127.16 417.357 127.387 416.95C127.62 416.543 127.937 416.227 128.337 416C128.744 415.767 129.2 415.65 129.707 415.65C130.22 415.65 130.674 415.763 131.067 415.99C131.46 416.217 131.767 416.537 131.987 416.95C132.214 417.357 132.327 417.833 132.327 418.38C132.327 418.42 132.324 418.467 132.317 418.52C132.317 418.573 132.314 418.623 132.307 418.67H127.797V417.98H131.807L131.417 418.22C131.424 417.88 131.354 417.577 131.207 417.31C131.06 417.043 130.857 416.837 130.597 416.69C130.344 416.537 130.047 416.46 129.707 416.46C129.374 416.46 129.077 416.537 128.817 416.69C128.557 416.837 128.354 417.047 128.207 417.32C128.06 417.587 127.987 417.893 127.987 418.24V418.4C127.987 418.753 128.067 419.07 128.227 419.35C128.394 419.623 128.624 419.837 128.917 419.99C129.21 420.143 129.547 420.22 129.927 420.22C130.24 420.22 130.524 420.167 130.777 420.06C131.037 419.953 131.264 419.793 131.457 419.58L131.987 420.2C131.747 420.48 131.447 420.693 131.087 420.84C130.734 420.987 130.337 421.06 129.897 421.06ZM135.85 421.06C135.337 421.06 134.877 420.947 134.47 420.72C134.07 420.493 133.753 420.177 133.52 419.77C133.287 419.363 133.17 418.89 133.17 418.35C133.17 417.81 133.287 417.34 133.52 416.94C133.753 416.533 134.07 416.217 134.47 415.99C134.877 415.763 135.337 415.65 135.85 415.65C136.31 415.65 136.72 415.75 137.08 415.95C137.44 416.15 137.723 416.45 137.93 416.85C138.143 417.25 138.25 417.75 138.25 418.35C138.25 418.95 138.14 419.45 137.92 419.85C137.707 420.25 137.42 420.553 137.06 420.76C136.7 420.96 136.297 421.06 135.85 421.06ZM135.93 420.22C136.263 420.22 136.563 420.143 136.83 419.99C137.103 419.837 137.317 419.62 137.47 419.34C137.63 419.053 137.71 418.723 137.71 418.35C137.71 417.97 137.63 417.643 137.47 417.37C137.317 417.09 137.103 416.873 136.83 416.72C136.563 416.567 136.263 416.49 135.93 416.49C135.59 416.49 135.287 416.567 135.02 416.72C134.753 416.873 134.54 417.09 134.38 417.37C134.22 417.643 134.14 417.97 134.14 418.35C134.14 418.723 134.22 419.053 134.38 419.34C134.54 419.62 134.753 419.837 135.02 419.99C135.287 420.143 135.59 420.22 135.93 420.22ZM137.7 422.94V419.59L137.8 418.36L137.74 417.13V415.7H138.66V422.94H137.7ZM141.596 421L139.626 415.7H140.536L142.286 420.5H141.856L143.676 415.7H144.486L146.266 420.5H145.846L147.636 415.7H148.496L146.516 421H145.596L143.926 416.62H144.206L142.516 421H141.596ZM151.684 421.06C151.117 421.06 150.617 420.943 150.184 420.71C149.757 420.477 149.424 420.157 149.184 419.75C148.951 419.343 148.834 418.877 148.834 418.35C148.834 417.823 148.947 417.357 149.174 416.95C149.407 416.543 149.724 416.227 150.124 416C150.531 415.767 150.987 415.65 151.494 415.65C152.007 415.65 152.461 415.763 152.854 415.99C153.247 416.217 153.554 416.537 153.774 416.95C154.001 417.357 154.114 417.833 154.114 418.38C154.114 418.42 154.111 418.467 154.104 418.52C154.104 418.573 154.101 418.623 154.094 418.67H149.584V417.98H153.594L153.204 418.22C153.211 417.88 153.141 417.577 152.994 417.31C152.847 417.043 152.644 416.837 152.384 416.69C152.131 416.537 151.834 416.46 151.494 416.46C151.161 416.46 150.864 416.537 150.604 416.69C150.344 416.837 150.141 417.047 149.994 417.32C149.847 417.587 149.774 417.893 149.774 418.24V418.4C149.774 418.753 149.854 419.07 150.014 419.35C150.181 419.623 150.411 419.837 150.704 419.99C150.997 420.143 151.334 420.22 151.714 420.22C152.027 420.22 152.311 420.167 152.564 420.06C152.824 419.953 153.051 419.793 153.244 419.58L153.774 420.2C153.534 420.48 153.234 420.693 152.874 420.84C152.521 420.987 152.124 421.06 151.684 421.06Z" fill="black"/>
<rect opacity="0.35" x="176.833" y="407" width="1" height="20" fill="black"/>
<path d="M215.127 421.08C214.634 421.08 214.154 421.003 213.687 420.85C213.227 420.697 212.851 420.49 212.557 420.23L213.017 419.44C213.251 419.66 213.554 419.84 213.927 419.98C214.301 420.12 214.701 420.19 215.127 420.19C215.647 420.19 216.051 420.08 216.337 419.86C216.631 419.633 216.777 419.33 216.777 418.95C216.777 418.583 216.637 418.29 216.357 418.07C216.084 417.843 215.647 417.73 215.047 417.73H214.487V417.03L216.567 414.47L216.707 414.87H212.877V414H217.497V414.68L215.427 417.23L214.907 416.92H215.237C216.084 416.92 216.717 417.11 217.137 417.49C217.564 417.87 217.777 418.353 217.777 418.94C217.777 419.333 217.681 419.693 217.487 420.02C217.294 420.347 217.001 420.607 216.607 420.8C216.221 420.987 215.727 421.08 215.127 421.08ZM218.551 421V420.32L221.401 417.57C221.655 417.33 221.841 417.12 221.961 416.94C222.088 416.753 222.171 416.583 222.211 416.43C222.258 416.27 222.281 416.117 222.281 415.97C222.281 415.61 222.155 415.327 221.901 415.12C221.648 414.913 221.278 414.81 220.791 414.81C220.418 414.81 220.081 414.873 219.781 415C219.481 415.12 219.221 415.31 219.001 415.57L218.321 414.98C218.588 414.64 218.945 414.38 219.391 414.2C219.845 414.013 220.341 413.92 220.881 413.92C221.368 413.92 221.791 414 222.151 414.16C222.511 414.313 222.788 414.537 222.981 414.83C223.181 415.123 223.281 415.47 223.281 415.87C223.281 416.097 223.251 416.32 223.191 416.54C223.131 416.76 223.018 416.993 222.851 417.24C222.685 417.487 222.445 417.763 222.131 418.07L219.591 420.52L219.351 420.13H223.581V421H218.551ZM225.583 421V414.4L226.013 414.87H224.003V414H226.573V421H225.583ZM229.285 421V414.4L229.715 414.87H227.705V414H230.275V421H229.285Z" fill="black"/>
<rect x="-267.75" y="407.25" width="533.5" height="19.5" stroke="black" stroke-opacity="0.5" stroke-width="0.5"/>
<rect x="-268" y="427" width="534" height="20" fill="#F2F2F2"/>
<path d="M40.5217 441V434.4L40.9517 434.87H38.9417V434H41.5117V441H40.5217ZM42.9328 441V440.32L45.7828 437.57C46.0362 437.33 46.2228 437.12 46.3428 436.94C46.4695 436.753 46.5528 436.583 46.5928 436.43C46.6395 436.27 46.6628 436.117 46.6628 435.97C46.6628 435.61 46.5362 435.327 46.2828 435.12C46.0295 434.913 45.6595 434.81 45.1728 434.81C44.7995 434.81 44.4628 434.873 44.1628 435C43.8628 435.12 43.6028 435.31 43.3828 435.57L42.7028 434.98C42.9695 434.64 43.3262 434.38 43.7728 434.2C44.2262 434.013 44.7228 433.92 45.2628 433.92C45.7495 433.92 46.1728 434 46.5328 434.16C46.8928 434.313 47.1695 434.537 47.3628 434.83C47.5628 435.123 47.6628 435.47 47.6628 435.87C47.6628 436.097 47.6328 436.32 47.5728 436.54C47.5128 436.76 47.3995 436.993 47.2328 437.24C47.0662 437.487 46.8262 437.763 46.5128 438.07L43.9728 440.52L43.7328 440.13H47.9628V441H42.9328Z" fill="black"/>
<rect opacity="0.35" x="87.6667" y="427" width="1" height="20" fill="black"/>
<path d="M128.116 441L126.066 438.42L126.856 437.94L129.246 441H128.116ZM124.276 441V435.7H125.236V441H124.276ZM124.946 438.76V437.94H126.696V438.76H124.946ZM126.936 438.46L126.046 438.34L128.076 435.7H129.106L126.936 438.46ZM133.062 441.06C132.622 441.06 132.219 440.96 131.852 440.76C131.492 440.553 131.202 440.25 130.982 439.85C130.769 439.45 130.662 438.95 130.662 438.35C130.662 437.75 130.766 437.25 130.972 436.85C131.186 436.45 131.472 436.15 131.832 435.95C132.199 435.75 132.609 435.65 133.062 435.65C133.582 435.65 134.042 435.763 134.442 435.99C134.842 436.217 135.159 436.533 135.392 436.94C135.626 437.34 135.742 437.81 135.742 438.35C135.742 438.89 135.626 439.363 135.392 439.77C135.159 440.177 134.842 440.493 134.442 440.72C134.042 440.947 133.582 441.06 133.062 441.06ZM130.252 442.94V435.7H131.172V437.13L131.112 438.36L131.212 439.59V442.94H130.252ZM132.982 440.22C133.322 440.22 133.626 440.143 133.892 439.99C134.166 439.837 134.379 439.62 134.532 439.34C134.692 439.053 134.772 438.723 134.772 438.35C134.772 437.97 134.692 437.643 134.532 437.37C134.379 437.09 134.166 436.873 133.892 436.72C133.626 436.567 133.322 436.49 132.982 436.49C132.649 436.49 132.346 436.567 132.072 436.72C131.806 436.873 131.592 437.09 131.432 437.37C131.279 437.643 131.202 437.97 131.202 438.35C131.202 438.723 131.279 439.053 131.432 439.34C131.592 439.62 131.806 439.837 132.072 439.99C132.346 440.143 132.649 440.22 132.982 440.22ZM140.351 441V439.14L140.501 439.32H138.811C138.105 439.32 137.551 439.17 137.151 438.87C136.758 438.57 136.561 438.133 136.561 437.56C136.561 436.947 136.771 436.483 137.191 436.17C137.618 435.857 138.185 435.7 138.891 435.7H141.211V441H140.351ZM136.511 441L137.951 438.97H138.941L137.541 441H136.511ZM140.351 438.84V436.27L140.501 436.54H138.921C138.481 436.54 138.141 436.623 137.901 436.79C137.661 436.95 137.541 437.217 137.541 437.59C137.541 438.283 137.988 438.63 138.881 438.63H140.501L140.351 438.84Z" fill="black"/>
<rect opacity="0.35" x="176.833" y="427" width="1" height="20" fill="black"/>
<path d="M198.005 441V434.4L198.435 434.87H196.425V434H198.995V441H198.005ZM200.416 441V440.32L203.266 437.57C203.52 437.33 203.706 437.12 203.826 436.94C203.953 436.753 204.036 436.583 204.076 436.43C204.123 436.27 204.146 436.117 204.146 435.97C204.146 435.61 204.02 435.327 203.766 435.12C203.513 434.913 203.143 434.81 202.656 434.81C202.283 434.81 201.946 434.873 201.646 435C201.346 435.12 201.086 435.31 200.866 435.57L200.186 434.98C200.453 434.64 200.81 434.38 201.256 434.2C201.71 434.013 202.206 433.92 202.746 433.92C203.233 433.92 203.656 434 204.016 434.16C204.376 434.313 204.653 434.537 204.846 434.83C205.046 435.123 205.146 435.47 205.146 435.87C205.146 436.097 205.116 436.32 205.056 436.54C204.996 436.76 204.883 436.993 204.716 437.24C204.55 437.487 204.31 437.763 203.996 438.07L201.456 440.52L201.216 440.13H205.446V441H200.416ZM208.409 441.08C207.915 441.08 207.435 441.003 206.969 440.85C206.509 440.697 206.132 440.49 205.839 440.23L206.299 439.44C206.532 439.66 206.835 439.84 207.209 439.98C207.582 440.12 207.982 440.19 208.409 440.19C208.929 440.19 209.332 440.08 209.619 439.86C209.912 439.633 210.059 439.33 210.059 438.95C210.059 438.583 209.919 438.29 209.639 438.07C209.365 437.843 208.929 437.73 208.329 437.73H207.769V437.03L209.849 434.47L209.989 434.87H206.159V434H210.779V434.68L208.709 437.23L208.189 436.92H208.519C209.365 436.92 209.999 437.11 210.419 437.49C210.845 437.87 211.059 438.353 211.059 438.94C211.059 439.333 210.962 439.693 210.769 440.02C210.575 440.347 210.282 440.607 209.889 440.8C209.502 440.987 209.009 441.08 208.409 441.08ZM211.832 441V440.32L214.682 437.57C214.936 437.33 215.122 437.12 215.242 436.94C215.369 436.753 215.452 436.583 215.492 436.43C215.539 436.27 215.562 436.117 215.562 435.97C215.562 435.61 215.436 435.327 215.182 435.12C214.929 434.913 214.559 434.81 214.072 434.81C213.699 434.81 213.362 434.873 213.062 435C212.762 435.12 212.502 435.31 212.282 435.57L211.602 434.98C211.869 434.64 212.226 434.38 212.672 434.2C213.126 434.013 213.622 433.92 214.162 433.92C214.649 433.92 215.072 434 215.432 434.16C215.792 434.313 216.069 434.537 216.262 434.83C216.462 435.123 216.562 435.47 216.562 435.87C216.562 436.097 216.532 436.32 216.472 436.54C216.412 436.76 216.299 436.993 216.132 437.24C215.966 437.487 215.726 437.763 215.412 438.07L212.872 440.52L212.632 440.13H216.862V441H211.832ZM218.865 441V434.4L219.295 434.87H217.285V434H219.855V441H218.865ZM223.526 441.08C223.033 441.08 222.553 441.003 222.086 440.85C221.626 440.697 221.249 440.49 220.956 440.23L221.416 439.44C221.649 439.66 221.953 439.84 222.326 439.98C222.699 440.12 223.099 440.19 223.526 440.19C224.046 440.19 224.449 440.08 224.736 439.86C225.029 439.633 225.176 439.33 225.176 438.95C225.176 438.583 225.036 438.29 224.756 438.07C224.483 437.843 224.046 437.73 223.446 437.73H222.886V437.03L224.966 434.47L225.106 434.87H221.276V434H225.896V434.68L223.826 437.23L223.306 436.92H223.636C224.483 436.92 225.116 437.11 225.536 437.49C225.963 437.87 226.176 438.353 226.176 438.94C226.176 439.333 226.079 439.693 225.886 440.02C225.693 440.347 225.399 440.607 225.006 440.8C224.619 440.987 224.126 441.08 223.526 441.08ZM226.95 441V440.32L229.8 437.57C230.053 437.33 230.24 437.12 230.36 436.94C230.486 436.753 230.57 436.583 230.61 436.43C230.656 436.27 230.68 436.117 230.68 435.97C230.68 435.61 230.553 435.327 230.3 435.12C230.046 434.913 229.676 434.81 229.19 434.81C228.816 434.81 228.48 434.873 228.18 435C227.88 435.12 227.62 435.31 227.4 435.57L226.72 434.98C226.986 434.64 227.343 434.38 227.79 434.2C228.243 434.013 228.74 433.92 229.28 433.92C229.766 433.92 230.19 434 230.55 434.16C230.91 434.313 231.186 434.537 231.38 434.83C231.58 435.123 231.68 435.47 231.68 435.87C231.68 436.097 231.65 436.32 231.59 436.54C231.53 436.76 231.416 436.993 231.25 437.24C231.083 437.487 230.843 437.763 230.53 438.07L227.99 440.52L227.75 440.13H231.98V441H226.95ZM234.942 441.08C234.449 441.08 233.969 441.003 233.502 440.85C233.042 440.697 232.665 440.49 232.372 440.23L232.832 439.44C233.065 439.66 233.369 439.84 233.742 439.98C234.115 440.12 234.515 440.19 234.942 440.19C235.462 440.19 235.865 440.08 236.152 439.86C236.445 439.633 236.592 439.33 236.592 438.95C236.592 438.583 236.452 438.29 236.172 438.07C235.899 437.843 235.462 437.73 234.862 437.73H234.302V437.03L236.382 434.47L236.522 434.87H232.692V434H237.312V434.68L235.242 437.23L234.722 436.92H235.052C235.899 436.92 236.532 437.11 236.952 437.49C237.379 437.87 237.592 438.353 237.592 438.94C237.592 439.333 237.495 439.693 237.302 440.02C237.109 440.347 236.815 440.607 236.422 440.8C236.035 440.987 235.542 441.08 234.942 441.08ZM239.705 441V434.4L240.135 434.87H238.125V434H240.695V441H239.705ZM242.116 441V440.32L244.966 437.57C245.219 437.33 245.406 437.12 245.526 436.94C245.652 436.753 245.736 436.583 245.776 436.43C245.822 436.27 245.846 436.117 245.846 435.97C245.846 435.61 245.719 435.327 245.466 435.12C245.212 434.913 244.842 434.81 244.356 434.81C243.982 434.81 243.646 434.873 243.346 435C243.046 435.12 242.786 435.31 242.566 435.57L241.886 434.98C242.152 434.64 242.509 434.38 242.956 434.2C243.409 434.013 243.906 433.92 244.446 433.92C244.932 433.92 245.356 434 245.716 434.16C246.076 434.313 246.352 434.537 246.546 434.83C246.746 435.123 246.846 435.47 246.846 435.87C246.846 436.097 246.816 436.32 246.756 436.54C246.696 436.76 246.582 436.993 246.416 437.24C246.249 437.487 246.009 437.763 245.696 438.07L243.156 440.52L242.916 440.13H247.146V441H242.116Z" fill="black"/>
<rect x="-267.75" y="427.25" width="533.5" height="19.5" stroke="black" stroke-opacity="0.5" stroke-width="0.5"/>
</g>
</g>
<path d="M0.5 191.5H380C384.142 191.5 387.5 194.858 387.5 199V447C387.5 451.142 384.142 454.5 380 454.5H0.5V191.5Z" stroke="#808080"/>
</g>
<path d="M191.4 158.2C191.234 157.979 190.921 157.934 190.7 158.1C190.479 158.266 190.434 158.579 190.6 158.8L191.4 158.2ZM243 174.5L242.946 174.003L243 174.5ZM313.676 181.381C313.886 181.56 314.202 181.534 314.381 181.324L317.299 177.899C317.478 177.688 317.453 177.373 317.242 177.194C317.032 177.015 316.717 177.04 316.537 177.25L313.944 180.295L310.899 177.701C310.688 177.522 310.373 177.547 310.194 177.758C310.015 177.968 310.04 178.283 310.25 178.463L313.676 181.381ZM190.6 158.8C195.715 165.62 213.294 178.214 243.054 174.997L242.946 174.003C213.506 177.186 196.285 164.714 191.4 158.2L190.6 158.8ZM243.054 174.997C261.557 172.997 279.021 171.501 291.978 172.062C298.462 172.343 303.77 173.137 307.504 174.613C311.234 176.089 313.274 178.189 313.502 181.04L314.498 180.96C314.226 177.561 311.766 175.224 307.871 173.683C303.98 172.144 298.538 171.345 292.022 171.063C278.979 170.499 261.443 172.003 242.946 174.003L243.054 174.997Z" fill="#3B3B3B"/>
<path d="M27.128 123.192C25.848 123.192 24.664 122.984 23.576 122.568C22.504 122.136 21.568 121.536 20.768 120.768C19.984 119.984 19.368 119.072 18.92 118.032C18.472 116.992 18.248 115.848 18.248 114.6C18.248 113.352 18.472 112.208 18.92 111.168C19.368 110.128 19.992 109.224 20.792 108.456C21.592 107.672 22.528 107.072 23.6 106.656C24.688 106.224 25.872 106.008 27.152 106.008C28.448 106.008 29.64 106.232 30.728 106.68C31.832 107.112 32.768 107.76 33.536 108.624L31.976 110.136C31.336 109.464 30.616 108.968 29.816 108.648C29.016 108.312 28.16 108.144 27.248 108.144C26.304 108.144 25.424 108.304 24.608 108.624C23.808 108.944 23.112 109.392 22.52 109.968C21.928 110.544 21.464 111.232 21.128 112.032C20.808 112.816 20.648 113.672 20.648 114.6C20.648 115.528 20.808 116.392 21.128 117.192C21.464 117.976 21.928 118.656 22.52 119.232C23.112 119.808 23.808 120.256 24.608 120.576C25.424 120.896 26.304 121.056 27.248 121.056C28.16 121.056 29.016 120.896 29.816 120.576C30.616 120.24 31.336 119.728 31.976 119.04L33.536 120.552C32.768 121.416 31.832 122.072 30.728 122.52C29.64 122.968 28.44 123.192 27.128 123.192ZM41.3675 123.144C40.0875 123.144 38.9515 122.864 37.9595 122.304C36.9675 121.744 36.1835 120.976 35.6075 120C35.0315 119.008 34.7435 117.888 34.7435 116.64C34.7435 115.376 35.0315 114.256 35.6075 113.28C36.1835 112.304 36.9675 111.544 37.9595 111C38.9515 110.44 40.0875 110.16 41.3675 110.16C42.6315 110.16 43.7595 110.44 44.7515 111C45.7595 111.544 46.5435 112.304 47.1035 113.28C47.6795 114.24 47.9675 115.36 47.9675 116.64C47.9675 117.904 47.6795 119.024 47.1035 120C46.5435 120.976 45.7595 121.744 44.7515 122.304C43.7595 122.864 42.6315 123.144 41.3675 123.144ZM41.3675 121.128C42.1835 121.128 42.9115 120.944 43.5515 120.576C44.2075 120.208 44.7195 119.688 45.0875 119.016C45.4555 118.328 45.6395 117.536 45.6395 116.64C45.6395 115.728 45.4555 114.944 45.0875 114.288C44.7195 113.616 44.2075 113.096 43.5515 112.728C42.9115 112.36 42.1835 112.176 41.3675 112.176C40.5515 112.176 39.8235 112.36 39.1835 112.728C38.5435 113.096 38.0315 113.616 37.6475 114.288C37.2635 114.944 37.0715 115.728 37.0715 116.64C37.0715 117.536 37.2635 118.328 37.6475 119.016C38.0315 119.688 38.5435 120.208 39.1835 120.576C39.8235 120.944 40.5515 121.128 41.3675 121.128ZM54.8739 123.168C55.9939 123.168 56.9859 123.008 57.8499 122.688C58.7299 122.352 59.4259 121.896 59.9379 121.32C60.4499 120.728 60.7059 120.048 60.7059 119.28C60.7059 118.32 60.2979 117.56 59.4819 117C58.6659 116.44 57.5459 116.16 56.1219 116.16L56.0259 116.712C56.8579 116.712 57.5939 116.576 58.2339 116.304C58.8739 116.032 59.3859 115.664 59.7699 115.2C60.1539 114.72 60.3459 114.176 60.3459 113.568C60.3459 112.848 60.0899 112.224 59.5779 111.696C59.0819 111.168 58.4019 110.768 57.5379 110.496C56.6739 110.208 55.6899 110.08 54.5859 110.112C53.8499 110.128 53.1059 110.24 52.3539 110.448C51.6179 110.64 50.8659 110.92 50.0979 111.288L50.7219 113.088C51.4099 112.752 52.0819 112.504 52.7379 112.344C53.4099 112.184 54.0659 112.096 54.7059 112.08C55.3619 112.08 55.9299 112.152 56.4099 112.296C56.9059 112.44 57.2899 112.648 57.5619 112.92C57.8339 113.192 57.9699 113.52 57.9699 113.904C57.9699 114.256 57.8499 114.568 57.6099 114.84C57.3859 115.096 57.0659 115.288 56.6499 115.416C56.2339 115.544 55.7459 115.608 55.1859 115.608H53.0259V117.264H55.3299C56.2739 117.264 57.0099 117.424 57.5379 117.744C58.0659 118.064 58.3299 118.52 58.3299 119.112C58.3299 119.528 58.1859 119.896 57.8979 120.216C57.6099 120.52 57.1939 120.76 56.6499 120.936C56.1219 121.112 55.4899 121.2 54.7539 121.2C53.9539 121.2 53.1619 121.096 52.3779 120.888C51.5939 120.664 50.8979 120.36 50.2899 119.976L49.5939 121.728C50.3139 122.192 51.1299 122.552 52.0419 122.808C52.9699 123.048 53.9139 123.168 54.8739 123.168ZM72.8966 121.92V112.296H67.3766L67.2566 114.744C67.2246 115.544 67.1686 116.32 67.0886 117.072C67.0246 117.808 66.9126 118.488 66.7526 119.112C66.6086 119.736 66.3926 120.248 66.1046 120.648C65.8166 121.048 65.4326 121.296 64.9526 121.392L62.6726 120.984C63.1686 121 63.5686 120.84 63.8726 120.504C64.1766 120.152 64.4086 119.672 64.5686 119.064C64.7446 118.456 64.8726 117.768 64.9526 117C65.0326 116.216 65.0966 115.408 65.1446 114.576L65.3366 110.28H75.2006V121.92H72.8966ZM62.1686 125.952V120.984H77.1446V125.952H74.9846V123H64.3526V125.952H62.1686ZM87.9461 123V120.312L87.8261 119.808V115.224C87.8261 114.248 87.5381 113.496 86.9621 112.968C86.4021 112.424 85.5541 112.152 84.4181 112.152C83.6661 112.152 82.9301 112.28 82.2101 112.536C81.4901 112.776 80.8821 113.104 80.3861 113.52L79.4261 111.792C80.0821 111.264 80.8661 110.864 81.7781 110.592C82.7061 110.304 83.6741 110.16 84.6821 110.16C86.4261 110.16 87.7701 110.584 88.7141 111.432C89.6581 112.28 90.1301 113.576 90.1301 115.32V123H87.9461ZM83.7701 123.144C82.8261 123.144 81.9941 122.984 81.2741 122.664C80.5701 122.344 80.0261 121.904 79.6421 121.344C79.2581 120.768 79.0661 120.12 79.0661 119.4C79.0661 118.712 79.2261 118.088 79.5461 117.528C79.8821 116.968 80.4181 116.52 81.1541 116.184C81.9061 115.848 82.9141 115.68 84.1781 115.68H88.2101V117.336H84.2741C83.1221 117.336 82.3461 117.528 81.9461 117.912C81.5461 118.296 81.3461 118.76 81.3461 119.304C81.3461 119.928 81.5941 120.432 82.0901 120.816C82.5861 121.184 83.2741 121.368 84.1541 121.368C85.0181 121.368 85.7701 121.176 86.4101 120.792C87.0661 120.408 87.5381 119.848 87.8261 119.112L88.2821 120.696C87.9781 121.448 87.4421 122.048 86.6741 122.496C85.9061 122.928 84.9381 123.144 83.7701 123.144ZM94.2789 123V110.28H100.183C101.671 110.28 102.839 110.568 103.687 111.144C104.551 111.704 104.983 112.504 104.983 113.544C104.983 114.584 104.575 115.392 103.759 115.968C102.959 116.528 101.895 116.808 100.567 116.808L100.927 116.184C102.447 116.184 103.575 116.464 104.311 117.024C105.047 117.584 105.415 118.408 105.415 119.496C105.415 120.6 104.999 121.464 104.167 122.088C103.351 122.696 102.095 123 100.399 123H94.2789ZM96.5349 121.224H100.231C101.191 121.224 101.911 121.08 102.391 120.792C102.871 120.488 103.111 120.008 103.111 119.352C103.111 118.68 102.887 118.192 102.439 117.888C102.007 117.568 101.319 117.408 100.375 117.408H96.5349V121.224ZM96.5349 115.752H99.9909C100.871 115.752 101.535 115.592 101.983 115.272C102.447 114.936 102.679 114.472 102.679 113.88C102.679 113.272 102.447 112.816 101.983 112.512C101.535 112.208 100.871 112.056 99.9909 112.056H96.5349V115.752ZM116.821 123V120.312L116.701 119.808V115.224C116.701 114.248 116.413 113.496 115.837 112.968C115.277 112.424 114.429 112.152 113.293 112.152C112.541 112.152 111.805 112.28 111.085 112.536C110.365 112.776 109.757 113.104 109.261 113.52L108.301 111.792C108.957 111.264 109.741 110.864 110.653 110.592C111.581 110.304 112.549 110.16 113.557 110.16C115.301 110.16 116.645 110.584 117.589 111.432C118.533 112.28 119.005 113.576 119.005 115.32V123H116.821ZM112.645 123.144C111.701 123.144 110.869 122.984 110.149 122.664C109.445 122.344 108.901 121.904 108.517 121.344C108.133 120.768 107.941 120.12 107.941 119.4C107.941 118.712 108.101 118.088 108.421 117.528C108.757 116.968 109.293 116.52 110.029 116.184C110.781 115.848 111.789 115.68 113.053 115.68H117.085V117.336H113.149C111.997 117.336 111.221 117.528 110.821 117.912C110.421 118.296 110.221 118.76 110.221 119.304C110.221 119.928 110.469 120.432 110.965 120.816C111.461 121.184 112.149 121.368 113.029 121.368C113.893 121.368 114.645 121.176 115.285 120.792C115.941 120.408 116.413 119.848 116.701 119.112L117.157 120.696C116.853 121.448 116.317 122.048 115.549 122.496C114.781 122.928 113.813 123.144 112.645 123.144ZM123.154 123V110.28H125.458V119.544L133.258 110.28H135.346V123H133.042V113.736L125.266 123H123.154ZM129.106 108.624C127.938 108.624 127.018 108.344 126.346 107.784C125.69 107.208 125.354 106.384 125.338 105.312H126.898C126.914 105.92 127.114 106.4 127.498 106.752C127.898 107.104 128.426 107.28 129.082 107.28C129.738 107.28 130.266 107.104 130.666 106.752C131.066 106.4 131.274 105.92 131.29 105.312H132.898C132.882 106.384 132.538 107.208 131.866 107.784C131.194 108.344 130.274 108.624 129.106 108.624ZM142.338 123V111.696L142.914 112.296H137.682V110.28H149.298V112.296H144.09L144.642 111.696V123H142.338ZM156.755 123.144C155.395 123.144 154.195 122.864 153.155 122.304C152.131 121.744 151.331 120.976 150.755 120C150.195 119.024 149.915 117.904 149.915 116.64C149.915 115.376 150.187 114.256 150.731 113.28C151.291 112.304 152.051 111.544 153.011 111C153.987 110.44 155.083 110.16 156.299 110.16C157.531 110.16 158.619 110.432 159.563 110.976C160.507 111.52 161.243 112.288 161.771 113.28C162.315 114.256 162.587 115.4 162.587 116.712C162.587 116.808 162.579 116.92 162.563 117.048C162.563 117.176 162.555 117.296 162.539 117.408H151.715V115.752H161.339L160.403 116.328C160.419 115.512 160.251 114.784 159.899 114.144C159.547 113.504 159.059 113.008 158.435 112.656C157.827 112.288 157.115 112.104 156.299 112.104C155.499 112.104 154.787 112.288 154.163 112.656C153.539 113.008 153.051 113.512 152.699 114.168C152.347 114.808 152.171 115.544 152.171 116.376V116.76C152.171 117.608 152.363 118.368 152.747 119.04C153.147 119.696 153.699 120.208 154.403 120.576C155.107 120.944 155.915 121.128 156.827 121.128C157.579 121.128 158.259 121 158.867 120.744C159.491 120.488 160.035 120.104 160.499 119.592L161.771 121.08C161.195 121.752 160.475 122.264 159.611 122.616C158.763 122.968 157.811 123.144 156.755 123.144ZM271.268 123.144C269.972 123.144 268.812 122.864 267.788 122.304C266.78 121.744 265.988 120.976 265.412 120C264.836 119.024 264.548 117.904 264.548 116.64C264.548 115.376 264.836 114.256 265.412 113.28C265.988 112.304 266.78 111.544 267.788 111C268.812 110.44 269.972 110.16 271.268 110.16C272.42 110.16 273.444 110.392 274.34 110.856C275.252 111.304 275.956 111.976 276.452 112.872L274.7 114C274.284 113.376 273.772 112.92 273.164 112.632C272.572 112.328 271.932 112.176 271.244 112.176C270.412 112.176 269.668 112.36 269.012 112.728C268.356 113.096 267.836 113.616 267.452 114.288C267.068 114.944 266.876 115.728 266.876 116.64C266.876 117.552 267.068 118.344 267.452 119.016C267.836 119.688 268.356 120.208 269.012 120.576C269.668 120.944 270.412 121.128 271.244 121.128C271.932 121.128 272.572 120.984 273.164 120.696C273.772 120.392 274.284 119.928 274.7 119.304L276.452 120.408C275.956 121.288 275.252 121.968 274.34 122.448C273.444 122.912 272.42 123.144 271.268 123.144ZM281.791 123V111.696L282.367 112.296H277.135V110.28H288.751V112.296H283.543L284.095 111.696V123H281.791ZM297.851 123.144C296.795 123.144 295.827 122.904 294.947 122.424C294.083 121.928 293.387 121.2 292.859 120.24C292.347 119.28 292.091 118.08 292.091 116.64C292.091 115.2 292.339 114 292.835 113.04C293.347 112.08 294.035 111.36 294.899 110.88C295.779 110.4 296.763 110.16 297.851 110.16C299.099 110.16 300.203 110.432 301.163 110.976C302.123 111.52 302.883 112.28 303.443 113.256C304.003 114.216 304.283 115.344 304.283 116.64C304.283 117.936 304.003 119.072 303.443 120.048C302.883 121.024 302.123 121.784 301.163 122.328C300.203 122.872 299.099 123.144 297.851 123.144ZM291.107 127.656V110.28H293.315V113.712L293.171 116.664L293.411 119.616V127.656H291.107ZM297.659 121.128C298.475 121.128 299.203 120.944 299.843 120.576C300.499 120.208 301.011 119.688 301.379 119.016C301.763 118.328 301.955 117.536 301.955 116.64C301.955 115.728 301.763 114.944 301.379 114.288C301.011 113.616 300.499 113.096 299.843 112.728C299.203 112.36 298.475 112.176 297.659 112.176C296.859 112.176 296.131 112.36 295.475 112.728C294.835 113.096 294.323 113.616 293.939 114.288C293.571 114.944 293.387 115.728 293.387 116.64C293.387 117.536 293.571 118.328 293.939 119.016C294.323 119.688 294.835 120.208 295.475 120.576C296.131 120.944 296.859 121.128 297.659 121.128ZM315.313 123V120.312L315.193 119.808V115.224C315.193 114.248 314.905 113.496 314.329 112.968C313.769 112.424 312.921 112.152 311.785 112.152C311.033 112.152 310.297 112.28 309.577 112.536C308.857 112.776 308.249 113.104 307.753 113.52L306.793 111.792C307.449 111.264 308.233 110.864 309.145 110.592C310.073 110.304 311.041 110.16 312.049 110.16C313.793 110.16 315.137 110.584 316.081 111.432C317.025 112.28 317.497 113.576 317.497 115.32V123H315.313ZM311.137 123.144C310.193 123.144 309.361 122.984 308.641 122.664C307.937 122.344 307.393 121.904 307.009 121.344C306.625 120.768 306.433 120.12 306.433 119.4C306.433 118.712 306.593 118.088 306.913 117.528C307.249 116.968 307.785 116.52 308.521 116.184C309.273 115.848 310.281 115.68 311.545 115.68H315.577V117.336H311.641C310.489 117.336 309.713 117.528 309.313 117.912C308.913 118.296 308.713 118.76 308.713 119.304C308.713 119.928 308.961 120.432 309.457 120.816C309.953 121.184 310.641 121.368 311.521 121.368C312.385 121.368 313.137 121.176 313.777 120.792C314.433 120.408 314.905 119.848 315.193 119.112L315.649 120.696C315.345 121.448 314.809 122.048 314.041 122.496C313.273 122.928 312.305 123.144 311.137 123.144ZM321.646 123V110.28H323.95V115.68H331.198V110.28H333.502V123H331.198V117.672H323.95V123H321.646ZM337.982 123V110.28H340.286V119.544L348.086 110.28H350.174V123H347.87V113.736L340.094 123H337.982ZM354.646 123V110.28H356.95V120.984H363.91V110.28H366.214V123H354.646ZM366.046 125.952V122.88L366.622 123H363.91V120.984H368.23V125.952H366.046ZM371.864 127.8C371.256 127.8 370.664 127.696 370.088 127.488C369.512 127.296 369.016 127.008 368.6 126.624L369.584 124.896C369.904 125.2 370.256 125.432 370.64 125.592C371.024 125.752 371.432 125.832 371.864 125.832C372.424 125.832 372.888 125.688 373.256 125.4C373.624 125.112 373.968 124.6 374.288 123.864L375.08 122.112L375.32 121.824L380.312 110.28H382.568L376.4 124.272C376.032 125.168 375.616 125.872 375.152 126.384C374.704 126.896 374.208 127.256 373.664 127.464C373.12 127.688 372.52 127.8 371.864 127.8ZM374.888 123.408L369.08 110.28H371.48L376.424 121.608L374.888 123.408ZM383.17 126.552L384.37 121.704L384.682 123.096C384.218 123.096 383.826 122.952 383.506 122.664C383.202 122.376 383.05 121.984 383.05 121.488C383.05 121.008 383.202 120.616 383.506 120.312C383.826 120.008 384.21 119.856 384.658 119.856C385.122 119.856 385.498 120.016 385.786 120.336C386.074 120.64 386.218 121.024 386.218 121.488C386.218 121.648 386.202 121.808 386.17 121.968C386.154 122.112 386.114 122.288 386.05 122.496C386.002 122.688 385.922 122.928 385.81 123.216L384.682 126.552H383.17ZM27.92 150.92V141.296H22.4L22.28 143.744C22.248 144.544 22.192 145.32 22.112 146.072C22.048 146.808 21.936 147.488 21.776 148.112C21.632 148.736 21.416 149.248 21.128 149.648C20.84 150.048 20.456 150.296 19.976 150.392L17.696 149.984C18.192 150 18.592 149.84 18.896 149.504C19.2 149.152 19.432 148.672 19.592 148.064C19.768 147.456 19.896 146.768 19.976 146C20.056 145.216 20.12 144.408 20.168 143.576L20.36 139.28H30.224V150.92H27.92ZM17.192 154.952V149.984H32.168V154.952H30.008V152H19.376V154.952H17.192ZM40.8335 152.144C39.4735 152.144 38.2735 151.864 37.2335 151.304C36.2095 150.744 35.4095 149.976 34.8335 149C34.2735 148.024 33.9935 146.904 33.9935 145.64C33.9935 144.376 34.2655 143.256 34.8095 142.28C35.3695 141.304 36.1295 140.544 37.0895 140C38.0655 139.44 39.1615 139.16 40.3775 139.16C41.6095 139.16 42.6975 139.432 43.6415 139.976C44.5855 140.52 45.3215 141.288 45.8495 142.28C46.3935 143.256 46.6655 144.4 46.6655 145.712C46.6655 145.808 46.6575 145.92 46.6415 146.048C46.6415 146.176 46.6335 146.296 46.6175 146.408H35.7935V144.752H45.4175L44.4815 145.328C44.4975 144.512 44.3295 143.784 43.9775 143.144C43.6255 142.504 43.1375 142.008 42.5135 141.656C41.9055 141.288 41.1935 141.104 40.3775 141.104C39.5775 141.104 38.8655 141.288 38.2415 141.656C37.6175 142.008 37.1295 142.512 36.7775 143.168C36.4255 143.808 36.2495 144.544 36.2495 145.376V145.76C36.2495 146.608 36.4415 147.368 36.8255 148.04C37.2255 148.696 37.7775 149.208 38.4815 149.576C39.1855 149.944 39.9935 150.128 40.9055 150.128C41.6575 150.128 42.3375 150 42.9455 149.744C43.5695 149.488 44.1135 149.104 44.5775 148.592L45.8495 150.08C45.2735 150.752 44.5535 151.264 43.6895 151.616C42.8415 151.968 41.8895 152.144 40.8335 152.144ZM47.9169 151.976L48.0609 150.032C48.1729 150.048 48.2769 150.064 48.3729 150.08C48.4689 150.096 48.5569 150.104 48.6369 150.104C49.1489 150.104 49.5489 149.928 49.8369 149.576C50.1409 149.224 50.3649 148.76 50.5089 148.184C50.6529 147.592 50.7569 146.928 50.8209 146.192C50.8849 145.456 50.9329 144.72 50.9649 143.984L51.1809 139.28H60.9489V152H58.6449V140.624L59.1969 141.296H52.6689L53.1969 140.6L53.0289 144.128C52.9809 145.248 52.8929 146.296 52.7649 147.272C52.6369 148.248 52.4369 149.104 52.1649 149.84C51.9089 150.576 51.5489 151.152 51.0849 151.568C50.6369 151.984 50.0529 152.192 49.3329 152.192C49.1249 152.192 48.9009 152.168 48.6609 152.12C48.4369 152.088 48.1889 152.04 47.9169 151.976ZM65.4039 152V139.28H67.7079V148.544L75.5079 139.28H77.5959V152H75.2919V142.736L67.5159 152H65.4039ZM84.5879 152V140.696L85.1639 141.296H79.9319V139.28H91.5479V141.296H86.3399L86.8919 140.696V152H84.5879ZM99.0054 152.144C97.6454 152.144 96.4454 151.864 95.4054 151.304C94.3814 150.744 93.5814 149.976 93.0054 149C92.4454 148.024 92.1654 146.904 92.1654 145.64C92.1654 144.376 92.4374 143.256 92.9814 142.28C93.5414 141.304 94.3014 140.544 95.2614 140C96.2374 139.44 97.3334 139.16 98.5494 139.16C99.7814 139.16 100.869 139.432 101.813 139.976C102.757 140.52 103.493 141.288 104.021 142.28C104.565 143.256 104.837 144.4 104.837 145.712C104.837 145.808 104.829 145.92 104.813 146.048C104.813 146.176 104.805 146.296 104.789 146.408H93.9654V144.752H103.589L102.653 145.328C102.669 144.512 102.501 143.784 102.149 143.144C101.797 142.504 101.309 142.008 100.685 141.656C100.077 141.288 99.3654 141.104 98.5494 141.104C97.7494 141.104 97.0374 141.288 96.4134 141.656C95.7894 142.008 95.3014 142.512 94.9494 143.168C94.5974 143.808 94.4214 144.544 94.4214 145.376V145.76C94.4214 146.608 94.6134 147.368 94.9974 148.04C95.3974 148.696 95.9494 149.208 96.6534 149.576C97.3574 149.944 98.1654 150.128 99.0774 150.128C99.8294 150.128 100.509 150 101.117 149.744C101.741 149.488 102.285 149.104 102.749 148.592L104.021 150.08C103.445 150.752 102.725 151.264 101.861 151.616C101.013 151.968 100.061 152.144 99.0054 152.144ZM113.956 152.144C112.66 152.144 111.5 151.864 110.476 151.304C109.468 150.744 108.676 149.976 108.1 149C107.524 148.024 107.236 146.904 107.236 145.64C107.236 144.376 107.524 143.256 108.1 142.28C108.676 141.304 109.468 140.544 110.476 140C111.5 139.44 112.66 139.16 113.956 139.16C115.108 139.16 116.132 139.392 117.028 139.856C117.94 140.304 118.644 140.976 119.14 141.872L117.388 143C116.972 142.376 116.46 141.92 115.852 141.632C115.26 141.328 114.62 141.176 113.932 141.176C113.1 141.176 112.356 141.36 111.7 141.728C111.044 142.096 110.524 142.616 110.14 143.288C109.756 143.944 109.564 144.728 109.564 145.64C109.564 146.552 109.756 147.344 110.14 148.016C110.524 148.688 111.044 149.208 111.7 149.576C112.356 149.944 113.1 150.128 113.932 150.128C114.62 150.128 115.26 149.984 115.852 149.696C116.46 149.392 116.972 148.928 117.388 148.304L119.14 149.408C118.644 150.288 117.94 150.968 117.028 151.448C116.132 151.912 115.108 152.144 113.956 152.144ZM128.003 143.6C129.619 143.616 130.851 143.984 131.699 144.704C132.547 145.424 132.971 146.44 132.971 147.752C132.971 149.128 132.507 150.192 131.579 150.944C130.651 151.68 129.339 152.04 127.643 152.024L122.123 152V139.28H124.427V143.576L128.003 143.6ZM127.451 150.272C128.491 150.288 129.275 150.08 129.803 149.648C130.347 149.216 130.619 148.576 130.619 147.728C130.619 146.896 130.355 146.288 129.827 145.904C129.299 145.52 128.507 145.32 127.451 145.304L124.427 145.256V150.248L127.451 150.272ZM233.146 152V139.28H235.45V148.544L243.25 139.28H245.338V152H243.034V142.736L235.258 152H233.146ZM249.81 152V139.28H252.114V144.68H259.362V139.28H261.666V152H259.362V146.672H252.114V152H249.81ZM273.73 152.192C273.714 152.192 273.658 152.192 273.562 152.192C273.482 152.192 273.402 152.192 273.322 152.192C273.242 152.192 273.194 152.192 273.178 152.192C270.57 152.16 268.546 151.584 267.106 150.464C265.666 149.328 264.946 147.712 264.946 145.616C264.946 143.536 265.666 141.944 267.106 140.84C268.562 139.72 270.61 139.152 273.25 139.136C273.282 139.136 273.33 139.136 273.394 139.136C273.474 139.136 273.546 139.136 273.61 139.136C273.69 139.136 273.738 139.136 273.754 139.136C276.426 139.136 278.498 139.696 279.97 140.816C281.458 141.936 282.202 143.536 282.202 145.616C282.202 147.728 281.458 149.352 279.97 150.488C278.482 151.624 276.402 152.192 273.73 152.192ZM273.682 150.176C275.074 150.176 276.226 150 277.138 149.648C278.066 149.296 278.762 148.784 279.226 148.112C279.69 147.44 279.922 146.608 279.922 145.616C279.922 144.64 279.69 143.824 279.226 143.168C278.762 142.512 278.066 142.016 277.138 141.68C276.226 141.344 275.074 141.176 273.682 141.176C273.65 141.176 273.586 141.176 273.49 141.176C273.394 141.176 273.338 141.176 273.322 141.176C271.962 141.176 270.826 141.352 269.914 141.704C269.018 142.04 268.346 142.536 267.898 143.192C267.45 143.848 267.226 144.656 267.226 145.616C267.226 146.592 267.45 147.416 267.898 148.088C268.362 148.76 269.042 149.272 269.938 149.624C270.85 149.976 271.978 150.16 273.322 150.176C273.354 150.176 273.41 150.176 273.49 150.176C273.586 150.176 273.65 150.176 273.682 150.176ZM272.434 156.656V134.192H274.69V156.656H272.434ZM290.907 152.144C289.627 152.144 288.491 151.864 287.499 151.304C286.507 150.744 285.723 149.976 285.147 149C284.571 148.008 284.283 146.888 284.283 145.64C284.283 144.376 284.571 143.256 285.147 142.28C285.723 141.304 286.507 140.544 287.499 140C288.491 139.44 289.627 139.16 290.907 139.16C292.171 139.16 293.299 139.44 294.291 140C295.299 140.544 296.083 141.304 296.643 142.28C297.219 143.24 297.507 144.36 297.507 145.64C297.507 146.904 297.219 148.024 296.643 149C296.083 149.976 295.299 150.744 294.291 151.304C293.299 151.864 292.171 152.144 290.907 152.144ZM290.907 150.128C291.723 150.128 292.451 149.944 293.091 149.576C293.747 149.208 294.259 148.688 294.627 148.016C294.995 147.328 295.179 146.536 295.179 145.64C295.179 144.728 294.995 143.944 294.627 143.288C294.259 142.616 293.747 142.096 293.091 141.728C292.451 141.36 291.723 141.176 290.907 141.176C290.091 141.176 289.363 141.36 288.723 141.728C288.083 142.096 287.571 142.616 287.187 143.288C286.803 143.944 286.611 144.728 286.611 145.64C286.611 146.536 286.803 147.328 287.187 148.016C287.571 148.688 288.083 149.208 288.723 149.576C289.363 149.944 290.091 150.128 290.907 150.128ZM307.578 152.144C306.522 152.144 305.554 151.904 304.674 151.424C303.81 150.928 303.114 150.2 302.586 149.24C302.074 148.28 301.818 147.08 301.818 145.64C301.818 144.2 302.066 143 302.562 142.04C303.074 141.08 303.762 140.36 304.626 139.88C305.506 139.4 306.49 139.16 307.578 139.16C308.826 139.16 309.93 139.432 310.89 139.976C311.85 140.52 312.61 141.28 313.17 142.256C313.73 143.216 314.01 144.344 314.01 145.64C314.01 146.936 313.73 148.072 313.17 149.048C312.61 150.024 311.85 150.784 310.89 151.328C309.93 151.872 308.826 152.144 307.578 152.144ZM300.834 156.656V139.28H303.042V142.712L302.898 145.664L303.138 148.616V156.656H300.834ZM307.386 150.128C308.202 150.128 308.93 149.944 309.57 149.576C310.226 149.208 310.738 148.688 311.106 148.016C311.49 147.328 311.682 146.536 311.682 145.64C311.682 144.728 311.49 143.944 311.106 143.288C310.738 142.616 310.226 142.096 309.57 141.728C308.93 141.36 308.202 141.176 307.386 141.176C306.586 141.176 305.858 141.36 305.202 141.728C304.562 142.096 304.05 142.616 303.666 143.288C303.298 143.944 303.114 144.728 303.114 145.64C303.114 146.536 303.298 147.328 303.666 148.016C304.05 148.688 304.562 149.208 305.202 149.576C305.858 149.944 306.586 150.128 307.386 150.128ZM317.357 152V139.28H319.733L325.205 148.688H324.245L329.861 139.28H332.021V152H329.933V141.872L330.317 142.088L325.181 150.56H324.173L319.013 141.92L319.469 141.824V152H317.357ZM344.305 152V149.312L344.185 148.808V144.224C344.185 143.248 343.897 142.496 343.321 141.968C342.761 141.424 341.913 141.152 340.777 141.152C340.025 141.152 339.289 141.28 338.569 141.536C337.849 141.776 337.241 142.104 336.745 142.52L335.785 140.792C336.441 140.264 337.225 139.864 338.137 139.592C339.065 139.304 340.033 139.16 341.041 139.16C342.785 139.16 344.129 139.584 345.073 140.432C346.017 141.28 346.489 142.576 346.489 144.32V152H344.305ZM340.129 152.144C339.185 152.144 338.353 151.984 337.633 151.664C336.929 151.344 336.385 150.904 336.001 150.344C335.617 149.768 335.425 149.12 335.425 148.4C335.425 147.712 335.585 147.088 335.905 146.528C336.241 145.968 336.777 145.52 337.513 145.184C338.265 144.848 339.273 144.68 340.537 144.68H344.569V146.336H340.633C339.481 146.336 338.705 146.528 338.305 146.912C337.905 147.296 337.705 147.76 337.705 148.304C337.705 148.928 337.953 149.432 338.449 149.816C338.945 150.184 339.633 150.368 340.513 150.368C341.377 150.368 342.129 150.176 342.769 149.792C343.425 149.408 343.897 148.848 344.185 148.112L344.641 149.696C344.337 150.448 343.801 151.048 343.033 151.496C342.265 151.928 341.297 152.144 340.129 152.144ZM350.638 152V139.28H352.942V149.984H359.902V139.28H362.206V152H350.638ZM362.038 154.952V151.88L362.614 152H359.902V149.984H364.222V154.952H362.038ZM367.209 152V139.28H369.513V148.544L377.313 139.28H379.401V152H377.097V142.736L369.321 152H367.209ZM389.537 152.144C388.177 152.144 386.977 151.864 385.937 151.304C384.913 150.744 384.113 149.976 383.537 149C382.977 148.024 382.697 146.904 382.697 145.64C382.697 144.376 382.969 143.256 383.513 142.28C384.073 141.304 384.833 140.544 385.793 140C386.769 139.44 387.865 139.16 389.081 139.16C390.313 139.16 391.401 139.432 392.345 139.976C393.289 140.52 394.025 141.288 394.553 142.28C395.097 143.256 395.369 144.4 395.369 145.712C395.369 145.808 395.361 145.92 395.345 146.048C395.345 146.176 395.337 146.296 395.321 146.408H384.497V144.752H394.121L393.185 145.328C393.201 144.512 393.033 143.784 392.681 143.144C392.329 142.504 391.841 142.008 391.217 141.656C390.609 141.288 389.897 141.104 389.081 141.104C388.281 141.104 387.569 141.288 386.945 141.656C386.321 142.008 385.833 142.512 385.481 143.168C385.129 143.808 384.953 144.544 384.953 145.376V145.76C384.953 146.608 385.145 147.368 385.529 148.04C385.929 148.696 386.481 149.208 387.185 149.576C387.889 149.944 388.697 150.128 389.609 150.128C390.361 150.128 391.041 150 391.649 149.744C392.273 149.488 392.817 149.104 393.281 148.592L394.553 150.08C393.977 150.752 393.257 151.264 392.393 151.616C391.545 151.968 390.593 152.144 389.537 152.144ZM398.943 152V139.28H401.247V148.544L409.047 139.28H411.135V152H408.831V142.736L401.055 152H398.943ZM404.895 137.624C403.727 137.624 402.807 137.344 402.135 136.784C401.479 136.208 401.143 135.384 401.127 134.312H402.687C402.703 134.92 402.903 135.4 403.287 135.752C403.687 136.104 404.215 136.28 404.871 136.28C405.527 136.28 406.055 136.104 406.455 135.752C406.855 135.4 407.063 134.92 407.079 134.312H408.687C408.671 135.384 408.327 136.208 407.655 136.784C406.983 137.344 406.063 137.624 404.895 137.624Z" fill="#3C3C3C"/>
<path d="M170.495 122.976L170.639 121.032C170.751 121.048 170.855 121.064 170.951 121.08C171.047 121.096 171.135 121.104 171.215 121.104C171.727 121.104 172.127 120.928 172.415 120.576C172.719 120.224 172.943 119.76 173.087 119.184C173.231 118.592 173.335 117.928 173.399 117.192C173.463 116.456 173.511 115.72 173.543 114.984L173.759 110.28H183.527V123H181.223V111.624L181.775 112.296H175.247L175.775 111.6L175.607 115.128C175.559 116.248 175.471 117.296 175.343 118.272C175.215 119.248 175.015 120.104 174.743 120.84C174.487 121.576 174.127 122.152 173.663 122.568C173.215 122.984 172.631 123.192 171.911 123.192C171.703 123.192 171.479 123.168 171.239 123.12C171.015 123.088 170.767 123.04 170.495 122.976ZM187.982 123V110.28H190.286V115.488H194.126V117.624H190.286V123H187.982ZM199.238 123.144C197.99 123.144 196.878 122.864 195.902 122.304C194.942 121.744 194.182 120.976 193.622 120C193.062 119.008 192.782 117.888 192.782 116.64C192.782 115.376 193.062 114.256 193.622 113.28C194.182 112.288 194.942 111.52 195.902 110.976C196.878 110.432 197.99 110.16 199.238 110.16C200.47 110.16 201.574 110.432 202.55 110.976C203.526 111.52 204.294 112.288 204.854 113.28C205.414 114.256 205.694 115.376 205.694 116.64C205.694 117.904 205.414 119.024 204.854 120C204.294 120.976 203.526 121.744 202.55 122.304C201.574 122.864 200.47 123.144 199.238 123.144ZM199.238 121.128C200.038 121.128 200.75 120.944 201.374 120.576C201.998 120.192 202.494 119.672 202.862 119.016C203.23 118.344 203.414 117.552 203.414 116.64C203.414 115.728 203.23 114.944 202.862 114.288C202.494 113.616 201.998 113.096 201.374 112.728C200.75 112.36 200.038 112.176 199.238 112.176C198.454 112.176 197.742 112.36 197.102 112.728C196.478 113.096 195.982 113.616 195.614 114.288C195.246 114.944 195.062 115.728 195.062 116.64C195.062 117.552 195.246 118.344 195.614 119.016C195.982 119.672 196.478 120.192 197.102 120.576C197.742 120.944 198.454 121.128 199.238 121.128ZM214.885 123.192C213.829 123.192 212.893 123.024 212.077 122.688C211.277 122.352 210.589 121.856 210.013 121.2C209.437 120.528 208.997 119.688 208.693 118.68C208.405 117.656 208.261 116.456 208.261 115.08C208.261 113.992 208.357 113.016 208.549 112.152C208.741 111.288 209.013 110.52 209.365 109.848C209.733 109.176 210.181 108.592 210.709 108.096C211.253 107.6 211.861 107.192 212.533 106.872C213.221 106.536 213.973 106.28 214.789 106.104L220.597 104.808L220.933 106.944L215.581 108.096C215.261 108.16 214.877 108.256 214.429 108.384C213.981 108.512 213.525 108.712 213.061 108.984C212.597 109.24 212.165 109.6 211.765 110.064C211.365 110.528 211.045 111.136 210.805 111.888C210.565 112.624 210.445 113.536 210.445 114.624C210.445 114.928 210.453 115.16 210.469 115.32C210.485 115.48 210.501 115.64 210.517 115.8C210.549 115.96 210.573 116.2 210.589 116.52L209.629 115.536C209.885 114.656 210.293 113.888 210.853 113.232C211.413 112.576 212.085 112.072 212.869 111.72C213.669 111.352 214.541 111.168 215.485 111.168C216.669 111.168 217.717 111.424 218.629 111.936C219.557 112.448 220.285 113.152 220.813 114.048C221.341 114.944 221.605 115.968 221.605 117.12C221.605 118.288 221.325 119.336 220.765 120.264C220.221 121.176 219.445 121.896 218.437 122.424C217.429 122.936 216.245 123.192 214.885 123.192ZM215.101 121.272C215.917 121.272 216.637 121.096 217.261 120.744C217.885 120.376 218.373 119.888 218.725 119.28C219.077 118.656 219.253 117.96 219.253 117.192C219.253 116.424 219.077 115.744 218.725 115.152C218.373 114.56 217.885 114.096 217.261 113.76C216.637 113.408 215.901 113.232 215.053 113.232C214.253 113.232 213.533 113.4 212.893 113.736C212.253 114.056 211.757 114.512 211.405 115.104C211.053 115.68 210.877 116.352 210.877 117.12C210.877 117.888 211.053 118.592 211.405 119.232C211.773 119.856 212.269 120.352 212.893 120.72C213.533 121.088 214.269 121.272 215.101 121.272ZM225.193 127.8C224.585 127.8 223.993 127.696 223.417 127.488C222.841 127.296 222.345 127.008 221.928 126.624L222.913 124.896C223.233 125.2 223.585 125.432 223.969 125.592C224.353 125.752 224.761 125.832 225.193 125.832C225.753 125.832 226.217 125.688 226.585 125.4C226.953 125.112 227.297 124.6 227.617 123.864L228.409 122.112L228.648 121.824L233.641 110.28H235.897L229.729 124.272C229.361 125.168 228.945 125.872 228.48 126.384C228.033 126.896 227.537 127.256 226.993 127.464C226.449 127.688 225.849 127.8 225.193 127.8ZM228.217 123.408L222.409 110.28H224.809L229.753 121.608L228.217 123.408ZM238.255 123V110.28H240.559V115.488H244.399V117.624H240.559V123H238.255ZM249.511 123.144C248.263 123.144 247.151 122.864 246.175 122.304C245.215 121.744 244.455 120.976 243.895 120C243.335 119.008 243.055 117.888 243.055 116.64C243.055 115.376 243.335 114.256 243.895 113.28C244.455 112.288 245.215 111.52 246.175 110.976C247.151 110.432 248.263 110.16 249.511 110.16C250.743 110.16 251.847 110.432 252.823 110.976C253.799 111.52 254.567 112.288 255.127 113.28C255.687 114.256 255.967 115.376 255.967 116.64C255.967 117.904 255.687 119.024 255.127 120C254.567 120.976 253.799 121.744 252.823 122.304C251.847 122.864 250.743 123.144 249.511 123.144ZM249.511 121.128C250.311 121.128 251.023 120.944 251.647 120.576C252.271 120.192 252.767 119.672 253.135 119.016C253.503 118.344 253.687 117.552 253.687 116.64C253.687 115.728 253.503 114.944 253.135 114.288C252.767 113.616 252.271 113.096 251.647 112.728C251.023 112.36 250.311 112.176 249.511 112.176C248.727 112.176 248.015 112.36 247.375 112.728C246.751 113.096 246.255 113.616 245.887 114.288C245.519 114.944 245.335 115.728 245.335 116.64C245.335 117.552 245.519 118.344 245.887 119.016C246.255 119.672 246.751 120.192 247.375 120.576C248.015 120.944 248.727 121.128 249.511 121.128ZM140.261 151.976L140.405 150.032C140.517 150.048 140.621 150.064 140.717 150.08C140.813 150.096 140.901 150.104 140.981 150.104C141.493 150.104 141.893 149.928 142.181 149.576C142.485 149.224 142.709 148.76 142.853 148.184C142.997 147.592 143.101 146.928 143.165 146.192C143.229 145.456 143.277 144.72 143.309 143.984L143.525 139.28H153.293V152H150.989V140.624L151.541 141.296H145.013L145.541 140.6L145.373 144.128C145.325 145.248 145.237 146.296 145.109 147.272C144.981 148.248 144.781 149.104 144.509 149.84C144.253 150.576 143.893 151.152 143.429 151.568C142.981 151.984 142.397 152.192 141.677 152.192C141.469 152.192 141.245 152.168 141.005 152.12C140.781 152.088 140.533 152.04 140.261 151.976ZM157.748 152V139.28H160.052V144.488H163.892V146.624H160.052V152H157.748ZM169.004 152.144C167.756 152.144 166.644 151.864 165.668 151.304C164.708 150.744 163.948 149.976 163.388 149C162.828 148.008 162.548 146.888 162.548 145.64C162.548 144.376 162.828 143.256 163.388 142.28C163.948 141.288 164.708 140.52 165.668 139.976C166.644 139.432 167.756 139.16 169.004 139.16C170.236 139.16 171.34 139.432 172.316 139.976C173.292 140.52 174.06 141.288 174.62 142.28C175.18 143.256 175.46 144.376 175.46 145.64C175.46 146.904 175.18 148.024 174.62 149C174.06 149.976 173.292 150.744 172.316 151.304C171.34 151.864 170.236 152.144 169.004 152.144ZM169.004 150.128C169.804 150.128 170.516 149.944 171.14 149.576C171.764 149.192 172.26 148.672 172.628 148.016C172.996 147.344 173.18 146.552 173.18 145.64C173.18 144.728 172.996 143.944 172.628 143.288C172.26 142.616 171.764 142.096 171.14 141.728C170.516 141.36 169.804 141.176 169.004 141.176C168.22 141.176 167.508 141.36 166.868 141.728C166.244 142.096 165.748 142.616 165.38 143.288C165.012 143.944 164.828 144.728 164.828 145.64C164.828 146.552 165.012 147.344 165.38 148.016C165.748 148.672 166.244 149.192 166.868 149.576C167.508 149.944 168.22 150.128 169.004 150.128ZM184.651 152.192C183.595 152.192 182.659 152.024 181.843 151.688C181.043 151.352 180.355 150.856 179.779 150.2C179.203 149.528 178.763 148.688 178.459 147.68C178.171 146.656 178.027 145.456 178.027 144.08C178.027 142.992 178.123 142.016 178.315 141.152C178.507 140.288 178.779 139.52 179.131 138.848C179.499 138.176 179.947 137.592 180.475 137.096C181.019 136.6 181.627 136.192 182.299 135.872C182.987 135.536 183.739 135.28 184.555 135.104L190.363 133.808L190.699 135.944L185.347 137.096C185.027 137.16 184.643 137.256 184.195 137.384C183.747 137.512 183.291 137.712 182.827 137.984C182.363 138.24 181.931 138.6 181.531 139.064C181.131 139.528 180.811 140.136 180.571 140.888C180.331 141.624 180.211 142.536 180.211 143.624C180.211 143.928 180.219 144.16 180.235 144.32C180.251 144.48 180.267 144.64 180.283 144.8C180.315 144.96 180.339 145.2 180.355 145.52L179.395 144.536C179.651 143.656 180.059 142.888 180.619 142.232C181.179 141.576 181.851 141.072 182.635 140.72C183.435 140.352 184.307 140.168 185.251 140.168C186.435 140.168 187.483 140.424 188.395 140.936C189.323 141.448 190.051 142.152 190.579 143.048C191.107 143.944 191.371 144.968 191.371 146.12C191.371 147.288 191.091 148.336 190.531 149.264C189.987 150.176 189.211 150.896 188.203 151.424C187.195 151.936 186.011 152.192 184.651 152.192ZM184.867 150.272C185.683 150.272 186.403 150.096 187.027 149.744C187.651 149.376 188.139 148.888 188.491 148.28C188.843 147.656 189.019 146.96 189.019 146.192C189.019 145.424 188.843 144.744 188.491 144.152C188.139 143.56 187.651 143.096 187.027 142.76C186.403 142.408 185.667 142.232 184.819 142.232C184.019 142.232 183.299 142.4 182.659 142.736C182.019 143.056 181.523 143.512 181.171 144.104C180.819 144.68 180.643 145.352 180.643 146.12C180.643 146.888 180.819 147.592 181.171 148.232C181.539 148.856 182.035 149.352 182.659 149.72C183.299 150.088 184.035 150.272 184.867 150.272ZM200.11 152.144C198.83 152.144 197.694 151.864 196.702 151.304C195.71 150.744 194.926 149.976 194.35 149C193.774 148.008 193.486 146.888 193.486 145.64C193.486 144.376 193.774 143.256 194.35 142.28C194.926 141.304 195.71 140.544 196.702 140C197.694 139.44 198.83 139.16 200.11 139.16C201.374 139.16 202.502 139.44 203.494 140C204.502 140.544 205.286 141.304 205.846 142.28C206.422 143.24 206.71 144.36 206.71 145.64C206.71 146.904 206.422 148.024 205.846 149C205.286 149.976 204.502 150.744 203.494 151.304C202.502 151.864 201.374 152.144 200.11 152.144ZM200.11 150.128C200.926 150.128 201.654 149.944 202.294 149.576C202.95 149.208 203.462 148.688 203.83 148.016C204.198 147.328 204.382 146.536 204.382 145.64C204.382 144.728 204.198 143.944 203.83 143.288C203.462 142.616 202.95 142.096 202.294 141.728C201.654 141.36 200.926 141.176 200.11 141.176C199.294 141.176 198.566 141.36 197.926 141.728C197.286 142.096 196.774 142.616 196.39 143.288C196.006 143.944 195.814 144.728 195.814 145.64C195.814 146.536 196.006 147.328 196.39 148.016C196.774 148.688 197.286 149.208 197.926 149.576C198.566 149.944 199.294 150.128 200.11 150.128ZM210.037 152V139.28H212.341V148.544L220.141 139.28H222.229V152H219.925V142.736L212.149 152H210.037ZM215.989 137.624C214.821 137.624 213.901 137.344 213.229 136.784C212.573 136.208 212.237 135.384 212.221 134.312H213.781C213.797 134.92 213.997 135.4 214.381 135.752C214.781 136.104 215.309 136.28 215.965 136.28C216.621 136.28 217.149 136.104 217.549 135.752C217.949 135.4 218.157 134.92 218.173 134.312H219.781C219.765 135.384 219.421 136.208 218.749 136.784C218.077 137.344 217.157 137.624 215.989 137.624Z" fill="#F04D64"/>
<path d="M74.5191 57.2308L68.7691 51.4808M46.7083 79.2917C48.2991 80.8825 50.8674 80.8825 52.4583 79.2917L77.3749 54.375C78.9658 52.7842 78.9658 50.2158 77.3749 48.625C75.7841 47.0342 73.2158 47.0342 71.6249 48.625L46.7083 73.5417C45.1174 75.1325 45.1174 77.7008 46.7083 79.2917Z" stroke="#6E96E0" stroke-width="3" stroke-linecap="round" stroke-linejoin="round"/>
<path d="M56.2917 44.6766L59.1667 43.8333L58.3233 46.7083L59.1667 49.5833L56.2917 48.7399L53.4167 49.5833L54.26 46.7083L53.4167 43.8333L56.2917 44.6766ZM48.625 56.1766L51.5 55.3333L50.6567 58.2083L51.5 61.0833L48.625 60.2399L45.75 61.0833L46.5933 58.2083L45.75 55.3333L48.625 56.1766ZM77.375 65.7599L80.25 64.9166L79.4067 67.7916L80.25 70.6666L77.375 69.8233L74.5 70.6666L75.3433 67.7916L74.5 64.9166L77.375 65.7599Z" stroke="#6E96E0" stroke-width="3" stroke-linecap="round" stroke-linejoin="round"/>
</g>
<defs>
<filter id="filter0_d_140_288" x="274.651" y="-58.0583" width="251.125" height="168.953" filterUnits="userSpaceOnUse" color-interpolation-filters="sRGB">
<feFlood flood-opacity="0" result="BackgroundImageFix"/>
<feColorMatrix in="SourceAlpha" type="matrix" values="0 0 0 0 0 0 0 0 0 0 0 0 0 0 0 0 0 0 127 0" result="hardAlpha"/>
<feOffset dy="4"/>
<feGaussianBlur stdDeviation="7.5"/>
<feComposite in2="hardAlpha" operator="out"/>
<feColorMatrix type="matrix" values="0 0 0 0 0 0 0 0 0 0 0 0 0 0 0 0 0 0 0.25 0"/>
<feBlend mode="normal" in2="BackgroundImageFix" result="effect1_dropShadow_140_288"/>
<feBlend mode="normal" in="SourceGraphic" in2="effect1_dropShadow_140_288" result="shape"/>
</filter>
<filter id="filter1_d_140_288" x="-16" y="175" width="420" height="296" filterUnits="userSpaceOnUse" color-interpolation-filters="sRGB">
<feFlood flood-opacity="0" result="BackgroundImageFix"/>
<feColorMatrix in="SourceAlpha" type="matrix" values="0 0 0 0 0 0 0 0 0 0 0 0 0 0 0 0 0 0 127 0" result="hardAlpha"/>
<feOffset/>
<feGaussianBlur stdDeviation="8"/>
<feComposite in2="hardAlpha" operator="out"/>
<feColorMatrix type="matrix" values="0 0 0 0 0 0 0 0 0 0 0 0 0 0 0 0 0 0 0.2 0"/>
<feBlend mode="normal" in2="BackgroundImageFix" result="effect1_dropShadow_140_288"/>
<feBlend mode="normal" in="SourceGraphic" in2="effect1_dropShadow_140_288" result="shape"/>
</filter>
<clipPath id="clip0_140_288">
<rect width="440" height="455" fill="white"/>
</clipPath>
<clipPath id="clip1_140_288">
<path d="M0 191H380C384.418 191 388 194.582 388 199V447C388 451.418 384.418 455 380 455H0V191Z" fill="white"/>
</clipPath>
<clipPath id="clip2_140_288">
<rect width="392" height="30" fill="white" transform="translate(-1 190)"/>
</clipPath>
<clipPath id="clip3_140_288">
<rect width="15" height="15" fill="white" transform="translate(282 197)"/>
</clipPath>
<clipPath id="clip4_140_288">
<rect width="15" height="15" fill="white" transform="translate(305 197)"/>
</clipPath>
<clipPath id="clip5_140_288">
<rect width="15" height="15" fill="white" transform="translate(351 197)"/>
</clipPath>
<clipPath id="clip6_140_288">
<rect width="392" height="235" fill="white" transform="translate(-1 220)"/>
</clipPath>
</defs>
</svg>
