<svg width="44" height="44" viewBox="0 0 44 44" fill="none" xmlns="http://www.w3.org/2000/svg">
<path d="M14.9599 12.1917H29.0216C30.1949 12.1917 31.1483 13.145 31.1483 14.3183V16.665C31.1483 17.5266 30.6166 18.59 30.0849 19.1216L25.5016 23.1733C24.8599 23.705 24.4383 24.7683 24.4383 25.63V30.2133C24.4383 30.855 24.0166 31.6983 23.4849 32.0283L21.9999 32.9633C20.6066 33.825 18.6999 32.8533 18.6999 31.1483V25.5016C18.6999 24.75 18.2783 23.7966 17.8383 23.265L13.7866 18.9933C13.2549 18.48 12.8333 17.5083 12.8333 16.8666V14.4283C12.8333 13.145 13.7866 12.1917 14.9599 12.1917Z" stroke="#6E96E0" stroke-width="3" stroke-miterlimit="10" stroke-linecap="round" stroke-linejoin="round"/>
<path d="M16.5001 40.3334H27.5001C36.6667 40.3334 40.3334 36.6667 40.3334 27.5001V16.5001C40.3334 7.33341 36.6667 3.66675 27.5001 3.66675H16.5001C7.33341 3.66675 3.66675 7.33341 3.66675 16.5001V27.5001C3.66675 36.6667 7.33341 40.3334 16.5001 40.3334Z" stroke="#6E96E0" stroke-width="3" stroke-linecap="round" stroke-linejoin="round"/>
</svg>
