<svg width="800" height="400" viewBox="0 0 523 277" fill="none" xmlns="http://www.w3.org/2000/svg">
<g filter="url(#filter0_d_58_680)">
<path d="M69.5146 111.637L64.3495 45.5L80.5 15L87.5 47.5L107.5 15V48.5L145.5 50.474L157.5 104.5L115.5 100.5L124.393 187.5L60.5 220.5L18 201L49.5 187.5L69.5146 111.637Z" fill="#6E96E0"/>
<path d="M64.3495 45.5L69.5146 111.637L49.5 187.5L18 201L60.5 220.5L124.393 187.5L115.5 100.5L157.5 104.5L145.5 50.474L107.5 48.5M64.3495 45.5L80.5 15L87.5 47.5M64.3495 45.5L87.5 47.5M87.5 47.5L107.5 15V48.5M87.5 47.5L107.5 48.5" stroke="black" stroke-width="2"/>
<path d="M122 165L57.5 156.5L49.5 187.5L22 201.5L60.5 220L124.5 187.5L122 165Z" fill="black" stroke="black" stroke-width="2"/>
<path d="M78.5 68.5V55L97 58V72L78.5 68.5Z" fill="#F0F0F0" stroke="black" stroke-width="2"/>
<path d="M103.5 71.5V58H121.5V69L103.5 71.5Z" fill="#F0F0F0" stroke="black" stroke-width="2"/>
<path d="M126.5 92V85H130.5V90.7037L126.5 92Z" stroke="black" stroke-width="2"/>
<path d="M85.5 66.7037V61H89.5V66.7037H85.5Z" fill="black" stroke="black" stroke-width="2"/>
<path d="M110.5 67.7037V62H114.5L114 66.5L110.5 67.7037Z" fill="black" stroke="black" stroke-width="2"/>
<path d="M139.675 86.1058L139.32 93.0968L135.325 92.8943L135.614 87.1979L139.675 86.1058Z" stroke="black" stroke-width="2"/>
<path d="M62.875 185L58.5 253H78.5" stroke="black" stroke-width="2"/>
<path d="M93.5 204L100.5 252.5H118" stroke="black" stroke-width="2"/>
<path d="M39 87L47 89L44 82L47 89.5L49 82" stroke="black" stroke-width="2" stroke-linecap="round" stroke-linejoin="round"/>
<path d="M83.5 137C73.6667 136.333 53.7 130.7 52.5 113.5C51.3 96.3 48.3333 90 47 89" stroke="black" stroke-width="2" stroke-linecap="round" stroke-linejoin="round"/>
<path d="M119 132C129.167 132 150.8 130.9 156 126.5M156 126.5V119.5M156 126.5L161 124.5M156 126.5L161 132" stroke="black" stroke-width="2" stroke-linecap="round" stroke-linejoin="round"/>
</g>
<g filter="url(#filter1_d_58_680)">
<path d="M287.226 32.8122C220.132 22.5663 232.046 130.482 250.5 185.154C261.038 222.749 302.375 198.426 305.5 178.154C309.491 152.265 301.41 106.351 287.226 84.4545C333 102.154 344 41.4821 287.226 32.8122Z" fill="#F04D64" stroke="black" stroke-width="2"/>
<path d="M297.64 87.3164C293.888 86.6639 288.687 84.9197 277.5 79.1538" stroke="black" stroke-width="2" stroke-linecap="round"/>
<path d="M272.212 54.9894C272.763 50.4448 274.856 43.0083 283.78 49.6185C294.935 57.8813 274.278 69.0361 272.212 54.9894Z" fill="#EBEBEB" stroke="black" stroke-width="2" stroke-linecap="round"/>
<path d="M295.348 47.5529C295.899 43.0083 300.058 38.7346 308.982 45.3449C320.136 53.6076 302.372 55.6734 295.348 47.5529Z" fill="#EBEBEB"/>
<path d="M295.348 47.5529L294.355 47.4325C294.321 47.7125 294.407 47.9937 294.592 48.207L295.348 47.5529ZM308.982 45.3449L309.577 44.5413L308.982 45.3449ZM296.341 47.6732C296.59 45.614 297.627 43.8394 299.367 43.2054C301.118 42.5677 304.024 42.9166 308.386 46.1484L309.577 44.5413C305.016 41.1629 301.38 40.3436 298.683 41.3262C295.975 42.3127 294.657 44.9472 294.355 47.4325L296.341 47.6732ZM308.386 46.1484C309.731 47.1447 310.579 48.0038 311.061 48.7093C311.544 49.4167 311.604 49.8823 311.559 50.1519C311.517 50.4031 311.349 50.6862 310.897 50.9643C310.436 51.2488 309.744 51.4796 308.847 51.6017C307.058 51.8453 304.681 51.6253 302.324 50.8462C299.97 50.0683 297.714 48.7594 296.104 46.8987L294.592 48.207C296.494 50.4066 299.092 51.8847 301.696 52.7452C304.296 53.6044 306.981 53.8742 309.117 53.5835C310.182 53.4385 311.169 53.1462 311.946 52.6672C312.734 52.1818 313.367 51.461 313.531 50.4835C313.692 49.5243 313.365 48.5364 312.712 47.581C312.058 46.6236 311.021 45.6107 309.577 44.5413L308.386 46.1484Z" fill="black"/>
<path d="M265.602 46.1712C266.704 40.8004 271.303 32.1245 280.888 40.3873" stroke="black" stroke-width="3" stroke-linecap="round"/>
<path d="M292.743 40.3335C292.44 36.8601 293.919 30.7535 302.258 34.1145" stroke="black" stroke-width="3" stroke-linecap="round"/>
<circle cx="305.566" cy="78.2195" r="2.06569" fill="black"/>
<circle cx="279.566" cy="54.2195" r="2.06569" fill="black"/>
<circle cx="303.566" cy="47.2195" r="2.06569" fill="black"/>
<circle cx="315.566" cy="74.2195" r="2.06569" fill="black"/>
<path d="M261.5 103.5C250 119.833 221.9 142.7 201.5 103.5M201.5 103.5L205 97M201.5 103.5L200.998 102.567M198 97L200.998 102.567M200.998 102.567H194" stroke="black" stroke-width="2" stroke-linecap="round" stroke-linejoin="round"/>
<path d="M295 101.5C301.5 106 316.4 113.2 324 106M324 106V98M324 106L330 101.5M324 106L330 109.5" stroke="black" stroke-width="2" stroke-linecap="round" stroke-linejoin="round"/>
<path d="M307 145.654L244.5 162.092C246.979 173.523 253.424 197.375 259.373 201.341C265.322 205.307 271.216 205.472 273.42 205.059C278.24 204.646 292.656 201.593 302 185.654C310.5 171.154 307 157.154 307 145.654Z" fill="black" stroke="black"/>
<path d="M270.973 189.943C276.344 205.78 285.681 240.594 280.062 253.154H300.306" stroke="black" stroke-width="2" stroke-linecap="round" stroke-linejoin="round"/>
<path d="M301.5 182.154C305.585 196.852 312.686 229.163 308.413 240.819H323.809" stroke="black" stroke-width="2" stroke-linecap="round" stroke-linejoin="round"/>
<path d="M224.288 51.9552L243 56.1538L239 68.8939H199.5L236.5 95.1538V118.154L214.786 101.532L236.5 95.1538L199.5 68.8939H239L224.288 51.9552Z" fill="black"/>
<path d="M243 56.1538L243.954 56.4534L244.28 55.4161L243.219 55.1781L243 56.1538ZM224.288 51.9552L224.507 50.9794L221.538 50.3131L223.533 52.6109L224.288 51.9552ZM239 68.8939V69.8939H239.734L239.954 69.1934L239 68.8939ZM199.5 68.8939V67.8939C199.065 67.8939 198.679 68.1754 198.547 68.5901C198.415 69.0048 198.566 69.4574 198.921 69.7093L199.5 68.8939ZM236.5 95.1538H237.5V94.6373L237.079 94.3383L236.5 95.1538ZM214.786 101.532L214.504 100.572L212.613 101.128L214.178 102.326L214.786 101.532ZM236.5 118.154L235.892 118.948L237.5 120.179V118.154H236.5ZM243.219 55.1781L224.507 50.9794L224.069 52.9309L242.781 57.1295L243.219 55.1781ZM223.533 52.6109L238.245 69.5496L239.755 68.2381L225.043 51.2994L223.533 52.6109ZM239 67.8939H199.5V69.8939H239V67.8939ZM198.921 69.7093L235.921 95.9693L237.079 94.3383L200.079 68.0784L198.921 69.7093ZM236.218 94.1943L214.504 100.572L215.068 102.491L236.782 96.1133L236.218 94.1943ZM214.178 102.326L235.892 118.948L237.108 117.36L215.394 100.738L214.178 102.326ZM237.5 118.154V95.1538H235.5V118.154H237.5ZM239.954 69.1934L243.954 56.4534L242.046 55.8543L238.046 68.5943L239.954 69.1934Z" fill="black"/>
</g>
<g filter="url(#filter2_d_58_680)">
<path d="M419.387 130.065C410.871 138.919 432.699 146.016 444.963 149.422C457.228 152.828 477.608 143.084 451.516 127.397C425.425 111.711 426.216 118.265 429.873 123.503C423.46 120.62 417.307 118.816 415.226 121.013C411.498 124.95 416.447 128.688 419.387 130.065Z" fill="#D0FF6C"/>
<path d="M419.387 130.065C410.871 138.919 432.699 146.016 444.963 149.422C457.228 152.828 477.608 143.084 451.516 127.397C425.425 111.711 426.216 118.265 429.873 123.503M419.387 130.065L439.545 139.689M419.387 130.065C416.447 128.688 411.498 124.95 415.226 121.013C417.307 118.816 423.46 120.62 429.873 123.503M429.873 123.503C434.952 125.786 440.193 128.747 443.702 130.934L429.873 123.503Z" stroke="black" stroke-width="2" stroke-linecap="round" stroke-linejoin="round"/>
<path d="M347 122.74L420 66.74C407.6 26.74 502.775 24.2953 494.5 55.7401C484.5 93.7403 468 137.74 501.5 189.74C535 241.74 391 226.24 431 167.24C463 120.04 437 109.573 420 110.24L347 122.74Z" fill="#D0FF6C" stroke="black" stroke-width="2"/>
<path d="M419.5 109.74C439.5 104.14 427.833 79.0737 419.5 67.2404L347 122.74C362.833 120.74 399.5 115.34 419.5 109.74Z" fill="#FFDA3D" stroke="black" stroke-width="2"/>
<path d="M458 218L450.774 251.133M450.774 251.133L442 254.929M450.774 251.133V257M450.774 251.133L458 257" stroke="black" stroke-width="2"/>
<path d="M481 211L486.1 246.659M486.1 246.659L481 254M486.1 246.659L489.5 254M486.1 246.659L498 248.232" stroke="black" stroke-width="2"/>
<path d="M438.072 44.4761C434.739 44.1428 429.672 45.5761 436.072 53.9761C444.072 64.4761 447.572 44.4761 438.072 44.4761Z" fill="#F0F0F0" stroke="black" stroke-width="2"/>
<path d="M460.644 42.0199C457.311 41.6865 447.089 45.5507 456.072 53.4762C464.572 60.9762 470.144 42.0199 460.644 42.0199Z" fill="#F0F0F0" stroke="black" stroke-width="2"/>
<path d="M349.5 121.74C370.5 117.074 413.8 104.54 419 91.7404" stroke="black" stroke-width="2"/>
<circle cx="440" cy="51" r="2" fill="black"/>
<circle cx="459" cy="49" r="2" fill="black"/>
<path d="M492.753 109.234C485.841 97.6159 471.947 118.71 464.758 130.732C457.569 142.754 461.969 167.22 486.22 144.105C510.471 120.991 503.285 119.919 496.661 122.273C501.589 116.309 505.297 110.305 503.572 107.457C500.481 102.353 495.072 106.515 492.753 109.234Z" fill="#D0FF6C"/>
<path d="M492.753 109.234C485.841 97.6159 471.947 118.71 464.758 130.732C457.569 142.754 461.969 167.22 486.22 144.105C510.471 120.991 503.285 119.919 496.661 122.273M492.753 109.234L476.666 127.819M492.753 109.234C495.072 106.515 500.481 102.353 503.572 107.457C505.297 110.305 501.589 116.309 496.661 122.273M496.661 122.273C492.757 126.997 488.088 131.696 484.745 134.782L496.661 122.273Z" stroke="black" stroke-width="2" stroke-linecap="round" stroke-linejoin="round"/>
<path d="M440.5 36.2821C437.879 22.8779 438.231 4.87287 450.595 24.5027C454.878 16.3815 462.734 6.77469 464.171 23.8198C479.855 4.08246 479.095 22.3623 476.5 34.7404L464.352 33.3574L455.621 33.2253L440.5 36.2821Z" fill="#D0FF6C"/>
<path d="M455.621 33.2253C453.736 29.7232 452.068 26.8403 450.595 24.5027M455.621 33.2253L450.595 24.5027M455.621 33.2253L440.5 36.2821C437.879 22.8779 438.231 4.87287 450.595 24.5027M455.621 33.2253L464.352 33.3574M450.595 24.5027C454.878 16.3815 462.734 6.77469 464.171 23.8198M464.352 33.3574L476.5 34.7404C479.095 22.3623 479.855 4.08246 464.171 23.8198M464.352 33.3574C464.458 29.5184 464.386 26.3706 464.171 23.8198" stroke="black" stroke-width="2" stroke-linecap="round" stroke-linejoin="round"/>
<path d="M424.5 191C421.7 182.2 432.333 163.667 438 155.5C441.6 160.3 473.833 164.167 489.5 165.5C491.1 173.5 501.5 193.167 506.5 202C507.667 209 503.1 222.6 475.5 221C441 219 428 202 424.5 191Z" fill="black" stroke="black"/>
</g>
<defs>
<filter id="filter0_d_58_680" x="0.53418" y="0.466965" width="176.466" height="272.533" filterUnits="userSpaceOnUse" color-interpolation-filters="sRGB">
<feFlood flood-opacity="0" result="BackgroundImageFix"/>
<feColorMatrix in="SourceAlpha" type="matrix" values="0 0 0 0 0 0 0 0 0 0 0 0 0 0 0 0 0 0 127 0" result="hardAlpha"/>
<feOffset dy="4"/>
<feGaussianBlur stdDeviation="7.5"/>
<feComposite in2="hardAlpha" operator="out"/>
<feColorMatrix type="matrix" values="0 0 0 0 0 0 0 0 0 0 0 0 0 0 0 0 0 0 0.25 0"/>
<feBlend mode="normal" in2="BackgroundImageFix" result="effect1_dropShadow_58_680"/>
<feBlend mode="normal" in="SourceGraphic" in2="effect1_dropShadow_58_680" result="shape"/>
</filter>
<filter id="filter1_d_58_680" x="178" y="20.1316" width="168" height="253.022" filterUnits="userSpaceOnUse" color-interpolation-filters="sRGB">
<feFlood flood-opacity="0" result="BackgroundImageFix"/>
<feColorMatrix in="SourceAlpha" type="matrix" values="0 0 0 0 0 0 0 0 0 0 0 0 0 0 0 0 0 0 127 0" result="hardAlpha"/>
<feOffset dy="4"/>
<feGaussianBlur stdDeviation="7.5"/>
<feComposite in2="hardAlpha" operator="out"/>
<feColorMatrix type="matrix" values="0 0 0 0 0 0 0 0 0 0 0 0 0 0 0 0 0 0 0.25 0"/>
<feBlend mode="normal" in2="BackgroundImageFix" result="effect1_dropShadow_58_680"/>
<feBlend mode="normal" in="SourceGraphic" in2="effect1_dropShadow_58_680" result="shape"/>
</filter>
<filter id="filter2_d_58_680" x="328.453" y="2.35513" width="194.148" height="274.421" filterUnits="userSpaceOnUse" color-interpolation-filters="sRGB">
<feFlood flood-opacity="0" result="BackgroundImageFix"/>
<feColorMatrix in="SourceAlpha" type="matrix" values="0 0 0 0 0 0 0 0 0 0 0 0 0 0 0 0 0 0 127 0" result="hardAlpha"/>
<feOffset dy="4"/>
<feGaussianBlur stdDeviation="7.5"/>
<feComposite in2="hardAlpha" operator="out"/>
<feColorMatrix type="matrix" values="0 0 0 0 0 0 0 0 0 0 0 0 0 0 0 0 0 0 0.25 0"/>
<feBlend mode="normal" in2="BackgroundImageFix" result="effect1_dropShadow_58_680"/>
<feBlend mode="normal" in="SourceGraphic" in2="effect1_dropShadow_58_680" result="shape"/>
</filter>
</defs>
</svg>
