<svg width="414" height="296" viewBox="0 0 414 296" fill="none" xmlns="http://www.w3.org/2000/svg">
<g filter="url(#filter0_d_141_4)">
<path d="M80.478 119.354L78.478 70.3541L89.978 42.354L99.9778 71.8536L115.478 45.8539L122.367 72.8536L167.478 75.8541L167.478 114.854L118.978 123.354L122.367 192.746L65.3392 211.939L16.4778 175.354L60.4251 183.251L80.478 119.354Z" fill="#6E96E0"/>
<path d="M78.478 70.3541L80.478 119.354L60.4251 183.251L16.4778 175.354L65.3392 211.939L122.367 192.746L118.978 123.354L167.478 114.854L167.478 75.8541L122.367 72.8536M78.478 70.3541L89.978 42.354L99.9778 71.8536M78.478 70.3541L99.9778 71.8536M99.9778 71.8536L115.478 45.8539L122.367 72.8536M99.9778 71.8536L122.367 72.8536" stroke="black" stroke-width="2"/>
<path d="M120.978 173.833L70.9776 150.854L60.425 183.251L17.4778 173.833L65.4026 211.525L122.456 192.759L120.978 173.833Z" fill="black" stroke="black" stroke-width="2"/>
<path d="M100.478 93.8536L101.978 84.1665L118.129 84.1665L116.354 95.7455L100.478 93.8536Z" fill="#F0F0F0" stroke="black" stroke-width="2"/>
<path d="M125.579 95.3131L127.29 84.1476L142.177 86.4296L140.783 95.5274L125.579 95.3131Z" fill="#F0F0F0" stroke="black" stroke-width="2"/>
<path d="M147.978 113.143L148.865 107.354L152.174 107.861L151.45 112.578L147.978 113.143Z" stroke="black" stroke-width="2"/>
<path d="M111.576 93.2124L112.299 88.495L115.607 89.0021L114.884 93.7195L111.576 93.2124Z" fill="black" stroke="black" stroke-width="2"/>
<path d="M136.576 95.2124L137.299 90.495L140.607 91.0021L139.623 94.6606L136.576 95.2124Z" fill="black" stroke="black" stroke-width="2"/>
<path d="M163.436 106.028L162.256 111.765L158.978 111.091L159.939 106.416L163.436 106.028Z" stroke="black" stroke-width="2"/>
<path d="M71.8042 182.879L59.565 238.565L76.1064 241.101" stroke="black" stroke-width="2"/>
<path d="M94.7246 202.476L94.3654 243.476L108.839 245.695" stroke="black" stroke-width="2"/>
<path d="M131.581 77.0818C136.847 76.8617 147.702 79.4654 148.996 91.6411" stroke="black" stroke-width="2" stroke-linecap="round" stroke-linejoin="round"/>
<path d="M115.253 77.7407C111.531 75.3878 102.106 73.3344 94.1811 83.9437" stroke="black" stroke-width="2" stroke-linecap="round" stroke-linejoin="round"/>
<path d="M120.478 122.854C114.311 123.187 101.978 122.154 101.978 115.354" stroke="black" stroke-width="2" stroke-linecap="round" stroke-linejoin="round"/>
<path d="M104.978 144.354C112.796 149.141 130.942 158.052 143.356 157.048M144.978 156.854L151.978 158.854M144.978 156.854H151.978M144.978 156.854V148.354L143.978 156.989M144.978 156.854C144.649 156.907 144.316 156.952 143.978 156.989M143.978 156.989L151.978 161.354L144.978 160.854L143.356 157.048M143.978 156.989C143.772 157.011 143.565 157.031 143.356 157.048M143.978 156.989L146.478 159.854" stroke="black" stroke-width="2" stroke-linecap="round" stroke-linejoin="round"/>
</g>
<g filter="url(#filter1_d_141_4)">
<path d="M186.874 275.632L174.198 228.885L166.814 187.887L159.923 149.621L199.554 137.193L235.64 130.694L262.791 125.805L274.15 163.265L281.718 205.289L290.27 252.779L259.39 262.573L222.566 264.972L186.874 275.632Z" fill="#F04D64"/>
<path d="M174.198 228.885L186.874 275.632L222.566 264.972M174.198 228.885L189.663 226.1C198.866 250.404 200.142 235.03 199.63 224.305L214.013 217.482M174.198 228.885L166.814 187.887M222.566 264.972L218.382 241.739C228.699 237.294 242.811 229.227 216.721 232.515L214.013 217.482M222.566 264.972L259.39 262.573M214.013 217.482L211.675 204.499C188.687 206.099 200.989 199.016 210.014 195.274L208.045 184.341M214.013 217.482L227.417 215.068C226.778 192.608 233.337 204.595 236.696 213.397L250.099 210.983M166.814 187.887L182.28 185.101C182.241 172.41 184.181 154.283 192.246 183.306L208.045 184.341M166.814 187.887L159.923 149.621L199.554 137.193M208.045 184.341L220.772 178.169C228.255 200.808 230.076 186.488 230.051 176.498L243.454 174.084M208.045 184.341L204.046 162.134C182.412 161.797 193.924 155.844 202.384 152.909L199.554 137.193M259.39 262.573L255.022 238.315C246.175 237.792 233.458 235.215 253.36 229.091L250.099 210.983M259.39 262.573L290.27 252.779L281.718 205.289M250.099 210.983L261.784 208.879C261.93 182.891 268.753 199.628 272.146 211.245L281.718 205.289M250.099 210.983L247.761 198C239.982 195.521 228.635 189.522 245.485 185.359L243.454 174.084M281.718 205.289L274.15 163.265M243.454 174.084L250.78 167.474C265.383 190.241 263.279 175.805 260.403 165.741L274.15 163.265M243.454 174.084L240.132 155.635C214.148 156.364 228.198 149.789 238.47 146.41L235.64 130.694M274.15 163.265L262.791 125.805L235.64 130.694M199.554 137.193L235.64 130.694" stroke="black" stroke-width="2" stroke-linecap="round" stroke-linejoin="round"/>
<path d="M174 228.5L167 188L182 185C183.6 156.2 189.333 171.667 192 183L208 184L204 163C195 162.5 182.1 159.7 202.5 152.5L200 137L236 131L238.5 146C228.833 149.5 215.6 156.4 240 156L243.5 173.5L251 167.5C265 189.9 262.833 175.5 260 165.5L274 163L282 204.5L272 211C263.6 183.8 261.5 198.333 261.5 209L250 211L253.5 228.5C233.5 235.3 246.167 238 255 238.5L259 262.5L222.5 264.5L218.5 242C241.7 230.4 227.167 230.833 217 232.5L214 218L200 224C200.4 249.2 193.167 236.167 189.5 226.5L174 228.5Z" fill="#6E96E0"/>
<path d="M214 218L200 224C200.4 249.2 193.167 236.167 189.5 226.5L174 228.5L167 188L182 185C183.6 156.2 189.333 171.667 192 183L208 184M214 218L211.5 204.5C202.167 205.333 188.8 204.6 210 195L208 184M214 218L217 232.5C227.167 230.833 241.7 230.4 218.5 242L222.5 264.5L259 262.5L255 238.5C246.167 238 233.5 235.3 253.5 228.5L250 211M214 218L227 215C227 194.6 234 205.167 237.5 213L250 211M208 184L220.5 178.5C227.7 199.7 230.167 186 230.5 176.5L243.5 173.5M208 184L204 163C195 162.5 182.1 159.7 202.5 152.5L200 137L236 131L238.5 146C228.833 149.5 215.6 156.4 240 156L243.5 173.5M250 211L261.5 209C261.5 198.333 263.6 183.8 272 211L282 204.5L274 163L260 165.5C262.833 175.5 265 189.9 251 167.5L243.5 173.5M250 211L248 198C230.4 192.43 238.667 187.012 245 185L243.5 173.5" stroke="black" stroke-width="2" stroke-linecap="round" stroke-linejoin="round"/>
<path d="M210 194.5L208 184L220.5 179C227.3 199.4 230 185.833 230.5 176.5L243.5 173.5L245 184.5C230.2 190.9 240.833 196.167 248 198L250 211L238 213C228.8 195 226.5 206.833 226.5 215L214 218L211 204.5C190.2 206.1 201.667 198.5 210 194.5Z" fill="#D0FF6C" stroke="black" stroke-width="2" stroke-linecap="round" stroke-linejoin="round"/>
</g>
<g filter="url(#filter2_d_141_4)">
<path d="M325.372 152.927C328.409 164.831 345.943 150.018 355.3 141.389C364.657 132.76 367.114 110.304 340.034 124.214C312.953 138.124 318.94 140.905 325.319 140.557C319.49 144.488 314.715 148.768 315.485 151.694C316.867 156.937 322.652 154.7 325.372 152.927Z" fill="#D0FF6C"/>
<path d="M325.372 152.927C328.409 164.831 345.943 150.018 355.3 141.389C364.657 132.76 367.114 110.304 340.034 124.214C312.953 138.124 318.94 140.905 325.319 140.557M325.372 152.927L344.173 140.865M325.372 152.927C322.652 154.7 316.867 156.937 315.485 151.694C314.715 148.768 319.49 144.488 325.319 140.557M325.319 140.557C329.936 137.444 335.215 134.549 338.922 132.719L325.319 140.557Z" stroke="black" stroke-width="2" stroke-linecap="round" stroke-linejoin="round"/>
<path d="M238 120.74L311 64.74C298.6 24.74 393.775 22.2953 385.5 53.7401C375.5 91.7403 359 135.74 392.5 187.74C426 239.74 282 224.24 322 165.24C354 118.04 328 107.573 311 108.24L238 120.74Z" fill="#D0FF6C" stroke="black" stroke-width="2"/>
<path d="M310.5 107.74C330.5 102.14 318.833 77.0737 310.5 65.2404L238 120.74C253.833 118.74 290.5 113.34 310.5 107.74Z" fill="#FFDA3D" stroke="black" stroke-width="2"/>
<path d="M349 207.24L342 255.24M342 255.24L333.5 260.74M342 255.24V263.74M342 255.24L349 263.74" stroke="black" stroke-width="2"/>
<path d="M373.5 219.74L378 253.74M378 253.74L373.5 260.74M378 253.74L381 260.74M378 253.74L388.5 255.24" stroke="black" stroke-width="2"/>
<path d="M324 49.7403C320.667 49.407 315.6 50.8403 322 59.2403C330 69.7403 333.5 49.7403 324 49.7403Z" fill="#F0F0F0" stroke="black" stroke-width="2"/>
<path d="M343.572 41.284C340.239 40.9507 330.017 44.8149 339 52.7404C347.5 60.2404 353.072 41.284 343.572 41.284Z" fill="#F0F0F0" stroke="black" stroke-width="2"/>
<path d="M240.5 119.74C261.5 115.074 304.8 102.54 310 89.7404" stroke="black" stroke-width="2"/>
<circle cx="323.5" cy="57.2404" r="2" fill="black"/>
<circle cx="339.5" cy="49.2404" r="2" fill="black"/>
<path d="M321.765 179.416C325.107 192.515 344.402 176.215 354.7 166.719C364.997 157.223 367.701 132.512 337.9 147.819C308.099 163.126 314.688 166.187 321.707 165.804C315.292 170.129 310.037 174.839 310.886 178.059C312.406 183.829 318.772 181.367 321.765 179.416Z" fill="#D0FF6C"/>
<path d="M321.765 179.416C325.107 192.515 344.402 176.215 354.7 166.719C364.997 157.223 367.701 132.512 337.9 147.819C308.099 163.126 314.688 166.187 321.707 165.804M321.765 179.416L342.455 166.143M321.765 179.416C318.772 181.367 312.406 183.829 310.886 178.059C310.037 174.839 315.292 170.129 321.707 165.804M321.707 165.804C326.788 162.377 332.597 159.192 336.677 157.178L321.707 165.804Z" stroke="black" stroke-width="2" stroke-linecap="round" stroke-linejoin="round"/>
<path d="M331.5 34.2821C328.879 20.8779 329.231 2.87287 341.595 22.5027C345.878 14.3815 353.734 4.77469 355.171 21.8198C370.855 2.08246 370.095 20.3623 367.5 32.7404L355.352 31.3574L346.621 31.2253L331.5 34.2821Z" fill="#D0FF6C"/>
<path d="M346.621 31.2253C344.736 27.7232 343.068 24.8403 341.595 22.5027M346.621 31.2253L341.595 22.5027M346.621 31.2253L331.5 34.2821C328.879 20.8779 329.231 2.87287 341.595 22.5027M346.621 31.2253L355.352 31.3574M341.595 22.5027C345.878 14.3815 353.734 4.77469 355.171 21.8198M355.352 31.3574L367.5 32.7404C370.095 20.3623 370.855 2.08246 355.171 21.8198M355.352 31.3574C355.458 27.5184 355.386 24.3706 355.171 21.8198" stroke="black" stroke-width="2" stroke-linecap="round" stroke-linejoin="round"/>
<path d="M319.5 199C315.1 193.4 314.667 185.333 315 182L321.5 180.5L324 184.5H331.5L343.5 177L355 167L382 169L393.5 190C403.1 203.6 393.167 213.333 387 216.5C352 222 341 213.5 339 213.5C337 213.5 325 206 319.5 199Z" fill="black" stroke="black"/>
</g>
<defs>
<filter id="filter0_d_141_4" x="0.878418" y="28.5035" width="182.6" height="237.18" filterUnits="userSpaceOnUse" color-interpolation-filters="sRGB">
<feFlood flood-opacity="0" result="BackgroundImageFix"/>
<feColorMatrix in="SourceAlpha" type="matrix" values="0 0 0 0 0 0 0 0 0 0 0 0 0 0 0 0 0 0 127 0" result="hardAlpha"/>
<feOffset dy="4"/>
<feGaussianBlur stdDeviation="7.5"/>
<feComposite in2="hardAlpha" operator="out"/>
<feColorMatrix type="matrix" values="0 0 0 0 0 0 0 0 0 0 0 0 0 0 0 0 0 0 0.25 0"/>
<feBlend mode="normal" in2="BackgroundImageFix" result="effect1_dropShadow_141_4"/>
<feBlend mode="normal" in="SourceGraphic" in2="effect1_dropShadow_141_4" result="shape"/>
</filter>
<filter id="filter1_d_141_4" x="143.923" y="113.805" width="162.348" height="181.828" filterUnits="userSpaceOnUse" color-interpolation-filters="sRGB">
<feFlood flood-opacity="0" result="BackgroundImageFix"/>
<feColorMatrix in="SourceAlpha" type="matrix" values="0 0 0 0 0 0 0 0 0 0 0 0 0 0 0 0 0 0 127 0" result="hardAlpha"/>
<feOffset dy="4"/>
<feGaussianBlur stdDeviation="7.5"/>
<feComposite in2="hardAlpha" operator="out"/>
<feColorMatrix type="matrix" values="0 0 0 0 0 0 0 0 0 0 0 0 0 0 0 0 0 0 0.25 0"/>
<feBlend mode="normal" in2="BackgroundImageFix" result="effect1_dropShadow_141_4"/>
<feBlend mode="normal" in="SourceGraphic" in2="effect1_dropShadow_141_4" result="shape"/>
</filter>
<filter id="filter2_d_141_4" x="219.453" y="0.355103" width="194.148" height="283.021" filterUnits="userSpaceOnUse" color-interpolation-filters="sRGB">
<feFlood flood-opacity="0" result="BackgroundImageFix"/>
<feColorMatrix in="SourceAlpha" type="matrix" values="0 0 0 0 0 0 0 0 0 0 0 0 0 0 0 0 0 0 127 0" result="hardAlpha"/>
<feOffset dy="4"/>
<feGaussianBlur stdDeviation="7.5"/>
<feComposite in2="hardAlpha" operator="out"/>
<feColorMatrix type="matrix" values="0 0 0 0 0 0 0 0 0 0 0 0 0 0 0 0 0 0 0.25 0"/>
<feBlend mode="normal" in2="BackgroundImageFix" result="effect1_dropShadow_141_4"/>
<feBlend mode="normal" in="SourceGraphic" in2="effect1_dropShadow_141_4" result="shape"/>
</filter>
</defs>
</svg>
