<svg width="363" height="310" viewBox="0 0 363 310" fill="none" xmlns="http://www.w3.org/2000/svg">
<g filter="url(#filter0_d_118_2)">
<path d="M158.894 139.999C159.374 133.981 165.797 132.743 168.948 132.876L158.761 140.932L136.525 140.131C143.13 136.51 154.19 138.535 158.894 139.999Z" stroke="black" stroke-linecap="round"/>
<path d="M141.546 173.186C143.017 162.896 136.859 147.217 133.595 140.664L156.139 141.603L160.7 140.543L170.781 131.712C168.597 136.421 175.651 152 179.452 159.201L169.886 173.242L169.12 173.541L164.548 175.332L141.546 173.186Z" fill="#F3A643"/>
<path d="M164.548 175.332L141.546 173.186C143.017 162.896 136.859 147.217 133.595 140.664L156.139 141.603M164.548 175.332L156.139 141.603M164.548 175.332L169.12 173.541M160.7 140.543L170.781 131.712C168.597 136.421 175.651 152 179.452 159.201L169.886 173.242L169.12 173.541M160.7 140.543L156.139 141.603M160.7 140.543L169.12 173.541" stroke="black" stroke-width="2" stroke-linecap="round"/>
<path d="M103.726 54.6584C36.6319 44.4125 56.7656 151.195 75.2191 205.867C85.7571 243.463 131.585 209.201 134.711 188.928C138.702 163.039 117.91 128.197 103.726 106.301C165.697 128.197 187.593 67.4657 103.726 54.6584Z" fill="#F04D64" stroke="black" stroke-width="2"/>
<path d="M114.14 109.163C110.388 108.51 100.086 105.764 88.8987 99.9977" stroke="black" stroke-width="2" stroke-linecap="round"/>
<path d="M88.7124 76.8356C89.2633 72.291 91.3565 64.8545 100.28 71.4647C111.435 79.7275 90.7781 90.8823 88.7124 76.8356Z" fill="#EBEBEB" stroke="black" stroke-width="2" stroke-linecap="round"/>
<path d="M111.848 69.399C112.399 64.8545 116.558 60.5808 125.482 67.191C136.636 75.4538 118.872 77.5196 111.848 69.399Z" fill="#EBEBEB"/>
<path d="M111.848 69.399L110.855 69.2787C110.821 69.5587 110.907 69.8399 111.092 70.0532L111.848 69.399ZM125.482 67.191L126.077 66.3875L125.482 67.191ZM112.841 69.5194C113.09 67.4602 114.127 65.6856 115.867 65.0516C117.618 64.4139 120.524 64.7628 124.886 67.9946L126.077 66.3875C121.516 63.0091 117.88 62.1898 115.183 63.1724C112.475 64.1589 111.157 66.7934 110.855 69.2787L112.841 69.5194ZM124.886 67.9946C126.231 68.9909 127.079 69.85 127.561 70.5555C128.044 71.2629 128.104 71.7285 128.059 71.9981C128.017 72.2492 127.849 72.5324 127.397 72.8105C126.936 73.095 126.244 73.3258 125.347 73.4479C123.558 73.6914 121.181 73.4715 118.824 72.6923C116.47 71.9145 114.214 70.6056 112.604 68.7449L111.092 70.0532C112.994 72.2527 115.592 73.7308 118.196 74.5913C120.796 75.4506 123.481 75.7203 125.617 75.4296C126.682 75.2847 127.669 74.9924 128.446 74.5133C129.234 74.028 129.867 73.3072 130.031 72.3296C130.192 71.3705 129.865 70.3826 129.212 69.4272C128.558 68.4698 127.521 67.4569 126.077 66.3875L124.886 67.9946Z" fill="black"/>
<path d="M82.1023 68.0174C83.204 62.6466 87.8036 53.9707 97.3884 62.2335" stroke="black" stroke-width="3" stroke-linecap="round"/>
<path d="M107.717 59.1617C110.335 61.4644 116.13 63.8926 118.365 55.184" stroke="black" stroke-width="3" stroke-linecap="round"/>
<circle cx="140.355" cy="99.8291" r="2.06569" fill="black"/>
<circle cx="99.8672" cy="78.3458" r="2.06569" fill="black"/>
<circle cx="124.656" cy="71.7356" r="2.06569" fill="black"/>
<circle cx="150.27" cy="95.6977" r="2.06569" fill="black"/>
<path d="M95.3225 146.927C105.238 152.16 130.109 161.552 150.27 157.255" stroke="black" stroke-width="2" stroke-linecap="round"/>
<path d="M119.285 131.641C131.411 126.025 205.631 120.486 168.448 145.688" stroke="black" stroke-width="2" stroke-linecap="round"/>
<path d="M131.679 162.626L67.6423 179.565C70.1212 190.995 76.5661 214.847 82.5153 218.813C88.4645 222.779 94.3586 222.944 96.562 222.531C101.382 222.118 114.162 217.904 126.721 204.353C139.281 190.802 135.259 170.889 131.679 162.626Z" fill="black" stroke="black"/>
<path d="M87.4729 211.79C92.8437 227.627 102.181 262.44 96.562 275H116.806" stroke="black" stroke-width="2" stroke-linecap="round" stroke-linejoin="round"/>
<path d="M126.721 203.527C130.806 218.225 137.907 250.536 133.634 262.193H149.031" stroke="black" stroke-width="2" stroke-linecap="round" stroke-linejoin="round"/>
<path d="M40.7883 73.8014L61.4453 79.9985L57.727 94.4583L16 90.7401L57 117L59 138.5L31.2861 123.378L57 117L16 90.7401L57.727 94.4583L40.7883 73.8014Z" fill="black"/>
<path d="M61.4453 79.9985L62.4137 80.2475L62.6531 79.3168L61.7326 79.0406L61.4453 79.9985ZM40.7883 73.8014L41.0757 72.8436L37.9378 71.9022L40.0151 74.4355L40.7883 73.8014ZM57.727 94.4583L57.6382 95.4544L58.484 95.5297L58.6955 94.7074L57.727 94.4583ZM16 90.7401L16.0888 89.744C15.63 89.7031 15.2026 89.9809 15.0537 90.4167C14.9048 90.8526 15.0728 91.3338 15.4607 91.5822L16 90.7401ZM57 117L57.9957 116.907L57.9505 116.421L57.5393 116.158L57 117ZM31.2861 123.378L31.0454 122.407L28.5527 123.026L30.8071 124.256L31.2861 123.378ZM59 138.5L58.521 139.378L60.1697 140.277L59.9957 138.407L59 138.5ZM61.7326 79.0406L41.0757 72.8436L40.501 74.7592L61.1579 80.9563L61.7326 79.0406ZM40.0151 74.4355L56.9537 95.0924L58.5003 93.8242L41.5616 73.1673L40.0151 74.4355ZM57.8158 93.4623L16.0888 89.744L15.9112 91.7361L57.6382 95.4544L57.8158 93.4623ZM15.4607 91.5822L56.4607 117.842L57.5393 116.158L16.5393 89.898L15.4607 91.5822ZM56.7593 116.029L31.0454 122.407L31.5269 124.349L57.2407 117.971L56.7593 116.029ZM30.8071 124.256L58.521 139.378L59.479 137.622L31.7651 122.5L30.8071 124.256ZM59.9957 138.407L57.9957 116.907L56.0043 117.093L58.0043 138.593L59.9957 138.407ZM58.6955 94.7074L62.4137 80.2475L60.4768 79.7494L56.7585 94.2093L58.6955 94.7074Z" fill="black"/>
<path d="M164.489 72.334C164.489 72.334 160.771 70.6815 162.423 67.3764C168.62 63.6581 172.339 72.334 164.489 72.334Z" stroke="black" stroke-width="2" stroke-linecap="round"/>
<path d="M166.142 62.0056C172.752 46.8571 182.832 18.7912 170.273 27.715C164.654 32.0117 162.699 36.3909 162.423 38.0435" stroke="black" stroke-width="2" stroke-linecap="round"/>
<path d="M147.489 60.334C147.489 60.334 143.771 58.6815 145.423 55.3764C151.62 51.6581 155.339 60.334 147.489 60.334Z" stroke="black" stroke-width="2" stroke-linecap="round"/>
<path d="M148.787 49.3957C151.311 33.0617 153.892 3.35231 144.027 15.1868C139.692 20.7754 138.919 25.5088 139.075 27.1769" stroke="black" stroke-width="2" stroke-linecap="round"/>
</g>
<g filter="url(#filter1_d_118_2)">
<path d="M229.015 148.637L223.85 82.5L240 52L252 85.0858L267 52L278 87.474L329.733 92.226L342 142.801L275 137.5L283.893 224.5L220 257.5L152 241L209 224.5L229.015 148.637Z" fill="#6E96E0"/>
<path d="M223.85 82.5L229.015 148.637L209 224.5L152 241L220 257.5L283.893 224.5L275 137.5L342 142.801L329.733 92.226L278 87.474M223.85 82.5L240 52L252 85.0858M223.85 82.5L252 85.0858M252 85.0858L267 52L278 87.474M252 85.0858L278 87.474" stroke="black" stroke-width="2"/>
<path d="M281.5 202L217 193.5L209 224.5L152 241L220 257L284 224.5L281.5 202Z" fill="black" stroke="black" stroke-width="2"/>
<path d="M238 105.5V92L256.5 95V109L238 105.5Z" fill="#F0F0F0" stroke="black" stroke-width="2"/>
<path d="M267.5 108V94.5H285.5V105.5L267.5 108Z" fill="#F0F0F0" stroke="black" stroke-width="2"/>
<path d="M320 136.5V129.5H324V135.204L320 136.5Z" stroke="black" stroke-width="2"/>
<path d="M251 101.204V95.5H255V101.204H251Z" fill="black" stroke="black" stroke-width="2"/>
<path d="M278 101.204V95.5H282L281.5 100L278 101.204Z" fill="black" stroke="black" stroke-width="2"/>
<path d="M333.175 130.606L332.82 137.597L328.825 137.394L329.114 131.698L333.175 130.606Z" stroke="black" stroke-width="2"/>
<path d="M331.857 173.016C332.142 172.542 331.989 171.928 331.516 171.643L323.804 167.003C323.331 166.718 322.716 166.871 322.432 167.344C322.147 167.817 322.3 168.432 322.773 168.717L329.628 172.841L325.503 179.696C325.218 180.169 325.371 180.784 325.844 181.068C326.317 181.353 326.932 181.2 327.217 180.727L331.857 173.016ZM253.701 175.904C265.766 179.685 281.226 180.041 295.575 178.985C309.944 177.927 323.308 175.443 331.241 173.47L330.759 171.53C322.928 173.477 309.676 175.941 295.428 176.99C281.159 178.041 266.001 177.662 254.299 173.996L253.701 175.904Z" fill="black"/>
<path d="M348 147.5L336.573 149.158L343.722 158.225L348 147.5ZM276.921 161.939C284.945 162.577 296.896 162.835 308.904 161.816C320.88 160.8 333.048 158.503 341.411 153.95L340.455 152.193C332.471 156.539 320.65 158.812 308.735 159.823C296.851 160.832 285.01 160.576 277.079 159.945L276.921 161.939Z" fill="black"/>
<path d="M222.375 222L218 290H238" stroke="black" stroke-width="2"/>
<path d="M253 241L260 289.5H277.5" stroke="black" stroke-width="2"/>
<path d="M298 82V78H303.5L302 82H298Z" stroke="black" stroke-width="2"/>
<path d="M303.5 29V68L298 68.6L292 29.6L303.5 29Z" stroke="black" stroke-width="2"/>
<path d="M322 84L323.5 78H328.5L327.5 84H322Z" stroke="black" stroke-width="2"/>
<path d="M319.5 31.5L322 70L327.5 71L328.5 32.5L319.5 31.5Z" stroke="black" stroke-width="2"/>
</g>
<defs>
<filter id="filter0_d_118_2" x="0" y="0.471741" width="195.617" height="294.528" filterUnits="userSpaceOnUse" color-interpolation-filters="sRGB">
<feFlood flood-opacity="0" result="BackgroundImageFix"/>
<feColorMatrix in="SourceAlpha" type="matrix" values="0 0 0 0 0 0 0 0 0 0 0 0 0 0 0 0 0 0 127 0" result="hardAlpha"/>
<feOffset dy="4"/>
<feGaussianBlur stdDeviation="7.5"/>
<feComposite in2="hardAlpha" operator="out"/>
<feColorMatrix type="matrix" values="0 0 0 0 0 0 0 0 0 0 0 0 0 0 0 0 0 0 0.25 0"/>
<feBlend mode="normal" in2="BackgroundImageFix" result="effect1_dropShadow_118_2"/>
<feBlend mode="normal" in="SourceGraphic" in2="effect1_dropShadow_118_2" result="shape"/>
</filter>
<filter id="filter1_d_118_2" x="133.059" y="16.9465" width="229.941" height="293.054" filterUnits="userSpaceOnUse" color-interpolation-filters="sRGB">
<feFlood flood-opacity="0" result="BackgroundImageFix"/>
<feColorMatrix in="SourceAlpha" type="matrix" values="0 0 0 0 0 0 0 0 0 0 0 0 0 0 0 0 0 0 127 0" result="hardAlpha"/>
<feOffset dy="4"/>
<feGaussianBlur stdDeviation="7.5"/>
<feComposite in2="hardAlpha" operator="out"/>
<feColorMatrix type="matrix" values="0 0 0 0 0 0 0 0 0 0 0 0 0 0 0 0 0 0 0.25 0"/>
<feBlend mode="normal" in2="BackgroundImageFix" result="effect1_dropShadow_118_2"/>
<feBlend mode="normal" in="SourceGraphic" in2="effect1_dropShadow_118_2" result="shape"/>
</filter>
</defs>
</svg>
