<svg width="45" height="45" viewBox="0 0 31 31" fill="none" xmlns="http://www.w3.org/2000/svg">
<path d="M16.3267 11.0179L22.5912 12.6067M15.0608 16.0167L18.8067 16.9725M27.9775 13.485L26.7117 18.8842C25.6267 23.5471 23.4825 25.4329 19.4525 25.0454C18.8067 24.9937 18.1092 24.8775 17.36 24.6967L15.19 24.18C9.80375 22.9012 8.1375 20.2404 9.40333 14.8413L10.6692 9.42917C10.9275 8.33125 11.2375 7.37542 11.625 6.5875C13.1362 3.46167 15.7067 2.62208 20.0208 3.6425L22.1779 4.14625C27.59 5.41208 29.2433 8.08583 27.9775 13.485ZM19.4525 25.0454C18.6517 25.5879 17.6442 26.04 16.4171 26.4404L14.3762 27.1121C9.24833 28.7654 6.54875 27.3833 4.8825 22.2554L3.22917 17.1533C1.57583 12.0254 2.945 9.31291 8.07292 7.65958L10.1137 6.98791C10.6433 6.82 11.1471 6.67791 11.625 6.5875C11.2375 7.37541 10.9275 8.33125 10.6692 9.42916L9.40333 14.8412C8.1375 20.2404 9.80375 22.9012 15.19 24.18L17.36 24.6967C18.1092 24.8775 18.8067 24.9937 19.4525 25.0454Z" stroke="url(#paint0_linear_4_32)" stroke-width="2" stroke-linecap="round" stroke-linejoin="round"/>
<defs>
<linearGradient id="paint0_linear_4_32" x1="2.61972" y1="3.05634" x2="29.8653" y2="26.195" gradientUnits="userSpaceOnUse">
<stop stop-color="#76BDB9"/>
<stop offset="1" stop-color="#0F302E"/>
</linearGradient>
</defs>
</svg>
