<svg width="120" height="20" viewBox="0 0 115 16" fill="none" xmlns="http://www.w3.org/2000/svg">
<path d="M0.747188 15V0.999999H2.88719L9.00719 11.22H7.88719L13.9072 0.999999H16.0472L16.0672 15H13.6072L13.5872 4.86H14.1072L8.98719 13.4H7.82719L2.62719 4.86H3.22719V15H0.747188ZM24.6288 15.14C23.4421 15.14 22.4021 14.9067 21.5088 14.44C20.6288 13.96 19.9421 13.3067 19.4488 12.48C18.9688 11.6533 18.7288 10.7133 18.7288 9.66C18.7288 8.59333 18.9621 7.65333 19.4288 6.84C19.9088 6.01333 20.5621 5.36667 21.3888 4.9C22.2288 4.43333 23.1821 4.2 24.2488 4.2C25.2888 4.2 26.2154 4.42667 27.0288 4.88C27.8421 5.33333 28.4821 5.97333 28.9488 6.8C29.4154 7.62667 29.6488 8.6 29.6488 9.72C29.6488 9.82667 29.6421 9.94667 29.6288 10.08C29.6288 10.2133 29.6221 10.34 29.6088 10.46H20.7088V8.8H28.2888L27.3088 9.32C27.3221 8.70667 27.1954 8.16667 26.9288 7.7C26.6621 7.23333 26.2954 6.86667 25.8288 6.6C25.3754 6.33333 24.8488 6.2 24.2488 6.2C23.6354 6.2 23.0954 6.33333 22.6288 6.6C22.1754 6.86667 21.8154 7.24 21.5488 7.72C21.2954 8.18667 21.1688 8.74 21.1688 9.38V9.78C21.1688 10.42 21.3154 10.9867 21.6088 11.48C21.9021 11.9733 22.3154 12.3533 22.8488 12.62C23.3821 12.8867 23.9954 13.02 24.6888 13.02C25.2888 13.02 25.8288 12.9267 26.3088 12.74C26.7888 12.5533 27.2154 12.26 27.5888 11.86L28.9288 13.4C28.4488 13.96 27.8421 14.3933 27.1088 14.7C26.3888 14.9933 25.5621 15.14 24.6288 15.14ZM45.5302 4.2C46.3835 4.2 47.1368 4.36667 47.7902 4.7C48.4568 5.03333 48.9768 5.54667 49.3502 6.24C49.7235 6.92 49.9102 7.8 49.9102 8.88V15H47.4102V9.2C47.4102 8.25333 47.2035 7.54667 46.7902 7.08C46.3768 6.61333 45.7835 6.38 45.0102 6.38C44.4635 6.38 43.9768 6.5 43.5502 6.74C43.1368 6.98 42.8102 7.33333 42.5702 7.8C42.3435 8.26667 42.2302 8.86 42.2302 9.58V15H39.7302V9.2C39.7302 8.25333 39.5235 7.54667 39.1102 7.08C38.6968 6.61333 38.1035 6.38 37.3302 6.38C36.7835 6.38 36.2968 6.5 35.8702 6.74C35.4568 6.98 35.1302 7.33333 34.8902 7.8C34.6635 8.26667 34.5502 8.86 34.5502 9.58V15H32.0502V4.32H34.4302V7.16L34.0102 6.32C34.3702 5.62667 34.8902 5.1 35.5702 4.74C36.2635 4.38 37.0502 4.2 37.9302 4.2C38.9302 4.2 39.7968 4.44667 40.5302 4.94C41.2768 5.43333 41.7702 6.18 42.0102 7.18L41.0302 6.84C41.3768 6.04 41.9502 5.4 42.7502 4.92C43.5502 4.44 44.4768 4.2 45.5302 4.2ZM57.9244 15.14C56.831 15.14 55.8577 14.9067 55.0044 14.44C54.151 13.96 53.4777 13.3067 52.9844 12.48C52.491 11.6533 52.2444 10.7133 52.2444 9.66C52.2444 8.59333 52.491 7.65333 52.9844 6.84C53.4777 6.01333 54.151 5.36667 55.0044 4.9C55.8577 4.43333 56.831 4.2 57.9244 4.2C59.031 4.2 60.011 4.43333 60.8644 4.9C61.731 5.36667 62.4044 6.00667 62.8844 6.82C63.3777 7.63333 63.6244 8.58 63.6244 9.66C63.6244 10.7133 63.3777 11.6533 62.8844 12.48C62.4044 13.3067 61.731 13.96 60.8644 14.44C60.011 14.9067 59.031 15.14 57.9244 15.14ZM57.9244 13C58.5377 13 59.0844 12.8667 59.5644 12.6C60.0444 12.3333 60.4177 11.9467 60.6844 11.44C60.9644 10.9333 61.1044 10.34 61.1044 9.66C61.1044 8.96667 60.9644 8.37333 60.6844 7.88C60.4177 7.37333 60.0444 6.98667 59.5644 6.72C59.0844 6.45333 58.5444 6.32 57.9444 6.32C57.331 6.32 56.7844 6.45333 56.3044 6.72C55.8377 6.98667 55.4644 7.37333 55.1844 7.88C54.9044 8.37333 54.7644 8.96667 54.7644 9.66C54.7644 10.34 54.9044 10.9333 55.1844 11.44C55.4644 11.9467 55.8377 12.3333 56.3044 12.6C56.7844 12.8667 57.3244 13 57.9244 13ZM75.275 15.24C74.555 15.24 73.9083 15.0733 73.335 14.74C72.7617 14.4067 72.3083 13.9533 71.975 13.38C71.655 12.7933 71.495 12.1133 71.495 11.34V4.38C71.495 4.02 71.4083 3.69333 71.235 3.4C71.0617 3.10667 70.8283 2.87333 70.535 2.7C70.2417 2.52667 69.9217 2.44 69.575 2.44C69.2283 2.44 68.9083 2.52667 68.615 2.7C68.335 2.87333 68.1083 3.10667 67.935 3.4C67.775 3.69333 67.695 4.02 67.695 4.38V15H65.775V4.64C65.775 3.90667 65.935 3.24667 66.255 2.66C66.575 2.07333 67.0217 1.61333 67.595 1.28C68.1683 0.933333 68.8283 0.76 69.575 0.76C70.335 0.76 71.0017 0.933333 71.575 1.28C72.1483 1.61333 72.595 2.07333 72.915 2.66C73.235 3.24667 73.395 3.90667 73.395 4.64V11.6C73.395 11.9733 73.4817 12.3067 73.655 12.6C73.8283 12.88 74.055 13.1067 74.335 13.28C74.6283 13.4533 74.9417 13.54 75.275 13.54C75.6083 13.54 75.915 13.4533 76.195 13.28C76.475 13.1067 76.695 12.88 76.855 12.6C77.0283 12.3067 77.115 11.9733 77.115 11.6V4.64C77.115 3.90667 77.275 3.24667 77.595 2.66C77.9283 2.07333 78.3817 1.61333 78.955 1.28C79.5283 0.933333 80.195 0.76 80.955 0.76C81.7017 0.76 82.3617 0.933333 82.935 1.28C83.5083 1.61333 83.955 2.07333 84.275 2.66C84.595 3.24667 84.755 3.90667 84.755 4.64V15H82.835V4.38C82.835 4.02 82.7483 3.69333 82.575 3.4C82.415 3.10667 82.1883 2.87333 81.895 2.7C81.615 2.52667 81.3017 2.44 80.955 2.44C80.595 2.44 80.2683 2.52667 79.975 2.7C79.695 2.87333 79.4683 3.10667 79.295 3.4C79.1217 3.69333 79.035 4.02 79.035 4.38V11.34C79.035 12.1133 78.8683 12.7933 78.535 13.38C78.215 13.9533 77.7683 14.4067 77.195 14.74C76.635 15.0733 75.995 15.24 75.275 15.24ZM87.6123 15V4.8H89.4723V15H87.6123ZM88.5523 3.18C88.219 3.18 87.9257 3.06 87.6723 2.82C87.4323 2.56667 87.3123 2.27333 87.3123 1.94C87.3123 1.60667 87.4323 1.32 87.6723 1.08C87.9257 0.826666 88.219 0.699999 88.5523 0.699999C88.8857 0.699999 89.1723 0.826666 89.4123 1.08C89.6657 1.32 89.7923 1.60667 89.7923 1.94C89.7923 2.27333 89.6657 2.56667 89.4123 2.82C89.1723 3.06 88.8857 3.18 88.5523 3.18ZM92.378 15V9.1C92.378 8.19333 92.578 7.4 92.978 6.72C93.3913 6.04 93.958 5.51333 94.678 5.14C95.398 4.75333 96.218 4.56 97.138 4.56C98.0713 4.56 98.8913 4.75333 99.598 5.14C100.318 5.51333 100.878 6.04 101.278 6.72C101.691 7.4 101.898 8.19333 101.898 9.1V15H100.058V9.12C100.058 8.50667 99.918 7.98 99.638 7.54C99.3713 7.08667 99.0113 6.74 98.558 6.5C98.118 6.26 97.6446 6.14 97.138 6.14C96.6313 6.14 96.1513 6.26 95.698 6.5C95.258 6.74 94.898 7.08667 94.618 7.54C94.3513 7.98 94.218 8.50667 94.218 9.12V15H92.378ZM109.519 15.24C108.746 15.24 108.039 15.12 107.399 14.88C106.759 14.6267 106.206 14.26 105.739 13.78C105.273 13.3 104.906 12.7267 104.639 12.06C104.386 11.38 104.259 10.62 104.259 9.78C104.259 8.71333 104.473 7.79333 104.899 7.02C105.339 6.23333 105.933 5.62667 106.679 5.2C107.439 4.77333 108.286 4.56 109.219 4.56C109.739 4.56 110.233 4.64667 110.699 4.82C111.179 4.99333 111.606 5.23333 111.979 5.54C112.353 5.84667 112.646 6.20667 112.859 6.62H112.899V0.4H114.739V9.84C114.739 10.9733 114.506 11.9467 114.039 12.76C113.586 13.56 112.966 14.1733 112.179 14.6C111.406 15.0267 110.519 15.24 109.519 15.24ZM109.519 13.66C110.146 13.66 110.713 13.5067 111.219 13.2C111.726 12.8933 112.126 12.46 112.419 11.9C112.726 11.34 112.879 10.68 112.879 9.92C112.879 9.14667 112.726 8.48 112.419 7.92C112.126 7.34667 111.726 6.90667 111.219 6.6C110.713 6.29333 110.139 6.14 109.499 6.14C108.873 6.14 108.299 6.3 107.779 6.62C107.273 6.94 106.866 7.38 106.559 7.94C106.266 8.5 106.119 9.15333 106.119 9.9C106.119 10.6733 106.273 11.34 106.579 11.9C106.886 12.46 107.293 12.8933 107.799 13.2C108.319 13.5067 108.893 13.66 109.519 13.66Z" fill="black"/>
</svg>
