<svg width="46" height="46" viewBox="0 0 46 46" fill="none" xmlns="http://www.w3.org/2000/svg">
<path d="M34.5191 17.2308L28.7691 11.4808M6.70826 39.2917C8.29909 40.8825 10.8674 40.8825 12.4583 39.2917L37.3749 14.375C38.9658 12.7842 38.9658 10.2158 37.3749 8.62501C35.7841 7.03418 33.2158 7.03418 31.6249 8.62501L6.70826 33.5417C5.11743 35.1325 5.11743 37.7008 6.70826 39.2917Z" stroke="#6E96E0" stroke-width="3" stroke-linecap="round" stroke-linejoin="round"/>
<path d="M16.2917 4.67659L19.1667 3.83325L18.3233 6.70825L19.1667 9.58325L16.2917 8.73992L13.4167 9.58325L14.26 6.70825L13.4167 3.83325L16.2917 4.67659ZM8.625 16.1766L11.5 15.3333L10.6567 18.2083L11.5 21.0833L8.625 20.2399L5.75 21.0833L6.59333 18.2083L5.75 15.3333L8.625 16.1766ZM37.375 25.7599L40.25 24.9166L39.4067 27.7916L40.25 30.6666L37.375 29.8233L34.5 30.6666L35.3433 27.7916L34.5 24.9166L37.375 25.7599Z" stroke="#6E96E0" stroke-width="3" stroke-linecap="round" stroke-linejoin="round"/>
</svg>
