<svg width="178" height="168" viewBox="0 0 178 168" fill="none" xmlns="http://www.w3.org/2000/svg">
<g filter="url(#filter0_d_140_289)">
<path d="M161.971 43.5742C172.605 37.4226 153.593 24.563 142.749 17.8966C131.906 11.2301 109.626 14.9552 130.358 37.2485C151.091 59.5418 152.144 53.0247 150.08 46.9794C155.444 51.5242 160.858 54.9599 163.465 53.4244C168.138 50.6727 164.416 45.711 161.971 43.5742Z" fill="#D0FF6C"/>
<path d="M161.971 43.5742C172.605 37.4226 153.593 24.563 142.749 17.8966C131.906 11.2301 109.626 14.9552 130.358 37.2485C151.091 59.5418 152.144 53.0247 150.08 46.9794M161.971 43.5742L145.263 28.7489M161.971 43.5742C164.416 45.711 168.138 50.6727 163.465 53.4244C160.858 54.9599 155.444 51.5242 150.08 46.9794M150.08 46.9794C145.831 43.3797 141.613 39.0841 138.846 36.012L150.08 46.9794Z" stroke="black" stroke-width="2" stroke-linecap="round" stroke-linejoin="round"/>
<path d="M154.686 136.401L80.9871 81.3235C45.849 104.107 17.6846 13.1617 50.1951 12.5987C89.4832 11.9183 136.309 15.8672 177.275 -30.4796C218.241 -76.8265 242.374 65.9805 174.737 43.4803C120.628 25.4802 117.605 53.3443 122.857 69.5264L154.686 136.401Z" fill="#D0FF6C" stroke="black" stroke-width="2"/>
<path d="M122.511 70.143C111.697 52.4113 90.7341 70.4387 81.6042 81.669L154.686 136.4C148.467 121.703 133.326 87.8748 122.511 70.143Z" fill="#FFDA3D" stroke="black" stroke-width="2"/>
<path d="M63.0238 72.8783C63.607 76.1771 66.3606 80.6652 72.7102 72.2269C80.6471 61.6792 60.4474 63.7341 63.0238 72.8783Z" fill="#F0F0F0" stroke="black" stroke-width="2"/>
<path d="M49.5766 56.3333C50.1597 59.6321 56.6511 68.4224 61.8436 57.6272C66.7572 47.4116 47.0001 47.1891 49.5766 56.3333Z" fill="#F0F0F0" stroke="black" stroke-width="2"/>
<path d="M153.046 134.265C142.859 115.318 119.052 77.0398 105.322 75.506" stroke="black" stroke-width="2"/>
<circle cx="70.3785" cy="71.3258" r="2" transform="rotate(-105.736 70.3785 71.3258)" fill="black"/>
<circle cx="58.3392" cy="58.0951" r="2" transform="rotate(-105.736 58.3392 58.0951)" fill="black"/>
<path d="M188.445 39.8618C200.148 33.0923 179.225 18.941 167.293 11.6048C155.36 4.26874 130.842 8.36802 153.657 32.9007C176.472 57.4335 177.632 50.2616 175.359 43.6091C181.263 48.6104 187.221 52.3912 190.09 50.7015C195.231 47.6733 191.136 42.2133 188.445 39.8618Z" fill="#D0FF6C"/>
<path d="M188.445 39.8618C200.148 33.0923 179.225 18.941 167.293 11.6048C155.36 4.26874 130.842 8.36802 153.657 32.9007C176.472 57.4335 177.632 50.2616 175.359 43.6091M188.445 39.8618L170.059 23.5473M188.445 39.8618C191.136 42.2133 195.231 47.6733 190.09 50.7015C187.221 52.3912 181.263 48.6104 175.359 43.6091M175.359 43.6091C170.683 39.6478 166.042 34.9207 162.998 31.5401L175.359 43.6091Z" stroke="black" stroke-width="2" stroke-linecap="round" stroke-linejoin="round"/>
<path d="M46.1113 69.8522C33.9201 76.0095 16.4945 80.5545 32.0353 63.3294C23.057 61.4093 11.6799 56.454 27.6963 50.4476C4.4453 40.7044 22.2461 36.4781 34.8641 35.6192L36.8274 47.6869L39.0681 56.1267L46.1113 69.8522Z" fill="#D0FF6C"/>
<path d="M39.0681 56.1267C36.2085 58.8908 33.8861 61.2782 32.0353 63.3294M39.0681 56.1267L32.0353 63.3294M39.0681 56.1267L46.1113 69.8522C33.9201 76.0095 16.4945 80.5545 32.0353 63.3294M39.0681 56.1267L36.8274 47.6869M32.0353 63.3294C23.057 61.4093 11.6799 56.454 27.6963 50.4476M36.8274 47.6869L34.8641 35.6192C22.2461 36.4781 4.4453 40.7044 27.6963 50.4476M36.8274 47.6869C33.1036 48.6262 30.0932 49.5487 27.6963 50.4476" stroke="black" stroke-width="2" stroke-linecap="round" stroke-linejoin="round"/>
<path d="M207.91 36.731C203.713 42.4848 196.067 45.0896 192.768 45.6727L189.561 39.823L192.733 36.3319L190.699 29.113L180.226 19.5967L167.482 11.2397L162.085 -15.2909L179.179 -32.055C189.666 -44.9836 201.728 -38.0622 206.448 -32.9854C221.234 -0.788689 216.036 12.1043 216.578 14.0293C217.121 15.9544 213.156 29.5387 207.91 36.731Z" fill="black" stroke="black"/>
</g>
<defs>
<filter id="filter0_d_140_289" x="0.385742" y="-56.0679" width="279.008" height="214.488" filterUnits="userSpaceOnUse" color-interpolation-filters="sRGB">
<feFlood flood-opacity="0" result="BackgroundImageFix"/>
<feColorMatrix in="SourceAlpha" type="matrix" values="0 0 0 0 0 0 0 0 0 0 0 0 0 0 0 0 0 0 127 0" result="hardAlpha"/>
<feOffset dy="4"/>
<feGaussianBlur stdDeviation="7.5"/>
<feComposite in2="hardAlpha" operator="out"/>
<feColorMatrix type="matrix" values="0 0 0 0 0 0 0 0 0 0 0 0 0 0 0 0 0 0 0.25 0"/>
<feBlend mode="normal" in2="BackgroundImageFix" result="effect1_dropShadow_140_289"/>
<feBlend mode="normal" in="SourceGraphic" in2="effect1_dropShadow_140_289" result="shape"/>
</filter>
</defs>
</svg>
