<svg width="15" height="15" viewBox="0 0 15 15" fill="none" xmlns="http://www.w3.org/2000/svg">
<g opacity="1" clip-path="url(#clip0_121_15)">
<path d="M7.5 9.375C7.99728 9.375 8.47419 9.17746 8.82583 8.82583C9.17746 8.47419 9.375 7.99728 9.375 7.5C9.375 7.00272 9.17746 6.52581 8.82583 6.17417C8.47419 5.82254 7.99728 5.625 7.5 5.625C7.00272 5.625 6.52581 5.82254 6.17417 6.17417C5.82254 6.52581 5.625 7.00272 5.625 7.5C5.625 7.99728 5.82254 8.47419 6.17417 8.82583C6.52581 9.17746 7.00272 9.375 7.5 9.375Z" stroke="black" stroke-width="1.5" stroke-miterlimit="10" stroke-linecap="round" stroke-linejoin="round"/>
<path d="M1.25 8.05002V6.95002C1.25 6.30002 1.78125 5.76252 2.4375 5.76252C3.56875 5.76252 4.03125 4.96252 3.4625 3.98127C3.1375 3.41877 3.33125 2.68752 3.9 2.36252L4.98125 1.74377C5.475 1.45002 6.1125 1.62502 6.40625 2.11877L6.475 2.23752C7.0375 3.21877 7.9625 3.21877 8.53125 2.23752L8.6 2.11877C8.89375 1.62502 9.53125 1.45002 10.025 1.74377L11.1063 2.36252C11.675 2.68752 11.8687 3.41877 11.5437 3.98127C10.975 4.96252 11.4375 5.76252 12.5688 5.76252C13.2188 5.76252 13.7563 6.29377 13.7563 6.95002V8.05002C13.7563 8.70002 13.225 9.23752 12.5688 9.23752C11.4375 9.23752 10.975 10.0375 11.5437 11.0188C11.8687 11.5875 11.675 12.3125 11.1063 12.6375L10.025 13.2563C9.53125 13.55 8.89375 13.375 8.6 12.8813L8.53125 12.7625C7.96875 11.7813 7.04375 11.7813 6.475 12.7625L6.40625 12.8813C6.1125 13.375 5.475 13.55 4.98125 13.2563L3.9 12.6375C3.62756 12.4807 3.42849 12.2221 3.34647 11.9186C3.26444 11.6151 3.30617 11.2915 3.4625 11.0188C4.03125 10.0375 3.56875 9.23752 2.4375 9.23752C1.78125 9.23752 1.25 8.70002 1.25 8.05002Z" stroke="black" stroke-width="1.5" stroke-miterlimit="10" stroke-linecap="round" stroke-linejoin="round"/>
</g>
<defs>
<clipPath id="clip0_121_15">
<rect width="15" height="15" fill="white"/>
</clipPath>
</defs>
</svg>
