<svg width="15" height="15" viewBox="0 0 15 15" fill="none" xmlns="http://www.w3.org/2000/svg">
<g opacity="1" clip-path="url(#clip0_121_9)">
<path d="M8.58107 2.19377L9.68107 4.39377C9.83107 4.70002 10.2311 4.99377 10.5686 5.05002L12.5623 5.38127C13.8373 5.59377 14.1373 6.51877 13.2186 7.43127L11.6686 8.98127C11.4061 9.24377 11.2623 9.75003 11.3436 10.1125L11.7873 12.0313C12.1373 13.55 11.3311 14.1375 9.98732 13.3438L8.11857 12.2375C7.78107 12.0375 7.22482 12.0375 6.88107 12.2375L5.01232 13.3438C3.67482 14.1375 2.86232 13.5438 3.21232 12.0313L3.65607 10.1125C3.73732 9.75003 3.59357 9.24377 3.33107 8.98127L1.78107 7.43127C0.868571 6.51877 1.16232 5.59377 2.43732 5.38127L4.43107 5.05002C4.76232 4.99377 5.16232 4.70002 5.31232 4.39377L6.41232 2.19377C7.01232 1.00002 7.98732 1.00002 8.58107 2.19377Z" stroke="black" stroke-width="1.5" stroke-linecap="round" stroke-linejoin="round"/>
</g>
<defs>
<clipPath id="clip0_121_9">
<rect width="15" height="15" fill="white"/>
</clipPath>
</defs>
</svg>
