<svg width="900" height="140" viewBox="0 0 566 75" fill="none" xmlns="http://www.w3.org/2000/svg">
<path d="M0.487403 73V3H6.5874L38.5874 57.6H35.3874L67.0874 3H73.1874V73H66.0874V14.1H67.7874L38.5874 64.1H35.0874L5.6874 14.1H7.5874V73H0.487403ZM116.795 73.5C111.329 73.5 106.529 72.3667 102.395 70.1C98.2619 67.7667 95.0285 64.6 92.6952 60.6C90.3619 56.5333 89.1952 51.9 89.1952 46.7C89.1952 41.5 90.2952 36.9 92.4952 32.9C94.7619 28.9 97.8285 25.7667 101.695 23.5C105.629 21.1667 110.029 20 114.895 20C119.829 20 124.195 21.1333 127.995 23.4C131.862 25.6 134.895 28.7333 137.095 32.8C139.295 36.8 140.395 41.4333 140.395 46.7C140.395 47.0333 140.362 47.4 140.295 47.8C140.295 48.1333 140.295 48.5 140.295 48.9H94.5952V43.6H136.495L133.695 45.7C133.695 41.9 132.862 38.5333 131.195 35.6C129.595 32.6 127.395 30.2667 124.595 28.6C121.795 26.9333 118.562 26.1 114.895 26.1C111.295 26.1 108.062 26.9333 105.195 28.6C102.329 30.2667 100.095 32.6 98.4952 35.6C96.8952 38.6 96.0952 42.0333 96.0952 45.9V47C96.0952 51 96.9619 54.5333 98.6952 57.6C100.495 60.6 102.962 62.9667 106.095 64.7C109.295 66.3667 112.929 67.2 116.995 67.2C120.195 67.2 123.162 66.6333 125.895 65.5C128.695 64.3667 131.095 62.6333 133.095 60.3L137.095 64.9C134.762 67.7 131.829 69.8333 128.295 71.3C124.829 72.7667 120.995 73.5 116.795 73.5ZM220.447 20C224.713 20 228.413 20.8333 231.547 22.5C234.747 24.1 237.213 26.5667 238.947 29.9C240.747 33.2333 241.647 37.4333 241.647 42.5V73H234.547V43.2C234.547 37.6667 233.213 33.5 230.547 30.7C227.947 27.8333 224.247 26.4 219.447 26.4C215.847 26.4 212.713 27.1667 210.047 28.7C207.447 30.1667 205.413 32.3333 203.947 35.2C202.547 38 201.847 41.4 201.847 45.4V73H194.747V43.2C194.747 37.6667 193.413 33.5 190.747 30.7C188.08 27.8333 184.347 26.4 179.547 26.4C176.013 26.4 172.913 27.1667 170.247 28.7C167.58 30.1667 165.513 32.3333 164.047 35.2C162.647 38 161.947 41.4 161.947 45.4V73H154.847V20.5H161.647V34.7L160.547 32.2C162.147 28.4 164.713 25.4333 168.247 23.3C171.847 21.1 176.08 20 180.947 20C186.08 20 190.447 21.3 194.047 23.9C197.647 26.4333 199.98 30.2667 201.047 35.4L198.247 34.3C199.78 30.0333 202.48 26.6 206.347 24C210.28 21.3333 214.98 20 220.447 20ZM282.301 73.5C277.235 73.5 272.668 72.3667 268.601 70.1C264.601 67.7667 261.435 64.6 259.101 60.6C256.768 56.5333 255.601 51.9 255.601 46.7C255.601 41.4333 256.768 36.8 259.101 32.8C261.435 28.8 264.601 25.6667 268.601 23.4C272.601 21.1333 277.168 20 282.301 20C287.501 20 292.101 21.1333 296.101 23.4C300.168 25.6667 303.335 28.8 305.601 32.8C307.935 36.8 309.101 41.4333 309.101 46.7C309.101 51.9 307.935 56.5333 305.601 60.6C303.335 64.6 300.168 67.7667 296.101 70.1C292.035 72.3667 287.435 73.5 282.301 73.5ZM282.301 67.2C286.101 67.2 289.468 66.3667 292.401 64.7C295.335 62.9667 297.635 60.5667 299.301 57.5C301.035 54.3667 301.901 50.7667 301.901 46.7C301.901 42.5667 301.035 38.9667 299.301 35.9C297.635 32.8333 295.335 30.4667 292.401 28.8C289.468 27.0667 286.135 26.2 282.401 26.2C278.668 26.2 275.335 27.0667 272.401 28.8C269.468 30.4667 267.135 32.8333 265.401 35.9C263.668 38.9667 262.801 42.5667 262.801 46.7C262.801 50.7667 263.668 54.3667 265.401 57.5C267.135 60.5667 269.468 62.9667 272.401 64.7C275.335 66.3667 278.635 67.2 282.301 67.2Z" fill="black"/>
<path d="M368.197 74.2C364.597 74.2 361.363 73.3667 358.497 71.7C355.63 70.0333 353.363 67.7667 351.697 64.9C350.097 61.9667 349.297 58.5667 349.297 54.7V19.9C349.297 18.1 348.863 16.4667 347.997 15C347.13 13.5333 345.963 12.3667 344.497 11.5C343.03 10.6333 341.43 10.2 339.697 10.2C337.963 10.2 336.363 10.6333 334.897 11.5C333.497 12.3667 332.363 13.5333 331.497 15C330.697 16.4667 330.297 18.1 330.297 19.9V73H320.697V21.2C320.697 17.5333 321.497 14.2333 323.097 11.3C324.697 8.36666 326.93 6.06666 329.797 4.4C332.663 2.66666 335.963 1.8 339.697 1.8C343.497 1.8 346.83 2.66666 349.697 4.4C352.563 6.06666 354.797 8.36666 356.397 11.3C357.997 14.2333 358.797 17.5333 358.797 21.2V56C358.797 57.8667 359.23 59.5333 360.097 61C360.963 62.4 362.097 63.5333 363.497 64.4C364.963 65.2667 366.53 65.7 368.197 65.7C369.863 65.7 371.397 65.2667 372.797 64.4C374.197 63.5333 375.297 62.4 376.097 61C376.963 59.5333 377.397 57.8667 377.397 56V21.2C377.397 17.5333 378.197 14.2333 379.797 11.3C381.463 8.36666 383.73 6.06666 386.597 4.4C389.463 2.66666 392.797 1.8 396.597 1.8C400.33 1.8 403.63 2.66666 406.497 4.4C409.363 6.06666 411.597 8.36666 413.197 11.3C414.797 14.2333 415.597 17.5333 415.597 21.2V73H405.997V19.9C405.997 18.1 405.563 16.4667 404.697 15C403.897 13.5333 402.763 12.3667 401.297 11.5C399.897 10.6333 398.33 10.2 396.597 10.2C394.797 10.2 393.163 10.6333 391.697 11.5C390.297 12.3667 389.163 13.5333 388.297 15C387.43 16.4667 386.997 18.1 386.997 19.9V54.7C386.997 58.5667 386.163 61.9667 384.497 64.9C382.897 67.7667 380.663 70.0333 377.797 71.7C374.997 73.3667 371.797 74.2 368.197 74.2Z" fill="#F04D64"/>
<path d="M429.883 73V22H439.183V73H429.883ZM434.583 13.9C432.917 13.9 431.45 13.3 430.183 12.1C428.983 10.8333 428.383 9.36666 428.383 7.69999C428.383 6.03333 428.983 4.6 430.183 3.4C431.45 2.13333 432.917 1.5 434.583 1.5C436.25 1.5 437.683 2.13333 438.883 3.4C440.15 4.6 440.783 6.03333 440.783 7.69999C440.783 9.36666 440.15 10.8333 438.883 12.1C437.683 13.3 436.25 13.9 434.583 13.9ZM539.419 74.2C535.552 74.2 532.019 73.6 528.819 72.4C525.619 71.1333 522.852 69.3 520.519 66.9C518.185 64.5 516.352 61.6333 515.019 58.3C513.752 54.9 513.119 51.1 513.119 46.9C513.119 41.5667 514.185 36.9667 516.319 33.1C518.519 29.1667 521.485 26.1333 525.219 24C529.019 21.8667 533.252 20.8 537.919 20.8C540.519 20.8 542.985 21.2333 545.319 22.1C547.719 22.9667 549.852 24.1667 551.719 25.7C553.585 27.2333 555.052 29.0333 556.119 31.1H556.319V-1.90735e-06H565.519V47.2C565.519 52.8667 564.352 57.7333 562.019 61.8C559.752 65.8 556.652 68.8667 552.719 71C548.852 73.1333 544.419 74.2 539.419 74.2ZM539.419 66.3C542.552 66.3 545.385 65.5333 547.919 64C550.452 62.4667 552.452 60.3 553.919 57.5C555.452 54.7 556.219 51.4 556.219 47.6C556.219 43.7333 555.452 40.4 553.919 37.6C552.452 34.7333 550.452 32.5333 547.919 31C545.385 29.4667 542.519 28.7 539.319 28.7C536.185 28.7 533.319 29.5 530.719 31.1C528.185 32.7 526.152 34.9 524.619 37.7C523.152 40.5 522.419 43.7667 522.419 47.5C522.419 51.3667 523.185 54.7 524.719 57.5C526.252 60.3 528.285 62.4667 530.819 64C533.419 65.5333 536.285 66.3 539.419 66.3Z" fill="#6E96E0"/>
<path d="M453.712 73V43.5C453.712 38.9667 454.712 35 456.712 31.6C458.778 28.2 461.612 25.5667 465.212 23.7C468.812 21.7667 472.912 20.8 477.512 20.8C482.178 20.8 486.278 21.7667 489.812 23.7C493.412 25.5667 496.212 28.2 498.212 31.6C500.278 35 501.312 38.9667 501.312 43.5V73H492.112V43.6C492.112 40.5333 491.412 37.9 490.012 35.7C488.678 33.4333 486.878 31.7 484.612 30.5C482.412 29.3 480.045 28.7 477.512 28.7C474.978 28.7 472.578 29.3 470.312 30.5C468.112 31.7 466.312 33.4333 464.912 35.7C463.578 37.9 462.912 40.5333 462.912 43.6V73H453.712Z" fill="#D0FF6C"/>
<path d="M0.487403 73H-1.5126V75H0.487403V73ZM0.487403 3V0.999996H-1.5126V3H0.487403ZM6.5874 3L8.31289 1.98872L7.73342 0.999996H6.5874V3ZM38.5874 57.6V59.6H42.0777L40.3129 56.5887L38.5874 57.6ZM35.3874 57.6L33.6578 56.5958L31.9136 59.6H35.3874V57.6ZM67.0874 3V0.999996H65.9359L65.3578 1.9958L67.0874 3ZM73.1874 3H75.1874V0.999996H73.1874V3ZM73.1874 73V75H75.1874V73H73.1874ZM66.0874 73H64.0874V75H66.0874V73ZM66.0874 14.1V12.1H64.0874V14.1H66.0874ZM67.7874 14.1L69.5145 15.1086L71.2715 12.1H67.7874V14.1ZM38.5874 64.1V66.1H39.7355L40.3145 65.1086L38.5874 64.1ZM35.0874 64.1L33.3634 65.1137L33.9433 66.1H35.0874V64.1ZM5.6874 14.1V12.1H2.19128L3.96336 15.1137L5.6874 14.1ZM7.5874 14.1H9.5874V12.1H7.5874V14.1ZM7.5874 73V75H9.5874V73H7.5874ZM2.4874 73V3H-1.5126V73H2.4874ZM0.487403 5H6.5874V0.999996H0.487403V5ZM4.86191 4.01127L36.8619 58.6113L40.3129 56.5887L8.31289 1.98872L4.86191 4.01127ZM38.5874 55.6H35.3874V59.6H38.5874V55.6ZM37.117 58.6042L68.817 4.00419L65.3578 1.9958L33.6578 56.5958L37.117 58.6042ZM67.0874 5H73.1874V0.999996H67.0874V5ZM71.1874 3V73H75.1874V3H71.1874ZM73.1874 71H66.0874V75H73.1874V71ZM68.0874 73V14.1H64.0874V73H68.0874ZM66.0874 16.1H67.7874V12.1H66.0874V16.1ZM66.0603 13.0914L36.8603 63.0914L40.3145 65.1086L69.5145 15.1086L66.0603 13.0914ZM38.5874 62.1H35.0874V66.1H38.5874V62.1ZM36.8114 63.0863L7.41145 13.0863L3.96336 15.1137L33.3634 65.1137L36.8114 63.0863ZM5.6874 16.1H7.5874V12.1H5.6874V16.1ZM5.5874 14.1V73H9.5874V14.1H5.5874ZM7.5874 71H0.487403V75H7.5874V71ZM102.395 70.1L101.412 71.8417L101.423 71.8477L101.434 71.8536L102.395 70.1ZM92.6952 60.6L90.9605 61.5953L90.9641 61.6016L90.9677 61.6077L92.6952 60.6ZM92.4952 32.9L90.7552 31.914L90.7489 31.925L90.7428 31.9362L92.4952 32.9ZM101.695 23.5L102.707 25.2254L102.716 25.2201L101.695 23.5ZM127.995 23.4L126.971 25.1176L126.988 25.1282L127.006 25.1383L127.995 23.4ZM137.095 32.8L135.336 33.7517L135.343 33.7638L137.095 32.8ZM140.295 47.8L138.322 47.4712L138.295 47.6345V47.8H140.295ZM140.295 48.9V50.9H142.295V48.9H140.295ZM94.5952 48.9H92.5952V50.9H94.5952V48.9ZM94.5952 43.6V41.6H92.5952V43.6H94.5952ZM136.495 43.6L137.695 45.2L142.495 41.6H136.495V43.6ZM133.695 45.7H131.695V49.7L134.895 47.3L133.695 45.7ZM131.195 35.6L129.431 36.5412L129.443 36.5648L129.456 36.588L131.195 35.6ZM124.595 28.6L125.618 26.8814L124.595 28.6ZM105.195 28.6L104.19 26.871H104.19L105.195 28.6ZM98.4952 35.6L100.26 36.5412H100.26L98.4952 35.6ZM98.6952 57.6L96.9541 58.5841L96.9669 58.6067L96.9802 58.629L98.6952 57.6ZM106.095 64.7L105.127 66.4501L105.149 66.4622L105.171 66.4738L106.095 64.7ZM125.895 65.5L125.145 63.6461L125.137 63.6493L125.129 63.6525L125.895 65.5ZM133.095 60.3L134.604 58.9876L133.084 57.2395L131.577 58.9984L133.095 60.3ZM137.095 64.9L138.632 66.1804L139.722 64.8724L138.604 63.5876L137.095 64.9ZM128.295 71.3L127.528 69.4528L127.516 69.4581L128.295 71.3ZM116.795 71.5C111.611 71.5 107.151 70.4273 103.357 68.3464L101.434 71.8536C105.906 74.3061 111.046 75.5 116.795 75.5V71.5ZM103.378 68.3584C99.5458 66.1948 96.5728 63.278 94.4228 59.5923L90.9677 61.6077C93.4843 65.922 96.978 69.3386 101.412 71.8417L103.378 68.3584ZM94.4299 59.6047C92.2889 55.8731 91.1952 51.5898 91.1952 46.7H87.1952C87.1952 52.2102 88.4349 57.1936 90.9605 61.5953L94.4299 59.6047ZM91.1952 46.7C91.1952 41.7895 92.2315 37.5296 94.2477 33.8638L90.7428 31.9362C88.3589 36.2704 87.1952 41.2105 87.1952 46.7H91.1952ZM94.2353 33.886C96.333 30.184 99.1518 27.3093 102.707 25.2254L100.684 21.7746C96.5053 24.224 93.1907 27.616 90.7552 31.914L94.2353 33.886ZM102.716 25.2201C106.32 23.0818 110.364 22 114.895 22V18C109.693 18 104.937 19.2515 100.675 21.7799L102.716 25.2201ZM114.895 22C119.51 22 123.515 23.0564 126.971 25.1176L129.02 21.6824C124.875 19.2102 120.147 18 114.895 18V22ZM127.006 25.1383C130.534 27.1458 133.307 30.0005 135.336 33.7516L138.854 31.8484C136.484 27.4662 133.189 24.0542 128.984 21.6617L127.006 25.1383ZM135.343 33.7638C137.357 37.4259 138.395 41.7181 138.395 46.7H142.395C142.395 41.1486 141.234 36.1741 138.848 31.8362L135.343 33.7638ZM138.395 46.7C138.395 46.9026 138.375 47.1575 138.322 47.4712L142.268 48.1288C142.349 47.6425 142.395 47.1641 142.395 46.7H138.395ZM138.295 47.8C138.295 47.8007 138.295 47.8013 138.295 47.802C138.295 47.8026 138.295 47.8033 138.295 47.8039C138.295 47.8046 138.295 47.8052 138.295 47.8059C138.295 47.8065 138.295 47.8072 138.295 47.8078C138.295 47.8085 138.295 47.8091 138.295 47.8098C138.295 47.8104 138.295 47.8111 138.295 47.8117C138.295 47.8124 138.295 47.813 138.295 47.8137C138.295 47.8143 138.295 47.815 138.295 47.8157C138.295 47.8163 138.295 47.817 138.295 47.8176C138.295 47.8183 138.295 47.8189 138.295 47.8196C138.295 47.8202 138.295 47.8209 138.295 47.8215C138.295 47.8222 138.295 47.8228 138.295 47.8235C138.295 47.8241 138.295 47.8248 138.295 47.8255C138.295 47.8261 138.295 47.8268 138.295 47.8274C138.295 47.8281 138.295 47.8287 138.295 47.8294C138.295 47.83 138.295 47.8307 138.295 47.8313C138.295 47.832 138.295 47.8327 138.295 47.8333C138.295 47.834 138.295 47.8346 138.295 47.8353C138.295 47.8359 138.295 47.8366 138.295 47.8372C138.295 47.8379 138.295 47.8386 138.295 47.8392C138.295 47.8399 138.295 47.8405 138.295 47.8412C138.295 47.8418 138.295 47.8425 138.295 47.8432C138.295 47.8438 138.295 47.8445 138.295 47.8451C138.295 47.8458 138.295 47.8464 138.295 47.8471C138.295 47.8477 138.295 47.8484 138.295 47.8491C138.295 47.8497 138.295 47.8504 138.295 47.851C138.295 47.8517 138.295 47.8524 138.295 47.853C138.295 47.8537 138.295 47.8543 138.295 47.855C138.295 47.8556 138.295 47.8563 138.295 47.857C138.295 47.8576 138.295 47.8583 138.295 47.8589C138.295 47.8596 138.295 47.8603 138.295 47.8609C138.295 47.8616 138.295 47.8622 138.295 47.8629C138.295 47.8635 138.295 47.8642 138.295 47.8649C138.295 47.8655 138.295 47.8662 138.295 47.8668C138.295 47.8675 138.295 47.8682 138.295 47.8688C138.295 47.8695 138.295 47.8701 138.295 47.8708C138.295 47.8715 138.295 47.8721 138.295 47.8728C138.295 47.8735 138.295 47.8741 138.295 47.8748C138.295 47.8754 138.295 47.8761 138.295 47.8768C138.295 47.8774 138.295 47.8781 138.295 47.8787C138.295 47.8794 138.295 47.8801 138.295 47.8807C138.295 47.8814 138.295 47.882 138.295 47.8827C138.295 47.8834 138.295 47.884 138.295 47.8847C138.295 47.8854 138.295 47.886 138.295 47.8867C138.295 47.8873 138.295 47.888 138.295 47.8887C138.295 47.8893 138.295 47.89 138.295 47.8906C138.295 47.8913 138.295 47.892 138.295 47.8926C138.295 47.8933 138.295 47.894 138.295 47.8946C138.295 47.8953 138.295 47.896 138.295 47.8966C138.295 47.8973 138.295 47.8979 138.295 47.8986C138.295 47.8993 138.295 47.8999 138.295 47.9006C138.295 47.9013 138.295 47.9019 138.295 47.9026C138.295 47.9033 138.295 47.9039 138.295 47.9046C138.295 47.9053 138.295 47.9059 138.295 47.9066C138.295 47.9072 138.295 47.9079 138.295 47.9086C138.295 47.9092 138.295 47.9099 138.295 47.9106C138.295 47.9112 138.295 47.9119 138.295 47.9126C138.295 47.9132 138.295 47.9139 138.295 47.9146C138.295 47.9152 138.295 47.9159 138.295 47.9166C138.295 47.9172 138.295 47.9179 138.295 47.9186C138.295 47.9192 138.295 47.9199 138.295 47.9206C138.295 47.9212 138.295 47.9219 138.295 47.9226C138.295 47.9232 138.295 47.9239 138.295 47.9246C138.295 47.9252 138.295 47.9259 138.295 47.9266C138.295 47.9272 138.295 47.9279 138.295 47.9286C138.295 47.9292 138.295 47.9299 138.295 47.9306C138.295 47.9312 138.295 47.9319 138.295 47.9326C138.295 47.9332 138.295 47.9339 138.295 47.9346C138.295 47.9352 138.295 47.9359 138.295 47.9366C138.295 47.9372 138.295 47.9379 138.295 47.9386C138.295 47.9393 138.295 47.9399 138.295 47.9406C138.295 47.9413 138.295 47.9419 138.295 47.9426C138.295 47.9433 138.295 47.9439 138.295 47.9446C138.295 47.9453 138.295 47.946 138.295 47.9466C138.295 47.9473 138.295 47.948 138.295 47.9486C138.295 47.9493 138.295 47.95 138.295 47.9506C138.295 47.9513 138.295 47.952 138.295 47.9527C138.295 47.9533 138.295 47.954 138.295 47.9547C138.295 47.9553 138.295 47.956 138.295 47.9567C138.295 47.9574 138.295 47.958 138.295 47.9587C138.295 47.9594 138.295 47.96 138.295 47.9607C138.295 47.9614 138.295 47.9621 138.295 47.9627C138.295 47.9634 138.295 47.9641 138.295 47.9647C138.295 47.9654 138.295 47.9661 138.295 47.9668C138.295 47.9674 138.295 47.9681 138.295 47.9688C138.295 47.9694 138.295 47.9701 138.295 47.9708C138.295 47.9715 138.295 47.9721 138.295 47.9728C138.295 47.9735 138.295 47.9742 138.295 47.9748C138.295 47.9755 138.295 47.9762 138.295 47.9769C138.295 47.9775 138.295 47.9782 138.295 47.9789C138.295 47.9795 138.295 47.9802 138.295 47.9809C138.295 47.9816 138.295 47.9822 138.295 47.9829C138.295 47.9836 138.295 47.9843 138.295 47.9849C138.295 47.9856 138.295 47.9863 138.295 47.987C138.295 47.9876 138.295 47.9883 138.295 47.989C138.295 47.9897 138.295 47.9903 138.295 47.991C138.295 47.9917 138.295 47.9924 138.295 47.993C138.295 47.9937 138.295 47.9944 138.295 47.9951C138.295 47.9957 138.295 47.9964 138.295 47.9971C138.295 47.9978 138.295 47.9985 138.295 47.9991C138.295 47.9998 138.295 48.0005 138.295 48.0012C138.295 48.0018 138.295 48.0025 138.295 48.0032C138.295 48.0039 138.295 48.0045 138.295 48.0052C138.295 48.0059 138.295 48.0066 138.295 48.0072C138.295 48.0079 138.295 48.0086 138.295 48.0093C138.295 48.01 138.295 48.0106 138.295 48.0113C138.295 48.012 138.295 48.0127 138.295 48.0134C138.295 48.014 138.295 48.0147 138.295 48.0154C138.295 48.0161 138.295 48.0167 138.295 48.0174C138.295 48.0181 138.295 48.0188 138.295 48.0195C138.295 48.0201 138.295 48.0208 138.295 48.0215C138.295 48.0222 138.295 48.0229 138.295 48.0235C138.295 48.0242 138.295 48.0249 138.295 48.0256C138.295 48.0263 138.295 48.0269 138.295 48.0276C138.295 48.0283 138.295 48.029 138.295 48.0297C138.295 48.0303 138.295 48.031 138.295 48.0317C138.295 48.0324 138.295 48.0331 138.295 48.0337C138.295 48.0344 138.295 48.0351 138.295 48.0358C138.295 48.0365 138.295 48.0371 138.295 48.0378C138.295 48.0385 138.295 48.0392 138.295 48.0399C138.295 48.0406 138.295 48.0412 138.295 48.0419C138.295 48.0426 138.295 48.0433 138.295 48.044C138.295 48.0446 138.295 48.0453 138.295 48.046C138.295 48.0467 138.295 48.0474 138.295 48.048C138.295 48.0487 138.295 48.0494 138.295 48.0501C138.295 48.0508 138.295 48.0515 138.295 48.0521C138.295 48.0528 138.295 48.0535 138.295 48.0542C138.295 48.0549 138.295 48.0556 138.295 48.0563C138.295 48.0569 138.295 48.0576 138.295 48.0583C138.295 48.059 138.295 48.0597 138.295 48.0604C138.295 48.061 138.295 48.0617 138.295 48.0624C138.295 48.0631 138.295 48.0638 138.295 48.0645C138.295 48.0651 138.295 48.0658 138.295 48.0665C138.295 48.0672 138.295 48.0679 138.295 48.0686C138.295 48.0693 138.295 48.0699 138.295 48.0706C138.295 48.0713 138.295 48.072 138.295 48.0727C138.295 48.0734 138.295 48.0741 138.295 48.0747C138.295 48.0754 138.295 48.0761 138.295 48.0768C138.295 48.0775 138.295 48.0782 138.295 48.0789C138.295 48.0795 138.295 48.0802 138.295 48.0809C138.295 48.0816 138.295 48.0823 138.295 48.083C138.295 48.0837 138.295 48.0844 138.295 48.085C138.295 48.0857 138.295 48.0864 138.295 48.0871C138.295 48.0878 138.295 48.0885 138.295 48.0892C138.295 48.0898 138.295 48.0905 138.295 48.0912C138.295 48.0919 138.295 48.0926 138.295 48.0933C138.295 48.094 138.295 48.0947 138.295 48.0954C138.295 48.096 138.295 48.0967 138.295 48.0974C138.295 48.0981 138.295 48.0988 138.295 48.0995C138.295 48.1002 138.295 48.1009 138.295 48.1016C138.295 48.1022 138.295 48.1029 138.295 48.1036C138.295 48.1043 138.295 48.105 138.295 48.1057C138.295 48.1064 138.295 48.1071 138.295 48.1078C138.295 48.1084 138.295 48.1091 138.295 48.1098C138.295 48.1105 138.295 48.1112 138.295 48.1119C138.295 48.1126 138.295 48.1133 138.295 48.114C138.295 48.1147 138.295 48.1153 138.295 48.116C138.295 48.1167 138.295 48.1174 138.295 48.1181C138.295 48.1188 138.295 48.1195 138.295 48.1202C138.295 48.1209 138.295 48.1216 138.295 48.1223C138.295 48.123 138.295 48.1236 138.295 48.1243C138.295 48.125 138.295 48.1257 138.295 48.1264C138.295 48.1271 138.295 48.1278 138.295 48.1285C138.295 48.1292 138.295 48.1299 138.295 48.1306C138.295 48.1313 138.295 48.132 138.295 48.1327C138.295 48.1333 138.295 48.134 138.295 48.1347C138.295 48.1354 138.295 48.1361 138.295 48.1368C138.295 48.1375 138.295 48.1382 138.295 48.1389C138.295 48.1396 138.295 48.1403 138.295 48.141C138.295 48.1417 138.295 48.1424 138.295 48.1431C138.295 48.1438 138.295 48.1444 138.295 48.1451C138.295 48.1458 138.295 48.1465 138.295 48.1472C138.295 48.1479 138.295 48.1486 138.295 48.1493C138.295 48.15 138.295 48.1507 138.295 48.1514C138.295 48.1521 138.295 48.1528 138.295 48.1535C138.295 48.1542 138.295 48.1549 138.295 48.1556C138.295 48.1563 138.295 48.157 138.295 48.1577C138.295 48.1583 138.295 48.159 138.295 48.1597C138.295 48.1604 138.295 48.1611 138.295 48.1618C138.295 48.1625 138.295 48.1632 138.295 48.1639C138.295 48.1646 138.295 48.1653 138.295 48.166C138.295 48.1667 138.295 48.1674 138.295 48.1681C138.295 48.1688 138.295 48.1695 138.295 48.1702C138.295 48.1709 138.295 48.1716 138.295 48.1723C138.295 48.173 138.295 48.1737 138.295 48.1744C138.295 48.1751 138.295 48.1758 138.295 48.1765C138.295 48.1772 138.295 48.1779 138.295 48.1786C138.295 48.1793 138.295 48.18 138.295 48.1807C138.295 48.1814 138.295 48.1821 138.295 48.1828C138.295 48.1835 138.295 48.1842 138.295 48.1849C138.295 48.1856 138.295 48.1863 138.295 48.187C138.295 48.1877 138.295 48.1884 138.295 48.1891C138.295 48.1898 138.295 48.1905 138.295 48.1912C138.295 48.1919 138.295 48.1926 138.295 48.1933C138.295 48.194 138.295 48.1947 138.295 48.1954C138.295 48.1961 138.295 48.1968 138.295 48.1975C138.295 48.1982 138.295 48.1989 138.295 48.1996C138.295 48.2003 138.295 48.201 138.295 48.2017C138.295 48.2024 138.295 48.2031 138.295 48.2038C138.295 48.2045 138.295 48.2052 138.295 48.2059C138.295 48.2066 138.295 48.2073 138.295 48.208C138.295 48.2087 138.295 48.2094 138.295 48.2101C138.295 48.2108 138.295 48.2115 138.295 48.2122C138.295 48.2129 138.295 48.2136 138.295 48.2143C138.295 48.215 138.295 48.2157 138.295 48.2164C138.295 48.2171 138.295 48.2178 138.295 48.2185C138.295 48.2192 138.295 48.2199 138.295 48.2206C138.295 48.2213 138.295 48.222 138.295 48.2228C138.295 48.2235 138.295 48.2242 138.295 48.2249C138.295 48.2256 138.295 48.2263 138.295 48.227C138.295 48.2277 138.295 48.2284 138.295 48.2291C138.295 48.2298 138.295 48.2305 138.295 48.2312C138.295 48.2319 138.295 48.2326 138.295 48.2333C138.295 48.234 138.295 48.2347 138.295 48.2354C138.295 48.2361 138.295 48.2368 138.295 48.2376C138.295 48.2383 138.295 48.239 138.295 48.2397C138.295 48.2404 138.295 48.2411 138.295 48.2418C138.295 48.2425 138.295 48.2432 138.295 48.2439C138.295 48.2446 138.295 48.2453 138.295 48.246C138.295 48.2467 138.295 48.2474 138.295 48.2481C138.295 48.2489 138.295 48.2496 138.295 48.2503C138.295 48.251 138.295 48.2517 138.295 48.2524C138.295 48.2531 138.295 48.2538 138.295 48.2545C138.295 48.2552 138.295 48.2559 138.295 48.2566C138.295 48.2573 138.295 48.2581 138.295 48.2588C138.295 48.2595 138.295 48.2602 138.295 48.2609C138.295 48.2616 138.295 48.2623 138.295 48.263C138.295 48.2637 138.295 48.2644 138.295 48.2651C138.295 48.2659 138.295 48.2666 138.295 48.2673C138.295 48.268 138.295 48.2687 138.295 48.2694C138.295 48.2701 138.295 48.2708 138.295 48.2715C138.295 48.2722 138.295 48.2729 138.295 48.2737C138.295 48.2744 138.295 48.2751 138.295 48.2758C138.295 48.2765 138.295 48.2772 138.295 48.2779C138.295 48.2786 138.295 48.2793 138.295 48.2801C138.295 48.2808 138.295 48.2815 138.295 48.2822C138.295 48.2829 138.295 48.2836 138.295 48.2843C138.295 48.285 138.295 48.2857 138.295 48.2865C138.295 48.2872 138.295 48.2879 138.295 48.2886C138.295 48.2893 138.295 48.29 138.295 48.2907C138.295 48.2914 138.295 48.2921 138.295 48.2929C138.295 48.2936 138.295 48.2943 138.295 48.295C138.295 48.2957 138.295 48.2964 138.295 48.2971C138.295 48.2978 138.295 48.2986 138.295 48.2993C138.295 48.3 138.295 48.3007 138.295 48.3014C138.295 48.3021 138.295 48.3028 138.295 48.3036C138.295 48.3043 138.295 48.305 138.295 48.3057C138.295 48.3064 138.295 48.3071 138.295 48.3078C138.295 48.3085 138.295 48.3093 138.295 48.31C138.295 48.3107 138.295 48.3114 138.295 48.3121C138.295 48.3128 138.295 48.3136 138.295 48.3143C138.295 48.315 138.295 48.3157 138.295 48.3164C138.295 48.3171 138.295 48.3178 138.295 48.3186C138.295 48.3193 138.295 48.32 138.295 48.3207C138.295 48.3214 138.295 48.3221 138.295 48.3229C138.295 48.3236 138.295 48.3243 138.295 48.325C138.295 48.3257 138.295 48.3264 138.295 48.3271C138.295 48.3279 138.295 48.3286 138.295 48.3293C138.295 48.33 138.295 48.3307 138.295 48.3315C138.295 48.3322 138.295 48.3329 138.295 48.3336C138.295 48.3343 138.295 48.335 138.295 48.3358C138.295 48.3365 138.295 48.3372 138.295 48.3379C138.295 48.3386 138.295 48.3393 138.295 48.3401C138.295 48.3408 138.295 48.3415 138.295 48.3422C138.295 48.3429 138.295 48.3437 138.295 48.3444C138.295 48.3451 138.295 48.3458 138.295 48.3465C138.295 48.3472 138.295 48.348 138.295 48.3487C138.295 48.3494 138.295 48.3501 138.295 48.3508C138.295 48.3516 138.295 48.3523 138.295 48.353C138.295 48.3537 138.295 48.3544 138.295 48.3551C138.295 48.3559 138.295 48.3566 138.295 48.3573C138.295 48.358 138.295 48.3587 138.295 48.3595C138.295 48.3602 138.295 48.3609 138.295 48.3616C138.295 48.3624 138.295 48.3631 138.295 48.3638C138.295 48.3645 138.295 48.3652 138.295 48.366C138.295 48.3667 138.295 48.3674 138.295 48.3681C138.295 48.3688 138.295 48.3696 138.295 48.3703C138.295 48.371 138.295 48.3717 138.295 48.3725C138.295 48.3732 138.295 48.3739 138.295 48.3746C138.295 48.3753 138.295 48.3761 138.295 48.3768C138.295 48.3775 138.295 48.3782 138.295 48.379C138.295 48.3797 138.295 48.3804 138.295 48.3811C138.295 48.3818 138.295 48.3826 138.295 48.3833C138.295 48.384 138.295 48.3847 138.295 48.3855C138.295 48.3862 138.295 48.3869 138.295 48.3876C138.295 48.3884 138.295 48.3891 138.295 48.3898C138.295 48.3905 138.295 48.3912 138.295 48.392C138.295 48.3927 138.295 48.3934 138.295 48.3941C138.295 48.3949 138.295 48.3956 138.295 48.3963C138.295 48.397 138.295 48.3978 138.295 48.3985C138.295 48.3992 138.295 48.3999 138.295 48.4007C138.295 48.4014 138.295 48.4021 138.295 48.4028C138.295 48.4036 138.295 48.4043 138.295 48.405C138.295 48.4057 138.295 48.4065 138.295 48.4072C138.295 48.4079 138.295 48.4086 138.295 48.4094C138.295 48.4101 138.295 48.4108 138.295 48.4115C138.295 48.4123 138.295 48.413 138.295 48.4137C138.295 48.4145 138.295 48.4152 138.295 48.4159C138.295 48.4166 138.295 48.4174 138.295 48.4181C138.295 48.4188 138.295 48.4195 138.295 48.4203C138.295 48.421 138.295 48.4217 138.295 48.4225C138.295 48.4232 138.295 48.4239 138.295 48.4246C138.295 48.4254 138.295 48.4261 138.295 48.4268C138.295 48.4275 138.295 48.4283 138.295 48.429C138.295 48.4297 138.295 48.4305 138.295 48.4312C138.295 48.4319 138.295 48.4326 138.295 48.4334C138.295 48.4341 138.295 48.4348 138.295 48.4356C138.295 48.4363 138.295 48.437 138.295 48.4378C138.295 48.4385 138.295 48.4392 138.295 48.4399C138.295 48.4407 138.295 48.4414 138.295 48.4421C138.295 48.4429 138.295 48.4436 138.295 48.4443C138.295 48.445 138.295 48.4458 138.295 48.4465C138.295 48.4472 138.295 48.448 138.295 48.4487C138.295 48.4494 138.295 48.4502 138.295 48.4509C138.295 48.4516 138.295 48.4524 138.295 48.4531C138.295 48.4538 138.295 48.4545 138.295 48.4553C138.295 48.456 138.295 48.4567 138.295 48.4575C138.295 48.4582 138.295 48.4589 138.295 48.4597C138.295 48.4604 138.295 48.4611 138.295 48.4619C138.295 48.4626 138.295 48.4633 138.295 48.4641C138.295 48.4648 138.295 48.4655 138.295 48.4663C138.295 48.467 138.295 48.4677 138.295 48.4685C138.295 48.4692 138.295 48.4699 138.295 48.4707C138.295 48.4714 138.295 48.4721 138.295 48.4729C138.295 48.4736 138.295 48.4743 138.295 48.4751C138.295 48.4758 138.295 48.4765 138.295 48.4773C138.295 48.478 138.295 48.4787 138.295 48.4795C138.295 48.4802 138.295 48.4809 138.295 48.4817C138.295 48.4824 138.295 48.4831 138.295 48.4839C138.295 48.4846 138.295 48.4853 138.295 48.4861C138.295 48.4868 138.295 48.4875 138.295 48.4883C138.295 48.489 138.295 48.4897 138.295 48.4905C138.295 48.4912 138.295 48.492 138.295 48.4927C138.295 48.4934 138.295 48.4942 138.295 48.4949C138.295 48.4956 138.295 48.4964 138.295 48.4971C138.295 48.4978 138.295 48.4986 138.295 48.4993C138.295 48.5001 138.295 48.5008 138.295 48.5015C138.295 48.5023 138.295 48.503 138.295 48.5037C138.295 48.5045 138.295 48.5052 138.295 48.506C138.295 48.5067 138.295 48.5074 138.295 48.5082C138.295 48.5089 138.295 48.5096 138.295 48.5104C138.295 48.5111 138.295 48.5118 138.295 48.5126C138.295 48.5133 138.295 48.5141 138.295 48.5148C138.295 48.5155 138.295 48.5163 138.295 48.517C138.295 48.5178 138.295 48.5185 138.295 48.5192C138.295 48.52 138.295 48.5207 138.295 48.5214C138.295 48.5222 138.295 48.5229 138.295 48.5237C138.295 48.5244 138.295 48.5251 138.295 48.5259C138.295 48.5266 138.295 48.5274 138.295 48.5281C138.295 48.5288 138.295 48.5296 138.295 48.5303C138.295 48.5311 138.295 48.5318 138.295 48.5325C138.295 48.5333 138.295 48.534 138.295 48.5348C138.295 48.5355 138.295 48.5362 138.295 48.537C138.295 48.5377 138.295 48.5385 138.295 48.5392C138.295 48.5399 138.295 48.5407 138.295 48.5414C138.295 48.5422 138.295 48.5429 138.295 48.5437C138.295 48.5444 138.295 48.5451 138.295 48.5459C138.295 48.5466 138.295 48.5474 138.295 48.5481C138.295 48.5489 138.295 48.5496 138.295 48.5503C138.295 48.5511 138.295 48.5518 138.295 48.5526C138.295 48.5533 138.295 48.554 138.295 48.5548C138.295 48.5555 138.295 48.5563 138.295 48.557C138.295 48.5578 138.295 48.5585 138.295 48.5592C138.295 48.56 138.295 48.5607 138.295 48.5615C138.295 48.5622 138.295 48.563 138.295 48.5637C138.295 48.5645 138.295 48.5652 138.295 48.5659C138.295 48.5667 138.295 48.5674 138.295 48.5682C138.295 48.5689 138.295 48.5697 138.295 48.5704C138.295 48.5712 138.295 48.5719 138.295 48.5726C138.295 48.5734 138.295 48.5741 138.295 48.5749C138.295 48.5756 138.295 48.5764 138.295 48.5771C138.295 48.5779 138.295 48.5786 138.295 48.5794C138.295 48.5801 138.295 48.5808 138.295 48.5816C138.295 48.5823 138.295 48.5831 138.295 48.5838C138.295 48.5846 138.295 48.5853 138.295 48.5861C138.295 48.5868 138.295 48.5876 138.295 48.5883C138.295 48.5891 138.295 48.5898 138.295 48.5905C138.295 48.5913 138.295 48.592 138.295 48.5928C138.295 48.5935 138.295 48.5943 138.295 48.595C138.295 48.5958 138.295 48.5965 138.295 48.5973C138.295 48.598 138.295 48.5988 138.295 48.5995C138.295 48.6003 138.295 48.601 138.295 48.6018C138.295 48.6025 138.295 48.6033 138.295 48.604C138.295 48.6048 138.295 48.6055 138.295 48.6062C138.295 48.607 138.295 48.6077 138.295 48.6085C138.295 48.6092 138.295 48.61 138.295 48.6107C138.295 48.6115 138.295 48.6122 138.295 48.613C138.295 48.6137 138.295 48.6145 138.295 48.6152C138.295 48.616 138.295 48.6167 138.295 48.6175C138.295 48.6182 138.295 48.619 138.295 48.6197C138.295 48.6205 138.295 48.6212 138.295 48.622C138.295 48.6227 138.295 48.6235 138.295 48.6242C138.295 48.625 138.295 48.6257 138.295 48.6265C138.295 48.6272 138.295 48.628 138.295 48.6287C138.295 48.6295 138.295 48.6302 138.295 48.631C138.295 48.6318 138.295 48.6325 138.295 48.6333C138.295 48.634 138.295 48.6348 138.295 48.6355C138.295 48.6363 138.295 48.637 138.295 48.6378C138.295 48.6385 138.295 48.6393 138.295 48.64C138.295 48.6408 138.295 48.6415 138.295 48.6423C138.295 48.643 138.295 48.6438 138.295 48.6445C138.295 48.6453 138.295 48.646 138.295 48.6468C138.295 48.6476 138.295 48.6483 138.295 48.6491C138.295 48.6498 138.295 48.6506 138.295 48.6513C138.295 48.6521 138.295 48.6528 138.295 48.6536C138.295 48.6543 138.295 48.6551 138.295 48.6558C138.295 48.6566 138.295 48.6574 138.295 48.6581C138.295 48.6589 138.295 48.6596 138.295 48.6604C138.295 48.6611 138.295 48.6619 138.295 48.6626C138.295 48.6634 138.295 48.6641 138.295 48.6649C138.295 48.6657 138.295 48.6664 138.295 48.6672C138.295 48.6679 138.295 48.6687 138.295 48.6694C138.295 48.6702 138.295 48.671 138.295 48.6717C138.295 48.6725 138.295 48.6732 138.295 48.674C138.295 48.6747 138.295 48.6755 138.295 48.6762C138.295 48.677 138.295 48.6778 138.295 48.6785C138.295 48.6793 138.295 48.68 138.295 48.6808C138.295 48.6815 138.295 48.6823 138.295 48.6831C138.295 48.6838 138.295 48.6846 138.295 48.6853C138.295 48.6861 138.295 48.6868 138.295 48.6876C138.295 48.6884 138.295 48.6891 138.295 48.6899C138.295 48.6906 138.295 48.6914 138.295 48.6922C138.295 48.6929 138.295 48.6937 138.295 48.6944C138.295 48.6952 138.295 48.6959 138.295 48.6967C138.295 48.6975 138.295 48.6982 138.295 48.699C138.295 48.6997 138.295 48.7005 138.295 48.7013C138.295 48.702 138.295 48.7028 138.295 48.7035C138.295 48.7043 138.295 48.7051 138.295 48.7058C138.295 48.7066 138.295 48.7073 138.295 48.7081C138.295 48.7089 138.295 48.7096 138.295 48.7104C138.295 48.7111 138.295 48.7119 138.295 48.7127C138.295 48.7134 138.295 48.7142 138.295 48.7149C138.295 48.7157 138.295 48.7165 138.295 48.7172C138.295 48.718 138.295 48.7187 138.295 48.7195C138.295 48.7203 138.295 48.721 138.295 48.7218C138.295 48.7226 138.295 48.7233 138.295 48.7241C138.295 48.7248 138.295 48.7256 138.295 48.7264C138.295 48.7271 138.295 48.7279 138.295 48.7287C138.295 48.7294 138.295 48.7302 138.295 48.7309C138.295 48.7317 138.295 48.7325 138.295 48.7332C138.295 48.734 138.295 48.7347 138.295 48.7355C138.295 48.7363 138.295 48.737 138.295 48.7378C138.295 48.7386 138.295 48.7393 138.295 48.7401C138.295 48.7409 138.295 48.7416 138.295 48.7424C138.295 48.7431 138.295 48.7439 138.295 48.7447C138.295 48.7454 138.295 48.7462 138.295 48.747C138.295 48.7477 138.295 48.7485 138.295 48.7493C138.295 48.75 138.295 48.7508 138.295 48.7516C138.295 48.7523 138.295 48.7531 138.295 48.7539C138.295 48.7546 138.295 48.7554 138.295 48.7561C138.295 48.7569 138.295 48.7577 138.295 48.7585C138.295 48.7592 138.295 48.76 138.295 48.7607C138.295 48.7615 138.295 48.7623 138.295 48.763C138.295 48.7638 138.295 48.7646 138.295 48.7653C138.295 48.7661 138.295 48.7669 138.295 48.7676C138.295 48.7684 138.295 48.7692 138.295 48.7699C138.295 48.7707 138.295 48.7715 138.295 48.7722C138.295 48.773 138.295 48.7738 138.295 48.7746C138.295 48.7753 138.295 48.7761 138.295 48.7769C138.295 48.7776 138.295 48.7784 138.295 48.7792C138.295 48.7799 138.295 48.7807 138.295 48.7815C138.295 48.7822 138.295 48.783 138.295 48.7838C138.295 48.7845 138.295 48.7853 138.295 48.7861C138.295 48.7868 138.295 48.7876 138.295 48.7884C138.295 48.7891 138.295 48.7899 138.295 48.7907C138.295 48.7915 138.295 48.7922 138.295 48.793C138.295 48.7938 138.295 48.7945 138.295 48.7953C138.295 48.7961 138.295 48.7968 138.295 48.7976C138.295 48.7984 138.295 48.7992 138.295 48.7999C138.295 48.8007 138.295 48.8015 138.295 48.8022C138.295 48.803 138.295 48.8038 138.295 48.8046C138.295 48.8053 138.295 48.8061 138.295 48.8069C138.295 48.8076 138.295 48.8084 138.295 48.8092C138.295 48.8099 138.295 48.8107 138.295 48.8115C138.295 48.8123 138.295 48.813 138.295 48.8138C138.295 48.8146 138.295 48.8153 138.295 48.8161C138.295 48.8169 138.295 48.8177 138.295 48.8184C138.295 48.8192 138.295 48.82 138.295 48.8208C138.295 48.8215 138.295 48.8223 138.295 48.8231C138.295 48.8238 138.295 48.8246 138.295 48.8254C138.295 48.8262 138.295 48.8269 138.295 48.8277C138.295 48.8285 138.295 48.8293 138.295 48.83C138.295 48.8308 138.295 48.8316 138.295 48.8324C138.295 48.8331 138.295 48.8339 138.295 48.8347C138.295 48.8354 138.295 48.8362 138.295 48.837C138.295 48.8378 138.295 48.8385 138.295 48.8393C138.295 48.8401 138.295 48.8409 138.295 48.8416C138.295 48.8424 138.295 48.8432 138.295 48.844C138.295 48.8447 138.295 48.8455 138.295 48.8463C138.295 48.8471 138.295 48.8478 138.295 48.8486C138.295 48.8494 138.295 48.8502 138.295 48.851C138.295 48.8517 138.295 48.8525 138.295 48.8533C138.295 48.854 138.295 48.8548 138.295 48.8556C138.295 48.8564 138.295 48.8572 138.295 48.8579C138.295 48.8587 138.295 48.8595 138.295 48.8603C138.295 48.861 138.295 48.8618 138.295 48.8626C138.295 48.8634 138.295 48.8642 138.295 48.8649C138.295 48.8657 138.295 48.8665 138.295 48.8673C138.295 48.868 138.295 48.8688 138.295 48.8696C138.295 48.8704 138.295 48.8711 138.295 48.8719C138.295 48.8727 138.295 48.8735 138.295 48.8743C138.295 48.875 138.295 48.8758 138.295 48.8766C138.295 48.8774 138.295 48.8782 138.295 48.8789C138.295 48.8797 138.295 48.8805 138.295 48.8813C138.295 48.882 138.295 48.8828 138.295 48.8836C138.295 48.8844 138.295 48.8852 138.295 48.8859C138.295 48.8867 138.295 48.8875 138.295 48.8883C138.295 48.8891 138.295 48.8898 138.295 48.8906C138.295 48.8914 138.295 48.8922 138.295 48.893C138.295 48.8938 138.295 48.8945 138.295 48.8953C138.295 48.8961 138.295 48.8969 138.295 48.8977C138.295 48.8984 138.295 48.8992 138.295 48.9H142.295C142.295 48.8992 142.295 48.8984 142.295 48.8977C142.295 48.8969 142.295 48.8961 142.295 48.8953C142.295 48.8945 142.295 48.8938 142.295 48.893C142.295 48.8922 142.295 48.8914 142.295 48.8906C142.295 48.8898 142.295 48.8891 142.295 48.8883C142.295 48.8875 142.295 48.8867 142.295 48.8859C142.295 48.8852 142.295 48.8844 142.295 48.8836C142.295 48.8828 142.295 48.882 142.295 48.8813C142.295 48.8805 142.295 48.8797 142.295 48.8789C142.295 48.8782 142.295 48.8774 142.295 48.8766C142.295 48.8758 142.295 48.875 142.295 48.8743C142.295 48.8735 142.295 48.8727 142.295 48.8719C142.295 48.8711 142.295 48.8704 142.295 48.8696C142.295 48.8688 142.295 48.868 142.295 48.8673C142.295 48.8665 142.295 48.8657 142.295 48.8649C142.295 48.8642 142.295 48.8634 142.295 48.8626C142.295 48.8618 142.295 48.861 142.295 48.8603C142.295 48.8595 142.295 48.8587 142.295 48.8579C142.295 48.8572 142.295 48.8564 142.295 48.8556C142.295 48.8548 142.295 48.854 142.295 48.8533C142.295 48.8525 142.295 48.8517 142.295 48.851C142.295 48.8502 142.295 48.8494 142.295 48.8486C142.295 48.8478 142.295 48.8471 142.295 48.8463C142.295 48.8455 142.295 48.8447 142.295 48.844C142.295 48.8432 142.295 48.8424 142.295 48.8416C142.295 48.8409 142.295 48.8401 142.295 48.8393C142.295 48.8385 142.295 48.8378 142.295 48.837C142.295 48.8362 142.295 48.8354 142.295 48.8347C142.295 48.8339 142.295 48.8331 142.295 48.8324C142.295 48.8316 142.295 48.8308 142.295 48.83C142.295 48.8293 142.295 48.8285 142.295 48.8277C142.295 48.8269 142.295 48.8262 142.295 48.8254C142.295 48.8246 142.295 48.8238 142.295 48.8231C142.295 48.8223 142.295 48.8215 142.295 48.8208C142.295 48.82 142.295 48.8192 142.295 48.8184C142.295 48.8177 142.295 48.8169 142.295 48.8161C142.295 48.8153 142.295 48.8146 142.295 48.8138C142.295 48.813 142.295 48.8123 142.295 48.8115C142.295 48.8107 142.295 48.8099 142.295 48.8092C142.295 48.8084 142.295 48.8076 142.295 48.8069C142.295 48.8061 142.295 48.8053 142.295 48.8046C142.295 48.8038 142.295 48.803 142.295 48.8022C142.295 48.8015 142.295 48.8007 142.295 48.7999C142.295 48.7992 142.295 48.7984 142.295 48.7976C142.295 48.7968 142.295 48.7961 142.295 48.7953C142.295 48.7945 142.295 48.7938 142.295 48.793C142.295 48.7922 142.295 48.7915 142.295 48.7907C142.295 48.7899 142.295 48.7891 142.295 48.7884C142.295 48.7876 142.295 48.7868 142.295 48.7861C142.295 48.7853 142.295 48.7845 142.295 48.7838C142.295 48.783 142.295 48.7822 142.295 48.7815C142.295 48.7807 142.295 48.7799 142.295 48.7792C142.295 48.7784 142.295 48.7776 142.295 48.7769C142.295 48.7761 142.295 48.7753 142.295 48.7746C142.295 48.7738 142.295 48.773 142.295 48.7722C142.295 48.7715 142.295 48.7707 142.295 48.7699C142.295 48.7692 142.295 48.7684 142.295 48.7676C142.295 48.7669 142.295 48.7661 142.295 48.7653C142.295 48.7646 142.295 48.7638 142.295 48.763C142.295 48.7623 142.295 48.7615 142.295 48.7607C142.295 48.76 142.295 48.7592 142.295 48.7585C142.295 48.7577 142.295 48.7569 142.295 48.7561C142.295 48.7554 142.295 48.7546 142.295 48.7539C142.295 48.7531 142.295 48.7523 142.295 48.7516C142.295 48.7508 142.295 48.75 142.295 48.7493C142.295 48.7485 142.295 48.7477 142.295 48.747C142.295 48.7462 142.295 48.7454 142.295 48.7447C142.295 48.7439 142.295 48.7431 142.295 48.7424C142.295 48.7416 142.295 48.7409 142.295 48.7401C142.295 48.7393 142.295 48.7386 142.295 48.7378C142.295 48.737 142.295 48.7363 142.295 48.7355C142.295 48.7347 142.295 48.734 142.295 48.7332C142.295 48.7325 142.295 48.7317 142.295 48.7309C142.295 48.7302 142.295 48.7294 142.295 48.7287C142.295 48.7279 142.295 48.7271 142.295 48.7264C142.295 48.7256 142.295 48.7248 142.295 48.7241C142.295 48.7233 142.295 48.7226 142.295 48.7218C142.295 48.721 142.295 48.7203 142.295 48.7195C142.295 48.7187 142.295 48.718 142.295 48.7172C142.295 48.7165 142.295 48.7157 142.295 48.7149C142.295 48.7142 142.295 48.7134 142.295 48.7127C142.295 48.7119 142.295 48.7111 142.295 48.7104C142.295 48.7096 142.295 48.7089 142.295 48.7081C142.295 48.7073 142.295 48.7066 142.295 48.7058C142.295 48.7051 142.295 48.7043 142.295 48.7035C142.295 48.7028 142.295 48.702 142.295 48.7013C142.295 48.7005 142.295 48.6997 142.295 48.699C142.295 48.6982 142.295 48.6975 142.295 48.6967C142.295 48.6959 142.295 48.6952 142.295 48.6944C142.295 48.6937 142.295 48.6929 142.295 48.6922C142.295 48.6914 142.295 48.6906 142.295 48.6899C142.295 48.6891 142.295 48.6884 142.295 48.6876C142.295 48.6868 142.295 48.6861 142.295 48.6853C142.295 48.6846 142.295 48.6838 142.295 48.6831C142.295 48.6823 142.295 48.6815 142.295 48.6808C142.295 48.68 142.295 48.6793 142.295 48.6785C142.295 48.6778 142.295 48.677 142.295 48.6762C142.295 48.6755 142.295 48.6747 142.295 48.674C142.295 48.6732 142.295 48.6725 142.295 48.6717C142.295 48.671 142.295 48.6702 142.295 48.6694C142.295 48.6687 142.295 48.6679 142.295 48.6672C142.295 48.6664 142.295 48.6657 142.295 48.6649C142.295 48.6641 142.295 48.6634 142.295 48.6626C142.295 48.6619 142.295 48.6611 142.295 48.6604C142.295 48.6596 142.295 48.6589 142.295 48.6581C142.295 48.6574 142.295 48.6566 142.295 48.6558C142.295 48.6551 142.295 48.6543 142.295 48.6536C142.295 48.6528 142.295 48.6521 142.295 48.6513C142.295 48.6506 142.295 48.6498 142.295 48.6491C142.295 48.6483 142.295 48.6476 142.295 48.6468C142.295 48.646 142.295 48.6453 142.295 48.6445C142.295 48.6438 142.295 48.643 142.295 48.6423C142.295 48.6415 142.295 48.6408 142.295 48.64C142.295 48.6393 142.295 48.6385 142.295 48.6378C142.295 48.637 142.295 48.6363 142.295 48.6355C142.295 48.6348 142.295 48.634 142.295 48.6333C142.295 48.6325 142.295 48.6318 142.295 48.631C142.295 48.6302 142.295 48.6295 142.295 48.6287C142.295 48.628 142.295 48.6272 142.295 48.6265C142.295 48.6257 142.295 48.625 142.295 48.6242C142.295 48.6235 142.295 48.6227 142.295 48.622C142.295 48.6212 142.295 48.6205 142.295 48.6197C142.295 48.619 142.295 48.6182 142.295 48.6175C142.295 48.6167 142.295 48.616 142.295 48.6152C142.295 48.6145 142.295 48.6137 142.295 48.613C142.295 48.6122 142.295 48.6115 142.295 48.6107C142.295 48.61 142.295 48.6092 142.295 48.6085C142.295 48.6077 142.295 48.607 142.295 48.6062C142.295 48.6055 142.295 48.6048 142.295 48.604C142.295 48.6033 142.295 48.6025 142.295 48.6018C142.295 48.601 142.295 48.6003 142.295 48.5995C142.295 48.5988 142.295 48.598 142.295 48.5973C142.295 48.5965 142.295 48.5958 142.295 48.595C142.295 48.5943 142.295 48.5935 142.295 48.5928C142.295 48.592 142.295 48.5913 142.295 48.5905C142.295 48.5898 142.295 48.5891 142.295 48.5883C142.295 48.5876 142.295 48.5868 142.295 48.5861C142.295 48.5853 142.295 48.5846 142.295 48.5838C142.295 48.5831 142.295 48.5823 142.295 48.5816C142.295 48.5808 142.295 48.5801 142.295 48.5794C142.295 48.5786 142.295 48.5779 142.295 48.5771C142.295 48.5764 142.295 48.5756 142.295 48.5749C142.295 48.5741 142.295 48.5734 142.295 48.5726C142.295 48.5719 142.295 48.5712 142.295 48.5704C142.295 48.5697 142.295 48.5689 142.295 48.5682C142.295 48.5674 142.295 48.5667 142.295 48.5659C142.295 48.5652 142.295 48.5645 142.295 48.5637C142.295 48.563 142.295 48.5622 142.295 48.5615C142.295 48.5607 142.295 48.56 142.295 48.5592C142.295 48.5585 142.295 48.5578 142.295 48.557C142.295 48.5563 142.295 48.5555 142.295 48.5548C142.295 48.554 142.295 48.5533 142.295 48.5526C142.295 48.5518 142.295 48.5511 142.295 48.5503C142.295 48.5496 142.295 48.5489 142.295 48.5481C142.295 48.5474 142.295 48.5466 142.295 48.5459C142.295 48.5451 142.295 48.5444 142.295 48.5437C142.295 48.5429 142.295 48.5422 142.295 48.5414C142.295 48.5407 142.295 48.5399 142.295 48.5392C142.295 48.5385 142.295 48.5377 142.295 48.537C142.295 48.5362 142.295 48.5355 142.295 48.5348C142.295 48.534 142.295 48.5333 142.295 48.5325C142.295 48.5318 142.295 48.5311 142.295 48.5303C142.295 48.5296 142.295 48.5288 142.295 48.5281C142.295 48.5274 142.295 48.5266 142.295 48.5259C142.295 48.5251 142.295 48.5244 142.295 48.5237C142.295 48.5229 142.295 48.5222 142.295 48.5214C142.295 48.5207 142.295 48.52 142.295 48.5192C142.295 48.5185 142.295 48.5178 142.295 48.517C142.295 48.5163 142.295 48.5155 142.295 48.5148C142.295 48.5141 142.295 48.5133 142.295 48.5126C142.295 48.5118 142.295 48.5111 142.295 48.5104C142.295 48.5096 142.295 48.5089 142.295 48.5082C142.295 48.5074 142.295 48.5067 142.295 48.506C142.295 48.5052 142.295 48.5045 142.295 48.5037C142.295 48.503 142.295 48.5023 142.295 48.5015C142.295 48.5008 142.295 48.5001 142.295 48.4993C142.295 48.4986 142.295 48.4978 142.295 48.4971C142.295 48.4964 142.295 48.4956 142.295 48.4949C142.295 48.4942 142.295 48.4934 142.295 48.4927C142.295 48.492 142.295 48.4912 142.295 48.4905C142.295 48.4897 142.295 48.489 142.295 48.4883C142.295 48.4875 142.295 48.4868 142.295 48.4861C142.295 48.4853 142.295 48.4846 142.295 48.4839C142.295 48.4831 142.295 48.4824 142.295 48.4817C142.295 48.4809 142.295 48.4802 142.295 48.4795C142.295 48.4787 142.295 48.478 142.295 48.4773C142.295 48.4765 142.295 48.4758 142.295 48.4751C142.295 48.4743 142.295 48.4736 142.295 48.4729C142.295 48.4721 142.295 48.4714 142.295 48.4707C142.295 48.4699 142.295 48.4692 142.295 48.4685C142.295 48.4677 142.295 48.467 142.295 48.4663C142.295 48.4655 142.295 48.4648 142.295 48.4641C142.295 48.4633 142.295 48.4626 142.295 48.4619C142.295 48.4611 142.295 48.4604 142.295 48.4597C142.295 48.4589 142.295 48.4582 142.295 48.4575C142.295 48.4567 142.295 48.456 142.295 48.4553C142.295 48.4545 142.295 48.4538 142.295 48.4531C142.295 48.4524 142.295 48.4516 142.295 48.4509C142.295 48.4502 142.295 48.4494 142.295 48.4487C142.295 48.448 142.295 48.4472 142.295 48.4465C142.295 48.4458 142.295 48.445 142.295 48.4443C142.295 48.4436 142.295 48.4429 142.295 48.4421C142.295 48.4414 142.295 48.4407 142.295 48.4399C142.295 48.4392 142.295 48.4385 142.295 48.4378C142.295 48.437 142.295 48.4363 142.295 48.4356C142.295 48.4348 142.295 48.4341 142.295 48.4334C142.295 48.4326 142.295 48.4319 142.295 48.4312C142.295 48.4305 142.295 48.4297 142.295 48.429C142.295 48.4283 142.295 48.4275 142.295 48.4268C142.295 48.4261 142.295 48.4254 142.295 48.4246C142.295 48.4239 142.295 48.4232 142.295 48.4225C142.295 48.4217 142.295 48.421 142.295 48.4203C142.295 48.4195 142.295 48.4188 142.295 48.4181C142.295 48.4174 142.295 48.4166 142.295 48.4159C142.295 48.4152 142.295 48.4145 142.295 48.4137C142.295 48.413 142.295 48.4123 142.295 48.4115C142.295 48.4108 142.295 48.4101 142.295 48.4094C142.295 48.4086 142.295 48.4079 142.295 48.4072C142.295 48.4065 142.295 48.4057 142.295 48.405C142.295 48.4043 142.295 48.4036 142.295 48.4028C142.295 48.4021 142.295 48.4014 142.295 48.4007C142.295 48.3999 142.295 48.3992 142.295 48.3985C142.295 48.3978 142.295 48.397 142.295 48.3963C142.295 48.3956 142.295 48.3949 142.295 48.3941C142.295 48.3934 142.295 48.3927 142.295 48.392C142.295 48.3912 142.295 48.3905 142.295 48.3898C142.295 48.3891 142.295 48.3884 142.295 48.3876C142.295 48.3869 142.295 48.3862 142.295 48.3855C142.295 48.3847 142.295 48.384 142.295 48.3833C142.295 48.3826 142.295 48.3818 142.295 48.3811C142.295 48.3804 142.295 48.3797 142.295 48.379C142.295 48.3782 142.295 48.3775 142.295 48.3768C142.295 48.3761 142.295 48.3753 142.295 48.3746C142.295 48.3739 142.295 48.3732 142.295 48.3725C142.295 48.3717 142.295 48.371 142.295 48.3703C142.295 48.3696 142.295 48.3688 142.295 48.3681C142.295 48.3674 142.295 48.3667 142.295 48.366C142.295 48.3652 142.295 48.3645 142.295 48.3638C142.295 48.3631 142.295 48.3624 142.295 48.3616C142.295 48.3609 142.295 48.3602 142.295 48.3595C142.295 48.3587 142.295 48.358 142.295 48.3573C142.295 48.3566 142.295 48.3559 142.295 48.3551C142.295 48.3544 142.295 48.3537 142.295 48.353C142.295 48.3523 142.295 48.3516 142.295 48.3508C142.295 48.3501 142.295 48.3494 142.295 48.3487C142.295 48.348 142.295 48.3472 142.295 48.3465C142.295 48.3458 142.295 48.3451 142.295 48.3444C142.295 48.3437 142.295 48.3429 142.295 48.3422C142.295 48.3415 142.295 48.3408 142.295 48.3401C142.295 48.3393 142.295 48.3386 142.295 48.3379C142.295 48.3372 142.295 48.3365 142.295 48.3358C142.295 48.335 142.295 48.3343 142.295 48.3336C142.295 48.3329 142.295 48.3322 142.295 48.3315C142.295 48.3307 142.295 48.33 142.295 48.3293C142.295 48.3286 142.295 48.3279 142.295 48.3271C142.295 48.3264 142.295 48.3257 142.295 48.325C142.295 48.3243 142.295 48.3236 142.295 48.3229C142.295 48.3221 142.295 48.3214 142.295 48.3207C142.295 48.32 142.295 48.3193 142.295 48.3186C142.295 48.3178 142.295 48.3171 142.295 48.3164C142.295 48.3157 142.295 48.315 142.295 48.3143C142.295 48.3136 142.295 48.3128 142.295 48.3121C142.295 48.3114 142.295 48.3107 142.295 48.31C142.295 48.3093 142.295 48.3085 142.295 48.3078C142.295 48.3071 142.295 48.3064 142.295 48.3057C142.295 48.305 142.295 48.3043 142.295 48.3036C142.295 48.3028 142.295 48.3021 142.295 48.3014C142.295 48.3007 142.295 48.3 142.295 48.2993C142.295 48.2986 142.295 48.2978 142.295 48.2971C142.295 48.2964 142.295 48.2957 142.295 48.295C142.295 48.2943 142.295 48.2936 142.295 48.2929C142.295 48.2921 142.295 48.2914 142.295 48.2907C142.295 48.29 142.295 48.2893 142.295 48.2886C142.295 48.2879 142.295 48.2872 142.295 48.2865C142.295 48.2857 142.295 48.285 142.295 48.2843C142.295 48.2836 142.295 48.2829 142.295 48.2822C142.295 48.2815 142.295 48.2808 142.295 48.2801C142.295 48.2793 142.295 48.2786 142.295 48.2779C142.295 48.2772 142.295 48.2765 142.295 48.2758C142.295 48.2751 142.295 48.2744 142.295 48.2737C142.295 48.2729 142.295 48.2722 142.295 48.2715C142.295 48.2708 142.295 48.2701 142.295 48.2694C142.295 48.2687 142.295 48.268 142.295 48.2673C142.295 48.2666 142.295 48.2659 142.295 48.2651C142.295 48.2644 142.295 48.2637 142.295 48.263C142.295 48.2623 142.295 48.2616 142.295 48.2609C142.295 48.2602 142.295 48.2595 142.295 48.2588C142.295 48.2581 142.295 48.2573 142.295 48.2566C142.295 48.2559 142.295 48.2552 142.295 48.2545C142.295 48.2538 142.295 48.2531 142.295 48.2524C142.295 48.2517 142.295 48.251 142.295 48.2503C142.295 48.2496 142.295 48.2489 142.295 48.2481C142.295 48.2474 142.295 48.2467 142.295 48.246C142.295 48.2453 142.295 48.2446 142.295 48.2439C142.295 48.2432 142.295 48.2425 142.295 48.2418C142.295 48.2411 142.295 48.2404 142.295 48.2397C142.295 48.239 142.295 48.2383 142.295 48.2376C142.295 48.2368 142.295 48.2361 142.295 48.2354C142.295 48.2347 142.295 48.234 142.295 48.2333C142.295 48.2326 142.295 48.2319 142.295 48.2312C142.295 48.2305 142.295 48.2298 142.295 48.2291C142.295 48.2284 142.295 48.2277 142.295 48.227C142.295 48.2263 142.295 48.2256 142.295 48.2249C142.295 48.2242 142.295 48.2235 142.295 48.2228C142.295 48.222 142.295 48.2213 142.295 48.2206C142.295 48.2199 142.295 48.2192 142.295 48.2185C142.295 48.2178 142.295 48.2171 142.295 48.2164C142.295 48.2157 142.295 48.215 142.295 48.2143C142.295 48.2136 142.295 48.2129 142.295 48.2122C142.295 48.2115 142.295 48.2108 142.295 48.2101C142.295 48.2094 142.295 48.2087 142.295 48.208C142.295 48.2073 142.295 48.2066 142.295 48.2059C142.295 48.2052 142.295 48.2045 142.295 48.2038C142.295 48.2031 142.295 48.2024 142.295 48.2017C142.295 48.201 142.295 48.2003 142.295 48.1996C142.295 48.1989 142.295 48.1982 142.295 48.1975C142.295 48.1968 142.295 48.1961 142.295 48.1954C142.295 48.1947 142.295 48.194 142.295 48.1933C142.295 48.1926 142.295 48.1919 142.295 48.1912C142.295 48.1905 142.295 48.1898 142.295 48.1891C142.295 48.1884 142.295 48.1877 142.295 48.187C142.295 48.1863 142.295 48.1856 142.295 48.1849C142.295 48.1842 142.295 48.1835 142.295 48.1828C142.295 48.1821 142.295 48.1814 142.295 48.1807C142.295 48.18 142.295 48.1793 142.295 48.1786C142.295 48.1779 142.295 48.1772 142.295 48.1765C142.295 48.1758 142.295 48.1751 142.295 48.1744C142.295 48.1737 142.295 48.173 142.295 48.1723C142.295 48.1716 142.295 48.1709 142.295 48.1702C142.295 48.1695 142.295 48.1688 142.295 48.1681C142.295 48.1674 142.295 48.1667 142.295 48.166C142.295 48.1653 142.295 48.1646 142.295 48.1639C142.295 48.1632 142.295 48.1625 142.295 48.1618C142.295 48.1611 142.295 48.1604 142.295 48.1597C142.295 48.159 142.295 48.1583 142.295 48.1577C142.295 48.157 142.295 48.1563 142.295 48.1556C142.295 48.1549 142.295 48.1542 142.295 48.1535C142.295 48.1528 142.295 48.1521 142.295 48.1514C142.295 48.1507 142.295 48.15 142.295 48.1493C142.295 48.1486 142.295 48.1479 142.295 48.1472C142.295 48.1465 142.295 48.1458 142.295 48.1451C142.295 48.1444 142.295 48.1438 142.295 48.1431C142.295 48.1424 142.295 48.1417 142.295 48.141C142.295 48.1403 142.295 48.1396 142.295 48.1389C142.295 48.1382 142.295 48.1375 142.295 48.1368C142.295 48.1361 142.295 48.1354 142.295 48.1347C142.295 48.134 142.295 48.1333 142.295 48.1327C142.295 48.132 142.295 48.1313 142.295 48.1306C142.295 48.1299 142.295 48.1292 142.295 48.1285C142.295 48.1278 142.295 48.1271 142.295 48.1264C142.295 48.1257 142.295 48.125 142.295 48.1243C142.295 48.1236 142.295 48.123 142.295 48.1223C142.295 48.1216 142.295 48.1209 142.295 48.1202C142.295 48.1195 142.295 48.1188 142.295 48.1181C142.295 48.1174 142.295 48.1167 142.295 48.116C142.295 48.1153 142.295 48.1147 142.295 48.114C142.295 48.1133 142.295 48.1126 142.295 48.1119C142.295 48.1112 142.295 48.1105 142.295 48.1098C142.295 48.1091 142.295 48.1084 142.295 48.1078C142.295 48.1071 142.295 48.1064 142.295 48.1057C142.295 48.105 142.295 48.1043 142.295 48.1036C142.295 48.1029 142.295 48.1022 142.295 48.1016C142.295 48.1009 142.295 48.1002 142.295 48.0995C142.295 48.0988 142.295 48.0981 142.295 48.0974C142.295 48.0967 142.295 48.096 142.295 48.0954C142.295 48.0947 142.295 48.094 142.295 48.0933C142.295 48.0926 142.295 48.0919 142.295 48.0912C142.295 48.0905 142.295 48.0898 142.295 48.0892C142.295 48.0885 142.295 48.0878 142.295 48.0871C142.295 48.0864 142.295 48.0857 142.295 48.085C142.295 48.0844 142.295 48.0837 142.295 48.083C142.295 48.0823 142.295 48.0816 142.295 48.0809C142.295 48.0802 142.295 48.0795 142.295 48.0789C142.295 48.0782 142.295 48.0775 142.295 48.0768C142.295 48.0761 142.295 48.0754 142.295 48.0747C142.295 48.0741 142.295 48.0734 142.295 48.0727C142.295 48.072 142.295 48.0713 142.295 48.0706C142.295 48.0699 142.295 48.0693 142.295 48.0686C142.295 48.0679 142.295 48.0672 142.295 48.0665C142.295 48.0658 142.295 48.0651 142.295 48.0645C142.295 48.0638 142.295 48.0631 142.295 48.0624C142.295 48.0617 142.295 48.061 142.295 48.0604C142.295 48.0597 142.295 48.059 142.295 48.0583C142.295 48.0576 142.295 48.0569 142.295 48.0563C142.295 48.0556 142.295 48.0549 142.295 48.0542C142.295 48.0535 142.295 48.0528 142.295 48.0521C142.295 48.0515 142.295 48.0508 142.295 48.0501C142.295 48.0494 142.295 48.0487 142.295 48.048C142.295 48.0474 142.295 48.0467 142.295 48.046C142.295 48.0453 142.295 48.0446 142.295 48.044C142.295 48.0433 142.295 48.0426 142.295 48.0419C142.295 48.0412 142.295 48.0406 142.295 48.0399C142.295 48.0392 142.295 48.0385 142.295 48.0378C142.295 48.0371 142.295 48.0365 142.295 48.0358C142.295 48.0351 142.295 48.0344 142.295 48.0337C142.295 48.0331 142.295 48.0324 142.295 48.0317C142.295 48.031 142.295 48.0303 142.295 48.0297C142.295 48.029 142.295 48.0283 142.295 48.0276C142.295 48.0269 142.295 48.0263 142.295 48.0256C142.295 48.0249 142.295 48.0242 142.295 48.0235C142.295 48.0229 142.295 48.0222 142.295 48.0215C142.295 48.0208 142.295 48.0201 142.295 48.0195C142.295 48.0188 142.295 48.0181 142.295 48.0174C142.295 48.0167 142.295 48.0161 142.295 48.0154C142.295 48.0147 142.295 48.014 142.295 48.0134C142.295 48.0127 142.295 48.012 142.295 48.0113C142.295 48.0106 142.295 48.01 142.295 48.0093C142.295 48.0086 142.295 48.0079 142.295 48.0072C142.295 48.0066 142.295 48.0059 142.295 48.0052C142.295 48.0045 142.295 48.0039 142.295 48.0032C142.295 48.0025 142.295 48.0018 142.295 48.0012C142.295 48.0005 142.295 47.9998 142.295 47.9991C142.295 47.9985 142.295 47.9978 142.295 47.9971C142.295 47.9964 142.295 47.9957 142.295 47.9951C142.295 47.9944 142.295 47.9937 142.295 47.993C142.295 47.9924 142.295 47.9917 142.295 47.991C142.295 47.9903 142.295 47.9897 142.295 47.989C142.295 47.9883 142.295 47.9876 142.295 47.987C142.295 47.9863 142.295 47.9856 142.295 47.9849C142.295 47.9843 142.295 47.9836 142.295 47.9829C142.295 47.9822 142.295 47.9816 142.295 47.9809C142.295 47.9802 142.295 47.9795 142.295 47.9789C142.295 47.9782 142.295 47.9775 142.295 47.9769C142.295 47.9762 142.295 47.9755 142.295 47.9748C142.295 47.9742 142.295 47.9735 142.295 47.9728C142.295 47.9721 142.295 47.9715 142.295 47.9708C142.295 47.9701 142.295 47.9694 142.295 47.9688C142.295 47.9681 142.295 47.9674 142.295 47.9668C142.295 47.9661 142.295 47.9654 142.295 47.9647C142.295 47.9641 142.295 47.9634 142.295 47.9627C142.295 47.9621 142.295 47.9614 142.295 47.9607C142.295 47.96 142.295 47.9594 142.295 47.9587C142.295 47.958 142.295 47.9574 142.295 47.9567C142.295 47.956 142.295 47.9553 142.295 47.9547C142.295 47.954 142.295 47.9533 142.295 47.9527C142.295 47.952 142.295 47.9513 142.295 47.9506C142.295 47.95 142.295 47.9493 142.295 47.9486C142.295 47.948 142.295 47.9473 142.295 47.9466C142.295 47.946 142.295 47.9453 142.295 47.9446C142.295 47.9439 142.295 47.9433 142.295 47.9426C142.295 47.9419 142.295 47.9413 142.295 47.9406C142.295 47.9399 142.295 47.9393 142.295 47.9386C142.295 47.9379 142.295 47.9372 142.295 47.9366C142.295 47.9359 142.295 47.9352 142.295 47.9346C142.295 47.9339 142.295 47.9332 142.295 47.9326C142.295 47.9319 142.295 47.9312 142.295 47.9306C142.295 47.9299 142.295 47.9292 142.295 47.9286C142.295 47.9279 142.295 47.9272 142.295 47.9266C142.295 47.9259 142.295 47.9252 142.295 47.9246C142.295 47.9239 142.295 47.9232 142.295 47.9226C142.295 47.9219 142.295 47.9212 142.295 47.9206C142.295 47.9199 142.295 47.9192 142.295 47.9186C142.295 47.9179 142.295 47.9172 142.295 47.9166C142.295 47.9159 142.295 47.9152 142.295 47.9146C142.295 47.9139 142.295 47.9132 142.295 47.9126C142.295 47.9119 142.295 47.9112 142.295 47.9106C142.295 47.9099 142.295 47.9092 142.295 47.9086C142.295 47.9079 142.295 47.9072 142.295 47.9066C142.295 47.9059 142.295 47.9053 142.295 47.9046C142.295 47.9039 142.295 47.9033 142.295 47.9026C142.295 47.9019 142.295 47.9013 142.295 47.9006C142.295 47.8999 142.295 47.8993 142.295 47.8986C142.295 47.8979 142.295 47.8973 142.295 47.8966C142.295 47.896 142.295 47.8953 142.295 47.8946C142.295 47.894 142.295 47.8933 142.295 47.8926C142.295 47.892 142.295 47.8913 142.295 47.8906C142.295 47.89 142.295 47.8893 142.295 47.8887C142.295 47.888 142.295 47.8873 142.295 47.8867C142.295 47.886 142.295 47.8854 142.295 47.8847C142.295 47.884 142.295 47.8834 142.295 47.8827C142.295 47.882 142.295 47.8814 142.295 47.8807C142.295 47.8801 142.295 47.8794 142.295 47.8787C142.295 47.8781 142.295 47.8774 142.295 47.8768C142.295 47.8761 142.295 47.8754 142.295 47.8748C142.295 47.8741 142.295 47.8735 142.295 47.8728C142.295 47.8721 142.295 47.8715 142.295 47.8708C142.295 47.8701 142.295 47.8695 142.295 47.8688C142.295 47.8682 142.295 47.8675 142.295 47.8668C142.295 47.8662 142.295 47.8655 142.295 47.8649C142.295 47.8642 142.295 47.8635 142.295 47.8629C142.295 47.8622 142.295 47.8616 142.295 47.8609C142.295 47.8603 142.295 47.8596 142.295 47.8589C142.295 47.8583 142.295 47.8576 142.295 47.857C142.295 47.8563 142.295 47.8556 142.295 47.855C142.295 47.8543 142.295 47.8537 142.295 47.853C142.295 47.8524 142.295 47.8517 142.295 47.851C142.295 47.8504 142.295 47.8497 142.295 47.8491C142.295 47.8484 142.295 47.8477 142.295 47.8471C142.295 47.8464 142.295 47.8458 142.295 47.8451C142.295 47.8445 142.295 47.8438 142.295 47.8432C142.295 47.8425 142.295 47.8418 142.295 47.8412C142.295 47.8405 142.295 47.8399 142.295 47.8392C142.295 47.8386 142.295 47.8379 142.295 47.8372C142.295 47.8366 142.295 47.8359 142.295 47.8353C142.295 47.8346 142.295 47.834 142.295 47.8333C142.295 47.8327 142.295 47.832 142.295 47.8313C142.295 47.8307 142.295 47.83 142.295 47.8294C142.295 47.8287 142.295 47.8281 142.295 47.8274C142.295 47.8268 142.295 47.8261 142.295 47.8255C142.295 47.8248 142.295 47.8241 142.295 47.8235C142.295 47.8228 142.295 47.8222 142.295 47.8215C142.295 47.8209 142.295 47.8202 142.295 47.8196C142.295 47.8189 142.295 47.8183 142.295 47.8176C142.295 47.817 142.295 47.8163 142.295 47.8157C142.295 47.815 142.295 47.8143 142.295 47.8137C142.295 47.813 142.295 47.8124 142.295 47.8117C142.295 47.8111 142.295 47.8104 142.295 47.8098C142.295 47.8091 142.295 47.8085 142.295 47.8078C142.295 47.8072 142.295 47.8065 142.295 47.8059C142.295 47.8052 142.295 47.8046 142.295 47.8039C142.295 47.8033 142.295 47.8026 142.295 47.802C142.295 47.8013 142.295 47.8007 142.295 47.8H138.295ZM140.295 46.9H94.5952V50.9H140.295V46.9ZM96.5952 48.9V43.6H92.5952V48.9H96.5952ZM94.5952 45.6H136.495V41.6H94.5952V45.6ZM135.295 42L132.495 44.1L134.895 47.3L137.695 45.2L135.295 42ZM135.695 45.7C135.695 41.5982 134.793 37.883 132.934 34.612L129.456 36.588C130.931 39.1836 131.695 42.2018 131.695 45.7H135.695ZM132.96 34.6588C131.196 31.3515 128.746 28.743 125.618 26.8814L123.572 30.3186C126.045 31.7903 127.994 33.8485 129.431 36.5412L132.96 34.6588ZM125.618 26.8814C122.471 25.0083 118.876 24.1 114.895 24.1V28.1C118.248 28.1 121.119 28.8584 123.572 30.3186L125.618 26.8814ZM114.895 24.1C110.973 24.1 107.388 25.0118 104.19 26.871L106.2 30.329C108.736 28.8549 111.617 28.1 114.895 28.1V24.1ZM104.19 26.871C100.993 28.7295 98.5008 31.3395 96.7305 34.6588L100.26 36.5412C101.69 33.8605 103.664 31.8038 106.2 30.329L104.19 26.871ZM96.7305 34.6588C94.9559 37.9862 94.0952 41.7506 94.0952 45.9H98.0952C98.0952 42.3161 98.8345 39.2138 100.26 36.5412L96.7305 34.6588ZM94.0952 45.9V47H98.0952V45.9H94.0952ZM94.0952 47C94.0952 51.2974 95.0291 55.1784 96.9541 58.5841L100.436 56.6159C98.8946 53.8882 98.0952 50.7026 98.0952 47H94.0952ZM96.9802 58.629C98.9658 61.9382 101.693 64.5505 105.127 66.4501L107.063 62.9499C104.23 61.3828 102.025 59.2617 100.41 56.571L96.9802 58.629ZM105.171 66.4738C108.691 68.3071 112.648 69.2 116.995 69.2V65.2C113.209 65.2 109.899 64.4263 107.019 62.9262L105.171 66.4738ZM116.995 69.2C120.437 69.2 123.666 68.5895 126.661 67.3475L125.129 63.6525C122.658 64.6772 119.954 65.2 116.995 65.2V69.2ZM126.646 67.3539C129.747 66.0984 132.409 64.1734 134.614 61.6016L131.577 58.9984C129.781 61.0933 127.643 62.6349 125.145 63.6461L126.646 67.3539ZM131.586 61.6124L135.586 66.2124L138.604 63.5876L134.604 58.9876L131.586 61.6124ZM135.559 63.6196C133.443 66.1588 130.778 68.1038 127.528 69.4528L129.062 73.1472C132.879 71.5629 136.081 69.2412 138.632 66.1804L135.559 63.6196ZM127.516 69.4581C124.323 70.809 120.759 71.5 116.795 71.5V75.5C121.232 75.5 125.334 74.7244 129.074 73.1419L127.516 69.4581ZM231.547 22.5L230.608 24.2657L230.63 24.2776L230.652 24.2889L231.547 22.5ZM238.947 29.9L237.172 30.8227L237.18 30.8366L237.187 30.8503L238.947 29.9ZM241.647 73V75H243.647V73H241.647ZM234.547 73H232.547V75H234.547V73ZM230.547 30.7L229.065 32.0436L229.082 32.0617L229.099 32.0793L230.547 30.7ZM210.047 28.7L211.029 30.442L211.037 30.4379L211.044 30.4338L210.047 28.7ZM203.947 35.2L202.166 34.289L202.162 34.2973L202.158 34.3056L203.947 35.2ZM201.847 73V75H203.847V73H201.847ZM194.747 73H192.747V75H194.747V73ZM190.747 30.7L189.282 32.0622L189.29 32.0708L189.299 32.0793L190.747 30.7ZM170.247 28.7L171.211 30.4524L171.227 30.4433L171.244 30.4338L170.247 28.7ZM164.047 35.2L162.266 34.289L162.262 34.2973L162.258 34.3056L164.047 35.2ZM161.947 73V75H163.947V73H161.947ZM154.847 73H152.847V75H154.847V73ZM154.847 20.5V18.5H152.847V20.5H154.847ZM161.647 20.5H163.647V18.5H161.647V20.5ZM161.647 34.7L159.816 35.5055L163.647 34.7H161.647ZM160.547 32.2L158.704 31.4239L158.369 32.2174L158.716 33.0055L160.547 32.2ZM168.247 23.3L169.281 25.0122L169.29 25.0066L168.247 23.3ZM194.047 23.9L192.876 25.5214L192.886 25.5285L192.896 25.5356L194.047 23.9ZM201.047 35.4L200.315 37.2615L203.757 38.6136L203.005 34.9931L201.047 35.4ZM198.247 34.3L196.365 33.6236L195.708 35.4513L197.515 36.1615L198.247 34.3ZM206.347 24L207.463 25.6597L207.469 25.6554L206.347 24ZM220.447 22C224.452 22 227.816 22.7811 230.608 24.2657L232.486 20.7343C229.01 18.8856 224.975 18 220.447 18V22ZM230.652 24.2889C233.455 25.6904 235.623 27.8437 237.172 30.8227L240.721 28.9773C238.804 25.2896 236.038 22.5096 232.441 20.7111L230.652 24.2889ZM237.187 30.8503C238.785 33.8098 239.647 37.6576 239.647 42.5H243.647C243.647 37.2091 242.708 32.6569 240.707 28.9497L237.187 30.8503ZM239.647 42.5V73H243.647V42.5H239.647ZM241.647 71H234.547V75H241.647V71ZM236.547 73V43.2H232.547V73H236.547ZM236.547 43.2C236.547 37.3743 235.144 32.6267 231.995 29.3207L229.099 32.0793C231.283 34.3733 232.547 37.959 232.547 43.2H236.547ZM232.028 29.3564C228.961 25.9747 224.665 24.4 219.447 24.4V28.4C223.828 28.4 226.932 29.692 229.065 32.0436L232.028 29.3564ZM219.447 24.4C215.557 24.4 212.068 25.2308 209.05 26.9662L211.044 30.4338C213.359 29.1026 216.137 28.4 219.447 28.4V24.4ZM209.064 26.958C206.095 28.6327 203.797 31.1019 202.166 34.289L205.727 36.1109C207.03 33.5648 208.798 31.7006 211.029 30.442L209.064 26.958ZM202.158 34.3056C200.586 37.4495 199.847 41.1732 199.847 45.4H203.847C203.847 41.6268 204.508 38.5505 205.736 36.0944L202.158 34.3056ZM199.847 45.4V73H203.847V45.4H199.847ZM201.847 71H194.747V75H201.847V71ZM196.747 73V43.2H192.747V73H196.747ZM196.747 43.2C196.747 37.3743 195.344 32.6267 192.195 29.3207L189.299 32.0793C191.483 34.3733 192.747 37.959 192.747 43.2H196.747ZM192.211 29.3378C189.083 25.9751 184.767 24.4 179.547 24.4V28.4C183.926 28.4 187.077 29.6916 189.282 32.0622L192.211 29.3378ZM179.547 24.4C175.716 24.4 172.262 25.2339 169.25 26.9662L171.244 30.4338C173.564 29.0994 176.311 28.4 179.547 28.4V24.4ZM169.283 26.9476C166.245 28.6183 163.904 31.0884 162.266 34.289L165.827 36.1109C167.123 33.5783 168.915 31.715 171.211 30.4524L169.283 26.9476ZM162.258 34.3056C160.686 37.4495 159.947 41.1732 159.947 45.4H163.947C163.947 41.6268 164.608 38.5505 165.836 36.0944L162.258 34.3056ZM159.947 45.4V73H163.947V45.4H159.947ZM161.947 71H154.847V75H161.947V71ZM156.847 73V20.5H152.847V73H156.847ZM154.847 22.5H161.647V18.5H154.847V22.5ZM159.647 20.5V34.7H163.647V20.5H159.647ZM163.477 33.8945L162.377 31.3945L158.716 33.0055L159.816 35.5055L163.477 33.8945ZM162.39 32.9761C163.826 29.5663 166.109 26.9271 169.281 25.0121L167.213 21.5879C163.318 23.9395 160.468 27.2337 158.704 31.4239L162.39 32.9761ZM169.29 25.0066C172.53 23.0264 176.391 22 180.947 22V18C175.77 18 171.164 19.1736 167.204 21.5934L169.29 25.0066ZM180.947 22C185.728 22 189.668 23.2045 192.876 25.5214L195.218 22.2786C191.226 19.3955 186.433 18 180.947 18V22ZM192.896 25.5356C196.003 27.7224 198.104 31.0699 199.089 35.8069L203.005 34.9931C201.856 29.4635 199.29 25.1443 195.198 22.2644L192.896 25.5356ZM201.778 33.5385L198.978 32.4385L197.515 36.1615L200.315 37.2615L201.778 33.5385ZM200.129 34.9764C201.514 31.1225 203.939 28.029 207.463 25.6597L205.231 22.3403C201.021 25.171 198.046 28.9442 196.365 33.6236L200.129 34.9764ZM207.469 25.6554C211.023 23.2457 215.318 22 220.447 22V18C214.642 18 209.537 19.4209 205.224 22.3446L207.469 25.6554ZM268.601 70.1L267.594 71.8276L267.611 71.8374L267.628 71.847L268.601 70.1ZM259.101 60.6L257.367 61.5953L257.37 61.6016L257.374 61.6077L259.101 60.6ZM259.101 32.8L257.374 31.7923L259.101 32.8ZM268.601 23.4L269.587 25.14L268.601 23.4ZM296.101 23.4L295.115 25.1401L295.128 25.147L296.101 23.4ZM305.601 32.8L303.861 33.786L303.868 33.7969L303.874 33.8077L305.601 32.8ZM305.601 60.6L303.867 59.6046L303.861 59.614L305.601 60.6ZM296.101 70.1L297.075 71.847L297.086 71.8409L297.097 71.8347L296.101 70.1ZM292.401 64.7L293.389 66.4389L293.404 66.4305L293.419 66.4219L292.401 64.7ZM299.301 57.5L297.551 56.5319L297.548 56.5384L297.544 56.545L299.301 57.5ZM299.301 35.9L297.544 36.855L297.552 36.8696L297.56 36.8841L299.301 35.9ZM292.401 28.8L291.384 30.5219L291.399 30.5305L291.413 30.5389L292.401 28.8ZM272.401 28.8L273.389 30.5389L273.404 30.5305L273.419 30.5219L272.401 28.8ZM265.401 35.9L267.143 36.8841L265.401 35.9ZM265.401 57.5L263.651 58.4681L263.656 58.4761L263.66 58.4841L265.401 57.5ZM272.401 64.7L271.384 66.4219L271.399 66.4305L271.413 66.4389L272.401 64.7ZM282.301 71.5C277.545 71.5 273.318 70.4393 269.575 68.353L267.628 71.847C272.018 74.294 276.925 75.5 282.301 75.5V71.5ZM269.609 68.3724C265.907 66.2129 262.989 63.2943 260.829 59.5923L257.374 61.6077C259.881 65.9057 263.296 69.3204 267.594 71.8276L269.609 68.3724ZM260.836 59.6047C258.695 55.8731 257.601 51.5898 257.601 46.7H253.601C253.601 52.2102 254.841 57.1936 257.367 61.5953L260.836 59.6047ZM257.601 46.7C257.601 41.7379 258.698 37.4618 260.829 33.8077L257.374 31.7923C254.839 36.1382 253.601 41.1287 253.601 46.7H257.601ZM260.829 33.8077C262.986 30.1108 265.897 27.2311 269.587 25.14L267.615 21.66C263.306 24.1022 259.884 27.4892 257.374 31.7923L260.829 33.8077ZM269.587 25.14C273.253 23.063 277.473 22 282.301 22V18C276.864 18 271.95 19.2037 267.615 21.66L269.587 25.14ZM282.301 22C287.202 22 291.454 23.0651 295.115 25.14L297.087 21.66C292.749 19.2015 287.801 18 282.301 18V22ZM295.128 25.147C298.878 27.2374 301.778 30.1094 303.861 33.786L307.342 31.814C304.892 27.4906 301.458 24.0959 297.075 21.653L295.128 25.147ZM303.874 33.8077C306.005 37.4618 307.101 41.7379 307.101 46.7H311.101C311.101 41.1287 309.864 36.1382 307.329 31.7923L303.874 33.8077ZM307.101 46.7C307.101 51.5898 306.008 55.8731 303.867 59.6047L307.336 61.5953C309.862 57.1936 311.101 52.2102 311.101 46.7H307.101ZM303.861 59.614C301.775 63.2958 298.868 66.2066 295.106 68.3653L297.097 71.8347C301.468 69.3268 304.895 65.9042 307.342 61.586L303.861 59.614ZM295.128 68.353C291.389 70.4372 287.13 71.5 282.301 71.5V75.5C287.74 75.5 292.681 74.2962 297.075 71.847L295.128 68.353ZM282.301 69.2C286.403 69.2 290.118 68.2975 293.389 66.4389L291.413 62.9611C288.818 64.4359 285.8 65.2 282.301 65.2V69.2ZM293.419 66.4219C296.672 64.4998 299.224 61.8314 301.059 58.455L297.544 56.545C296.046 59.302 293.998 61.4335 291.384 62.9781L293.419 66.4219ZM301.052 58.4681C302.97 55.0002 303.901 51.0587 303.901 46.7H299.901C299.901 50.4746 299.1 53.7332 297.551 56.5319L301.052 58.4681ZM303.901 46.7C303.901 42.2819 302.973 38.3311 301.043 34.9159L297.56 36.8841C299.097 39.6022 299.901 42.8514 299.901 46.7H303.901ZM301.059 34.945C299.22 31.5623 296.659 28.9187 293.389 27.0611L291.413 30.5389C294.011 32.0146 296.049 34.1044 297.544 36.855L301.059 34.945ZM293.419 27.0781C290.148 25.1456 286.457 24.2 282.401 24.2V28.2C285.812 28.2 288.788 28.9878 291.384 30.5219L293.419 27.0781ZM282.401 24.2C278.346 24.2 274.655 25.1456 271.384 27.0781L273.419 30.5219C276.015 28.9878 278.991 28.2 282.401 28.2V24.2ZM271.413 27.0611C268.151 28.9146 265.564 31.5486 263.66 34.9159L267.143 36.8841C268.706 34.118 270.785 32.0187 273.389 30.5389L271.413 27.0611ZM263.66 34.9159C261.73 38.3311 260.801 42.2819 260.801 46.7H264.801C264.801 42.8514 265.606 39.6022 267.143 36.8841L263.66 34.9159ZM260.801 46.7C260.801 51.0587 261.733 55.0002 263.651 58.4681L267.152 56.5319C265.603 53.7332 264.801 50.4746 264.801 46.7H260.801ZM263.66 58.4841C265.56 61.845 268.138 64.504 271.384 66.4219L273.419 62.9781C270.798 61.4293 268.71 59.2883 267.143 56.5159L263.66 58.4841ZM271.413 66.4389C274.674 68.2914 278.319 69.2 282.301 69.2V65.2C278.95 65.2 275.996 64.442 273.389 62.9611L271.413 66.4389ZM358.497 71.7L357.492 73.429L358.497 71.7ZM351.697 64.9L349.941 65.8577L349.954 65.8817L349.968 65.9052L351.697 64.9ZM347.997 15L349.719 13.9825V13.9825L347.997 15ZM344.497 11.5L343.479 13.2219V13.2219L344.497 11.5ZM334.897 11.5L333.879 9.77814L333.862 9.78862L333.844 9.79947L334.897 11.5ZM331.497 15L329.775 13.9825L329.757 14.0121L329.741 14.0423L331.497 15ZM330.297 73V75H332.297V73H330.297ZM320.697 73H318.697V75H320.697V73ZM323.097 11.3L321.341 10.3423V10.3423L323.097 11.3ZM329.797 4.39999L330.802 6.12901L330.817 6.12036L330.832 6.11146L329.797 4.39999ZM349.697 4.39999L348.662 6.11146L348.677 6.12036L348.692 6.12901L349.697 4.39999ZM356.397 11.3L358.153 10.3423L356.397 11.3ZM360.097 61L358.375 62.0175L358.385 62.0352L358.396 62.0527L360.097 61ZM363.497 64.4L362.444 66.1005L362.462 66.1114L362.479 66.1219L363.497 64.4ZM372.797 64.4L371.744 62.6995L372.797 64.4ZM376.097 61L374.375 59.9825L374.368 59.9951L374.36 60.0077L376.097 61ZM379.797 11.3L378.058 10.312L378.049 10.3271L378.041 10.3423L379.797 11.3ZM386.597 4.39999L387.602 6.12901L387.617 6.12036L387.632 6.11146L386.597 4.39999ZM406.497 4.39999L405.462 6.11146L405.477 6.12036L405.492 6.12901L406.497 4.39999ZM413.197 11.3L414.953 10.3423L413.197 11.3ZM415.597 73V75H417.597V73H415.597ZM405.997 73H403.997V75H405.997V73ZM404.697 15L402.941 15.9577L402.957 15.9879L402.975 16.0175L404.697 15ZM401.297 11.5L400.244 13.2005L400.262 13.2114L400.279 13.2219L401.297 11.5ZM391.697 11.5L390.679 9.77814L390.662 9.78862L390.644 9.79947L391.697 11.5ZM384.497 64.9L382.758 63.912L382.754 63.9186L382.75 63.9253L384.497 64.9ZM377.797 71.7L376.792 69.971L376.783 69.9762L376.774 69.9814L377.797 71.7ZM368.197 72.2C364.919 72.2 362.038 71.4451 359.502 69.971L357.492 73.429C360.689 75.2882 364.275 76.2 368.197 76.2V72.2ZM359.502 69.971C356.935 68.4787 354.918 66.4615 353.426 63.8948L349.968 65.9052C351.809 69.0719 354.325 71.588 357.492 73.429L359.502 69.971ZM353.453 63.9423C352.036 61.346 351.297 58.285 351.297 54.7H347.297C347.297 58.8483 348.157 62.5873 349.941 65.8577L353.453 63.9423ZM351.297 54.7V19.9H347.297V54.7H351.297ZM351.297 19.9C351.297 17.7631 350.778 15.775 349.719 13.9825L346.275 16.0175C346.949 17.1583 347.297 18.4368 347.297 19.9H351.297ZM349.719 13.9825C348.68 12.2254 347.271 10.8164 345.514 9.77814L343.479 13.2219C344.656 13.9169 345.58 14.8412 346.275 16.0175L349.719 13.9825ZM345.514 9.77814C343.734 8.72607 341.781 8.2 339.697 8.2V12.2C341.079 12.2 342.326 12.5406 343.479 13.2219L345.514 9.77814ZM339.697 8.2C337.612 8.2 335.66 8.72607 333.879 9.77814L335.914 13.2219C337.067 12.5406 338.315 12.2 339.697 12.2V8.2ZM333.844 9.79947C332.159 10.8424 330.8 12.2474 329.775 13.9825L333.219 16.0175C333.927 14.8192 334.834 13.8909 335.949 13.2005L333.844 9.79947ZM329.741 14.0423C328.768 15.8253 328.297 17.792 328.297 19.9H332.297C332.297 18.408 332.625 17.1081 333.253 15.9577L329.741 14.0423ZM328.297 19.9V73H332.297V19.9H328.297ZM330.297 71H320.697V75H330.297V71ZM322.697 73V21.2H318.697V73H322.697ZM322.697 21.2C322.697 17.8346 323.428 14.8693 324.853 12.2577L321.341 10.3423C319.566 13.5973 318.697 17.232 318.697 21.2H322.697ZM324.853 12.2577C326.279 9.64263 328.254 7.6105 330.802 6.12901L328.792 2.67098C325.606 4.52283 323.115 7.0907 321.341 10.3423L324.853 12.2577ZM330.832 6.11146C333.351 4.58791 336.285 3.8 339.697 3.8V-0.200001C335.642 -0.200001 331.976 0.745415 328.762 2.68853L330.832 6.11146ZM339.697 3.8C343.182 3.8 346.148 4.59123 348.662 6.11146L350.732 2.68853C347.513 0.7421 343.811 -0.200001 339.697 -0.200001V3.8ZM348.692 6.12901C351.24 7.6105 353.215 9.64263 354.641 12.2577L358.153 10.3423C356.379 7.0907 353.887 4.52283 350.702 2.67098L348.692 6.12901ZM354.641 12.2577C356.066 14.8693 356.797 17.8346 356.797 21.2H360.797C360.797 17.232 359.928 13.5973 358.153 10.3423L354.641 12.2577ZM356.797 21.2V56H360.797V21.2H356.797ZM356.797 56C356.797 58.1893 357.309 60.2136 358.375 62.0175L361.819 59.9825C361.151 58.8531 360.797 57.544 360.797 56H356.797ZM358.396 62.0527C359.426 63.7159 360.781 65.071 362.444 66.1005L364.549 62.6995C363.413 61.9957 362.501 61.0841 361.797 59.9473L358.396 62.0527ZM362.479 66.1219C364.247 67.1664 366.164 67.7 368.197 67.7V63.7C366.896 63.7 365.68 63.367 364.514 62.6781L362.479 66.1219ZM368.197 67.7C370.231 67.7 372.129 67.1655 373.849 66.1005L371.744 62.6995C370.664 63.3679 369.496 63.7 368.197 63.7V67.7ZM373.849 66.1005C375.527 65.0623 376.864 63.688 377.833 61.9923L374.36 60.0077C373.729 61.112 372.867 62.0044 371.744 62.6995L373.849 66.1005ZM377.819 62.0175C378.885 60.2136 379.397 58.1893 379.397 56H375.397C375.397 57.544 375.042 58.8531 374.375 59.9825L377.819 62.0175ZM379.397 56V21.2H375.397V56H379.397ZM379.397 21.2C379.397 17.8346 380.128 14.8693 381.553 12.2577L378.041 10.3423C376.266 13.5973 375.397 17.232 375.397 21.2H379.397ZM381.536 12.288C383.031 9.65659 385.047 7.61467 387.602 6.12901L385.592 2.67098C382.414 4.51865 379.896 7.07674 378.058 10.312L381.536 12.288ZM387.632 6.11146C390.146 4.59123 393.111 3.8 396.597 3.8V-0.200001C392.482 -0.200001 388.781 0.7421 385.562 2.68853L387.632 6.11146ZM396.597 3.8C400.008 3.8 402.942 4.58791 405.462 6.11146L407.532 2.68853C404.318 0.745415 400.652 -0.200001 396.597 -0.200001V3.8ZM405.492 6.12901C408.04 7.6105 410.015 9.64263 411.441 12.2577L414.953 10.3423C413.179 7.0907 410.687 4.52282 407.502 2.67098L405.492 6.12901ZM411.441 12.2577C412.866 14.8693 413.597 17.8346 413.597 21.2H417.597C417.597 17.232 416.728 13.5973 414.953 10.3423L411.441 12.2577ZM413.597 21.2V73H417.597V21.2H413.597ZM415.597 71H405.997V75H415.597V71ZM407.997 73V19.9H403.997V73H407.997ZM407.997 19.9C407.997 17.7631 407.478 15.775 406.419 13.9825L402.975 16.0175C403.649 17.1583 403.997 18.4368 403.997 19.9H407.997ZM406.453 14.0423C405.476 12.2525 404.085 10.8245 402.314 9.77814L400.279 13.2219C401.442 13.9088 402.317 14.8142 402.941 15.9577L406.453 14.0423ZM402.349 9.79947C400.616 8.72652 398.682 8.2 396.597 8.2V12.2C397.979 12.2 399.177 12.5401 400.244 13.2005L402.349 9.79947ZM396.597 8.2C394.46 8.2 392.472 8.71896 390.679 9.77814L392.714 13.2219C393.855 12.5477 395.134 12.2 396.597 12.2V8.2ZM390.644 9.79947C388.959 10.8424 387.6 12.2474 386.575 13.9825L390.019 16.0175C390.727 14.8192 391.634 13.8909 392.749 13.2005L390.644 9.79947ZM386.575 13.9825C385.516 15.775 384.997 17.7631 384.997 19.9H388.997C388.997 18.4368 389.344 17.1583 390.019 16.0175L386.575 13.9825ZM384.997 19.9V54.7H388.997V19.9H384.997ZM384.997 54.7C384.997 58.2716 384.23 61.3215 382.758 63.912L386.236 65.888C388.097 62.6118 388.997 58.8618 388.997 54.7H384.997ZM382.75 63.9253C381.327 66.4753 379.351 68.4828 376.792 69.971L378.802 73.429C381.976 71.5839 384.466 69.0581 386.243 65.8747L382.75 63.9253ZM376.774 69.9814C374.315 71.445 371.475 72.2 368.197 72.2V76.2C372.118 76.2 375.679 75.2883 378.82 73.4186L376.774 69.9814ZM429.883 73H427.883V75H429.883V73ZM429.883 22V20H427.883V22H429.883ZM439.184 22H441.184V20H439.184V22ZM439.184 73V75H441.184V73H439.184ZM430.184 12.1L428.732 13.4755L428.769 13.5147L428.808 13.5519L430.184 12.1ZM430.184 3.4L428.769 1.98578L430.184 3.4ZM438.883 3.4L437.432 4.77549L437.469 4.81473L437.508 4.8519L438.883 3.4ZM438.883 12.1L437.469 10.6858L438.883 12.1ZM431.883 73V22H427.883V73H431.883ZM429.883 24H439.184V20H429.883V24ZM437.184 22V73H441.184V22H437.184ZM439.184 71H429.883V75H439.184V71ZM434.583 11.9C433.454 11.9 432.473 11.5144 431.559 10.6481L428.808 13.5519C430.427 15.0856 432.379 15.9 434.583 15.9V11.9ZM431.635 10.7245C430.769 9.81009 430.383 8.82903 430.383 7.69999H426.383C426.383 9.9043 427.198 11.8566 428.732 13.4755L431.635 10.7245ZM430.383 7.69999C430.383 6.57452 430.765 5.64681 431.598 4.81421L428.769 1.98578C427.202 3.55318 426.383 5.49214 426.383 7.69999H430.383ZM431.598 4.81421C432.52 3.89159 433.49 3.5 434.583 3.5V-0.500004C432.344 -0.500004 430.38 0.375069 428.769 1.98578L431.598 4.81421ZM434.583 3.5C435.673 3.5 436.589 3.88649 437.432 4.77549L440.335 2.02451C438.778 0.380165 436.828 -0.500004 434.583 -0.500004V3.5ZM437.508 4.8519C438.397 5.6941 438.784 6.61079 438.784 7.69999H442.784C442.784 5.45586 441.903 3.50589 440.259 1.94809L437.508 4.8519ZM438.784 7.69999C438.784 8.79391 438.392 9.76316 437.469 10.6858L440.298 13.5142C441.908 11.9035 442.784 9.93942 442.784 7.69999H438.784ZM437.469 10.6858C436.637 11.5184 435.709 11.9 434.583 11.9V15.9C436.791 15.9 438.73 15.0816 440.298 13.5142L437.469 10.6858ZM453.712 73H451.712V75H453.712V73ZM456.712 31.6L455.003 30.5612L454.995 30.5735L454.988 30.586L456.712 31.6ZM465.212 23.7L466.132 25.4755L466.145 25.4688L466.158 25.462L465.212 23.7ZM489.812 23.7L488.852 25.4545L488.871 25.4652L488.891 25.4755L489.812 23.7ZM498.212 31.6L496.488 32.614L496.495 32.6265L496.503 32.6388L498.212 31.6ZM501.312 73V75H503.312V73H501.312ZM492.112 73H490.112V75H492.112V73ZM490.012 35.7L488.288 36.714L488.306 36.7442L488.324 36.7738L490.012 35.7ZM484.612 30.5L483.654 32.2558L483.665 32.2617L483.676 32.2676L484.612 30.5ZM470.312 30.5L469.376 28.7324L469.365 28.7383L469.354 28.7442L470.312 30.5ZM464.912 35.7L463.21 34.649L463.206 34.6562L463.201 34.6634L464.912 35.7ZM462.912 73V75H464.912V73H462.912ZM455.712 73V43.5H451.712V73H455.712ZM455.712 43.5C455.712 39.2692 456.642 35.6632 458.435 32.614L454.988 30.586C452.781 34.3368 451.712 38.6641 451.712 43.5H455.712ZM458.421 32.6388C460.293 29.5583 462.851 27.1769 466.132 25.4755L464.291 21.9245C460.372 23.9564 457.263 26.8417 455.003 30.5612L458.421 32.6388ZM466.158 25.462C469.432 23.7037 473.2 22.8 477.512 22.8V18.8C472.624 18.8 468.191 19.8297 464.265 21.938L466.158 25.462ZM477.512 22.8C481.896 22.8 485.656 23.7062 488.852 25.4545L490.772 21.9455C486.9 19.8272 482.46 18.8 477.512 18.8V22.8ZM488.891 25.4755C492.167 27.1741 494.684 29.5478 496.488 32.614L499.935 30.586C497.739 26.8522 494.656 23.9592 490.732 21.9245L488.891 25.4755ZM496.503 32.6388C498.354 35.684 499.312 39.2809 499.312 43.5H503.312C503.312 38.6524 502.203 34.316 499.921 30.5612L496.503 32.6388ZM499.312 43.5V73H503.312V43.5H499.312ZM501.312 71H492.112V75H501.312V71ZM494.112 73V43.6H490.112V73H494.112ZM494.112 43.6C494.112 40.221 493.337 37.2001 491.699 34.6262L488.324 36.7738C489.486 38.5999 490.112 40.8456 490.112 43.6H494.112ZM491.736 34.686C490.219 32.1085 488.15 30.1103 485.547 28.7324L483.676 32.2676C485.606 33.2897 487.137 34.7582 488.288 36.714L491.736 34.686ZM485.569 28.7442C483.072 27.3821 480.376 26.7 477.512 26.7V30.7C479.714 30.7 481.751 31.2178 483.654 32.2558L485.569 28.7442ZM477.512 26.7C474.648 26.7 471.927 27.3818 469.376 28.7324L471.247 32.2676C473.229 31.2182 475.309 30.7 477.512 30.7V26.7ZM469.354 28.7442C466.83 30.1211 464.781 32.1061 463.21 34.649L466.613 36.751C467.843 34.7606 469.394 33.2789 471.269 32.2558L469.354 28.7442ZM463.201 34.6634C461.645 37.2314 460.912 40.2386 460.912 43.6H464.912C464.912 40.8281 465.512 38.5686 466.622 36.7366L463.201 34.6634ZM460.912 43.6V73H464.912V43.6H460.912ZM462.912 71H453.712V75H462.912V71ZM528.819 72.4L528.083 74.2596L528.099 74.2663L528.116 74.2727L528.819 72.4ZM520.519 66.9L519.085 68.2942L520.519 66.9ZM515.019 58.3L513.144 58.9982L513.153 59.0206L513.162 59.0428L515.019 58.3ZM516.319 33.1L514.573 32.1237L514.568 32.1338L516.319 33.1ZM525.219 24L524.24 22.256L524.233 22.2598L524.226 22.2635L525.219 24ZM545.319 22.1L544.622 23.9749L544.631 23.978L544.639 23.9811L545.319 22.1ZM556.119 31.1L554.341 32.0173L554.9 33.1H556.119V31.1ZM556.319 31.1V33.1H558.319V31.1H556.319ZM556.319 0V-2H554.319V0H556.319ZM565.519 0H567.519V-2H565.519V0ZM562.019 61.8L560.284 60.8046L560.279 60.814L562.019 61.8ZM552.719 71L551.765 69.2419L551.759 69.2454L551.753 69.2488L552.719 71ZM547.919 64L546.883 62.289L547.919 64ZM553.919 57.5L552.164 56.5394L552.156 56.5556L552.147 56.572L553.919 57.5ZM553.919 37.6L552.138 38.5109L552.151 38.536L552.164 38.5606L553.919 37.6ZM547.919 31L546.883 32.711L547.919 31ZM530.719 31.1L529.67 29.3967L529.661 29.4028L529.651 29.409L530.719 31.1ZM524.619 37.7L522.864 36.7394L522.856 36.7556L522.847 36.772L524.619 37.7ZM524.719 57.5L522.964 58.4606L524.719 57.5ZM530.819 64L529.783 65.711L529.793 65.7169L529.803 65.7227L530.819 64ZM539.419 72.2C535.761 72.2 532.469 71.6328 529.521 70.5273L528.116 74.2727C531.568 75.5672 535.343 76.2 539.419 76.2V72.2ZM529.555 70.5404C526.61 69.3748 524.083 67.6973 521.953 65.5058L519.085 68.2942C521.621 70.9027 524.627 72.8919 528.083 74.2596L529.555 70.5404ZM521.953 65.5058C519.814 63.3065 518.119 60.6657 516.876 57.5572L513.162 59.0428C514.585 62.601 516.556 65.6935 519.085 68.2942L521.953 65.5058ZM516.893 57.6018C515.721 54.4574 515.119 50.8986 515.119 46.9H511.119C511.119 51.3014 511.783 55.3426 513.144 58.9982L516.893 57.6018ZM515.119 46.9C515.119 41.8347 516.13 37.5813 518.07 34.0662L514.568 32.1338C512.24 36.352 511.119 41.2986 511.119 46.9H515.119ZM518.064 34.0763C520.096 30.4441 522.809 27.6807 526.211 25.7365L524.226 22.2635C520.162 24.586 516.942 27.8892 514.573 32.1237L518.064 34.0763ZM526.198 25.744C529.678 23.7904 533.57 22.8 537.919 22.8V18.8C532.934 18.8 528.36 19.943 524.24 22.256L526.198 25.744ZM537.919 22.8C540.292 22.8 542.522 23.1946 544.622 23.9749L546.015 20.2252C543.449 19.2721 540.746 18.8 537.919 18.8V22.8ZM544.639 23.9811C546.837 24.7747 548.768 25.8648 550.449 27.2455L552.988 24.1545C550.936 22.4685 548.6 21.1586 545.998 20.2189L544.639 23.9811ZM550.449 27.2455C552.114 28.6129 553.404 30.2017 554.341 32.0173L557.896 30.1827C556.7 27.8649 555.057 25.8537 552.988 24.1545L550.449 27.2455ZM556.119 33.1H556.319V29.1H556.119V33.1ZM558.319 31.1V0H554.319V31.1H558.319ZM556.319 2H565.519V-2H556.319V2ZM563.519 0V47.2H567.519V0H563.519ZM563.519 47.2C563.519 52.5901 562.411 57.0983 560.284 60.8047L563.753 62.7953C566.293 58.3683 567.519 53.1432 567.519 47.2H563.519ZM560.279 60.814C558.191 64.4975 555.36 67.2923 551.765 69.2419L553.672 72.7581C557.944 70.441 561.313 67.1025 563.759 62.786L560.279 60.814ZM551.753 69.2488C548.219 71.1984 544.126 72.2 539.419 72.2V76.2C544.711 76.2 549.485 75.0683 553.685 72.7512L551.753 69.2488ZM539.419 68.3C542.895 68.3 546.09 67.4445 548.954 65.711L546.883 62.289C544.68 63.6221 542.209 64.3 539.419 64.3V68.3ZM548.954 65.711C551.821 63.9759 554.066 61.5286 555.69 58.428L552.147 56.572C550.838 59.0714 549.083 60.9575 546.883 62.289L548.954 65.711ZM555.673 58.4606C557.396 55.3148 558.219 51.6719 558.219 47.6H554.219C554.219 51.1281 553.508 54.0852 552.164 56.5394L555.673 58.4606ZM558.219 47.6C558.219 43.468 557.398 39.79 555.673 36.6394L552.164 38.5606C553.506 41.0099 554.219 43.9986 554.219 47.6H558.219ZM555.699 36.689C554.079 33.5217 551.833 31.0314 548.954 29.289L546.883 32.711C549.071 34.0353 550.825 35.945 552.138 38.5109L555.699 36.689ZM548.954 29.289C546.083 27.5514 542.853 26.7 539.319 26.7V30.7C542.184 30.7 544.687 31.3819 546.883 32.711L548.954 29.289ZM539.319 26.7C535.826 26.7 532.594 27.5974 529.67 29.3967L531.767 32.8033C534.043 31.4026 536.545 30.7 539.319 30.7V26.7ZM529.651 29.409C526.812 31.2022 524.55 33.6618 522.864 36.7394L526.373 38.6606C527.754 36.1382 529.559 34.1978 531.787 32.791L529.651 29.409ZM522.847 36.772C521.205 39.906 520.419 43.5018 520.419 47.5H524.419C524.419 44.0315 525.099 41.094 526.39 38.628L522.847 36.772ZM520.419 47.5C520.419 51.632 521.239 55.31 522.964 58.4606L526.473 56.5394C525.132 54.09 524.419 51.1014 524.419 47.5H520.419ZM522.964 58.4606C524.653 61.5448 526.925 63.981 529.783 65.711L531.854 62.289C529.646 60.9523 527.851 59.0552 526.473 56.5394L522.964 58.4606ZM529.803 65.7227C532.723 67.4447 535.942 68.3 539.419 68.3V64.3C536.628 64.3 534.115 63.622 531.835 62.2773L529.803 65.7227Z" fill="black"/>
</svg>
