<svg width="440" height="455" viewBox="0 0 440 455" fill="none" xmlns="http://www.w3.org/2000/svg">
<g clip-path="url(#clip0_140_287)">
<rect width="440" height="455" rx="8" fill="#E0E0E0"/>
<g filter="url(#filter0_d_140_287)">
<path d="M423.971 43.5742C434.605 37.4226 415.593 24.563 404.749 17.8966C393.906 11.2301 371.626 14.9552 392.358 37.2485C413.091 59.5418 414.144 53.0247 412.08 46.9794C417.444 51.5242 422.858 54.9599 425.465 53.4244C430.138 50.6727 426.416 45.711 423.971 43.5742Z" fill="#D0FF6C"/>
<path d="M423.971 43.5742C434.605 37.4226 415.593 24.563 404.749 17.8966C393.906 11.2301 371.626 14.9552 392.358 37.2485C413.091 59.5418 414.144 53.0247 412.08 46.9794M423.971 43.5742L407.263 28.7489M423.971 43.5742C426.416 45.711 430.138 50.6727 425.465 53.4244C422.858 54.9599 417.444 51.5242 412.08 46.9794M412.08 46.9794C407.831 43.3797 403.613 39.0841 400.846 36.012L412.08 46.9794Z" stroke="black" stroke-width="2" stroke-linecap="round" stroke-linejoin="round"/>
<path d="M416.686 136.401L342.987 81.3235C307.849 104.107 279.685 13.1617 312.195 12.5987C351.483 11.9183 398.309 15.8672 439.275 -30.4796C480.241 -76.8265 504.374 65.9805 436.737 43.4803C382.628 25.4802 379.605 53.3443 384.857 69.5264L416.686 136.401Z" fill="#D0FF6C" stroke="black" stroke-width="2"/>
<path d="M384.511 70.143C373.697 52.4113 352.734 70.4387 343.604 81.669L416.686 136.4C410.467 121.703 395.326 87.8748 384.511 70.143Z" fill="#FFDA3D" stroke="black" stroke-width="2"/>
<path d="M325.024 72.8783C325.607 76.1771 328.361 80.6652 334.71 72.2269C342.647 61.6792 322.447 63.7341 325.024 72.8783Z" fill="#F0F0F0" stroke="black" stroke-width="2"/>
<path d="M311.577 56.3333C312.16 59.6321 318.651 68.4224 323.844 57.6272C328.757 47.4116 309 47.1891 311.577 56.3333Z" fill="#F0F0F0" stroke="black" stroke-width="2"/>
<path d="M415.046 134.265C404.859 115.318 381.052 77.0398 367.322 75.506" stroke="black" stroke-width="2"/>
<circle cx="332.379" cy="71.3258" r="2" transform="rotate(-105.736 332.379 71.3258)" fill="black"/>
<circle cx="320.339" cy="58.0951" r="2" transform="rotate(-105.736 320.339 58.0951)" fill="black"/>
<path d="M450.445 39.8618C462.148 33.0923 441.225 18.941 429.293 11.6048C417.36 4.26874 392.842 8.36802 415.657 32.9007C438.472 57.4335 439.632 50.2616 437.359 43.6091C443.263 48.6104 449.221 52.3912 452.09 50.7015C457.231 47.6733 453.136 42.2133 450.445 39.8618Z" fill="#D0FF6C"/>
<path d="M450.445 39.8618C462.148 33.0923 441.225 18.941 429.293 11.6048C417.36 4.26874 392.842 8.36802 415.657 32.9007C438.472 57.4335 439.632 50.2616 437.359 43.6091M450.445 39.8618L432.059 23.5473M450.445 39.8618C453.136 42.2133 457.231 47.6733 452.09 50.7015C449.221 52.3912 443.263 48.6104 437.359 43.6091M437.359 43.6091C432.683 39.6478 428.042 34.9207 424.998 31.5401L437.359 43.6091Z" stroke="black" stroke-width="2" stroke-linecap="round" stroke-linejoin="round"/>
<path d="M308.111 69.8522C295.92 76.0095 278.495 80.5545 294.035 63.3294C285.057 61.4093 273.68 56.454 289.696 50.4476C266.445 40.7044 284.246 36.4781 296.864 35.6192L298.827 47.6869L301.068 56.1267L308.111 69.8522Z" fill="#D0FF6C"/>
<path d="M301.068 56.1267C298.208 58.8908 295.886 61.2782 294.035 63.3294M301.068 56.1267L294.035 63.3294M301.068 56.1267L308.111 69.8522C295.92 76.0095 278.495 80.5545 294.035 63.3294M301.068 56.1267L298.827 47.6869M294.035 63.3294C285.057 61.4093 273.68 56.454 289.696 50.4476M298.827 47.6869L296.864 35.6192C284.246 36.4781 266.445 40.7044 289.696 50.4476M298.827 47.6869C295.104 48.6262 292.093 49.5487 289.696 50.4476" stroke="black" stroke-width="2" stroke-linecap="round" stroke-linejoin="round"/>
<path d="M469.91 36.731C465.713 42.4848 458.067 45.0896 454.768 45.6727L451.561 39.823L454.733 36.3319L452.699 29.113L442.226 19.5967L429.482 11.2397L424.085 -15.2909L441.179 -32.055C451.666 -44.9836 463.728 -38.0622 468.448 -32.9854C483.234 -0.788689 478.036 12.1043 478.578 14.0293C479.121 15.9544 475.156 29.5387 469.91 36.731Z" fill="black" stroke="black"/>
</g>
</g>
<defs>
<filter id="filter0_d_140_287" x="262.386" y="-56.0679" width="279.008" height="214.488" filterUnits="userSpaceOnUse" color-interpolation-filters="sRGB">
<feFlood flood-opacity="0" result="BackgroundImageFix"/>
<feColorMatrix in="SourceAlpha" type="matrix" values="0 0 0 0 0 0 0 0 0 0 0 0 0 0 0 0 0 0 127 0" result="hardAlpha"/>
<feOffset dy="4"/>
<feGaussianBlur stdDeviation="7.5"/>
<feComposite in2="hardAlpha" operator="out"/>
<feColorMatrix type="matrix" values="0 0 0 0 0 0 0 0 0 0 0 0 0 0 0 0 0 0 0.25 0"/>
<feBlend mode="normal" in2="BackgroundImageFix" result="effect1_dropShadow_140_287"/>
<feBlend mode="normal" in="SourceGraphic" in2="effect1_dropShadow_140_287" result="shape"/>
</filter>
<clipPath id="clip0_140_287">
<rect width="440" height="455" fill="white"/>
</clipPath>
</defs>
</svg>
