<svg width="440" height="455" viewBox="0 0 440 455" fill="none" xmlns="http://www.w3.org/2000/svg">
<g clip-path="url(#clip0_140_288)">
<rect width="440" height="455" rx="8" fill="#E0E0E0"/>
<g filter="url(#filter0_d_140_288)">
<path d="M295.863 48.481C265.731 -12.3352 373.586 -25.5713 431.28 -24.5873C470.301 -25.9608 451.569 28.1064 433.203 37.239C409.748 48.902 370.237 39.6694 345.068 32.8023C384.745 85.2004 333.528 124.501 295.863 48.481Z" fill="#F04D64" stroke="black" stroke-width="2"/>
<path d="M350.957 41.8566C349.196 38.4792 343.451 29.4973 334.561 20.5889" stroke="black" stroke-width="2" stroke-linecap="round"/>
<path d="M312.436 27.4433C308.273 29.3479 301.823 33.6 310.831 40.0957C322.09 48.2154 326.447 25.1469 312.436 27.4433Z" fill="#EBEBEB" stroke="black" stroke-width="2" stroke-linecap="round"/>
<path d="M312.375 51.7449C308.212 53.6495 305.402 58.9096 314.41 65.4053C325.669 73.5249 322.244 55.9713 312.375 51.7449Z" fill="#EBEBEB"/>
<path d="M312.375 51.7449L311.959 50.8355C312.215 50.7182 312.509 50.7146 312.768 50.8256L312.375 51.7449ZM314.41 65.4053L313.825 66.2164L314.41 65.4053ZM312.791 52.6542C310.904 53.5172 309.528 55.0436 309.453 56.8943C309.376 58.7559 310.591 61.4184 314.995 64.5942L313.825 66.2164C309.221 62.8965 307.337 59.681 307.454 56.8125C307.572 53.9331 309.682 51.8771 311.959 50.8355L312.791 52.6542ZM314.995 64.5942C316.353 65.5732 317.428 66.1198 318.247 66.3649C319.068 66.6107 319.529 66.5264 319.773 66.4014C319.999 66.2849 320.218 66.039 320.346 65.5244C320.477 64.9981 320.487 64.2693 320.331 63.3772C320.019 61.5986 319.088 59.4012 317.63 57.3914C316.174 55.3849 314.242 53.6326 311.981 52.6641L312.768 50.8256C315.442 51.9704 317.639 53.9972 319.249 56.2169C320.857 58.4334 321.929 60.9094 322.301 63.0325C322.486 64.0913 322.507 65.1205 322.287 66.0069C322.063 66.905 321.569 67.7266 320.687 68.18C319.822 68.6248 318.782 68.6128 317.673 68.2809C316.562 67.9483 315.282 67.2673 313.825 66.2164L314.995 64.5942Z" fill="black"/>
<path d="M302.027 23.8225C297.244 26.5027 290.374 33.5193 301.157 40.1431" stroke="black" stroke-width="3" stroke-linecap="round"/>
<path d="M302.831 63.0831C299.843 61.2877 295.77 56.5035 303.389 51.7298" stroke="black" stroke-width="3" stroke-linecap="round"/>
<circle cx="2.06569" cy="2.06569" r="2.06569" transform="matrix(0.303602 0.952799 0.952799 -0.303602 347.427 68.3262)" fill="black"/>
<circle cx="2.06569" cy="2.06569" r="2.06569" transform="matrix(0.303602 0.952799 0.952799 -0.303602 312.76 36.8794)" fill="black"/>
<circle cx="2.06569" cy="2.06569" r="2.06569" transform="matrix(0.303602 0.952799 0.952799 -0.303602 313.988 62.5044)" fill="black"/>
<circle cx="2.06569" cy="2.06569" r="2.06569" transform="matrix(0.303602 0.952799 0.952799 -0.303602 346.501 79.0278)" fill="black"/>
<path d="M407.222 42.3357L403.919 -23.8208C415.563 -24.9292 440.245 -26.0299 445.831 -21.5657C451.416 -17.1014 453.363 -11.5357 453.638 -9.31085C454.708 -4.59298 454.572 8.86294 445.474 24.9436C436.376 41.0243 416.182 43.2386 407.222 42.3357Z" fill="black" stroke="black"/>
<path d="M440.644 -14.7097C457.364 -14.4006 493.369 -16.0739 503.63 -25.2404L509.776 -5.95215" stroke="black" stroke-width="2" stroke-linecap="round" stroke-linejoin="round"/>
<path d="M294.995 -17.2975L307.171 0.502975L319.82 -7.4298L303.608 -46.0584L341.076 -14.9662L362.169 -19.588L339.347 -41.4027L341.076 -14.9662L303.608 -46.0584L319.82 -7.4298L294.995 -17.2975Z" fill="black"/>
<path d="M307.171 0.502975L307.702 1.35015L306.888 1.86075L306.346 1.06756L307.171 0.502975ZM294.995 -17.2975L294.17 -16.7329L292.32 -19.4369L295.364 -18.2268L294.995 -17.2975ZM319.82 -7.4298L320.742 -7.81678L321.07 -7.0338L320.351 -6.58263L319.82 -7.4298ZM303.608 -46.0584L302.686 -45.6714C302.508 -46.0961 302.643 -46.5876 303.013 -46.8618C303.383 -47.1361 303.893 -47.1221 304.247 -46.8279L303.608 -46.0584ZM341.076 -14.9662L341.29 -13.9893L340.814 -13.8848L340.438 -14.1966L341.076 -14.9662ZM339.347 -41.4027L338.349 -41.3374L338.181 -43.9002L340.038 -42.1256L339.347 -41.4027ZM362.169 -19.588L362.86 -20.3109L364.217 -19.0132L362.383 -18.6112L362.169 -19.588ZM306.346 1.06756L294.17 -16.7329L295.82 -17.8621L307.996 -0.0616093L306.346 1.06756ZM295.364 -18.2268L320.189 -8.35908L319.45 -6.50053L294.626 -16.3682L295.364 -18.2268ZM318.897 -7.04283L302.686 -45.6714L304.53 -46.4454L320.742 -7.81678L318.897 -7.04283ZM304.247 -46.8279L341.715 -15.7357L340.438 -14.1966L302.97 -45.2888L304.247 -46.8279ZM340.079 -14.9009L338.349 -41.3374L340.345 -41.468L342.074 -15.0315L340.079 -14.9009ZM340.038 -42.1256L362.86 -20.3109L361.478 -18.8651L338.656 -40.6798L340.038 -42.1256ZM362.383 -18.6112L341.29 -13.9893L340.862 -15.943L361.955 -20.5648L362.383 -18.6112ZM320.351 -6.58263L307.702 1.35015L306.64 -0.344196L319.288 -8.27698L320.351 -6.58263Z" fill="black"/>
</g>
</g>
<defs>
<filter id="filter0_d_140_288" x="274.651" y="-58.0583" width="251.125" height="168.953" filterUnits="userSpaceOnUse" color-interpolation-filters="sRGB">
<feFlood flood-opacity="0" result="BackgroundImageFix"/>
<feColorMatrix in="SourceAlpha" type="matrix" values="0 0 0 0 0 0 0 0 0 0 0 0 0 0 0 0 0 0 127 0" result="hardAlpha"/>
<feOffset dy="4"/>
<feGaussianBlur stdDeviation="7.5"/>
<feComposite in2="hardAlpha" operator="out"/>
<feColorMatrix type="matrix" values="0 0 0 0 0 0 0 0 0 0 0 0 0 0 0 0 0 0 0.25 0"/>
<feBlend mode="normal" in2="BackgroundImageFix" result="effect1_dropShadow_140_288"/>
<feBlend mode="normal" in="SourceGraphic" in2="effect1_dropShadow_140_288" result="shape"/>
</filter>
<clipPath id="clip0_140_288">
<rect width="440" height="455" fill="white"/>
</clipPath>
</defs>
</svg>
